<svg width="32" height="32" viewBox="0 0 32 32" fill="none" xmlns="http://www.w3.org/2000/svg">
<rect x="1" y="0.84375" width="30" height="30" rx="15" fill="#FFF6F4"/>
<rect x="1" y="0.84375" width="30" height="30" rx="15" stroke="#F0F2F5"/>
<path d="M20.5 12.832C18.835 12.667 17.16 12.582 15.49 12.582C14.5 12.582 13.51 12.632 12.52 12.732L11.5 12.832" stroke="#FF3333" stroke-linecap="round" stroke-linejoin="round"/>
<path d="M14.25 12.3288L14.36 11.6738C14.44 11.1988 14.5 10.8438 15.345 10.8438H16.655C17.5 10.8438 17.565 11.2188 17.64 11.6788L17.75 12.3288" stroke="#FF3333" stroke-linecap="round" stroke-linejoin="round"/>
<path d="M19.4252 14.4141L19.1002 19.4491C19.0452 20.2341 19.0002 20.8441 17.6052 20.8441H14.3952C13.0002 20.8441 12.9552 20.2341 12.9002 19.4491L12.5752 14.4141" stroke="#FF3333" stroke-linecap="round" stroke-linejoin="round"/>
<path d="M15.165 18.0938H16.83" stroke="#FF3333" stroke-linecap="round" stroke-linejoin="round"/>
<path d="M14.75 16.0938H17.25" stroke="#FF3333" stroke-linecap="round" stroke-linejoin="round"/>
</svg>
