<svg width="160" height="47" viewBox="0 0 160 47" fill="none" xmlns="http://www.w3.org/2000/svg">
<ellipse cx="107.884" cy="23.9747" rx="1.56354" ry="1.56354" fill="white"/>
<path d="M39.9978 30.88C39.3029 32.3132 37.3137 35.1276 34.9163 34.9191C32.0498 35.8312 34.9684 42.2678 35.6981 43.5186C37.6525 43.3015 41.5092 41.9551 41.3008 38.3068C41.5092 38.0983 42.43 37.6988 42.8643 37.525V33.4859L46.5126 29.9679C47.0338 28.7518 47.3465 26.5802 44.4279 27.6226C44.0109 27.2057 42.1694 24.5824 41.3008 23.3229L40.7796 21.1078H34.9163L33.6133 20.3261V19.1534C30.7034 18.9362 24.8054 19.8831 24.4927 25.4076C23.5806 27.6226 27.281 32.5999 30.0954 29.577C30.0954 29.0559 29.1833 24.7561 33.0922 23.844C34.6123 23.4532 38.0173 23.5574 39.4766 27.1014L38.4343 26.8408L37.6525 25.9288L37.001 25.4076H35.9587L37.001 26.5802L38.0434 27.6226L38.8252 28.2741V29.3164L37.6525 29.577C36.7404 27.9266 34.2127 25.0167 31.3983 26.5802C30.7903 27.2751 30.1475 29.0037 32.4407 30.3588L32.571 31.4012L32.7013 32.4435H33.6133L34.0042 31.4012L34.9163 30.88C35.0032 30.7063 35.229 30.4109 35.4375 30.6194L36.2193 31.4012C36.2193 31.4012 37.1064 31.5238 37.6525 31.4012C38.1415 31.2914 38.8252 30.88 38.8252 30.88L39.4766 29.9679C39.8675 30.0548 40.519 30.3588 39.9978 30.88Z" fill="#663300"/>
<path d="M43.3855 39.2189C43.5158 39.1754 43.8024 39.0104 43.9067 38.6977C44.0109 38.385 44.1238 37.6119 44.1673 37.2645L45.4702 36.8736V36.2221L46.3823 36.0918V38.3068H45.7308L45.4702 39.4795H44.949V40.6521C44.949 40.6521 43.6461 41.3036 43.3855 40.6521C43.1776 40.1324 43.3855 39.2189 43.3855 39.2189Z" fill="#663300"/>
<path fill-rule="evenodd" clip-rule="evenodd" d="M48.7276 11.7266H19.2809C16.1538 11.5963 13.6782 13.681 17.3264 15.6354C20.0626 15.6354 21.7043 19.6746 17.3264 19.1534H11.5934C9.37842 19.1534 7.7367 21.8896 11.5934 22.932H19.6717C21.6262 22.932 23.1115 26.3718 19.6717 26.5802H14.5902C12.3752 26.5802 11.0723 30.3588 14.5902 30.3588C18.1082 30.3588 17.8476 35.1797 14.5902 34.2677H8.85724C6.64221 33.8768 4.94837 37.7856 8.85724 38.3068H23.32C24.7533 38.3068 25.6132 40.8606 23.32 41.6945H16.0235C13.8085 41.6945 13.7303 44.9779 16.0235 45.0822H48.8579C51.8547 44.8216 51.8547 44.6913 51.8547 39.4795L52.6365 13.681C52.6365 12.5083 52.1674 11.5181 48.7276 11.7266ZM34.9163 34.9191C37.3137 35.1276 39.3029 32.3132 39.9978 30.88C40.519 30.3588 39.8675 30.0548 39.4766 29.9679L38.8252 30.88C38.8252 30.88 38.1415 31.2914 37.6525 31.4012C37.1064 31.5238 36.2193 31.4012 36.2193 31.4012L35.4375 30.6194C35.229 30.4109 35.0032 30.7063 34.9163 30.88L34.0042 31.4012L33.6133 32.4435H32.7013L32.571 31.4012L32.4407 30.3588C30.1475 29.0037 30.7903 27.2751 31.3983 26.5802C34.2127 25.0167 36.7404 27.9266 37.6525 29.577L38.8252 29.3164V28.2741L38.0434 27.6226L37.001 26.5802L35.9587 25.4076H37.001L37.6525 25.9288L38.4343 26.8408L39.4766 27.1014C38.0173 23.5574 34.6123 23.4532 33.0922 23.844C29.1833 24.7561 30.0954 29.0559 30.0954 29.577C27.281 32.5999 23.5806 27.6226 24.4927 25.4076C24.8054 19.8831 30.7034 18.9362 33.6133 19.1534V20.3261L34.9163 21.1078H40.7796L41.3008 23.3229C42.1694 24.5824 44.0109 27.2057 44.4279 27.6226C47.3465 26.5802 47.0338 28.7518 46.5126 29.9679L42.8643 33.4859V37.525C42.43 37.6988 41.5092 38.0983 41.3008 38.3068C41.5092 41.9551 37.6525 43.3015 35.6981 43.5186C34.9684 42.2678 32.0498 35.8312 34.9163 34.9191ZM43.9067 38.6977C43.8024 39.0104 43.5158 39.1754 43.3855 39.2189C43.3855 39.2189 43.1776 40.1324 43.3855 40.6521C43.6461 41.3036 44.949 40.6521 44.949 40.6521V39.4795H45.4702L45.7308 38.3068H46.3823V36.0918L45.4702 36.2221V36.8736L44.1673 37.2645C44.1238 37.6119 44.0109 38.385 43.9067 38.6977Z" fill="white"/>
<path d="M11.5934 11.7266C13.8085 11.2054 17.118 15.2185 11.5934 15.6354C7.00706 15.6354 8.07546 11.2054 11.5934 11.7266Z" fill="white"/>
<path d="M2.08188 26.5802H10.1602C11.9843 26.5802 12.8964 29.7073 10.1602 30.3588L1.82129 30.3588C0.127447 30.7497 -1.35792 26.9972 2.08188 26.5802Z" fill="white"/>
<path d="M28.2712 10.2933H31.3983C31.7458 7.64399 33.6394 2.47561 38.4343 2.99679C43.2291 3.51797 44.0804 8.07831 43.9067 10.2933H47.1641C47.4246 6.64506 46.0613 7.46373e-08 38.4343 0C29.7045 -8.54282e-08 28.4884 7.07938 28.2712 10.2933Z" fill="white"/>
<path d="M69.1231 35.0047L68.3242 32.536H69.889H70.1556V32.2694V28.3668V28.1001H69.889H66.8887L65.187 22.8413L66.0565 20.2202L66.1728 19.8696H65.8034H64.0313H63.6648L63.7776 20.2184L64.6258 22.8393L62.8806 28.1001H60.0934H59.8268V28.3668V32.2694V32.536H60.0934H61.409L60.5901 35.0047H56.1463L62.6165 17.7261H67.2668L73.6653 35.0047H69.1231ZM68.1516 32.0027L67.0613 28.6334H69.6223V32.0027H68.1516ZM66.5008 28.6334L67.5911 32.0027H62.1478L63.2656 28.6334H66.5008ZM60.3601 28.6334H62.7036L61.5859 32.0027H60.3601V28.6334ZM65.434 20.4029L64.9095 21.9839L64.3979 20.4029H65.434ZM80.1087 17.7261V21.3456H79.7068V17.7261H80.1087ZM80.6421 17.7261H88.1568V21.3456H80.6421V17.7261ZM79.4402 21.8789H80.1087V24.5227H79.4402H79.1735V24.7894V28.9421V29.2088H79.4402H80.1087V35.0047H75.7197V17.7261H79.1735V21.6122V21.8789H79.4402ZM79.7068 25.056H80.1087V28.6755H79.7068V25.056ZM80.6421 28.6755V25.056H87.7877V28.6755H80.6421ZM100.206 35.0047L97.6978 28.4333H98.0777C99.4045 28.4333 100.569 28.2028 101.564 27.7322C101.791 27.6245 102.008 27.5068 102.213 27.3793L105.217 35.0047H100.206ZM95.7602 17.7261H98.3239C99.5049 17.7261 100.53 17.945 101.406 18.3744C102.285 18.8051 102.969 19.3996 103.466 20.1574C103.96 20.9096 104.21 21.7914 104.21 22.813C104.21 23.833 103.952 24.7137 103.444 25.4655L103.442 25.4687C103.174 25.8765 102.847 26.2375 102.46 26.5512L101.698 24.6166L101.631 24.4476H101.45H99.2027C99.2171 24.4346 99.2314 24.4213 99.2454 24.4078C99.6664 24.0177 99.8704 23.5019 99.8704 22.8881C99.8704 22.2743 99.6664 21.7585 99.2454 21.3684C98.8341 20.9717 98.2488 20.7952 97.5363 20.7952H95.7602V17.7261ZM94.8249 17.7261H95.2268V20.7952H94.8249V17.7261ZM95.2268 21.3285V35.0047H90.8378V17.7261H94.2916V21.0619V21.3285H94.5582H95.2268ZM98.0777 27.9H97.7145L96.7143 25.485L97.6064 24.981H101.268L102.014 26.874C101.803 27.0107 101.576 27.1361 101.336 27.2501C100.427 27.6801 99.3434 27.9 98.0777 27.9ZM96.5221 24.981L96.4054 25.0469L96.3802 24.981H96.5221ZM106.742 28.0415V17.7261H111.131V28.4918C111.131 29.0979 111.262 29.6323 111.539 30.0825C111.81 30.5228 112.173 30.8648 112.626 31.1042L112.626 31.1044L112.638 31.1098C113.102 31.3279 113.609 31.4353 114.154 31.4353C114.713 31.4353 115.215 31.3286 115.653 31.1061L115.653 31.1062L115.657 31.1042C116.108 30.8655 116.465 30.5319 116.721 30.1048L116.721 30.1049L116.723 30.1006C116.981 29.6516 117.103 29.1199 117.103 28.5169V17.7261H121.517V28.0666C121.517 29.4942 121.206 30.7489 120.591 31.8381L120.591 31.8392C119.992 32.9124 119.142 33.7614 118.035 34.3885C116.949 34.996 115.659 35.3049 114.154 35.3049C112.649 35.3049 111.35 34.9961 110.248 34.3882C109.141 33.7614 108.282 32.904 107.667 31.8131C107.052 30.7239 106.742 29.4692 106.742 28.0415ZM124.631 17.7261H127.444L126.006 22.2062L125.962 22.3408L126.05 22.4521L129.02 26.2465V35.0047H124.631V17.7261ZM129.535 21.1143L128.729 19.0653L134.927 26.9827V31.3187V31.3593L134.939 31.398L135.737 33.9609L129.554 26.0625V21.212V21.1614L129.535 21.1143ZM126.557 22.2346L127.836 18.2524L129.02 21.2626V25.3813L126.557 22.2346ZM135.46 31.2781V27.6639L137.678 30.4962L136.428 34.3869L135.46 31.2781ZM139.849 35.0047H136.79L138.229 30.5247L138.272 30.3901L138.185 30.2788L135.46 26.7987V17.7261H139.849V35.0047ZM155.073 35.0047L154.274 32.536H155.839H156.105V32.2694V28.3668V28.1001H155.839H152.838L151.137 22.8413L152.006 20.2202L152.122 19.8696H151.753H149.981H149.614L149.727 20.2184L150.575 22.8393L148.83 28.1001H146.043H145.776V28.3668V32.2694V32.536H146.043H147.359L146.54 35.0047H142.096L148.566 17.7261H153.216L159.615 35.0047H155.073ZM154.101 32.0027L153.011 28.6334H155.572V32.0027H154.101ZM152.45 28.6334L153.541 32.0027H148.097L149.215 28.6334H152.45ZM146.31 28.6334H148.653L147.535 32.0027H146.31V28.6334ZM151.384 20.4029L150.859 21.9839L150.347 20.4029H151.384Z" fill="white" stroke="white" stroke-width="0.533333"/>
<path d="M56.0195 44.5393C56.0195 44.4174 56.0624 44.3112 56.1483 44.2209C56.2341 44.1305 56.3402 44.0854 56.4667 44.0854C56.5887 44.0854 56.6948 44.1305 56.7851 44.2209C56.8755 44.3112 56.9207 44.4174 56.9207 44.5393C56.9207 44.6658 56.8755 44.7719 56.7851 44.8578C56.6948 44.9436 56.5887 44.9865 56.4667 44.9865C56.3402 44.9865 56.2341 44.9436 56.1483 44.8578C56.0624 44.7719 56.0195 44.6658 56.0195 44.5393Z" fill="white"/>
<path d="M59.6713 44.5393C59.6713 44.4174 59.7143 44.3112 59.8001 44.2209C59.8859 44.1305 59.992 44.0854 60.1185 44.0854C60.2405 44.0854 60.3466 44.1305 60.437 44.2209C60.5273 44.3112 60.5725 44.4174 60.5725 44.5393C60.5725 44.6658 60.5273 44.7719 60.437 44.8578C60.3466 44.9436 60.2405 44.9865 60.1185 44.9865C59.992 44.9865 59.8859 44.9436 59.8001 44.8578C59.7143 44.7719 59.6713 44.6658 59.6713 44.5393Z" fill="white"/>
<path d="M63.3232 44.5393C63.3232 44.4174 63.3661 44.3112 63.4519 44.2209C63.5377 44.1305 63.6439 44.0854 63.7703 44.0854C63.8923 44.0854 63.9984 44.1305 64.0888 44.2209C64.1791 44.3112 64.2243 44.4174 64.2243 44.5393C64.2243 44.6658 64.1791 44.7719 64.0888 44.8578C63.9984 44.9436 63.8923 44.9865 63.7703 44.9865C63.6439 44.9865 63.5377 44.9436 63.4519 44.8578C63.3661 44.7719 63.3232 44.6658 63.3232 44.5393Z" fill="white"/>
<path d="M73.4376 44.9526V42.5135C73.266 42.4322 73.0695 42.3644 72.8481 42.3102C72.6313 42.2515 72.41 42.2086 72.1842 42.1815C72.13 42.3802 72.0803 42.5858 72.0351 42.798C71.9899 43.0058 71.9515 43.2136 71.9199 43.4214C71.8883 43.6246 71.8635 43.8256 71.8454 44.0244C71.8273 44.2186 71.8183 44.4038 71.8183 44.58C71.8183 44.7787 71.8318 44.9729 71.8589 45.1626C71.8906 45.3524 71.9561 45.5398 72.0554 45.725C71.9515 45.725 71.8431 45.7137 71.7302 45.6911C71.6173 45.6685 71.5134 45.6166 71.4185 45.5353C71.3237 45.4585 71.2446 45.3456 71.1814 45.1965C71.1227 45.052 71.0933 44.8555 71.0933 44.6071C71.0933 44.449 71.1046 44.2728 71.1272 44.0786C71.1498 43.8844 71.1837 43.6811 71.2288 43.4688C71.274 43.2565 71.3282 43.0397 71.3914 42.8184C71.4592 42.5925 71.5337 42.3712 71.615 42.1544C71.484 42.1589 71.3598 42.1702 71.2424 42.1883C71.1295 42.2063 71.0301 42.2334 70.9443 42.2696C70.863 42.3012 70.7975 42.3396 70.7478 42.3848C70.6981 42.4299 70.6733 42.4796 70.6733 42.5338C70.6733 42.5519 70.6755 42.5654 70.68 42.5745C70.7975 42.6106 70.8562 42.6851 70.8562 42.798C70.8562 42.8794 70.8268 42.9358 70.7681 42.9674C70.7094 42.999 70.6461 43.0149 70.5784 43.0149C70.4655 43.0149 70.3616 42.9832 70.2667 42.92C70.1674 42.8523 70.1177 42.7371 70.1177 42.5745C70.1177 42.4661 70.1515 42.3689 70.2193 42.2831C70.2825 42.1973 70.3706 42.125 70.4835 42.0663C70.601 42.0031 70.7365 41.9556 70.8901 41.924C71.0482 41.8924 71.2198 41.8766 71.405 41.8766C71.4547 41.8766 71.5066 41.8789 71.5608 41.8834C71.615 41.8834 71.6692 41.8856 71.7234 41.8902C71.8364 41.6191 71.9628 41.3617 72.1028 41.1178C72.2429 40.8693 72.3942 40.6548 72.5568 40.4741C72.7194 40.2889 72.8911 40.1421 73.0717 40.0337C73.2524 39.9253 73.4421 39.8711 73.6409 39.8711C73.7086 39.8711 73.7922 39.8779 73.8915 39.8914C73.9954 39.905 74.0925 39.9298 74.1829 39.9659V44.9526H73.4376ZM72.2519 41.9579C72.4778 41.9986 72.6946 42.0505 72.9023 42.1137C73.1101 42.1725 73.2885 42.238 73.4376 42.3102V40.1963C73.3247 40.2053 73.214 40.2573 73.1056 40.3521C72.9972 40.4425 72.8911 40.5667 72.7872 40.7248C72.6878 40.8829 72.5929 41.0681 72.5026 41.2804C72.4123 41.4881 72.3287 41.714 72.2519 41.9579Z" fill="white"/>
<path d="M77.7165 41.5649H78.2653V41.8021H77.7165V45.4946C77.7165 45.734 77.6917 45.9283 77.642 46.0773C77.5968 46.2264 77.5358 46.3438 77.459 46.4296C77.3822 46.5155 77.2919 46.5719 77.188 46.599C77.0886 46.6306 76.9825 46.6465 76.8696 46.6465C76.6257 46.6465 76.4472 46.59 76.3343 46.4771C76.2169 46.3641 76.1582 46.2015 76.1582 45.9892C76.1582 45.8763 76.1853 45.7724 76.2395 45.6776C76.2892 45.5827 76.3569 45.4946 76.4427 45.4133C76.524 45.3365 76.6166 45.2665 76.7205 45.2033C76.8244 45.1446 76.9306 45.0926 77.039 45.0475V41.05C77.039 40.657 77.1316 40.3634 77.3168 40.1692C77.5019 39.9705 77.7391 39.8711 78.0282 39.8711C78.1637 39.8711 78.2879 39.8914 78.4008 39.9321C78.5137 39.9727 78.6131 40.036 78.6989 40.1218C78.7847 40.2076 78.8502 40.3138 78.8954 40.4402C78.9451 40.5667 78.9699 40.7158 78.9699 40.8874H78.7057C78.6786 40.7067 78.6289 40.5644 78.5566 40.4605C78.4889 40.3567 78.3737 40.3047 78.2111 40.3047C78.1027 40.3047 78.0169 40.3296 77.9536 40.3792C77.8904 40.4244 77.8407 40.4877 77.8046 40.569C77.7684 40.6503 77.7436 40.7496 77.73 40.8671C77.721 40.98 77.7165 41.1042 77.7165 41.2397V41.5649ZM76.7341 46.2941C76.8651 46.2941 76.9486 46.2241 76.9848 46.0841C77.0209 45.9441 77.039 45.7521 77.039 45.5082V45.2982C76.8357 45.3975 76.6821 45.5059 76.5782 45.6234C76.4743 45.7408 76.4224 45.856 76.4224 45.9689C76.4224 46.0593 76.4518 46.136 76.5105 46.1993C76.5692 46.2625 76.6437 46.2941 76.7341 46.2941Z" fill="white"/>
<path d="M81.5734 41.5649V42.1341C81.6276 42.0528 81.6796 41.976 81.7293 41.9037C81.7835 41.8314 81.8422 41.7682 81.9054 41.714C81.9686 41.6598 82.0387 41.6169 82.1154 41.5853C82.1922 41.5491 82.2781 41.5311 82.3729 41.5311C82.5265 41.5311 82.6394 41.5717 82.7117 41.653C82.784 41.7298 82.8201 41.8247 82.8201 41.9376C82.8201 42.0053 82.8088 42.0618 82.7862 42.107C82.7636 42.1521 82.7365 42.1883 82.7049 42.2154C82.6733 42.2425 82.6394 42.2628 82.6033 42.2763C82.5671 42.2854 82.5355 42.2899 82.5084 42.2899C82.4678 42.2899 82.4339 42.2809 82.4068 42.2628C82.3842 42.2447 82.3594 42.2267 82.3323 42.2086C82.3097 42.186 82.2826 42.1657 82.251 42.1476C82.2193 42.1295 82.1787 42.1205 82.129 42.1205C82.0251 42.1205 81.9257 42.1566 81.8309 42.2289C81.736 42.3012 81.6502 42.378 81.5734 42.4593V44.9526H80.8959V41.5649H81.5734Z" fill="white"/>
<path d="M86.0922 41.5649V43.8686C86.0922 43.9137 86.0944 43.9702 86.0989 44.0379C86.1035 44.1057 86.1147 44.1734 86.1328 44.2412C86.1554 44.3044 86.187 44.3609 86.2277 44.4106C86.2683 44.4558 86.3248 44.4783 86.3971 44.4783C86.6184 44.4783 86.781 44.2322 86.8849 43.7398H87.1356C87.0859 44.0244 87.0226 44.2502 86.9459 44.4174C86.8691 44.58 86.7878 44.7042 86.7019 44.79C86.6161 44.8758 86.528 44.93 86.4377 44.9526C86.3474 44.9797 86.2661 44.9933 86.1938 44.9933C86.0357 44.9933 85.907 44.9639 85.8076 44.9052C85.7082 44.8419 85.6292 44.7629 85.5705 44.668C85.5117 44.5732 85.4711 44.467 85.4485 44.3496C85.4259 44.2322 85.4146 44.1192 85.4146 44.0108V41.5649H86.0922ZM85.2927 40.5893C85.2927 40.4673 85.3356 40.3612 85.4214 40.2708C85.5072 40.1805 85.6134 40.1353 85.7398 40.1353C85.8618 40.1353 85.9679 40.1805 86.0583 40.2708C86.1486 40.3612 86.1938 40.4673 86.1938 40.5893C86.1938 40.7158 86.1486 40.8219 86.0583 40.9077C85.9679 40.9935 85.8618 41.0365 85.7398 41.0365C85.6134 41.0365 85.5072 40.9935 85.4214 40.9077C85.3356 40.8219 85.2927 40.7158 85.2927 40.5893Z" fill="white"/>
<path d="M90.6506 42.6016C90.6867 42.5699 90.7138 42.5203 90.7319 42.4525C90.7545 42.3802 90.7658 42.3125 90.7658 42.2492C90.7658 42.1454 90.7319 42.0595 90.6642 41.9918C90.6009 41.924 90.5106 41.8902 90.3931 41.8902C90.2712 41.8902 90.1695 41.9353 90.0882 42.0257C90.0069 42.116 89.9414 42.2312 89.8918 42.3712C89.8421 42.5067 89.8059 42.6603 89.7834 42.8319C89.7653 42.9991 89.7562 43.1639 89.7562 43.3265C89.7562 43.5659 89.7766 43.7601 89.8172 43.9092C89.8624 44.0583 89.9211 44.1757 89.9934 44.2615C90.0657 44.3428 90.1492 44.3993 90.2441 44.4309C90.3434 44.4625 90.4473 44.4783 90.5557 44.4783C90.7951 44.4783 90.9961 44.4196 91.1587 44.3022C91.3259 44.1802 91.4682 43.9928 91.5856 43.7398H91.816C91.7618 43.9069 91.685 44.0673 91.5856 44.2209C91.4862 44.3699 91.371 44.5032 91.2401 44.6206C91.1091 44.7335 90.9668 44.8239 90.8132 44.8916C90.6596 44.9594 90.4993 44.9933 90.3322 44.9933C90.1741 44.9933 90.0182 44.9662 89.8647 44.912C89.7111 44.8578 89.5733 44.7697 89.4514 44.6477C89.3294 44.5212 89.23 44.3586 89.1532 44.1599C89.0765 43.9566 89.0381 43.7082 89.0381 43.4146C89.0381 43.2249 89.0539 43.0216 89.0855 42.8048C89.1216 42.5835 89.1849 42.3802 89.2752 42.195C89.3701 42.0053 89.4988 41.8472 89.6614 41.7208C89.824 41.5943 90.034 41.5311 90.2915 41.5311C90.5761 41.5311 90.7929 41.6011 90.9419 41.7411C91.091 41.8766 91.1655 42.0776 91.1655 42.3441C91.1655 42.457 91.1429 42.5519 91.0978 42.6287C91.0571 42.7055 90.9916 42.7438 90.9013 42.7438C90.8019 42.7438 90.7184 42.6964 90.6506 42.6016Z" fill="white"/>
<path d="M96.3165 41.5649V43.8686C96.3165 43.9228 96.3188 43.986 96.3233 44.0583C96.3278 44.126 96.3391 44.1915 96.3572 44.2547C96.3798 44.318 96.4114 44.3722 96.4521 44.4174C96.4972 44.458 96.5605 44.4783 96.6418 44.4783C96.6779 44.4783 96.7163 44.4738 96.7569 44.4648C96.8021 44.4558 96.8382 44.4467 96.8653 44.4377C96.8699 44.4603 96.8721 44.4806 96.8721 44.4987C96.8766 44.5167 96.8789 44.5371 96.8789 44.5596C96.8789 44.6951 96.827 44.8013 96.7231 44.8781C96.6192 44.9549 96.5017 44.9933 96.3707 44.9933C96.2307 44.9933 96.1042 44.9458 95.9913 44.851C95.8784 44.7516 95.8016 44.5867 95.761 44.3564C95.6932 44.5325 95.5825 44.6839 95.429 44.8103C95.2754 44.9323 95.0902 44.9933 94.8734 44.9933C94.7379 44.9933 94.6001 44.9662 94.4601 44.912C94.3246 44.8532 94.2026 44.7629 94.0942 44.6409C93.9858 44.519 93.8955 44.3609 93.8232 44.1667C93.7555 43.9724 93.7216 43.7376 93.7216 43.462C93.7216 43.2497 93.7442 43.0307 93.7893 42.8048C93.839 42.5745 93.9136 42.3667 94.0129 42.1815C94.1168 41.9918 94.2501 41.8359 94.4127 41.714C94.5753 41.592 94.7695 41.5311 94.9953 41.5311C95.1128 41.5311 95.2325 41.5559 95.3544 41.6056C95.4809 41.6553 95.5758 41.7501 95.639 41.8902V41.5649H96.3165ZM95.0157 44.4783C95.1015 44.4783 95.1828 44.458 95.2596 44.4174C95.3364 44.3767 95.4019 44.3225 95.4561 44.2547C95.5148 44.187 95.56 44.1102 95.5916 44.0244C95.6232 43.934 95.639 43.8392 95.639 43.7398V42.195C95.6074 42.1183 95.56 42.0505 95.4967 41.9918C95.4335 41.9331 95.3432 41.9037 95.2257 41.9037C95.0812 41.9037 94.9592 41.9534 94.8598 42.0528C94.7605 42.1476 94.6792 42.2696 94.6159 42.4186C94.5527 42.5677 94.5053 42.7348 94.4736 42.92C94.4465 43.1007 94.433 43.2746 94.433 43.4417C94.433 43.8076 94.4895 44.0718 94.6024 44.2344C94.7153 44.397 94.8531 44.4783 95.0157 44.4783Z" fill="white"/>
<path d="M103.809 40.5351V41.5649H104.331V41.8021H103.809V43.8686C103.809 43.9228 103.811 43.986 103.816 44.0583C103.82 44.126 103.832 44.1915 103.85 44.2547C103.872 44.318 103.904 44.3722 103.945 44.4174C103.99 44.458 104.051 44.4783 104.128 44.4783C104.25 44.4783 104.365 44.4174 104.473 44.2954C104.586 44.1734 104.674 43.9883 104.737 43.7398H104.988C104.911 44.0244 104.828 44.2502 104.737 44.4174C104.652 44.58 104.561 44.7042 104.466 44.79C104.372 44.8758 104.277 44.93 104.182 44.9526C104.091 44.9797 104.008 44.9933 103.931 44.9933C103.769 44.9933 103.635 44.9639 103.531 44.9052C103.428 44.8419 103.346 44.7629 103.287 44.668C103.229 44.5732 103.188 44.4693 103.166 44.3564C103.143 44.2389 103.132 44.1238 103.132 44.0108V41.8021H102.901V41.5649H103.132V40.6299L103.809 40.5351Z" fill="white"/>
<path d="M108.202 41.5311C108.36 41.5311 108.498 41.5536 108.615 41.5988C108.733 41.644 108.832 41.7072 108.913 41.7885C108.999 41.8653 109.067 41.9602 109.117 42.0731C109.171 42.1815 109.211 42.2989 109.238 42.4254C109.365 42.4254 109.455 42.387 109.509 42.3102C109.564 42.2289 109.602 42.1544 109.625 42.0866H109.821C109.785 42.2357 109.724 42.3893 109.638 42.5474C109.557 42.7009 109.442 42.8161 109.293 42.8929C109.302 42.9471 109.306 43.0013 109.306 43.0555C109.306 43.1052 109.306 43.1571 109.306 43.2113C109.306 43.7669 109.205 44.2028 109.001 44.519C108.798 44.8352 108.514 44.9933 108.148 44.9933C107.999 44.9933 107.847 44.9662 107.694 44.912C107.545 44.8578 107.409 44.7674 107.287 44.6409C107.165 44.5145 107.066 44.3519 106.989 44.1531C106.917 43.9544 106.881 43.7082 106.881 43.4146C106.881 43.2159 106.901 43.0058 106.942 42.7845C106.987 42.5632 107.059 42.3599 107.158 42.1747C107.262 41.9895 107.398 41.8359 107.565 41.714C107.737 41.592 107.949 41.5311 108.202 41.5311ZM108.27 44.4783C108.509 44.4783 108.685 44.3609 108.798 44.126C108.911 43.8866 108.967 43.5501 108.967 43.1165C108.967 43.0939 108.965 43.0713 108.961 43.0487C108.961 43.0216 108.961 42.9968 108.961 42.9742C108.834 42.9742 108.742 42.9403 108.683 42.8726C108.624 42.8003 108.595 42.6987 108.595 42.5677C108.595 42.4773 108.617 42.4073 108.663 42.3576C108.708 42.3034 108.769 42.2718 108.845 42.2628C108.791 42.1318 108.724 42.0392 108.642 41.985C108.561 41.9308 108.473 41.9037 108.378 41.9037C108.238 41.9037 108.118 41.9511 108.019 42.046C107.924 42.1363 107.845 42.2538 107.782 42.3983C107.723 42.5428 107.68 42.7032 107.653 42.8794C107.626 43.051 107.612 43.2204 107.612 43.3875C107.612 43.6088 107.633 43.7895 107.673 43.9295C107.714 44.0696 107.766 44.1802 107.829 44.2615C107.892 44.3428 107.962 44.3993 108.039 44.4309C108.116 44.4625 108.193 44.4783 108.27 44.4783Z" fill="white"/>
<path d="M116.723 40.5351V41.5649H117.245V41.8021H116.723V43.8686C116.723 43.9228 116.725 43.986 116.73 44.0583C116.734 44.126 116.746 44.1915 116.764 44.2547C116.786 44.318 116.818 44.3722 116.859 44.4174C116.904 44.458 116.965 44.4783 117.042 44.4783C117.164 44.4783 117.279 44.4174 117.387 44.2954C117.5 44.1734 117.588 43.9883 117.651 43.7398H117.902C117.825 44.0244 117.742 44.2502 117.651 44.4174C117.566 44.58 117.475 44.7042 117.38 44.79C117.285 44.8758 117.191 44.93 117.096 44.9526C117.005 44.9797 116.922 44.9933 116.845 44.9933C116.682 44.9933 116.549 44.9639 116.445 44.9052C116.341 44.8419 116.26 44.7629 116.201 44.668C116.143 44.5732 116.102 44.4693 116.079 44.3564C116.057 44.2389 116.046 44.1238 116.046 44.0108V41.8021H115.815V41.5649H116.046V40.6299L116.723 40.5351Z" fill="white"/>
<path d="M120.553 40.2099V42.0799C120.621 41.9579 120.689 41.8608 120.757 41.7885C120.829 41.7117 120.901 41.6553 120.973 41.6191C121.046 41.583 121.114 41.5604 121.177 41.5514C121.245 41.5378 121.308 41.5311 121.366 41.5311C121.57 41.5311 121.732 41.5695 121.854 41.6462C121.981 41.723 122.076 41.8224 122.139 41.9444C122.202 42.0618 122.243 42.1928 122.261 42.3373C122.283 42.4773 122.295 42.6129 122.295 42.7438C122.295 42.8251 122.292 42.9155 122.288 43.0149C122.283 43.1097 122.279 43.2091 122.274 43.313C122.27 43.4123 122.265 43.514 122.261 43.6179C122.256 43.7172 122.254 43.8098 122.254 43.8957C122.254 43.9318 122.256 43.9837 122.261 44.0515C122.265 44.1147 122.277 44.178 122.295 44.2412C122.313 44.3044 122.342 44.3609 122.383 44.4106C122.423 44.4558 122.482 44.4783 122.559 44.4783C122.663 44.4783 122.755 44.4196 122.837 44.3022C122.923 44.1847 122.993 43.9973 123.047 43.7398H123.297C123.248 44.0244 123.185 44.2502 123.108 44.4174C123.031 44.58 122.95 44.7042 122.864 44.79C122.778 44.8758 122.692 44.93 122.606 44.9526C122.521 44.9797 122.441 44.9933 122.369 44.9933C122.225 44.9933 122.103 44.9662 122.003 44.912C121.904 44.8532 121.823 44.7765 121.759 44.6816C121.696 44.5867 121.649 44.4761 121.617 44.3496C121.59 44.2231 121.576 44.0921 121.576 43.9566C121.576 43.916 121.576 43.8415 121.576 43.733C121.581 43.6201 121.583 43.5004 121.583 43.374C121.588 43.2475 121.59 43.1278 121.59 43.0149C121.595 42.9019 121.597 42.8229 121.597 42.7777C121.597 42.6332 121.586 42.5135 121.563 42.4186C121.54 42.3238 121.509 42.2492 121.468 42.195C121.427 42.1408 121.38 42.1024 121.326 42.0799C121.276 42.0573 121.222 42.046 121.163 42.046C121.023 42.046 120.901 42.1024 120.797 42.2154C120.698 42.3283 120.617 42.518 120.553 42.7845V44.9526H119.876V40.3047L120.553 40.2099Z" fill="white"/>
<path d="M127.395 42.4119C127.395 42.728 127.264 42.9923 127.002 43.2046C126.745 43.4169 126.386 43.5479 125.925 43.5975C125.943 43.7782 125.975 43.925 126.02 44.0379C126.069 44.1509 126.128 44.2412 126.196 44.309C126.264 44.3722 126.34 44.4174 126.426 44.4445C126.517 44.467 126.609 44.4783 126.704 44.4783C126.849 44.4783 126.984 44.4535 127.111 44.4038C127.242 44.3541 127.35 44.2683 127.436 44.1463C127.44 44.178 127.443 44.2096 127.443 44.2412C127.447 44.2683 127.449 44.2931 127.449 44.3157C127.449 44.4196 127.422 44.5122 127.368 44.5935C127.318 44.6748 127.248 44.7471 127.158 44.8103C127.072 44.869 126.971 44.9142 126.853 44.9458C126.74 44.9775 126.621 44.9933 126.494 44.9933C126.34 44.9933 126.187 44.9662 126.033 44.912C125.88 44.8532 125.74 44.7629 125.613 44.6409C125.491 44.5145 125.392 44.3519 125.315 44.1531C125.238 43.9544 125.2 43.7127 125.2 43.4282C125.2 43.2384 125.22 43.0329 125.261 42.8116C125.306 42.5903 125.378 42.3848 125.478 42.195C125.582 42.0053 125.715 41.8472 125.877 41.7208C126.045 41.5943 126.25 41.5311 126.494 41.5311C126.607 41.5311 126.715 41.5446 126.819 41.5717C126.928 41.5943 127.025 41.6395 127.111 41.7072C127.196 41.7705 127.264 41.8585 127.314 41.9715C127.368 42.0844 127.395 42.2312 127.395 42.4119ZM125.918 43.3333C126.239 43.2836 126.492 43.1707 126.677 42.9945C126.867 42.8184 126.962 42.6016 126.962 42.3441C126.962 42.1725 126.932 42.0505 126.873 41.9782C126.815 41.9014 126.731 41.863 126.623 41.863C126.505 41.863 126.401 41.9082 126.311 41.9986C126.225 42.0889 126.153 42.2063 126.094 42.3509C126.036 42.4909 125.99 42.649 125.959 42.8251C125.932 42.9968 125.918 43.1662 125.918 43.3333Z" fill="white"/>
<path d="M136.667 44.4106L137.541 39.905H138.043L139.011 44.4106L139.885 39.905H140.272L139.201 44.9526H138.449L137.636 41.2804L136.857 44.9526H136.105L135.028 40.2573C134.856 40.2573 134.711 40.2889 134.594 40.3521C134.476 40.4109 134.382 40.4922 134.309 40.5961C134.237 40.6954 134.183 40.8106 134.147 40.9416C134.115 41.0681 134.099 41.1991 134.099 41.3346C134.099 41.5288 134.126 41.7027 134.181 41.8563C134.235 42.0098 134.314 42.1521 134.418 42.2831C134.327 42.2831 134.237 42.2696 134.147 42.2425C134.056 42.2154 133.975 42.1679 133.903 42.1002C133.831 42.0324 133.772 41.9421 133.727 41.8292C133.682 41.7117 133.659 41.5649 133.659 41.3888C133.659 41.1855 133.697 40.9913 133.774 40.8061C133.851 40.6209 133.964 40.4605 134.113 40.325C134.262 40.185 134.445 40.0744 134.662 39.9931C134.878 39.9117 135.127 39.8711 135.407 39.8711C135.457 39.8711 135.504 39.8734 135.549 39.8779C135.599 39.8824 135.649 39.8892 135.698 39.8982L136.667 44.4106Z" fill="white"/>
<path d="M143.835 41.5311C144.011 41.5311 144.162 41.5582 144.289 41.6124C144.415 41.6666 144.519 41.7434 144.601 41.8427C144.682 41.9376 144.745 42.0505 144.79 42.1815C144.84 42.3125 144.876 42.4525 144.899 42.6016H144.939C145.129 42.6016 145.303 42.5632 145.461 42.4864C145.619 42.4096 145.755 42.3125 145.868 42.195L145.969 42.378C145.879 42.5225 145.734 42.6422 145.536 42.7371C145.341 42.8319 145.14 42.8974 144.933 42.9336C144.933 42.9787 144.933 43.0239 144.933 43.0691C144.937 43.1142 144.939 43.1617 144.939 43.2113C144.939 43.7669 144.838 44.2028 144.634 44.519C144.431 44.8352 144.147 44.9933 143.781 44.9933C143.632 44.9933 143.48 44.9662 143.327 44.912C143.178 44.8578 143.042 44.7674 142.92 44.6409C142.798 44.5145 142.699 44.3519 142.622 44.1531C142.55 43.9544 142.514 43.7082 142.514 43.4146C142.514 43.2159 142.534 43.0058 142.575 42.7845C142.62 42.5632 142.692 42.3599 142.792 42.1747C142.895 41.9895 143.031 41.8359 143.198 41.714C143.37 41.592 143.582 41.5311 143.835 41.5311ZM143.903 44.4783C144.142 44.4783 144.318 44.3609 144.431 44.126C144.544 43.8866 144.601 43.5501 144.601 43.1165C144.601 43.0894 144.601 43.0623 144.601 43.0352C144.601 43.0081 144.598 42.981 144.594 42.9539C144.463 42.9448 144.368 42.9155 144.309 42.8658C144.255 42.8161 144.228 42.7326 144.228 42.6151C144.228 42.5112 144.25 42.439 144.296 42.3983C144.341 42.3531 144.409 42.3283 144.499 42.3238C144.445 42.1657 144.375 42.0573 144.289 41.9986C144.208 41.9353 144.115 41.9037 144.011 41.9037C143.871 41.9037 143.751 41.9511 143.652 42.046C143.557 42.1363 143.478 42.2538 143.415 42.3983C143.356 42.5428 143.313 42.7032 143.286 42.8794C143.259 43.051 143.245 43.2204 143.245 43.3875C143.245 43.6088 143.266 43.7895 143.306 43.9295C143.347 44.0696 143.399 44.1802 143.462 44.2615C143.526 44.3428 143.596 44.3993 143.672 44.4309C143.749 44.4625 143.826 44.4783 143.903 44.4783Z" fill="white"/>
<path d="M148.347 41.5649V42.1341C148.401 42.0528 148.453 41.976 148.503 41.9037C148.557 41.8314 148.616 41.7682 148.679 41.714C148.742 41.6598 148.812 41.6169 148.889 41.5853C148.966 41.5491 149.052 41.5311 149.146 41.5311C149.3 41.5311 149.413 41.5717 149.485 41.653C149.557 41.7298 149.594 41.8247 149.594 41.9376C149.594 42.0053 149.582 42.0618 149.56 42.107C149.537 42.1521 149.51 42.1883 149.478 42.2154C149.447 42.2425 149.413 42.2628 149.377 42.2763C149.341 42.2854 149.309 42.2899 149.282 42.2899C149.241 42.2899 149.207 42.2809 149.18 42.2628C149.158 42.2447 149.133 42.2267 149.106 42.2086C149.083 42.186 149.056 42.1657 149.024 42.1476C148.993 42.1295 148.952 42.1205 148.903 42.1205C148.799 42.1205 148.699 42.1566 148.604 42.2289C148.51 42.3012 148.424 42.378 148.347 42.4593V44.9526H147.669V41.5649H148.347Z" fill="white"/>
<path d="M152.866 40.2099V43.8686C152.866 43.9137 152.868 43.9702 152.872 44.0379C152.877 44.1057 152.888 44.1734 152.906 44.2412C152.929 44.3044 152.961 44.3609 153.001 44.4106C153.042 44.4558 153.098 44.4783 153.171 44.4783C153.392 44.4783 153.555 44.2322 153.658 43.7398H153.909C153.859 44.0244 153.796 44.2502 153.719 44.4174C153.643 44.58 153.561 44.7042 153.475 44.79C153.39 44.8758 153.302 44.93 153.211 44.9526C153.121 44.9797 153.04 44.9933 152.967 44.9933C152.809 44.9933 152.68 44.9639 152.581 44.9052C152.482 44.8419 152.403 44.7629 152.344 44.668C152.285 44.5732 152.245 44.467 152.222 44.3496C152.199 44.2322 152.188 44.1192 152.188 44.0108V40.3047L152.866 40.2099Z" fill="white"/>
<path d="M158.38 40.2099V43.8686C158.38 43.9228 158.382 43.986 158.386 44.0583C158.391 44.126 158.402 44.1915 158.42 44.2547C158.443 44.318 158.474 44.3722 158.515 44.4174C158.56 44.458 158.624 44.4783 158.705 44.4783C158.741 44.4783 158.779 44.4738 158.82 44.4648C158.865 44.4558 158.901 44.4467 158.928 44.4377C158.933 44.4603 158.935 44.4806 158.935 44.4987C158.94 44.5167 158.942 44.5371 158.942 44.5596C158.942 44.6951 158.89 44.8013 158.786 44.8781C158.682 44.9549 158.565 44.9933 158.434 44.9933C158.294 44.9933 158.167 44.9458 158.054 44.851C157.941 44.7516 157.865 44.5867 157.824 44.3564C157.756 44.5325 157.646 44.6839 157.492 44.8103C157.338 44.9323 157.153 44.9933 156.936 44.9933C156.801 44.9933 156.663 44.9662 156.523 44.912C156.388 44.8532 156.266 44.7629 156.157 44.6409C156.049 44.519 155.959 44.3609 155.886 44.1667C155.819 43.9724 155.785 43.7376 155.785 43.462C155.785 43.2497 155.807 43.0307 155.852 42.8048C155.902 42.5745 155.977 42.3667 156.076 42.1815C156.18 41.9918 156.313 41.8359 156.476 41.714C156.638 41.592 156.833 41.5311 157.058 41.5311C157.176 41.5311 157.296 41.5559 157.417 41.6056C157.544 41.6553 157.639 41.7501 157.702 41.8902V40.3047L158.38 40.2099ZM157.079 44.4783C157.165 44.4783 157.246 44.458 157.323 44.4174C157.399 44.3767 157.465 44.3225 157.519 44.2547C157.578 44.187 157.623 44.1102 157.655 44.0244C157.686 43.934 157.702 43.8392 157.702 43.7398V42.195C157.67 42.1183 157.623 42.0505 157.56 41.9918C157.497 41.9331 157.406 41.9037 157.289 41.9037C157.144 41.9037 157.022 41.9534 156.923 42.0528C156.824 42.1476 156.742 42.2696 156.679 42.4186C156.616 42.5677 156.568 42.7348 156.537 42.92C156.51 43.1007 156.496 43.2746 156.496 43.4417C156.496 43.8076 156.553 44.0718 156.665 44.2344C156.778 44.397 156.916 44.4783 157.079 44.4783Z" fill="white"/>
<ellipse cx="27.8839" cy="15.8961" rx="1.56354" ry="1.56354" fill="#663300"/>
<ellipse cx="41.9542" cy="15.8961" rx="1.56354" ry="1.56354" fill="#663300"/>
</svg>
