<svg width="161" height="48" viewBox="0 0 161 48" fill="none" xmlns="http://www.w3.org/2000/svg">
<ellipse cx="108.661" cy="24.7623" rx="1.56354" ry="1.56354" fill="#663300"/>
<path d="M40.7752 31.6676C40.0802 33.1008 38.0911 35.9152 35.6936 35.7067C32.8271 36.6188 35.7458 43.0554 36.4754 44.3062C38.4298 44.0891 42.2866 42.7427 42.0781 39.0944C42.2866 38.8859 43.2073 38.4864 43.6417 38.3126V34.2735L47.2899 30.7555C47.8111 29.5394 48.1238 27.3678 45.2052 28.4102C44.7883 27.9933 42.9467 25.37 42.0781 24.1105L41.5569 21.8954H35.6936L34.3907 21.1137V19.941C31.4808 19.7238 25.5827 20.6707 25.27 26.1952C24.3579 28.4102 28.0583 33.3875 30.8727 30.3646C30.8727 29.8435 29.9606 25.5437 33.8695 24.6316C35.3896 24.2408 38.7947 24.345 40.254 27.889L39.2116 27.6284L38.4298 26.7164L37.7784 26.1952H36.736L37.7784 27.3678L38.8207 28.4102L39.6025 29.0617V30.104L38.4298 30.3646C37.5178 28.7142 34.99 25.8043 32.1757 27.3678C31.5676 28.0627 30.9248 29.7913 33.218 31.1464L33.3483 32.1888L33.4786 33.2311H34.3907L34.7816 32.1888L35.6936 31.6676C35.7805 31.4939 36.0064 31.1985 36.2148 31.407L36.9966 32.1888C36.9966 32.1888 37.8837 32.3114 38.4298 32.1888C38.9188 32.079 39.6025 31.6676 39.6025 31.6676L40.254 30.7555C40.6449 30.8424 41.2963 31.1464 40.7752 31.6676Z" fill="white"/>
<path d="M44.1628 40.0065C44.2931 39.963 44.5798 39.798 44.684 39.4853C44.7883 39.1726 44.9012 38.3995 44.9446 38.0521L46.2476 37.6612V37.0097L47.1596 36.8794V39.0944H46.5082L46.2476 40.2671H45.7264V41.4397C45.7264 41.4397 44.4234 42.0912 44.1628 41.4397C43.955 40.92 44.1628 40.0065 44.1628 40.0065Z" fill="white"/>
<path fill-rule="evenodd" clip-rule="evenodd" d="M49.505 12.5142H20.0582C16.9311 12.3839 14.4555 14.4686 18.1038 16.423C20.84 16.423 22.4817 20.4622 18.1038 19.941H12.3708C10.1558 19.941 8.51404 22.6772 12.3708 23.7196H20.4491C22.4035 23.7196 23.8889 27.1594 20.4491 27.3678H15.3676C13.1526 27.3678 11.8496 31.1464 15.3676 31.1464C18.8856 31.1464 18.625 35.9673 15.3676 35.0553H9.63458C7.41956 34.6644 5.72572 38.5732 9.63458 39.0944H24.0974C25.5306 39.0944 26.3905 41.6482 24.0974 42.4821H16.8008C14.5858 42.4821 14.5076 45.7655 16.8008 45.8698H49.6352C52.632 45.6092 52.632 45.4789 52.632 40.2671L53.4138 14.4686C53.4138 13.2959 52.9448 12.3057 49.505 12.5142ZM35.6936 35.7067C38.0911 35.9152 40.0802 33.1008 40.7752 31.6676C41.2963 31.1464 40.6449 30.8424 40.254 30.7555L39.6025 31.6676C39.6025 31.6676 38.9188 32.079 38.4298 32.1888C37.8837 32.3114 36.9966 32.1888 36.9966 32.1888L36.2148 31.407C36.0064 31.1985 35.7805 31.4939 35.6936 31.6676L34.7816 32.1888L34.3907 33.2311H33.4786L33.3483 32.1888L33.218 31.1464C30.9248 29.7913 31.5676 28.0627 32.1757 27.3678C34.99 25.8043 37.5178 28.7142 38.4298 30.3646L39.6025 30.104V29.0617L38.8207 28.4102L37.7784 27.3678L36.736 26.1952H37.7784L38.4298 26.7164L39.2116 27.6284L40.254 27.889C38.7947 24.345 35.3896 24.2408 33.8695 24.6316C29.9606 25.5437 30.8727 29.8435 30.8727 30.3646C28.0583 33.3875 24.3579 28.4102 25.27 26.1952C25.5827 20.6707 31.4808 19.7238 34.3907 19.941V21.1137L35.6936 21.8954H41.5569L42.0781 24.1105C42.9467 25.37 44.7883 27.9933 45.2052 28.4102C48.1238 27.3678 47.8111 29.5394 47.2899 30.7555L43.6417 34.2735V38.3126C43.2073 38.4864 42.2866 38.8859 42.0781 39.0944C42.2866 42.7427 38.4298 44.0891 36.4754 44.3062C35.7458 43.0554 32.8271 36.6188 35.6936 35.7067ZM44.684 39.4853C44.5798 39.798 44.2931 39.963 44.1628 40.0065C44.1628 40.0065 43.955 40.92 44.1628 41.4397C44.4234 42.0912 45.7264 41.4397 45.7264 41.4397V40.2671H46.2476L46.5082 39.0944H47.1596V36.8794L46.2476 37.0097V37.6612L44.9446 38.0521C44.9012 38.3995 44.7883 39.1726 44.684 39.4853Z" fill="#663300"/>
<path d="M12.3708 12.5142C14.5858 11.993 17.8953 16.0061 12.3708 16.423C7.7844 16.423 8.85281 11.993 12.3708 12.5142Z" fill="#663300"/>
<path d="M2.85922 27.3678H10.9375C12.7617 27.3678 13.6737 30.4949 10.9375 31.1464L2.59863 31.1464C0.904791 31.5373 -0.580576 27.7848 2.85922 27.3678Z" fill="#663300"/>
<path d="M29.0486 11.0809H32.1757C32.5231 8.43159 34.4167 3.26321 39.2116 3.78439C44.0065 4.30557 44.8577 8.86591 44.684 11.0809H47.9414C48.202 7.43266 46.8387 0.787598 39.2116 0.787598C30.4818 0.787598 29.2657 7.86698 29.0486 11.0809Z" fill="#663300"/>
<path d="M69.9024 35.7923L69.1035 33.3236H70.6683H70.9349V33.057V29.1543V28.8877H70.6683H67.668L65.9663 23.6289L66.8358 21.0078L66.9521 20.6572H66.5827H64.8106H64.4441L64.5569 21.006L65.4051 23.6269L63.6599 28.8877H60.8727H60.6061V29.1543V33.057V33.3236H60.8727H62.1883L61.3694 35.7923H56.9256L63.3957 18.5137H68.0461L74.4446 35.7923H69.9024ZM68.9309 32.7903L67.8406 29.421H70.4016V32.7903H68.9309ZM67.2801 29.421L68.3704 32.7903H62.9271L64.0448 29.421H67.2801ZM61.1394 29.421H63.4829L62.3652 32.7903H61.1394V29.421ZM66.2133 21.1905L65.6888 22.7715L65.1772 21.1905H66.2133ZM80.888 18.5137V22.1332H80.4861V18.5137H80.888ZM81.4214 18.5137H88.9361V22.1332H81.4214V18.5137ZM80.2194 22.6665H80.888V25.3103H80.2194H79.9528V25.577V29.7297V29.9964H80.2194H80.888V35.7923H76.499V18.5137H79.9528V22.3998V22.6665H80.2194ZM80.4861 25.8436H80.888V29.4631H80.4861V25.8436ZM81.4214 29.4631V25.8436H88.567V29.4631H81.4214ZM100.985 35.7923L98.4771 29.2209H98.857C100.184 29.2209 101.348 28.9904 102.343 28.5198C102.571 28.412 102.787 28.2944 102.992 28.1669L105.997 35.7923H100.985ZM96.5395 18.5137H99.1032C100.284 18.5137 101.309 18.7326 102.185 19.162C103.064 19.5927 103.749 20.1872 104.246 20.945C104.739 21.6972 104.989 22.579 104.989 23.6006C104.989 24.6206 104.732 25.5013 104.223 26.2531L104.221 26.2563C103.953 26.6641 103.627 27.0251 103.239 27.3387L102.477 25.4042L102.41 25.2352H102.229H99.982C99.9964 25.2222 100.011 25.2089 100.025 25.1954C100.446 24.8053 100.65 24.2895 100.65 23.6757C100.65 23.0619 100.446 22.5461 100.025 22.156C99.6134 21.7593 99.0281 21.5828 98.3156 21.5828H96.5395V18.5137ZM95.6042 18.5137H96.0061V21.5828H95.6042V18.5137ZM96.0061 22.1161V35.7923H91.6171V18.5137H95.0709V21.8495V22.1161H95.3375H96.0061ZM98.857 28.6876H98.4938L97.4936 26.2726L98.3857 25.7686H102.047L102.793 27.6616C102.582 27.7983 102.356 27.9237 102.115 28.0377C101.206 28.4677 100.123 28.6876 98.857 28.6876ZM97.3014 25.7686L97.1847 25.8345L97.1595 25.7686H97.3014ZM107.521 28.8291V18.5137H111.91V29.2794C111.91 29.8855 112.042 30.4199 112.319 30.8701C112.589 31.3104 112.953 31.6524 113.406 31.8918L113.405 31.892L113.417 31.8974C113.882 32.1155 114.388 32.2229 114.933 32.2229C115.492 32.2229 115.994 32.1162 116.432 31.8937L116.432 31.8938L116.436 31.8918C116.888 31.6531 117.244 31.3195 117.5 30.8924L117.5 30.8924L117.502 30.8882C117.76 30.4392 117.882 29.9075 117.882 29.3045V18.5137H122.296V28.8541C122.296 30.2818 121.985 31.5365 121.371 32.6257L121.37 32.6268C120.771 33.7 119.921 34.549 118.814 35.1761C117.729 35.7836 116.438 36.0925 114.933 36.0925C113.428 36.0925 112.129 35.7837 111.027 35.1758C109.921 34.549 109.062 33.6916 108.446 32.6007C107.832 31.5115 107.521 30.2568 107.521 28.8291ZM125.41 18.5137H128.224L126.785 22.9938L126.742 23.1284L126.829 23.2397L129.799 27.0341V35.7923H125.41V18.5137ZM130.314 21.9019L129.508 19.8529L135.706 27.7703V32.1063V32.1469L135.718 32.1856L136.516 34.7485L130.333 26.8501V21.9996V21.949L130.314 21.9019ZM127.336 23.0222L128.615 19.04L129.799 22.0502V26.1689L127.336 23.0222ZM136.24 32.0657V28.4515L138.457 31.2838L137.208 35.1745L136.24 32.0657ZM140.629 35.7923H137.569L139.008 31.3123L139.051 31.1777L138.964 31.0664L136.24 27.5863V18.5137H140.629V35.7923ZM155.852 35.7923L155.053 33.3236H156.618H156.885V33.057V29.1543V28.8877H156.618H153.618L151.916 23.6289L152.785 21.0078L152.902 20.6572H152.532H150.76H150.394L150.506 21.006L151.355 23.6269L149.609 28.8877H146.822H146.556V29.1543V33.057V33.3236H146.822H148.138L147.319 35.7923H142.875L149.345 18.5137H153.996L160.394 35.7923H155.852ZM154.881 32.7903L153.79 29.421H156.351V32.7903H154.881ZM153.23 29.421L154.32 32.7903H148.877L149.994 29.421H153.23ZM147.089 29.421H149.432L148.315 32.7903H147.089V29.421ZM152.163 21.1905L151.638 22.7715L151.127 21.1905H152.163Z" fill="#663300" stroke="#663300" stroke-width="0.533333"/>
<path d="M56.7979 45.3269C56.7979 45.205 56.8408 45.0988 56.9266 45.0085C57.0124 44.9181 57.1186 44.873 57.245 44.873C57.367 44.873 57.4731 44.9181 57.5635 45.0085C57.6538 45.0988 57.699 45.205 57.699 45.3269C57.699 45.4534 57.6538 45.5595 57.5635 45.6454C57.4731 45.7312 57.367 45.7741 57.245 45.7741C57.1186 45.7741 57.0124 45.7312 56.9266 45.6454C56.8408 45.5595 56.7979 45.4534 56.7979 45.3269Z" fill="#663300"/>
<path d="M60.4497 45.3269C60.4497 45.205 60.4926 45.0988 60.5784 45.0085C60.6642 44.9181 60.7704 44.873 60.8968 44.873C61.0188 44.873 61.1249 44.9181 61.2153 45.0085C61.3056 45.0988 61.3508 45.205 61.3508 45.3269C61.3508 45.4534 61.3056 45.5595 61.2153 45.6454C61.1249 45.7312 61.0188 45.7741 60.8968 45.7741C60.7704 45.7741 60.6642 45.7312 60.5784 45.6454C60.4926 45.5595 60.4497 45.4534 60.4497 45.3269Z" fill="#663300"/>
<path d="M64.1015 45.3269C64.1015 45.205 64.1444 45.0988 64.2302 45.0085C64.316 44.9181 64.4222 44.873 64.5486 44.873C64.6706 44.873 64.7768 44.9181 64.8671 45.0085C64.9574 45.0988 65.0026 45.205 65.0026 45.3269C65.0026 45.4534 64.9574 45.5595 64.8671 45.6454C64.7768 45.7312 64.6706 45.7741 64.5486 45.7741C64.4222 45.7741 64.316 45.7312 64.2302 45.6454C64.1444 45.5595 64.1015 45.4534 64.1015 45.3269Z" fill="#663300"/>
<path d="M74.2159 45.7402V43.3011C74.0443 43.2198 73.8478 43.152 73.6265 43.0978C73.4096 43.0391 73.1883 42.9962 72.9625 42.9691C72.9083 43.1678 72.8586 43.3734 72.8134 43.5856C72.7682 43.7934 72.7299 44.0012 72.6982 44.209C72.6666 44.4122 72.6418 44.6132 72.6237 44.812C72.6056 45.0062 72.5966 45.1914 72.5966 45.3676C72.5966 45.5663 72.6102 45.7605 72.6373 45.9502C72.6689 46.14 72.7344 46.3274 72.8337 46.5126C72.7299 46.5126 72.6214 46.5013 72.5085 46.4787C72.3956 46.4561 72.2917 46.4042 72.1969 46.3229C72.102 46.2461 72.023 46.1332 71.9597 45.9841C71.901 45.8396 71.8716 45.6431 71.8716 45.3947C71.8716 45.2366 71.8829 45.0604 71.9055 44.8662C71.9281 44.672 71.962 44.4687 72.0071 44.2564C72.0523 44.0441 72.1065 43.8273 72.1698 43.606C72.2375 43.3801 72.312 43.1588 72.3933 42.942C72.2624 42.9465 72.1381 42.9578 72.0207 42.9759C71.9078 42.9939 71.8084 43.021 71.7226 43.0572C71.6413 43.0888 71.5758 43.1272 71.5261 43.1723C71.4764 43.2175 71.4516 43.2672 71.4516 43.3214C71.4516 43.3395 71.4538 43.353 71.4583 43.3621C71.5758 43.3982 71.6345 43.4727 71.6345 43.5856C71.6345 43.6669 71.6051 43.7234 71.5464 43.755C71.4877 43.7866 71.4245 43.8025 71.3567 43.8025C71.2438 43.8025 71.1399 43.7708 71.045 43.7076C70.9457 43.6398 70.896 43.5247 70.896 43.3621C70.896 43.2537 70.9299 43.1565 70.9976 43.0707C71.0609 42.9849 71.1489 42.9126 71.2619 42.8539C71.3793 42.7907 71.5148 42.7432 71.6684 42.7116C71.8265 42.68 71.9981 42.6642 72.1833 42.6642C72.233 42.6642 72.2849 42.6665 72.3391 42.671C72.3933 42.671 72.4475 42.6732 72.5017 42.6777C72.6147 42.4067 72.7411 42.1493 72.8812 41.9054C73.0212 41.6569 73.1725 41.4424 73.3351 41.2617C73.4977 41.0765 73.6694 40.9297 73.85 40.8213C74.0307 40.7129 74.2204 40.6587 74.4192 40.6587C74.4869 40.6587 74.5705 40.6655 74.6699 40.679C74.7738 40.6926 74.8709 40.7174 74.9612 40.7535V45.7402H74.2159ZM73.0302 42.7455C73.2561 42.7862 73.4729 42.8381 73.6807 42.9013C73.8884 42.9601 74.0669 43.0255 74.2159 43.0978V40.9839C74.103 40.9929 73.9923 41.0449 73.8839 41.1397C73.7755 41.2301 73.6694 41.3543 73.5655 41.5124C73.4661 41.6705 73.3713 41.8557 73.2809 42.068C73.1906 42.2757 73.107 42.5016 73.0302 42.7455Z" fill="#663300"/>
<path d="M78.4948 42.3525H79.0436V42.5897H78.4948V46.2822C78.4948 46.5216 78.47 46.7159 78.4203 46.8649C78.3751 47.014 78.3141 47.1314 78.2374 47.2172C78.1606 47.3031 78.0702 47.3595 77.9663 47.3866C77.867 47.4182 77.7608 47.434 77.6479 47.434C77.404 47.434 77.2256 47.3776 77.1126 47.2647C76.9952 47.1517 76.9365 46.9891 76.9365 46.7768C76.9365 46.6639 76.9636 46.56 77.0178 46.4652C77.0675 46.3703 77.1352 46.2822 77.2211 46.2009C77.3024 46.1241 77.395 46.0541 77.4988 45.9909C77.6027 45.9322 77.7089 45.8802 77.8173 45.8351V41.8376C77.8173 41.4446 77.9099 41.151 78.0951 40.9568C78.2803 40.7581 78.5174 40.6587 78.8065 40.6587C78.942 40.6587 79.0662 40.679 79.1791 40.7197C79.2921 40.7603 79.3914 40.8236 79.4772 40.9094C79.5631 40.9952 79.6286 41.1013 79.6737 41.2278C79.7234 41.3543 79.7483 41.5034 79.7483 41.675H79.484C79.4569 41.4943 79.4072 41.352 79.335 41.2481C79.2672 41.1443 79.152 41.0923 78.9894 41.0923C78.881 41.0923 78.7952 41.1172 78.732 41.1668C78.6687 41.212 78.619 41.2752 78.5829 41.3566C78.5468 41.4379 78.5219 41.5372 78.5084 41.6547C78.4993 41.7676 78.4948 41.8918 78.4948 42.0273V42.3525ZM77.5124 47.0817C77.6434 47.0817 77.7269 47.0117 77.7631 46.8717C77.7992 46.7317 77.8173 46.5397 77.8173 46.2958V46.0858C77.614 46.1851 77.4604 46.2935 77.3566 46.411C77.2527 46.5284 77.2007 46.6436 77.2007 46.7565C77.2007 46.8469 77.2301 46.9236 77.2888 46.9869C77.3475 47.0501 77.4221 47.0817 77.5124 47.0817Z" fill="#663300"/>
<path d="M82.3517 42.3525V42.9217C82.4059 42.8404 82.4579 42.7636 82.5076 42.6913C82.5618 42.619 82.6205 42.5558 82.6837 42.5016C82.747 42.4474 82.817 42.4045 82.8938 42.3729C82.9706 42.3367 83.0564 42.3187 83.1512 42.3187C83.3048 42.3187 83.4177 42.3593 83.49 42.4406C83.5623 42.5174 83.5984 42.6123 83.5984 42.7252C83.5984 42.7929 83.5871 42.8494 83.5645 42.8946C83.5419 42.9397 83.5148 42.9759 83.4832 43.003C83.4516 43.0301 83.4177 43.0504 83.3816 43.0639C83.3455 43.073 83.3138 43.0775 83.2867 43.0775C83.2461 43.0775 83.2122 43.0685 83.1851 43.0504C83.1625 43.0323 83.1377 43.0143 83.1106 42.9962C83.088 42.9736 83.0609 42.9533 83.0293 42.9352C82.9977 42.9171 82.957 42.9081 82.9073 42.9081C82.8034 42.9081 82.7041 42.9442 82.6092 43.0165C82.5143 43.0888 82.4285 43.1656 82.3517 43.2469V45.7402H81.6742V42.3525H82.3517Z" fill="#663300"/>
<path d="M86.8705 42.3525V44.6562C86.8705 44.7013 86.8727 44.7578 86.8773 44.8255C86.8818 44.8933 86.8931 44.961 86.9111 45.0288C86.9337 45.092 86.9653 45.1485 87.006 45.1982C87.0466 45.2433 87.1031 45.2659 87.1754 45.2659C87.3967 45.2659 87.5593 45.0198 87.6632 44.5274H87.9139C87.8642 44.812 87.801 45.0378 87.7242 45.205C87.6474 45.3676 87.5661 45.4918 87.4803 45.5776C87.3944 45.6634 87.3064 45.7176 87.216 45.7402C87.1257 45.7673 87.0444 45.7809 86.9721 45.7809C86.814 45.7809 86.6853 45.7515 86.5859 45.6928C86.4865 45.6295 86.4075 45.5505 86.3488 45.4556C86.2901 45.3608 86.2494 45.2546 86.2268 45.1372C86.2042 45.0198 86.1929 44.9068 86.1929 44.7984V42.3525H86.8705ZM86.071 41.3769C86.071 41.2549 86.1139 41.1488 86.1997 41.0584C86.2855 40.9681 86.3917 40.9229 86.5182 40.9229C86.6401 40.9229 86.7463 40.9681 86.8366 41.0584C86.9269 41.1488 86.9721 41.2549 86.9721 41.3769C86.9721 41.5034 86.9269 41.6095 86.8366 41.6953C86.7463 41.7811 86.6401 41.8241 86.5182 41.8241C86.3917 41.8241 86.2855 41.7811 86.1997 41.6953C86.1139 41.6095 86.071 41.5034 86.071 41.3769Z" fill="#663300"/>
<path d="M91.4289 43.3892C91.4651 43.3575 91.4922 43.3079 91.5102 43.2401C91.5328 43.1678 91.5441 43.1001 91.5441 43.0368C91.5441 42.933 91.5102 42.8471 91.4425 42.7794C91.3792 42.7116 91.2889 42.6777 91.1715 42.6777C91.0495 42.6777 90.9479 42.7229 90.8666 42.8133C90.7853 42.9036 90.7198 43.0188 90.6701 43.1588C90.6204 43.2943 90.5843 43.4479 90.5617 43.6195C90.5436 43.7866 90.5346 43.9515 90.5346 44.1141C90.5346 44.3535 90.5549 44.5477 90.5956 44.6968C90.6407 44.8459 90.6994 44.9633 90.7717 45.0491C90.844 45.1304 90.9275 45.1869 91.0224 45.2185C91.1218 45.2501 91.2257 45.2659 91.3341 45.2659C91.5735 45.2659 91.7745 45.2072 91.9371 45.0898C92.1042 44.9678 92.2465 44.7804 92.3639 44.5274H92.5943C92.5401 44.6945 92.4633 44.8549 92.3639 45.0085C92.2645 45.1575 92.1494 45.2908 92.0184 45.4082C91.8874 45.5211 91.7451 45.6115 91.5915 45.6792C91.438 45.747 91.2776 45.7809 91.1105 45.7809C90.9524 45.7809 90.7966 45.7538 90.643 45.6996C90.4894 45.6454 90.3516 45.5573 90.2297 45.4353C90.1077 45.3088 90.0084 45.1462 89.9316 44.9475C89.8548 44.7442 89.8164 44.4958 89.8164 44.2022C89.8164 44.0125 89.8322 43.8092 89.8638 43.5924C89.8999 43.3711 89.9632 43.1678 90.0535 42.9826C90.1484 42.7929 90.2771 42.6348 90.4397 42.5084C90.6023 42.3819 90.8124 42.3187 91.0698 42.3187C91.3544 42.3187 91.5712 42.3887 91.7203 42.5287C91.8693 42.6642 91.9438 42.8652 91.9438 43.1317C91.9438 43.2446 91.9213 43.3395 91.8761 43.4163C91.8354 43.493 91.7699 43.5314 91.6796 43.5314C91.5802 43.5314 91.4967 43.484 91.4289 43.3892Z" fill="#663300"/>
<path d="M97.0949 42.3525V44.6562C97.0949 44.7104 97.0971 44.7736 97.1016 44.8459C97.1062 44.9136 97.1175 44.9791 97.1355 45.0423C97.1581 45.1056 97.1897 45.1598 97.2304 45.205C97.2755 45.2456 97.3388 45.2659 97.4201 45.2659C97.4562 45.2659 97.4946 45.2614 97.5353 45.2524C97.5804 45.2433 97.6166 45.2343 97.6437 45.2253C97.6482 45.2479 97.6504 45.2682 97.6504 45.2863C97.655 45.3043 97.6572 45.3247 97.6572 45.3472C97.6572 45.4827 97.6053 45.5889 97.5014 45.6657C97.3975 45.7425 97.2801 45.7809 97.1491 45.7809C97.009 45.7809 96.8826 45.7334 96.7696 45.6386C96.6567 45.5392 96.5799 45.3743 96.5393 45.144C96.4715 45.3201 96.3609 45.4715 96.2073 45.5979C96.0537 45.7199 95.8685 45.7809 95.6517 45.7809C95.5162 45.7809 95.3784 45.7538 95.2384 45.6996C95.1029 45.6408 94.981 45.5505 94.8725 45.4285C94.7641 45.3066 94.6738 45.1485 94.6015 44.9543C94.5338 44.76 94.4999 44.5252 94.4999 44.2496C94.4999 44.0373 94.5225 43.8183 94.5677 43.5924C94.6173 43.3621 94.6919 43.1543 94.7912 42.9691C94.8951 42.7794 95.0284 42.6235 95.191 42.5016C95.3536 42.3796 95.5478 42.3187 95.7737 42.3187C95.8911 42.3187 96.0108 42.3435 96.1328 42.3932C96.2592 42.4429 96.3541 42.5377 96.4173 42.6777V42.3525H97.0949ZM95.794 45.2659C95.8798 45.2659 95.9611 45.2456 96.0379 45.205C96.1147 45.1643 96.1802 45.1101 96.2344 45.0423C96.2931 44.9746 96.3383 44.8978 96.3699 44.812C96.4015 44.7216 96.4173 44.6268 96.4173 44.5274V42.9826C96.3857 42.9059 96.3383 42.8381 96.275 42.7794C96.2118 42.7207 96.1215 42.6913 96.004 42.6913C95.8595 42.6913 95.7375 42.741 95.6382 42.8404C95.5388 42.9352 95.4575 43.0572 95.3942 43.2062C95.331 43.3553 95.2836 43.5224 95.252 43.7076C95.2249 43.8883 95.2113 44.0622 95.2113 44.2293C95.2113 44.5952 95.2678 44.8594 95.3807 45.022C95.4936 45.1846 95.6314 45.2659 95.794 45.2659Z" fill="#663300"/>
<path d="M104.588 41.3227V42.3525H105.109V42.5897H104.588V44.6562C104.588 44.7104 104.59 44.7736 104.594 44.8459C104.599 44.9136 104.61 44.9791 104.628 45.0423C104.651 45.1056 104.682 45.1598 104.723 45.205C104.768 45.2456 104.829 45.2659 104.906 45.2659C105.028 45.2659 105.143 45.205 105.251 45.083C105.364 44.961 105.452 44.7758 105.516 44.5274H105.766C105.69 44.812 105.606 45.0378 105.516 45.205C105.43 45.3676 105.34 45.4918 105.245 45.5776C105.15 45.6634 105.055 45.7176 104.96 45.7402C104.87 45.7673 104.786 45.7809 104.709 45.7809C104.547 45.7809 104.414 45.7515 104.31 45.6928C104.206 45.6295 104.125 45.5505 104.066 45.4556C104.007 45.3608 103.966 45.2569 103.944 45.144C103.921 45.0265 103.91 44.9114 103.91 44.7984V42.5897H103.68V42.3525H103.91V41.4175L104.588 41.3227Z" fill="#663300"/>
<path d="M108.98 42.3187C109.138 42.3187 109.276 42.3412 109.393 42.3864C109.511 42.4316 109.61 42.4948 109.692 42.5761C109.777 42.6529 109.845 42.7478 109.895 42.8607C109.949 42.9691 109.99 43.0865 110.017 43.213C110.143 43.213 110.234 43.1746 110.288 43.0978C110.342 43.0165 110.38 42.942 110.403 42.8742H110.599C110.563 43.0233 110.502 43.1769 110.417 43.335C110.335 43.4885 110.22 43.6037 110.071 43.6805C110.08 43.7347 110.085 43.7889 110.085 43.8431C110.085 43.8928 110.085 43.9447 110.085 43.9989C110.085 44.5545 109.983 44.9904 109.78 45.3066C109.576 45.6228 109.292 45.7809 108.926 45.7809C108.777 45.7809 108.626 45.7538 108.472 45.6996C108.323 45.6454 108.187 45.555 108.065 45.4285C107.944 45.3021 107.844 45.1395 107.767 44.9407C107.695 44.742 107.659 44.4958 107.659 44.2022C107.659 44.0035 107.679 43.7934 107.72 43.5721C107.765 43.3508 107.837 43.1475 107.937 42.9623C108.041 42.7771 108.176 42.6235 108.343 42.5016C108.515 42.3796 108.727 42.3187 108.98 42.3187ZM109.048 45.2659C109.287 45.2659 109.463 45.1485 109.576 44.9136C109.689 44.6742 109.746 44.3377 109.746 43.9041C109.746 43.8815 109.744 43.8589 109.739 43.8363C109.739 43.8092 109.739 43.7844 109.739 43.7618C109.613 43.7618 109.52 43.7279 109.461 43.6602C109.402 43.5879 109.373 43.4863 109.373 43.3553C109.373 43.2649 109.396 43.1949 109.441 43.1452C109.486 43.091 109.547 43.0594 109.624 43.0504C109.57 42.9194 109.502 42.8268 109.421 42.7726C109.339 42.7184 109.251 42.6913 109.156 42.6913C109.016 42.6913 108.897 42.7387 108.797 42.8336C108.702 42.9239 108.623 43.0414 108.56 43.1859C108.501 43.3304 108.458 43.4908 108.431 43.6669C108.404 43.8386 108.391 44.008 108.391 44.1751C108.391 44.3964 108.411 44.5771 108.452 44.7171C108.492 44.8572 108.544 44.9678 108.608 45.0491C108.671 45.1304 108.741 45.1869 108.818 45.2185C108.894 45.2501 108.971 45.2659 109.048 45.2659Z" fill="#663300"/>
<path d="M117.501 41.3227V42.3525H118.023V42.5897H117.501V44.6562C117.501 44.7104 117.504 44.7736 117.508 44.8459C117.513 44.9136 117.524 44.9791 117.542 45.0423C117.565 45.1056 117.596 45.1598 117.637 45.205C117.682 45.2456 117.743 45.2659 117.82 45.2659C117.942 45.2659 118.057 45.205 118.165 45.083C118.278 44.961 118.366 44.7758 118.43 44.5274H118.68C118.604 44.812 118.52 45.0378 118.43 45.205C118.344 45.3676 118.254 45.4918 118.159 45.5776C118.064 45.6634 117.969 45.7176 117.874 45.7402C117.784 45.7673 117.7 45.7809 117.623 45.7809C117.461 45.7809 117.328 45.7515 117.224 45.6928C117.12 45.6295 117.038 45.5505 116.98 45.4556C116.921 45.3608 116.88 45.2569 116.858 45.144C116.835 45.0265 116.824 44.9114 116.824 44.7984V42.5897H116.594V42.3525H116.824V41.4175L117.501 41.3227Z" fill="#663300"/>
<path d="M121.332 40.9975V42.8675C121.399 42.7455 121.467 42.6484 121.535 42.5761C121.607 42.4993 121.68 42.4429 121.752 42.4067C121.824 42.3706 121.892 42.348 121.955 42.339C122.023 42.3254 122.086 42.3187 122.145 42.3187C122.348 42.3187 122.511 42.357 122.633 42.4338C122.759 42.5106 122.854 42.61 122.917 42.732C122.98 42.8494 123.021 42.9804 123.039 43.1249C123.062 43.2649 123.073 43.4005 123.073 43.5314C123.073 43.6127 123.071 43.7031 123.066 43.8025C123.062 43.8973 123.057 43.9967 123.053 44.1006C123.048 44.1999 123.044 44.3016 123.039 44.4055C123.035 44.5048 123.032 44.5974 123.032 44.6833C123.032 44.7194 123.035 44.7713 123.039 44.8391C123.044 44.9023 123.055 44.9656 123.073 45.0288C123.091 45.092 123.12 45.1485 123.161 45.1982C123.202 45.2433 123.26 45.2659 123.337 45.2659C123.441 45.2659 123.534 45.2072 123.615 45.0898C123.701 44.9723 123.771 44.7849 123.825 44.5274H124.076C124.026 44.812 123.963 45.0378 123.886 45.205C123.809 45.3676 123.728 45.4918 123.642 45.5776C123.556 45.6634 123.47 45.7176 123.385 45.7402C123.299 45.7673 123.22 45.7809 123.148 45.7809C123.003 45.7809 122.881 45.7538 122.782 45.6996C122.682 45.6408 122.601 45.564 122.538 45.4692C122.475 45.3743 122.427 45.2637 122.395 45.1372C122.368 45.0107 122.355 44.8797 122.355 44.7442C122.355 44.7036 122.355 44.6291 122.355 44.5206C122.359 44.4077 122.362 44.288 122.362 44.1616C122.366 44.0351 122.368 43.9154 122.368 43.8025C122.373 43.6895 122.375 43.6105 122.375 43.5653C122.375 43.4208 122.364 43.3011 122.341 43.2062C122.319 43.1114 122.287 43.0368 122.246 42.9826C122.206 42.9284 122.158 42.89 122.104 42.8675C122.054 42.8449 122 42.8336 121.942 42.8336C121.801 42.8336 121.68 42.89 121.576 43.003C121.476 43.1159 121.395 43.3056 121.332 43.5721V45.7402H120.654V41.0923L121.332 40.9975Z" fill="#663300"/>
<path d="M128.173 43.1995C128.173 43.5156 128.042 43.7799 127.781 43.9922C127.523 44.2045 127.164 44.3355 126.703 44.3851C126.721 44.5658 126.753 44.7126 126.798 44.8255C126.848 44.9385 126.906 45.0288 126.974 45.0965C127.042 45.1598 127.119 45.205 127.205 45.2321C127.295 45.2546 127.388 45.2659 127.482 45.2659C127.627 45.2659 127.762 45.2411 127.889 45.1914C128.02 45.1417 128.128 45.0559 128.214 44.9339C128.219 44.9656 128.221 44.9972 128.221 45.0288C128.225 45.0559 128.228 45.0807 128.228 45.1033C128.228 45.2072 128.201 45.2998 128.146 45.3811C128.097 45.4624 128.027 45.5347 127.936 45.5979C127.851 45.6566 127.749 45.7018 127.631 45.7334C127.519 45.7651 127.399 45.7809 127.272 45.7809C127.119 45.7809 126.965 45.7538 126.812 45.6996C126.658 45.6408 126.518 45.5505 126.392 45.4285C126.27 45.3021 126.17 45.1395 126.093 44.9407C126.017 44.742 125.978 44.5003 125.978 44.2158C125.978 44.026 125.999 43.8205 126.039 43.5992C126.084 43.3779 126.157 43.1723 126.256 42.9826C126.36 42.7929 126.493 42.6348 126.656 42.5084C126.823 42.3819 127.028 42.3187 127.272 42.3187C127.385 42.3187 127.494 42.3322 127.598 42.3593C127.706 42.3819 127.803 42.4271 127.889 42.4948C127.975 42.558 128.042 42.6461 128.092 42.7591C128.146 42.872 128.173 43.0188 128.173 43.1995ZM126.696 44.1209C127.017 44.0712 127.27 43.9583 127.455 43.7821C127.645 43.606 127.74 43.3892 127.74 43.1317C127.74 42.9601 127.71 42.8381 127.652 42.7658C127.593 42.689 127.509 42.6506 127.401 42.6506C127.284 42.6506 127.18 42.6958 127.089 42.7862C127.004 42.8765 126.931 42.9939 126.873 43.1385C126.814 43.2785 126.769 43.4366 126.737 43.6127C126.71 43.7844 126.696 43.9538 126.696 44.1209Z" fill="#663300"/>
<path d="M137.445 45.1982L138.32 40.6926H138.821L139.79 45.1982L140.664 40.6926H141.05L139.979 45.7402H139.227L138.414 42.068L137.635 45.7402H136.883L135.806 41.0449C135.634 41.0449 135.49 41.0765 135.372 41.1397C135.255 41.1985 135.16 41.2798 135.088 41.3837C135.015 41.483 134.961 41.5982 134.925 41.7292C134.893 41.8557 134.878 41.9867 134.878 42.1222C134.878 42.3164 134.905 42.4903 134.959 42.6439C135.013 42.7974 135.092 42.9397 135.196 43.0707C135.106 43.0707 135.015 43.0572 134.925 43.0301C134.835 43.003 134.753 42.9555 134.681 42.8878C134.609 42.82 134.55 42.7297 134.505 42.6168C134.46 42.4993 134.437 42.3525 134.437 42.1764C134.437 41.9731 134.476 41.7789 134.552 41.5937C134.629 41.4085 134.742 41.2481 134.891 41.1126C135.04 40.9726 135.223 40.862 135.44 40.7806C135.657 40.6993 135.905 40.6587 136.185 40.6587C136.235 40.6587 136.282 40.6609 136.328 40.6655C136.377 40.67 136.427 40.6768 136.477 40.6858L137.445 45.1982Z" fill="#663300"/>
<path d="M144.613 42.3187C144.789 42.3187 144.941 42.3458 145.067 42.4C145.194 42.4542 145.298 42.5309 145.379 42.6303C145.46 42.7252 145.523 42.8381 145.569 42.9691C145.618 43.1001 145.654 43.2401 145.677 43.3892H145.718C145.907 43.3892 146.081 43.3508 146.239 43.274C146.397 43.1972 146.533 43.1001 146.646 42.9826L146.747 43.1656C146.657 43.3101 146.513 43.4298 146.314 43.5247C146.12 43.6195 145.919 43.685 145.711 43.7212C145.711 43.7663 145.711 43.8115 145.711 43.8567C145.715 43.9018 145.718 43.9493 145.718 43.9989C145.718 44.5545 145.616 44.9904 145.413 45.3066C145.209 45.6228 144.925 45.7809 144.559 45.7809C144.41 45.7809 144.259 45.7538 144.105 45.6996C143.956 45.6454 143.821 45.555 143.699 45.4285C143.577 45.3021 143.477 45.1395 143.4 44.9407C143.328 44.742 143.292 44.4958 143.292 44.2022C143.292 44.0035 143.312 43.7934 143.353 43.5721C143.398 43.3508 143.47 43.1475 143.57 42.9623C143.674 42.7771 143.809 42.6235 143.976 42.5016C144.148 42.3796 144.36 42.3187 144.613 42.3187ZM144.681 45.2659C144.92 45.2659 145.097 45.1485 145.209 44.9136C145.322 44.6742 145.379 44.3377 145.379 43.9041C145.379 43.877 145.379 43.8499 145.379 43.8228C145.379 43.7957 145.377 43.7686 145.372 43.7415C145.241 43.7324 145.146 43.7031 145.088 43.6534C145.033 43.6037 145.006 43.5202 145.006 43.4027C145.006 43.2988 145.029 43.2266 145.074 43.1859C145.119 43.1407 145.187 43.1159 145.277 43.1114C145.223 42.9533 145.153 42.8449 145.067 42.7862C144.986 42.7229 144.893 42.6913 144.789 42.6913C144.649 42.6913 144.53 42.7387 144.43 42.8336C144.335 42.9239 144.256 43.0414 144.193 43.1859C144.134 43.3304 144.092 43.4908 144.064 43.6669C144.037 43.8386 144.024 44.008 144.024 44.1751C144.024 44.3964 144.044 44.5771 144.085 44.7171C144.125 44.8572 144.177 44.9678 144.241 45.0491C144.304 45.1304 144.374 45.1869 144.451 45.2185C144.527 45.2501 144.604 45.2659 144.681 45.2659Z" fill="#663300"/>
<path d="M149.125 42.3525V42.9217C149.179 42.8404 149.231 42.7636 149.281 42.6913C149.335 42.619 149.394 42.5558 149.457 42.5016C149.52 42.4474 149.59 42.4045 149.667 42.3729C149.744 42.3367 149.83 42.3187 149.925 42.3187C150.078 42.3187 150.191 42.3593 150.264 42.4406C150.336 42.5174 150.372 42.6123 150.372 42.7252C150.372 42.7929 150.361 42.8494 150.338 42.8946C150.315 42.9397 150.288 42.9759 150.257 43.003C150.225 43.0301 150.191 43.0504 150.155 43.0639C150.119 43.073 150.087 43.0775 150.06 43.0775C150.02 43.0775 149.986 43.0685 149.959 43.0504C149.936 43.0323 149.911 43.0143 149.884 42.9962C149.862 42.9736 149.834 42.9533 149.803 42.9352C149.771 42.9171 149.731 42.9081 149.681 42.9081C149.577 42.9081 149.478 42.9442 149.383 43.0165C149.288 43.0888 149.202 43.1656 149.125 43.2469V45.7402H148.448V42.3525H149.125Z" fill="#663300"/>
<path d="M153.644 40.9975V44.6562C153.644 44.7013 153.646 44.7578 153.651 44.8255C153.655 44.8933 153.667 44.961 153.685 45.0288C153.707 45.092 153.739 45.1485 153.78 45.1982C153.82 45.2433 153.877 45.2659 153.949 45.2659C154.17 45.2659 154.333 45.0198 154.437 44.5274H154.687C154.638 44.812 154.574 45.0378 154.498 45.205C154.421 45.3676 154.34 45.4918 154.254 45.5776C154.168 45.6634 154.08 45.7176 153.99 45.7402C153.899 45.7673 153.818 45.7809 153.746 45.7809C153.588 45.7809 153.459 45.7515 153.359 45.6928C153.26 45.6295 153.181 45.5505 153.122 45.4556C153.064 45.3608 153.023 45.2546 153 45.1372C152.978 45.0198 152.966 44.9068 152.966 44.7984V41.0923L153.644 40.9975Z" fill="#663300"/>
<path d="M159.158 40.9975V44.6562C159.158 44.7104 159.16 44.7736 159.165 44.8459C159.169 44.9136 159.181 44.9791 159.199 45.0423C159.221 45.1056 159.253 45.1598 159.293 45.205C159.339 45.2456 159.402 45.2659 159.483 45.2659C159.519 45.2659 159.558 45.2614 159.598 45.2524C159.643 45.2433 159.68 45.2343 159.707 45.2253C159.711 45.2479 159.713 45.2682 159.713 45.2863C159.718 45.3043 159.72 45.3247 159.72 45.3472C159.72 45.4827 159.668 45.5889 159.564 45.6657C159.461 45.7425 159.343 45.7809 159.212 45.7809C159.072 45.7809 158.946 45.7334 158.833 45.6386C158.72 45.5392 158.643 45.3743 158.602 45.144C158.535 45.3201 158.424 45.4715 158.27 45.5979C158.117 45.7199 157.932 45.7809 157.715 45.7809C157.579 45.7809 157.441 45.7538 157.301 45.6996C157.166 45.6408 157.044 45.5505 156.936 45.4285C156.827 45.3066 156.737 45.1485 156.665 44.9543C156.597 44.76 156.563 44.5252 156.563 44.2496C156.563 44.0373 156.586 43.8183 156.631 43.5924C156.68 43.3621 156.755 43.1543 156.854 42.9691C156.958 42.7794 157.091 42.6235 157.254 42.5016C157.417 42.3796 157.611 42.3187 157.837 42.3187C157.954 42.3187 158.074 42.3435 158.196 42.3932C158.322 42.4429 158.417 42.5377 158.48 42.6777V41.0923L159.158 40.9975ZM157.857 45.2659C157.943 45.2659 158.024 45.2456 158.101 45.205C158.178 45.1643 158.243 45.1101 158.297 45.0423C158.356 44.9746 158.401 44.8978 158.433 44.812C158.465 44.7216 158.48 44.6268 158.48 44.5274V42.9826C158.449 42.9059 158.401 42.8381 158.338 42.7794C158.275 42.7207 158.185 42.6913 158.067 42.6913C157.923 42.6913 157.801 42.741 157.701 42.8404C157.602 42.9352 157.521 43.0572 157.457 43.2062C157.394 43.3553 157.347 43.5224 157.315 43.7076C157.288 43.8883 157.274 44.0622 157.274 44.2293C157.274 44.5952 157.331 44.8594 157.444 45.022C157.557 45.1846 157.694 45.2659 157.857 45.2659Z" fill="#663300"/>
<ellipse cx="28.6612" cy="16.6837" rx="1.56354" ry="1.56354" fill="white"/>
<ellipse cx="42.7335" cy="16.6837" rx="1.56354" ry="1.56354" fill="white"/>
</svg>
