<svg width="161" height="48" viewBox="0 0 161 48" fill="none" xmlns="http://www.w3.org/2000/svg">
<ellipse cx="108.742" cy="24.4014" rx="1.56354" ry="1.56354" fill="white"/>
<path fill-rule="evenodd" clip-rule="evenodd" d="M49.586 12.1533H20.1393C17.0122 12.023 14.5366 14.1078 18.1848 16.0622C20.921 16.0622 22.5627 20.1013 18.1848 19.5802H12.4518C10.2368 19.5802 8.5951 22.3164 12.4518 23.3587H20.5301C22.4846 23.3587 23.9699 26.7985 20.5301 27.007H15.4486C13.2336 27.007 11.9307 30.7856 15.4486 30.7856C18.9666 30.7856 18.706 35.6065 15.4486 34.6944H9.71564C7.50061 34.3035 5.80677 38.2124 9.71564 38.7336H24.1784C25.6117 38.7336 26.4716 41.2874 24.1784 42.1213H16.8819C14.6669 42.1213 14.5887 45.4047 16.8819 45.5089H49.7163C52.7131 45.2483 52.7131 45.118 52.7131 39.9062L53.4949 14.1078C53.4949 12.9351 53.0258 11.9449 49.586 12.1533ZM35.7747 35.3459C38.1721 35.5544 40.1613 32.74 40.8562 31.3067C41.3774 30.7856 40.7259 30.4815 40.335 30.3947L39.6836 31.3067C39.6836 31.3067 38.9999 31.7182 38.5109 31.8279C37.9648 31.9505 37.0777 31.8279 37.0777 31.8279L36.2959 31.0462C36.0874 30.8377 35.8616 31.133 35.7747 31.3067L34.8626 31.8279L34.4717 32.8703H33.5597L33.4294 31.8279L33.2991 30.7856C31.0059 29.4305 31.6487 27.7019 32.2567 27.007C35.0711 25.4435 37.5988 28.3534 38.5109 30.0038L39.6836 29.7432V28.7008L38.9018 28.0494L37.8594 27.007L36.8171 25.8343H37.8594L38.5109 26.3555L39.2927 27.2676L40.335 27.5282C38.8757 23.9841 35.4707 23.8799 33.9506 24.2708C30.0417 25.1829 30.9538 29.4826 30.9538 30.0038C28.1394 33.0266 24.439 28.0494 25.3511 25.8343C25.6638 20.3098 31.5618 19.363 34.4717 19.5802V20.7528L35.7747 21.5346H41.638L42.1592 23.7496C43.0278 25.0091 44.8693 27.6324 45.2863 28.0494C48.2049 27.007 47.8922 29.1786 47.371 30.3947L43.7227 33.9126V37.9518C43.2884 38.1255 42.3676 38.5251 42.1592 38.7336C42.3676 42.3818 38.5109 43.7282 36.5565 43.9454C35.8268 42.6946 32.9082 36.258 35.7747 35.3459ZM44.7651 39.1245C44.6608 39.4372 44.3742 39.6022 44.2439 39.6456C44.2439 39.6456 44.036 40.5592 44.2439 41.0789C44.5045 41.7304 45.8074 41.0789 45.8074 41.0789V39.9062H46.3286L46.5892 38.7336H47.2407V36.5186L46.3286 36.6488V37.3003L45.0257 37.6912C44.9822 38.0387 44.8693 38.8118 44.7651 39.1245Z" fill="white"/>
<path d="M12.4518 12.1533C14.6669 11.6322 17.9764 15.6452 12.4518 16.0622C7.86545 16.0622 8.93386 11.6322 12.4518 12.1533Z" fill="white"/>
<path d="M2.94027 27.007H11.0186C12.8427 27.007 13.7548 30.1341 11.0186 30.7856L2.67968 30.7856C0.985845 31.1764 -0.499522 27.4239 2.94027 27.007Z" fill="white"/>
<path d="M29.1296 10.7201H32.2567C32.6042 8.07075 34.4978 2.90237 39.2927 3.42355C44.0875 3.94473 44.9388 8.50507 44.7651 10.7201H48.0225C48.283 7.07182 46.9197 0.426758 39.2927 0.426758C30.5629 0.426758 29.3468 7.50614 29.1296 10.7201Z" fill="white"/>
<path d="M69.9844 35.4319L69.1856 32.9633H70.7503H71.017V32.6966V28.794V28.5273H70.7503H67.7501L66.0483 23.2686L66.9178 20.6475L67.0341 20.2968H66.6647H64.8927H64.5261L64.639 20.6456L65.4871 23.2665L63.7419 28.5273H60.9548H60.6881V28.794V32.6966V32.9633H60.9548H62.2703L61.4514 35.4319H57.0077L63.4778 18.1534H68.1281L74.5266 35.4319H69.9844ZM69.013 32.4299L67.9227 29.0607H70.4836V32.4299H69.013ZM67.3621 29.0607L68.4524 32.4299H63.0092L64.1269 29.0607H67.3621ZM61.2214 29.0607H63.565L62.4473 32.4299H61.2214V29.0607ZM66.2953 20.8302L65.7708 22.4111L65.2592 20.8302H66.2953ZM80.9701 18.1534V21.7728H80.5681V18.1534H80.9701ZM81.5034 18.1534H89.0182V21.7728H81.5034V18.1534ZM80.3015 22.3062H80.9701V24.9499H80.3015H80.0348V25.2166V29.3694V29.636H80.3015H80.9701V35.4319H76.581V18.1534H80.0348V22.0395V22.3062H80.3015ZM80.5681 25.4833H80.9701V29.1027H80.5681V25.4833ZM81.5034 29.1027V25.4833H88.649V29.1027H81.5034ZM101.067 35.4319L98.5591 28.8605H98.9391C100.266 28.8605 101.43 28.6301 102.425 28.1595C102.653 28.0517 102.869 27.9341 103.074 27.8065L106.079 35.4319H101.067ZM96.6215 18.1534H99.1852C100.366 18.1534 101.391 18.3723 102.267 18.8016C103.146 19.2324 103.831 19.8269 104.328 20.5847C104.821 21.3369 105.072 22.2187 105.072 23.2403C105.072 24.2602 104.814 25.1409 104.305 25.8927L104.303 25.8959C104.035 26.3038 103.709 26.6647 103.321 26.9784L102.559 25.0438L102.492 24.8749H102.311H100.064C100.078 24.8619 100.093 24.8486 100.107 24.835C100.528 24.4449 100.732 23.9292 100.732 23.3153C100.732 22.7015 100.528 22.1858 100.107 21.7957C99.6955 21.399 99.1101 21.2225 98.3976 21.2225H96.6215V18.1534ZM95.6862 18.1534H96.0882V21.2225H95.6862V18.1534ZM96.0882 21.7558V35.4319H91.6991V18.1534H95.1529V21.4891V21.7558H95.4196H96.0882ZM98.9391 28.3272H98.5758L97.5756 25.9122L98.4677 25.4082H102.129L102.875 27.3013C102.664 27.438 102.438 27.5634 102.197 27.6774C101.288 28.1074 100.205 28.3272 98.9391 28.3272ZM97.3835 25.4082L97.2667 25.4742L97.2416 25.4082H97.3835ZM107.603 28.4688V18.1534H111.992V28.9191C111.992 29.5252 112.124 30.0595 112.401 30.5097C112.671 30.9501 113.035 31.292 113.488 31.5314L113.487 31.5317L113.499 31.5371C113.964 31.7551 114.47 31.8625 115.015 31.8625C115.574 31.8625 116.077 31.7558 116.514 31.5334L116.514 31.5334L116.518 31.5314C116.97 31.2927 117.326 30.9591 117.582 30.5321L117.582 30.5321L117.585 30.5278C117.842 30.0789 117.964 29.5471 117.964 28.9441V18.1534H122.378V28.4938C122.378 29.9215 122.067 31.1761 121.453 32.2654L121.452 32.2665C120.853 33.3396 120.003 34.1887 118.896 34.8158C117.811 35.4232 116.52 35.7321 115.015 35.7321C113.51 35.7321 112.211 35.4234 111.109 34.8155C110.003 34.1886 109.144 33.3312 108.528 32.2403C107.914 31.1511 107.603 29.8965 107.603 28.4688ZM125.492 18.1534H128.306L126.867 22.6334L126.824 22.768L126.911 22.8793L129.882 26.6737V35.4319H125.492V18.1534ZM130.396 21.5416L129.59 19.4926L135.788 27.4099V31.746V31.7865L135.8 31.8252L136.598 34.3881L130.415 26.4898V21.6392V21.5886L130.396 21.5416ZM127.418 22.6619L128.697 18.6796L129.882 21.6898V25.8085L127.418 22.6619ZM136.322 31.7054V28.0912L138.539 30.9235L137.29 34.8142L136.322 31.7054ZM140.711 35.4319H137.651L139.09 30.9519L139.133 30.8173L139.046 30.706L136.322 27.226V18.1534H140.711V35.4319ZM155.934 35.4319L155.135 32.9633H156.7H156.967V32.6966V28.794V28.5273H156.7H153.7L151.998 23.2686L152.867 20.6475L152.984 20.2968H152.614H150.842H150.476L150.589 20.6456L151.437 23.2665L149.691 28.5273H146.904H146.638V28.794V32.6966V32.9633H146.904H148.22L147.401 35.4319H142.957L149.427 18.1534H154.078L160.476 35.4319H155.934ZM154.963 32.4299L153.872 29.0607H156.433V32.4299H154.963ZM153.312 29.0607L154.402 32.4299H148.959L150.076 29.0607H153.312ZM147.171 29.0607H149.515L148.397 32.4299H147.171V29.0607ZM152.245 20.8302L151.72 22.4111L151.209 20.8302H152.245Z" fill="white" stroke="white" stroke-width="0.533333"/>
<path d="M56.8799 44.9661C56.8799 44.8441 56.9228 44.738 57.0086 44.6476C57.0944 44.5573 57.2006 44.5121 57.3271 44.5121C57.449 44.5121 57.5552 44.5573 57.6455 44.6476C57.7358 44.738 57.781 44.8441 57.781 44.9661C57.781 45.0925 57.7358 45.1987 57.6455 45.2845C57.5552 45.3703 57.449 45.4132 57.3271 45.4132C57.2006 45.4132 57.0944 45.3703 57.0086 45.2845C56.9228 45.1987 56.8799 45.0925 56.8799 44.9661Z" fill="white"/>
<path d="M60.5317 44.9661C60.5317 44.8441 60.5746 44.738 60.6604 44.6476C60.7462 44.5573 60.8524 44.5121 60.9789 44.5121C61.1008 44.5121 61.207 44.5573 61.2973 44.6476C61.3876 44.738 61.4328 44.8441 61.4328 44.9661C61.4328 45.0925 61.3876 45.1987 61.2973 45.2845C61.207 45.3703 61.1008 45.4132 60.9789 45.4132C60.8524 45.4132 60.7462 45.3703 60.6604 45.2845C60.5746 45.1987 60.5317 45.0925 60.5317 44.9661Z" fill="white"/>
<path d="M64.1835 44.9661C64.1835 44.8441 64.2264 44.738 64.3122 44.6476C64.3981 44.5573 64.5042 44.5121 64.6307 44.5121C64.7526 44.5121 64.8588 44.5573 64.9491 44.6476C65.0395 44.738 65.0846 44.8441 65.0846 44.9661C65.0846 45.0925 65.0395 45.1987 64.9491 45.2845C64.8588 45.3703 64.7526 45.4132 64.6307 45.4132C64.5042 45.4132 64.3981 45.3703 64.3122 45.2845C64.2264 45.1987 64.1835 45.0925 64.1835 44.9661Z" fill="white"/>
<path d="M74.2979 45.3794V42.9402C74.1263 42.8589 73.9298 42.7912 73.7085 42.737C73.4917 42.6783 73.2704 42.6353 73.0445 42.6082C72.9903 42.807 72.9406 43.0125 72.8954 43.2248C72.8503 43.4326 72.8119 43.6404 72.7803 43.8481C72.7486 44.0514 72.7238 44.2524 72.7057 44.4511C72.6877 44.6454 72.6786 44.8306 72.6786 45.0067C72.6786 45.2055 72.6922 45.3997 72.7193 45.5894C72.7509 45.7791 72.8164 45.9666 72.9158 46.1518C72.8119 46.1518 72.7035 46.1405 72.5906 46.1179C72.4776 46.0953 72.3737 46.0434 72.2789 45.962C72.184 45.8853 72.105 45.7723 72.0418 45.6233C71.983 45.4787 71.9537 45.2823 71.9537 45.0338C71.9537 44.8757 71.965 44.6996 71.9876 44.5053C72.0101 44.3111 72.044 44.1079 72.0892 43.8956C72.1343 43.6833 72.1886 43.4665 72.2518 43.2451C72.3195 43.0193 72.3941 42.798 72.4754 42.5811C72.3444 42.5857 72.2202 42.597 72.1027 42.615C71.9898 42.6331 71.8904 42.6602 71.8046 42.6963C71.7233 42.7279 71.6578 42.7663 71.6081 42.8115C71.5584 42.8567 71.5336 42.9064 71.5336 42.9606C71.5336 42.9786 71.5359 42.9922 71.5404 43.0012C71.6578 43.0374 71.7165 43.1119 71.7165 43.2248C71.7165 43.3061 71.6872 43.3626 71.6285 43.3942C71.5697 43.4258 71.5065 43.4416 71.4387 43.4416C71.3258 43.4416 71.2219 43.41 71.1271 43.3468C71.0277 43.279 70.978 43.1638 70.978 43.0012C70.978 42.8928 71.0119 42.7957 71.0797 42.7099C71.1429 42.6241 71.231 42.5518 71.3439 42.4931C71.4613 42.4298 71.5968 42.3824 71.7504 42.3508C71.9085 42.3192 72.0801 42.3034 72.2653 42.3034C72.315 42.3034 72.367 42.3056 72.4212 42.3101C72.4754 42.3101 72.5296 42.3124 72.5838 42.3169C72.6967 42.0459 72.8232 41.7884 72.9632 41.5445C73.1032 41.2961 73.2545 41.0815 73.4172 40.9009C73.5798 40.7157 73.7514 40.5689 73.9321 40.4605C74.1128 40.3521 74.3025 40.2979 74.5012 40.2979C74.569 40.2979 74.6525 40.3046 74.7519 40.3182C74.8558 40.3317 74.9529 40.3566 75.0432 40.3927V45.3794H74.2979ZM73.1123 42.3847C73.3381 42.4253 73.5549 42.4773 73.7627 42.5405C73.9705 42.5992 74.1489 42.6647 74.2979 42.737V40.6231C74.185 40.6321 74.0744 40.684 73.966 40.7789C73.8575 40.8692 73.7514 40.9935 73.6475 41.1515C73.5481 41.3096 73.4533 41.4948 73.3629 41.7071C73.2726 41.9149 73.189 42.1407 73.1123 42.3847Z" fill="white"/>
<path d="M78.5768 41.9917H79.1257V42.2288H78.5768V45.9214C78.5768 46.1608 78.552 46.355 78.5023 46.5041C78.4572 46.6531 78.3962 46.7706 78.3194 46.8564C78.2426 46.9422 78.1523 46.9987 78.0484 47.0258C77.949 47.0574 77.8429 47.0732 77.7299 47.0732C77.486 47.0732 77.3076 47.0167 77.1947 46.9038C77.0772 46.7909 77.0185 46.6283 77.0185 46.416C77.0185 46.3031 77.0456 46.1992 77.0998 46.1043C77.1495 46.0095 77.2173 45.9214 77.3031 45.8401C77.3844 45.7633 77.477 45.6933 77.5809 45.6301C77.6848 45.5713 77.7909 45.5194 77.8993 45.4742V41.4768C77.8993 41.0838 77.9919 40.7902 78.1771 40.596C78.3623 40.3972 78.5994 40.2979 78.8885 40.2979C79.024 40.2979 79.1482 40.3182 79.2612 40.3588C79.3741 40.3995 79.4735 40.4627 79.5593 40.5485C79.6451 40.6344 79.7106 40.7405 79.7558 40.867C79.8054 40.9935 79.8303 41.1425 79.8303 41.3142H79.5661C79.5389 41.1335 79.4893 40.9912 79.417 40.8873C79.3492 40.7834 79.2341 40.7315 79.0715 40.7315C78.963 40.7315 78.8772 40.7563 78.814 40.806C78.7507 40.8512 78.7011 40.9144 78.6649 40.9957C78.6288 41.077 78.604 41.1764 78.5904 41.2938C78.5814 41.4068 78.5768 41.531 78.5768 41.6665V41.9917ZM77.5944 46.7209C77.7254 46.7209 77.809 46.6509 77.8451 46.5109C77.8812 46.3708 77.8993 46.1789 77.8993 45.9349V45.7249C77.6961 45.8243 77.5425 45.9327 77.4386 46.0501C77.3347 46.1676 77.2828 46.2827 77.2828 46.3957C77.2828 46.486 77.3121 46.5628 77.3708 46.626C77.4296 46.6893 77.5041 46.7209 77.5944 46.7209Z" fill="white"/>
<path d="M82.4338 41.9917V42.5608C82.488 42.4795 82.5399 42.4027 82.5896 42.3305C82.6438 42.2582 82.7025 42.195 82.7658 42.1407C82.829 42.0865 82.899 42.0436 82.9758 42.012C83.0526 41.9759 83.1384 41.9578 83.2333 41.9578C83.3868 41.9578 83.4998 41.9985 83.572 42.0798C83.6443 42.1566 83.6804 42.2514 83.6804 42.3643C83.6804 42.4321 83.6691 42.4886 83.6466 42.5337C83.624 42.5789 83.5969 42.615 83.5653 42.6421C83.5336 42.6692 83.4998 42.6896 83.4636 42.7031C83.4275 42.7121 83.3959 42.7167 83.3688 42.7167C83.3281 42.7167 83.2942 42.7076 83.2671 42.6896C83.2446 42.6715 83.2197 42.6534 83.1926 42.6353C83.17 42.6128 83.1429 42.5924 83.1113 42.5744C83.0797 42.5563 83.039 42.5473 82.9894 42.5473C82.8855 42.5473 82.7861 42.5834 82.6912 42.6557C82.5964 42.7279 82.5106 42.8047 82.4338 42.886V45.3794H81.7562V41.9917H82.4338Z" fill="white"/>
<path d="M86.9525 41.9917V44.2953C86.9525 44.3405 86.9548 44.3969 86.9593 44.4647C86.9638 44.5324 86.9751 44.6002 86.9932 44.668C87.0157 44.7312 87.0474 44.7877 87.088 44.8373C87.1287 44.8825 87.1851 44.9051 87.2574 44.9051C87.4787 44.9051 87.6413 44.6589 87.7452 44.1666H87.9959C87.9462 44.4511 87.883 44.677 87.8062 44.8441C87.7294 45.0067 87.6481 45.1309 87.5623 45.2168C87.4765 45.3026 87.3884 45.3568 87.2981 45.3794C87.2077 45.4065 87.1264 45.42 87.0541 45.42C86.896 45.42 86.7673 45.3907 86.6679 45.3319C86.5686 45.2687 86.4895 45.1897 86.4308 45.0948C86.3721 44.9999 86.3314 44.8938 86.3089 44.7764C86.2863 44.6589 86.275 44.546 86.275 44.4376V41.9917H86.9525ZM86.153 41.016C86.153 40.8941 86.1959 40.7879 86.2818 40.6976C86.3676 40.6073 86.4737 40.5621 86.6002 40.5621C86.7221 40.5621 86.8283 40.6073 86.9186 40.6976C87.009 40.7879 87.0541 40.8941 87.0541 41.016C87.0541 41.1425 87.009 41.2487 86.9186 41.3345C86.8283 41.4203 86.7221 41.4632 86.6002 41.4632C86.4737 41.4632 86.3676 41.4203 86.2818 41.3345C86.1959 41.2487 86.153 41.1425 86.153 41.016Z" fill="white"/>
<path d="M91.511 43.0283C91.5471 42.9967 91.5742 42.947 91.5923 42.8793C91.6148 42.807 91.6261 42.7392 91.6261 42.676C91.6261 42.5721 91.5923 42.4863 91.5245 42.4185C91.4613 42.3508 91.3709 42.3169 91.2535 42.3169C91.1315 42.3169 91.0299 42.3621 90.9486 42.4524C90.8673 42.5428 90.8018 42.6579 90.7521 42.798C90.7024 42.9335 90.6663 43.087 90.6437 43.2587C90.6256 43.4258 90.6166 43.5907 90.6166 43.7533C90.6166 43.9927 90.6369 44.1869 90.6776 44.336C90.7228 44.485 90.7815 44.6025 90.8537 44.6883C90.926 44.7696 91.0096 44.826 91.1044 44.8577C91.2038 44.8893 91.3077 44.9051 91.4161 44.9051C91.6555 44.9051 91.8565 44.8464 92.0191 44.7289C92.1862 44.607 92.3285 44.4195 92.4459 44.1666H92.6763C92.6221 44.3337 92.5453 44.4941 92.4459 44.6476C92.3466 44.7967 92.2314 44.9299 92.1004 45.0474C91.9694 45.1603 91.8271 45.2506 91.6736 45.3184C91.52 45.3861 91.3596 45.42 91.1925 45.42C91.0344 45.42 90.8786 45.3929 90.725 45.3387C90.5714 45.2845 90.4337 45.1964 90.3117 45.0745C90.1898 44.948 90.0904 44.7854 90.0136 44.5867C89.9368 44.3834 89.8984 44.135 89.8984 43.8414C89.8984 43.6517 89.9142 43.4484 89.9458 43.2316C89.982 43.0103 90.0452 42.807 90.1356 42.6218C90.2304 42.4321 90.3591 42.274 90.5217 42.1475C90.6844 42.0211 90.8944 41.9578 91.1519 41.9578C91.4364 41.9578 91.6532 42.0278 91.8023 42.1678C91.9513 42.3034 92.0259 42.5044 92.0259 42.7709C92.0259 42.8838 92.0033 42.9786 91.9581 43.0554C91.9175 43.1322 91.852 43.1706 91.7616 43.1706C91.6623 43.1706 91.5787 43.1232 91.511 43.0283Z" fill="white"/>
<path d="M97.1769 41.9917V44.2953C97.1769 44.3495 97.1792 44.4128 97.1837 44.485C97.1882 44.5528 97.1995 44.6183 97.2175 44.6815C97.2401 44.7447 97.2718 44.7989 97.3124 44.8441C97.3576 44.8848 97.4208 44.9051 97.5021 44.9051C97.5382 44.9051 97.5766 44.9006 97.6173 44.8915C97.6625 44.8825 97.6986 44.8735 97.7257 44.8644C97.7302 44.887 97.7325 44.9074 97.7325 44.9254C97.737 44.9435 97.7393 44.9638 97.7393 44.9864C97.7393 45.1219 97.6873 45.2281 97.5834 45.3048C97.4795 45.3816 97.3621 45.42 97.2311 45.42C97.0911 45.42 96.9646 45.3726 96.8517 45.2777C96.7388 45.1784 96.662 45.0135 96.6213 44.7831C96.5536 44.9593 96.4429 45.1106 96.2893 45.2371C96.1357 45.359 95.9506 45.42 95.7337 45.42C95.5982 45.42 95.4605 45.3929 95.3204 45.3387C95.1849 45.28 95.063 45.1897 94.9546 45.0677C94.8462 44.9457 94.7558 44.7877 94.6836 44.5934C94.6158 44.3992 94.5819 44.1643 94.5819 43.8888C94.5819 43.6765 94.6045 43.4574 94.6497 43.2316C94.6994 43.0012 94.7739 42.7934 94.8733 42.6082C94.9772 42.4185 95.1104 42.2627 95.273 42.1407C95.4356 42.0188 95.6299 41.9578 95.8557 41.9578C95.9731 41.9578 96.0928 41.9827 96.2148 42.0323C96.3413 42.082 96.4361 42.1769 96.4994 42.3169V41.9917H97.1769ZM95.876 44.9051C95.9618 44.9051 96.0432 44.8848 96.1199 44.8441C96.1967 44.8035 96.2622 44.7493 96.3164 44.6815C96.3751 44.6138 96.4203 44.537 96.4519 44.4511C96.4836 44.3608 96.4994 44.266 96.4994 44.1666V42.6218C96.4677 42.545 96.4203 42.4773 96.3571 42.4185C96.2938 42.3598 96.2035 42.3305 96.0861 42.3305C95.9415 42.3305 95.8196 42.3801 95.7202 42.4795C95.6208 42.5744 95.5395 42.6963 95.4763 42.8454C95.413 42.9944 95.3656 43.1616 95.334 43.3468C95.3069 43.5274 95.2933 43.7013 95.2933 43.8685C95.2933 44.2343 95.3498 44.4986 95.4627 44.6612C95.5757 44.8238 95.7134 44.9051 95.876 44.9051Z" fill="white"/>
<path d="M104.67 40.9618V41.9917H105.191V42.2288H104.67V44.2953C104.67 44.3495 104.672 44.4128 104.676 44.485C104.681 44.5528 104.692 44.6183 104.71 44.6815C104.733 44.7447 104.764 44.7989 104.805 44.8441C104.85 44.8848 104.911 44.9051 104.988 44.9051C105.11 44.9051 105.225 44.8441 105.334 44.7222C105.446 44.6002 105.535 44.415 105.598 44.1666H105.848C105.772 44.4511 105.688 44.677 105.598 44.8441C105.512 45.0067 105.422 45.1309 105.327 45.2168C105.232 45.3026 105.137 45.3568 105.042 45.3794C104.952 45.4065 104.868 45.42 104.791 45.42C104.629 45.42 104.496 45.3907 104.392 45.3319C104.288 45.2687 104.207 45.1897 104.148 45.0948C104.089 44.9999 104.048 44.8961 104.026 44.7831C104.003 44.6657 103.992 44.5505 103.992 44.4376V42.2288H103.762V41.9917H103.992V41.0567L104.67 40.9618Z" fill="white"/>
<path d="M109.062 41.9578C109.22 41.9578 109.358 41.9804 109.475 42.0256C109.593 42.0707 109.692 42.134 109.774 42.2153C109.859 42.2921 109.927 42.3869 109.977 42.4998C110.031 42.6082 110.072 42.7257 110.099 42.8522C110.225 42.8522 110.316 42.8138 110.37 42.737C110.424 42.6557 110.462 42.5811 110.485 42.5134H110.682C110.645 42.6625 110.584 42.816 110.499 42.9741C110.417 43.1277 110.302 43.2429 110.153 43.3197C110.162 43.3739 110.167 43.4281 110.167 43.4823C110.167 43.532 110.167 43.5839 110.167 43.6381C110.167 44.1937 110.065 44.6296 109.862 44.9457C109.658 45.2619 109.374 45.42 109.008 45.42C108.859 45.42 108.708 45.3929 108.554 45.3387C108.405 45.2845 108.269 45.1942 108.148 45.0677C108.026 44.9412 107.926 44.7786 107.849 44.5799C107.777 44.3811 107.741 44.135 107.741 43.8414C107.741 43.6426 107.761 43.4326 107.802 43.2113C107.847 42.9899 107.919 42.7867 108.019 42.6015C108.123 42.4163 108.258 42.2627 108.425 42.1407C108.597 42.0188 108.809 41.9578 109.062 41.9578ZM109.13 44.9051C109.369 44.9051 109.545 44.7877 109.658 44.5528C109.771 44.3134 109.828 43.9769 109.828 43.5432C109.828 43.5207 109.826 43.4981 109.821 43.4755C109.821 43.4484 109.821 43.4235 109.821 43.401C109.695 43.401 109.602 43.3671 109.543 43.2993C109.485 43.2271 109.455 43.1254 109.455 42.9944C109.455 42.9041 109.478 42.8341 109.523 42.7844C109.568 42.7302 109.629 42.6986 109.706 42.6896C109.652 42.5586 109.584 42.466 109.503 42.4118C109.421 42.3576 109.333 42.3305 109.238 42.3305C109.098 42.3305 108.979 42.3779 108.879 42.4727C108.784 42.5631 108.705 42.6805 108.642 42.8251C108.583 42.9696 108.54 43.13 108.513 43.3061C108.486 43.4778 108.473 43.6471 108.473 43.8143C108.473 44.0356 108.493 44.2163 108.534 44.3563C108.574 44.4963 108.626 44.607 108.69 44.6883C108.753 44.7696 108.823 44.826 108.9 44.8577C108.976 44.8893 109.053 44.9051 109.13 44.9051Z" fill="white"/>
<path d="M117.583 40.9618V41.9917H118.105V42.2288H117.583V44.2953C117.583 44.3495 117.586 44.4128 117.59 44.485C117.595 44.5528 117.606 44.6183 117.624 44.6815C117.647 44.7447 117.678 44.7989 117.719 44.8441C117.764 44.8848 117.825 44.9051 117.902 44.9051C118.024 44.9051 118.139 44.8441 118.247 44.7222C118.36 44.6002 118.448 44.415 118.512 44.1666H118.762C118.686 44.4511 118.602 44.677 118.512 44.8441C118.426 45.0067 118.336 45.1309 118.241 45.2168C118.146 45.3026 118.051 45.3568 117.956 45.3794C117.866 45.4065 117.782 45.42 117.705 45.42C117.543 45.42 117.41 45.3907 117.306 45.3319C117.202 45.2687 117.12 45.1897 117.062 45.0948C117.003 44.9999 116.962 44.8961 116.94 44.7831C116.917 44.6657 116.906 44.5505 116.906 44.4376V42.2288H116.676V41.9917H116.906V41.0567L117.583 40.9618Z" fill="white"/>
<path d="M121.414 40.6366V42.5066C121.482 42.3847 121.549 42.2875 121.617 42.2153C121.689 42.1385 121.762 42.082 121.834 42.0459C121.906 42.0098 121.974 41.9872 122.037 41.9781C122.105 41.9646 122.168 41.9578 122.227 41.9578C122.43 41.9578 122.593 41.9962 122.715 42.073C122.841 42.1498 122.936 42.2492 122.999 42.3711C123.062 42.4886 123.103 42.6195 123.121 42.7641C123.144 42.9041 123.155 43.0396 123.155 43.1706C123.155 43.2519 123.153 43.3422 123.148 43.4416C123.144 43.5365 123.139 43.6358 123.135 43.7397C123.13 43.8391 123.126 43.9407 123.121 44.0446C123.117 44.144 123.114 44.2366 123.114 44.3224C123.114 44.3585 123.117 44.4105 123.121 44.4782C123.126 44.5415 123.137 44.6047 123.155 44.668C123.173 44.7312 123.202 44.7877 123.243 44.8373C123.284 44.8825 123.342 44.9051 123.419 44.9051C123.523 44.9051 123.616 44.8464 123.697 44.7289C123.783 44.6115 123.853 44.424 123.907 44.1666H124.158C124.108 44.4511 124.045 44.677 123.968 44.8441C123.891 45.0067 123.81 45.1309 123.724 45.2168C123.638 45.3026 123.553 45.3568 123.467 45.3794C123.381 45.4065 123.302 45.42 123.23 45.42C123.085 45.42 122.963 45.3929 122.864 45.3387C122.764 45.28 122.683 45.2032 122.62 45.1084C122.557 45.0135 122.509 44.9028 122.478 44.7764C122.45 44.6499 122.437 44.5189 122.437 44.3834C122.437 44.3427 122.437 44.2682 122.437 44.1598C122.441 44.0469 122.444 43.9272 122.444 43.8007C122.448 43.6742 122.45 43.5545 122.45 43.4416C122.455 43.3287 122.457 43.2496 122.457 43.2045C122.457 43.0599 122.446 42.9402 122.423 42.8454C122.401 42.7505 122.369 42.676 122.328 42.6218C122.288 42.5676 122.24 42.5292 122.186 42.5066C122.136 42.484 122.082 42.4727 122.024 42.4727C121.884 42.4727 121.762 42.5292 121.658 42.6421C121.558 42.755 121.477 42.9448 121.414 43.2113V45.3794H120.736V40.7315L121.414 40.6366Z" fill="white"/>
<path d="M128.256 42.8386C128.256 43.1548 128.125 43.419 127.863 43.6313C127.605 43.8436 127.246 43.9746 126.785 44.0243C126.803 44.205 126.835 44.3518 126.88 44.4647C126.93 44.5776 126.989 44.668 127.056 44.7357C127.124 44.7989 127.201 44.8441 127.287 44.8712C127.377 44.8938 127.47 44.9051 127.564 44.9051C127.709 44.9051 127.844 44.8803 127.971 44.8306C128.102 44.7809 128.21 44.6951 128.296 44.5731C128.301 44.6047 128.303 44.6363 128.303 44.668C128.307 44.6951 128.31 44.7199 128.31 44.7425C128.31 44.8464 128.283 44.939 128.228 45.0203C128.179 45.1016 128.109 45.1739 128.018 45.2371C127.933 45.2958 127.831 45.341 127.713 45.3726C127.601 45.4042 127.481 45.42 127.354 45.42C127.201 45.42 127.047 45.3929 126.894 45.3387C126.74 45.28 126.6 45.1897 126.474 45.0677C126.352 44.9412 126.252 44.7786 126.175 44.5799C126.099 44.3811 126.06 44.1395 126.06 43.8549C126.06 43.6652 126.081 43.4597 126.121 43.2384C126.166 43.017 126.239 42.8115 126.338 42.6218C126.442 42.4321 126.575 42.274 126.738 42.1475C126.905 42.0211 127.11 41.9578 127.354 41.9578C127.467 41.9578 127.576 41.9714 127.68 41.9985C127.788 42.0211 127.885 42.0662 127.971 42.134C128.057 42.1972 128.125 42.2853 128.174 42.3982C128.228 42.5111 128.256 42.6579 128.256 42.8386ZM126.778 43.7601C127.099 43.7104 127.352 43.5975 127.537 43.4213C127.727 43.2451 127.822 43.0283 127.822 42.7709C127.822 42.5992 127.793 42.4773 127.734 42.405C127.675 42.3282 127.592 42.2898 127.483 42.2898C127.366 42.2898 127.262 42.335 127.171 42.4253C127.086 42.5157 127.013 42.6331 126.955 42.7776C126.896 42.9177 126.851 43.0757 126.819 43.2519C126.792 43.4235 126.778 43.5929 126.778 43.7601Z" fill="white"/>
<path d="M137.528 44.8373L138.402 40.3317H138.903L139.872 44.8373L140.746 40.3317H141.132L140.062 45.3794H139.309L138.496 41.7071L137.717 45.3794H136.965L135.888 40.684C135.716 40.684 135.572 40.7157 135.454 40.7789C135.337 40.8376 135.242 40.9189 135.17 41.0228C135.097 41.1222 135.043 41.2374 135.007 41.3684C134.975 41.4948 134.96 41.6258 134.96 41.7613C134.96 41.9556 134.987 42.1295 135.041 42.283C135.095 42.4366 135.174 42.5789 135.278 42.7099C135.188 42.7099 135.097 42.6963 135.007 42.6692C134.917 42.6421 134.835 42.5947 134.763 42.5269C134.691 42.4592 134.632 42.3689 134.587 42.2559C134.542 42.1385 134.519 41.9917 134.519 41.8155C134.519 41.6123 134.558 41.418 134.634 41.2329C134.711 41.0477 134.824 40.8873 134.973 40.7518C135.122 40.6118 135.305 40.5011 135.522 40.4198C135.739 40.3385 135.987 40.2979 136.267 40.2979C136.317 40.2979 136.364 40.3001 136.41 40.3046C136.459 40.3091 136.509 40.3159 136.559 40.325L137.528 44.8373Z" fill="white"/>
<path d="M144.695 41.9578C144.871 41.9578 145.023 41.9849 145.149 42.0391C145.276 42.0933 145.38 42.1701 145.461 42.2695C145.542 42.3643 145.605 42.4773 145.651 42.6082C145.7 42.7392 145.736 42.8793 145.759 43.0283H145.8C145.989 43.0283 146.163 42.9899 146.321 42.9131C146.479 42.8364 146.615 42.7392 146.728 42.6218L146.83 42.8047C146.739 42.9493 146.595 43.069 146.396 43.1638C146.202 43.2587 146.001 43.3242 145.793 43.3603C145.793 43.4055 145.793 43.4507 145.793 43.4958C145.797 43.541 145.8 43.5884 145.8 43.6381C145.8 44.1937 145.698 44.6296 145.495 44.9457C145.291 45.2619 145.007 45.42 144.641 45.42C144.492 45.42 144.341 45.3929 144.187 45.3387C144.038 45.2845 143.903 45.1942 143.781 45.0677C143.659 44.9412 143.559 44.7786 143.482 44.5799C143.41 44.3811 143.374 44.135 143.374 43.8414C143.374 43.6426 143.394 43.4326 143.435 43.2113C143.48 42.9899 143.552 42.7867 143.652 42.6015C143.756 42.4163 143.891 42.2627 144.058 42.1407C144.23 42.0188 144.442 41.9578 144.695 41.9578ZM144.763 44.9051C145.002 44.9051 145.179 44.7877 145.291 44.5528C145.404 44.3134 145.461 43.9769 145.461 43.5432C145.461 43.5161 145.461 43.489 145.461 43.4619C145.461 43.4348 145.459 43.4077 145.454 43.3806C145.323 43.3716 145.228 43.3422 145.17 43.2926C145.115 43.2429 145.088 43.1593 145.088 43.0419C145.088 42.938 145.111 42.8657 145.156 42.8251C145.201 42.7799 145.269 42.755 145.359 42.7505C145.305 42.5924 145.235 42.484 145.149 42.4253C145.068 42.3621 144.975 42.3305 144.871 42.3305C144.731 42.3305 144.612 42.3779 144.512 42.4727C144.417 42.5631 144.338 42.6805 144.275 42.8251C144.216 42.9696 144.174 43.13 144.146 43.3061C144.119 43.4778 144.106 43.6471 144.106 43.8143C144.106 44.0356 144.126 44.2163 144.167 44.3563C144.207 44.4963 144.259 44.607 144.323 44.6883C144.386 44.7696 144.456 44.826 144.533 44.8577C144.609 44.8893 144.686 44.9051 144.763 44.9051Z" fill="white"/>
<path d="M149.207 41.9917V42.5608C149.261 42.4795 149.313 42.4027 149.363 42.3305C149.417 42.2582 149.476 42.195 149.539 42.1407C149.603 42.0865 149.673 42.0436 149.749 42.012C149.826 41.9759 149.912 41.9578 150.007 41.9578C150.16 41.9578 150.273 41.9985 150.346 42.0798C150.418 42.1566 150.454 42.2514 150.454 42.3643C150.454 42.4321 150.443 42.4886 150.42 42.5337C150.397 42.5789 150.37 42.615 150.339 42.6421C150.307 42.6692 150.273 42.6896 150.237 42.7031C150.201 42.7121 150.169 42.7167 150.142 42.7167C150.102 42.7167 150.068 42.7076 150.041 42.6896C150.018 42.6715 149.993 42.6534 149.966 42.6353C149.944 42.6128 149.916 42.5924 149.885 42.5744C149.853 42.5563 149.813 42.5473 149.763 42.5473C149.659 42.5473 149.56 42.5834 149.465 42.6557C149.37 42.7279 149.284 42.8047 149.207 42.886V45.3794H148.53V41.9917H149.207Z" fill="white"/>
<path d="M153.726 40.6366V44.2953C153.726 44.3405 153.728 44.3969 153.733 44.4647C153.737 44.5324 153.749 44.6002 153.767 44.668C153.789 44.7312 153.821 44.7877 153.862 44.8373C153.902 44.8825 153.959 44.9051 154.031 44.9051C154.252 44.9051 154.415 44.6589 154.519 44.1666H154.769C154.72 44.4511 154.657 44.677 154.58 44.8441C154.503 45.0067 154.422 45.1309 154.336 45.2168C154.25 45.3026 154.162 45.3568 154.072 45.3794C153.981 45.4065 153.9 45.42 153.828 45.42C153.67 45.42 153.541 45.3907 153.441 45.3319C153.342 45.2687 153.263 45.1897 153.204 45.0948C153.146 44.9999 153.105 44.8938 153.082 44.7764C153.06 44.6589 153.048 44.546 153.048 44.4376V40.7315L153.726 40.6366Z" fill="white"/>
<path d="M159.24 40.6366V44.2953C159.24 44.3495 159.242 44.4128 159.247 44.485C159.251 44.5528 159.263 44.6183 159.281 44.6815C159.303 44.7447 159.335 44.7989 159.375 44.8441C159.421 44.8848 159.484 44.9051 159.565 44.9051C159.601 44.9051 159.64 44.9006 159.68 44.8915C159.726 44.8825 159.762 44.8735 159.789 44.8644C159.793 44.887 159.796 44.9074 159.796 44.9254C159.8 44.9435 159.802 44.9638 159.802 44.9864C159.802 45.1219 159.75 45.2281 159.646 45.3048C159.543 45.3816 159.425 45.42 159.294 45.42C159.154 45.42 159.028 45.3726 158.915 45.2777C158.802 45.1784 158.725 45.0135 158.684 44.7831C158.617 44.9593 158.506 45.1106 158.352 45.2371C158.199 45.359 158.014 45.42 157.797 45.42C157.661 45.42 157.524 45.3929 157.384 45.3387C157.248 45.28 157.126 45.1897 157.018 45.0677C156.909 44.9457 156.819 44.7877 156.747 44.5934C156.679 44.3992 156.645 44.1643 156.645 43.8888C156.645 43.6765 156.668 43.4574 156.713 43.2316C156.762 43.0012 156.837 42.7934 156.936 42.6082C157.04 42.4185 157.173 42.2627 157.336 42.1407C157.499 42.0188 157.693 41.9578 157.919 41.9578C158.036 41.9578 158.156 41.9827 158.278 42.0323C158.404 42.082 158.499 42.1769 158.562 42.3169V40.7315L159.24 40.6366ZM157.939 44.9051C158.025 44.9051 158.106 44.8848 158.183 44.8441C158.26 44.8035 158.325 44.7493 158.379 44.6815C158.438 44.6138 158.483 44.537 158.515 44.4511C158.547 44.3608 158.562 44.266 158.562 44.1666V42.6218C158.531 42.545 158.483 42.4773 158.42 42.4185C158.357 42.3598 158.267 42.3305 158.149 42.3305C158.005 42.3305 157.883 42.3801 157.783 42.4795C157.684 42.5744 157.603 42.6963 157.539 42.8454C157.476 42.9944 157.429 43.1616 157.397 43.3468C157.37 43.5274 157.356 43.7013 157.356 43.8685C157.356 44.2343 157.413 44.4986 157.526 44.6612C157.639 44.8238 157.776 44.9051 157.939 44.9051Z" fill="white"/>
</svg>
