<svg width="181" height="53" viewBox="0 0 181 53" fill="none" xmlns="http://www.w3.org/2000/svg">
<rect x="0.858398" y="0.389648" width="180" height="52" rx="26" fill="white"/>
<path d="M43.1456 27.0592C43.1343 25.1327 44.0072 23.6808 45.7698 22.6102C44.784 21.1978 43.2925 20.421 41.3265 20.2713C39.465 20.1244 37.4283 21.356 36.6826 21.356C35.8945 21.356 34.0923 20.3221 32.6742 20.3221C29.7478 20.3673 26.6377 22.6554 26.6377 27.3106C26.6377 28.6862 26.8891 30.1071 27.3919 31.5703C28.0642 33.4968 30.4879 38.217 33.016 38.1407C34.338 38.1097 35.273 37.2029 36.9933 37.2029C38.6627 37.2029 39.5271 38.1407 41.0016 38.1407C43.5524 38.104 45.7444 33.8132 46.3828 31.8811C42.962 30.2681 43.1456 27.158 43.1456 27.0592ZM40.1768 18.4436C41.609 16.7431 41.479 15.1952 41.4367 14.6387C40.1712 14.7121 38.7079 15.5002 37.8746 16.4691C36.9566 17.5086 36.417 18.7939 36.5329 20.243C37.9 20.3475 39.1486 19.6442 40.1768 18.4436Z" fill="#1D2329"/>
<path d="M62.0705 19.7559V19.0448H63.6662C64.0906 19.0448 64.4626 18.9539 64.7823 18.772C65.102 18.5846 65.3501 18.3283 65.5264 18.0031C65.7083 17.6779 65.7993 17.303 65.7993 16.8786C65.7993 16.4597 65.7083 16.0877 65.5264 15.7625C65.3446 15.4373 65.0938 15.1837 64.7741 15.0018C64.4544 14.8199 64.0851 14.729 63.6662 14.729H62.0787V14.0179H63.6827C64.1016 14.0179 64.4874 14.0896 64.8402 14.2329C65.1985 14.3762 65.5072 14.5774 65.7662 14.8365C66.0308 15.0955 66.2347 15.3987 66.378 15.7459C66.5269 16.0932 66.6013 16.4735 66.6013 16.8869C66.6013 17.2948 66.5269 17.6751 66.378 18.0279C66.2347 18.3751 66.0335 18.6783 65.7745 18.9373C65.5154 19.1964 65.2068 19.3976 64.8485 19.5409C64.4957 19.6842 64.1126 19.7559 63.6992 19.7559H62.0705ZM61.5579 19.7559V14.0179H62.335V19.7559H61.5579ZM69.3399 19.8385C68.9541 19.8385 68.6068 19.7476 68.2981 19.5657C67.9895 19.3838 67.7442 19.1385 67.5623 18.8299C67.3804 18.5157 67.2894 18.1657 67.2894 17.7798C67.2894 17.3995 67.3804 17.0578 67.5623 16.7546C67.7442 16.4459 67.9895 16.2007 68.2981 16.0188C68.6068 15.8369 68.9541 15.7459 69.3399 15.7459C69.7202 15.7459 70.0647 15.8369 70.3734 16.0188C70.6876 16.1951 70.9356 16.4377 71.1175 16.7463C71.2994 17.055 71.3903 17.3995 71.3903 17.7798C71.3903 18.1657 71.2994 18.5157 71.1175 18.8299C70.9356 19.1385 70.6876 19.3838 70.3734 19.5657C70.0647 19.7476 69.7202 19.8385 69.3399 19.8385ZM69.3399 19.1192C69.5879 19.1192 69.8084 19.0614 70.0013 18.9456C70.1942 18.8299 70.3458 18.6728 70.4561 18.4743C70.5663 18.2704 70.6214 18.0389 70.6214 17.7798C70.6214 17.5263 70.5635 17.3003 70.4478 17.1019C70.3375 16.9034 70.186 16.7491 69.9931 16.6389C69.8056 16.5231 69.5879 16.4652 69.3399 16.4652C69.0919 16.4652 68.8714 16.5231 68.6785 16.6389C68.4855 16.7491 68.334 16.9034 68.2237 17.1019C68.1135 17.3003 68.0584 17.5263 68.0584 17.7798C68.0584 18.0389 68.1135 18.2704 68.2237 18.4743C68.334 18.6728 68.4855 18.8299 68.6785 18.9456C68.8714 19.0614 69.0919 19.1192 69.3399 19.1192ZM73.2401 19.7559L71.6858 15.8286H72.463L73.5874 18.8877H73.3394L74.4555 15.8286H74.8855L76.0016 18.8877H75.7536L76.878 15.8286H77.6552L76.1091 19.7559H75.6709L74.5382 16.7877H74.811L73.6701 19.7559H73.2401ZM81.0947 19.7559V17.4656C81.0947 17.168 81.001 16.9227 80.8135 16.7298C80.6261 16.5369 80.3836 16.4404 80.086 16.4404C79.8875 16.4404 79.7112 16.4845 79.5568 16.5727C79.4025 16.6609 79.2812 16.7822 79.193 16.9365C79.1048 17.0908 79.0607 17.2672 79.0607 17.4656L78.7548 17.292C78.7548 16.9944 78.821 16.7298 78.9533 16.4983C79.0856 16.2668 79.2702 16.0849 79.5072 15.9526C79.7442 15.8148 80.0116 15.7459 80.3092 15.7459C80.6068 15.7459 80.8687 15.8203 81.0947 15.9692C81.3262 16.118 81.508 16.3137 81.6403 16.5562C81.7726 16.7932 81.8388 17.0467 81.8388 17.3168V19.7559H81.0947ZM78.3166 19.7559V15.8286H79.0607V19.7559H78.3166ZM82.8462 19.7559V13.8526H83.5903V19.7559H82.8462ZM86.4732 19.8385C86.0874 19.8385 85.7401 19.7476 85.4314 19.5657C85.1228 19.3838 84.8775 19.1385 84.6956 18.8299C84.5137 18.5157 84.4227 18.1657 84.4227 17.7798C84.4227 17.3995 84.5137 17.0578 84.6956 16.7546C84.8775 16.4459 85.1228 16.2007 85.4314 16.0188C85.7401 15.8369 86.0874 15.7459 86.4732 15.7459C86.8535 15.7459 87.198 15.8369 87.5067 16.0188C87.8209 16.1951 88.0689 16.4377 88.2508 16.7463C88.4327 17.055 88.5236 17.3995 88.5236 17.7798C88.5236 18.1657 88.4327 18.5157 88.2508 18.8299C88.0689 19.1385 87.8209 19.3838 87.5067 19.5657C87.198 19.7476 86.8535 19.8385 86.4732 19.8385ZM86.4732 19.1192C86.7212 19.1192 86.9417 19.0614 87.1346 18.9456C87.3275 18.8299 87.4791 18.6728 87.5894 18.4743C87.6996 18.2704 87.7547 18.0389 87.7547 17.7798C87.7547 17.5263 87.6968 17.3003 87.5811 17.1019C87.4708 16.9034 87.3193 16.7491 87.1264 16.6389C86.9389 16.5231 86.7212 16.4652 86.4732 16.4652C86.2251 16.4652 86.0047 16.5231 85.8118 16.6389C85.6188 16.7491 85.4673 16.9034 85.357 17.1019C85.2468 17.3003 85.1917 17.5263 85.1917 17.7798C85.1917 18.0389 85.2468 18.2704 85.357 18.4743C85.4673 18.6728 85.6188 18.8299 85.8118 18.9456C86.0047 19.0614 86.2251 19.1192 86.4732 19.1192ZM91.0322 19.8385C90.6739 19.8385 90.3487 19.7503 90.0565 19.574C89.7644 19.3921 89.5329 19.1468 89.362 18.8381C89.1967 18.5295 89.114 18.1822 89.114 17.7964C89.114 17.4105 89.1967 17.0633 89.362 16.7546C89.5329 16.4459 89.7617 16.2007 90.0483 16.0188C90.3404 15.8369 90.6684 15.7459 91.0322 15.7459C91.3298 15.7459 91.5944 15.8093 91.8259 15.9361C92.0629 16.0573 92.2531 16.2282 92.3964 16.4487C92.5397 16.6637 92.6196 16.9145 92.6361 17.2011V18.3834C92.6196 18.6645 92.5397 18.9153 92.3964 19.1358C92.2586 19.3562 92.0712 19.5299 91.8341 19.6566C91.6026 19.7779 91.3353 19.8385 91.0322 19.8385ZM91.1562 19.1358C91.5255 19.1358 91.8231 19.0117 92.0491 18.7637C92.2751 18.5102 92.3881 18.1877 92.3881 17.7964C92.3881 17.5263 92.3357 17.292 92.231 17.0936C92.1318 16.8897 91.9885 16.7326 91.8011 16.6223C91.6137 16.5066 91.3959 16.4487 91.1479 16.4487C90.8999 16.4487 90.6794 16.5066 90.4865 16.6223C90.2991 16.7381 90.1503 16.8979 90.04 17.1019C89.9353 17.3003 89.8829 17.529 89.8829 17.7881C89.8829 18.0527 89.9353 18.2869 90.04 18.4909C90.1503 18.6893 90.3018 18.8464 90.4947 18.9621C90.6877 19.0779 90.9081 19.1358 91.1562 19.1358ZM92.3385 19.7559V18.6976L92.479 17.7385L92.3385 16.7877V15.8286H93.0909V19.7559H92.3385ZM95.8361 19.8385C95.4723 19.8385 95.1471 19.7503 94.8605 19.574C94.5738 19.3921 94.3451 19.1468 94.1742 18.8381C94.0089 18.5295 93.9262 18.1822 93.9262 17.7964C93.9262 17.4105 94.0089 17.0633 94.1742 16.7546C94.3451 16.4459 94.5738 16.2007 94.8605 16.0188C95.1471 15.8369 95.4723 15.7459 95.8361 15.7459C96.1282 15.7459 96.3928 15.8093 96.6298 15.9361C96.8668 16.0573 97.057 16.2282 97.2003 16.4487C97.3491 16.6637 97.4318 16.9145 97.4483 17.2011V18.3834C97.4318 18.6645 97.3519 18.9153 97.2085 19.1358C97.0652 19.3562 96.8751 19.5299 96.6381 19.6566C96.401 19.7779 96.1337 19.8385 95.8361 19.8385ZM95.9601 19.1358C96.2081 19.1358 96.4231 19.0779 96.605 18.9621C96.7924 18.8464 96.9385 18.6893 97.0432 18.4909C97.1479 18.2869 97.2003 18.0554 97.2003 17.7964C97.2003 17.5263 97.1452 17.292 97.0349 17.0936C96.9302 16.8952 96.7841 16.7381 96.5967 16.6223C96.4148 16.5066 96.1999 16.4487 95.9518 16.4487C95.7038 16.4487 95.4861 16.5066 95.2987 16.6223C95.1113 16.7381 94.9624 16.8979 94.8522 17.1019C94.7475 17.3003 94.6951 17.529 94.6951 17.7881C94.6951 18.0527 94.7475 18.2869 94.8522 18.4909C94.9624 18.6893 95.1113 18.8464 95.2987 18.9621C95.4916 19.0779 95.7121 19.1358 95.9601 19.1358ZM97.9031 19.7559H97.1507V18.6976L97.2912 17.7385L97.1507 16.7877V13.8526H97.9031V19.7559ZM100.838 19.7559V14.0179H101.384L101.616 14.9191V19.7559H100.838ZM104.807 19.7559L101.285 15.0514L101.384 14.0179L104.915 18.7141L104.807 19.7559ZM104.807 19.7559L104.576 18.9043V14.0179H105.353V19.7559H104.807ZM108.37 19.8385C107.984 19.8385 107.637 19.7476 107.328 19.5657C107.02 19.3838 106.775 19.1385 106.593 18.8299C106.411 18.5157 106.32 18.1657 106.32 17.7798C106.32 17.3995 106.411 17.0578 106.593 16.7546C106.775 16.4459 107.02 16.2007 107.328 16.0188C107.637 15.8369 107.984 15.7459 108.37 15.7459C108.751 15.7459 109.095 15.8369 109.404 16.0188C109.718 16.1951 109.966 16.4377 110.148 16.7463C110.33 17.055 110.421 17.3995 110.421 17.7798C110.421 18.1657 110.33 18.5157 110.148 18.8299C109.966 19.1385 109.718 19.3838 109.404 19.5657C109.095 19.7476 108.751 19.8385 108.37 19.8385ZM108.37 19.1192C108.618 19.1192 108.839 19.0614 109.032 18.9456C109.225 18.8299 109.376 18.6728 109.486 18.4743C109.597 18.2704 109.652 18.0389 109.652 17.7798C109.652 17.5263 109.594 17.3003 109.478 17.1019C109.368 16.9034 109.216 16.7491 109.023 16.6389C108.836 16.5231 108.618 16.4652 108.37 16.4652C108.122 16.4652 107.902 16.5231 107.709 16.6389C107.516 16.7491 107.364 16.9034 107.254 17.1019C107.144 17.3003 107.089 17.5263 107.089 17.7798C107.089 18.0389 107.144 18.2704 107.254 18.4743C107.364 18.6728 107.516 18.8299 107.709 18.9456C107.902 19.0614 108.122 19.1192 108.37 19.1192ZM112.27 19.7559L110.716 15.8286H111.493L112.618 18.8877H112.37L113.486 15.8286H113.916L115.032 18.8877H114.784L115.908 15.8286H116.686L115.139 19.7559H114.701L113.569 16.7877H113.841L112.7 19.7559H112.27Z" fill="#1D2329"/>
<path d="M61.2767 39.0234L66.0391 27.4484H67.3619L72.0912 39.0234H70.0407L66.3367 29.6476H67.0312L63.2941 39.0234H61.2767ZM63.6248 36.7911V35.1375H69.7596V36.7911H63.6248ZM77.7489 39.1888C77.1426 39.1888 76.6024 39.062 76.1284 38.8085C75.6543 38.5439 75.2795 38.1856 75.0039 37.7336C74.7393 37.2817 74.6071 36.7691 74.6071 36.1958V33.9139C74.6071 33.3406 74.7449 32.828 75.0205 32.376C75.2961 31.9241 75.6709 31.5713 76.1449 31.3177C76.6189 31.0532 77.1536 30.9209 77.7489 30.9209C78.4654 30.9209 79.1103 31.1083 79.6836 31.4831C80.2678 31.8469 80.7253 32.343 81.056 32.9713C81.3978 33.5887 81.5686 34.2887 81.5686 35.0714C81.5686 35.843 81.3978 36.5431 81.056 37.1714C80.7253 37.7888 80.2678 38.2793 79.6836 38.6431C79.1103 39.0069 78.4654 39.1888 77.7489 39.1888ZM77.4512 37.4691C77.8922 37.4691 78.278 37.3699 78.6087 37.1714C78.9505 36.962 79.215 36.6754 79.4024 36.3116C79.6009 35.9478 79.7001 35.5289 79.7001 35.0548C79.7001 34.5808 79.6009 34.1619 79.4024 33.7981C79.215 33.4343 78.9505 33.1532 78.6087 32.9548C78.278 32.7453 77.8922 32.6406 77.4512 32.6406C77.0103 32.6406 76.6189 32.7453 76.2772 32.9548C75.9354 33.1532 75.6709 33.4343 75.4835 33.7981C75.2961 34.1619 75.2024 34.5808 75.2024 35.0548C75.2024 35.5289 75.2961 35.9478 75.4835 36.3116C75.6709 36.6754 75.9354 36.962 76.2772 37.1714C76.6189 37.3699 77.0103 37.4691 77.4512 37.4691ZM73.4992 42.3306V31.0862H75.3181V33.2194L75.0039 35.1541L75.3181 37.0722V42.3306H73.4992ZM87.3409 39.1888C86.7346 39.1888 86.1944 39.062 85.7204 38.8085C85.2464 38.5439 84.8716 38.1856 84.596 37.7336C84.3314 37.2817 84.1991 36.7691 84.1991 36.1958V33.9139C84.1991 33.3406 84.3369 32.828 84.6125 32.376C84.8881 31.9241 85.2629 31.5713 85.737 31.3177C86.211 31.0532 86.7456 30.9209 87.3409 30.9209C88.0575 30.9209 88.7024 31.1083 89.2756 31.4831C89.8599 31.8469 90.3174 32.343 90.6481 32.9713C90.9898 33.5887 91.1607 34.2887 91.1607 35.0714C91.1607 35.843 90.9898 36.5431 90.6481 37.1714C90.3174 37.7888 89.8599 38.2793 89.2756 38.6431C88.7024 39.0069 88.0575 39.1888 87.3409 39.1888ZM87.0433 37.4691C87.4842 37.4691 87.8701 37.3699 88.2008 37.1714C88.5425 36.962 88.8071 36.6754 88.9945 36.3116C89.1929 35.9478 89.2922 35.5289 89.2922 35.0548C89.2922 34.5808 89.1929 34.1619 88.9945 33.7981C88.8071 33.4343 88.5425 33.1532 88.2008 32.9548C87.8701 32.7453 87.4842 32.6406 87.0433 32.6406C86.6023 32.6406 86.211 32.7453 85.8692 32.9548C85.5275 33.1532 85.2629 33.4343 85.0755 33.7981C84.8881 34.1619 84.7944 34.5808 84.7944 35.0548C84.7944 35.5289 84.8881 35.9478 85.0755 36.3116C85.2629 36.6754 85.5275 36.962 85.8692 37.1714C86.211 37.3699 86.6023 37.4691 87.0433 37.4691ZM83.0912 42.3306V31.0862H84.9102V33.2194L84.596 35.1541L84.9102 37.0722V42.3306H83.0912ZM99.4662 39.1888C98.5512 39.1888 97.774 39.0234 97.1347 38.6927C96.4953 38.362 95.922 37.877 95.4149 37.2376L96.7047 35.9478C97.0244 36.4108 97.4047 36.7746 97.8457 37.0391C98.2866 37.2927 98.8489 37.4195 99.5323 37.4195C100.172 37.4195 100.679 37.2872 101.054 37.0226C101.439 36.758 101.632 36.3942 101.632 35.9312C101.632 35.5454 101.533 35.2312 101.335 34.9887C101.136 34.7462 100.872 34.5477 100.541 34.3934C100.221 34.2281 99.8631 34.0847 99.4662 33.9635C99.0804 33.8312 98.689 33.6879 98.2922 33.5335C97.9063 33.3682 97.548 33.1642 97.2173 32.9217C96.8976 32.6792 96.6386 32.365 96.4401 31.9792C96.2417 31.5933 96.1425 31.1028 96.1425 30.5075C96.1425 29.824 96.3079 29.2453 96.6386 28.7712C96.9803 28.2862 97.4378 27.9169 98.0111 27.6633C98.5843 27.4098 99.2237 27.283 99.9292 27.283C100.69 27.283 101.368 27.4318 101.963 27.7295C102.569 28.0271 103.06 28.4074 103.435 28.8704L102.145 30.1602C101.814 29.7854 101.467 29.5098 101.103 29.3335C100.75 29.146 100.343 29.0523 99.8796 29.0523C99.3064 29.0523 98.8544 29.1681 98.5237 29.3996C98.204 29.6311 98.0441 29.9563 98.0441 30.3752C98.0441 30.728 98.1433 31.0146 98.3418 31.2351C98.5402 31.4445 98.7993 31.6264 99.1189 31.7808C99.4497 31.9241 99.8079 32.0619 100.194 32.1941C100.591 32.3264 100.982 32.4753 101.368 32.6406C101.765 32.806 102.123 33.0209 102.443 33.2855C102.773 33.5391 103.038 33.8698 103.236 34.2777C103.435 34.6855 103.534 35.1982 103.534 35.8155C103.534 36.8517 103.165 37.673 102.426 38.2793C101.699 38.8856 100.712 39.1888 99.4662 39.1888ZM106.389 39.0234V27.7791H108.208V39.0234H106.389ZM104.488 32.7398V31.0862H110.11V32.7398H104.488ZM114.843 39.1888C114.072 39.1888 113.372 39.0069 112.743 38.6431C112.115 38.2683 111.613 37.7667 111.238 37.1384C110.875 36.51 110.693 35.81 110.693 35.0383C110.693 34.2666 110.875 33.5721 111.238 32.9548C111.613 32.3375 112.115 31.8469 112.743 31.4831C113.372 31.1083 114.072 30.9209 114.843 30.9209C115.626 30.9209 116.331 31.1028 116.96 31.4666C117.588 31.8304 118.084 32.3264 118.448 32.9548C118.823 33.5721 119.01 34.2666 119.01 35.0383C119.01 35.81 118.823 36.51 118.448 37.1384C118.084 37.7667 117.588 38.2683 116.96 38.6431C116.331 39.0069 115.626 39.1888 114.843 39.1888ZM114.843 37.436C115.295 37.436 115.692 37.3368 116.034 37.1384C116.387 36.9289 116.657 36.6423 116.844 36.2785C117.042 35.9147 117.142 35.5013 117.142 35.0383C117.142 34.5753 117.042 34.1674 116.844 33.8147C116.646 33.4619 116.376 33.1863 116.034 32.9879C115.692 32.7784 115.295 32.6737 114.843 32.6737C114.402 32.6737 114.005 32.7784 113.653 32.9879C113.311 33.1863 113.041 33.4619 112.842 33.8147C112.655 34.1674 112.561 34.5753 112.561 35.0383C112.561 35.5013 112.655 35.9147 112.842 36.2785C113.041 36.6423 113.311 36.9289 113.653 37.1384C114.005 37.3368 114.402 37.436 114.843 37.436ZM120.523 39.0234V31.0862H122.342V39.0234H120.523ZM122.342 34.6084L121.713 34.2942C121.713 33.291 121.934 32.4808 122.375 31.8634C122.827 31.2351 123.505 30.9209 124.409 30.9209C124.806 30.9209 125.164 30.9925 125.484 31.1359C125.803 31.2792 126.101 31.5107 126.377 31.8304L125.186 33.054C125.043 32.8997 124.883 32.7894 124.706 32.7233C124.53 32.6571 124.326 32.6241 124.095 32.6241C123.588 32.6241 123.169 32.7839 122.838 33.1036C122.507 33.4233 122.342 33.9249 122.342 34.6084ZM130.702 39.1888C129.908 39.1888 129.192 39.0124 128.552 38.6596C127.924 38.2959 127.422 37.7998 127.048 37.1714C126.684 36.5431 126.502 35.8375 126.502 35.0548C126.502 34.2721 126.684 33.5721 127.048 32.9548C127.411 32.3264 127.902 31.8304 128.519 31.4666C129.148 31.1028 129.842 30.9209 130.603 30.9209C131.341 30.9209 131.992 31.0918 132.554 31.4335C133.127 31.7752 133.574 32.2438 133.893 32.839C134.224 33.4343 134.389 34.1123 134.389 34.8729C134.389 35.0052 134.378 35.143 134.356 35.2863C134.345 35.4186 134.323 35.5675 134.29 35.7328H127.775V34.2446H133.348L132.67 34.8399C132.648 34.3548 132.554 33.9469 132.389 33.6162C132.223 33.2855 131.986 33.032 131.678 32.8556C131.38 32.6792 131.011 32.591 130.57 32.591C130.107 32.591 129.704 32.6902 129.363 32.8887C129.021 33.0871 128.756 33.3682 128.569 33.732C128.381 34.0847 128.288 34.5092 128.288 35.0052C128.288 35.5013 128.387 35.9368 128.585 36.3116C128.784 36.6864 129.065 36.9785 129.429 37.188C129.792 37.3864 130.211 37.4856 130.685 37.4856C131.093 37.4856 131.468 37.414 131.81 37.2706C132.163 37.1273 132.46 36.9179 132.703 36.6423L133.86 37.8163C133.474 38.2683 133.006 38.61 132.455 38.8415C131.904 39.073 131.319 39.1888 130.702 39.1888Z" fill="#1D2329"/>
</svg>
