<svg width="17" height="16" viewBox="0 0 17 16" fill="none" xmlns="http://www.w3.org/2000/svg">
<path d="M6.37427 1.33325L3.96094 3.75325" stroke="white" stroke-miterlimit="10" stroke-linecap="round" stroke-linejoin="round"/>
<path d="M10.627 1.33325L13.0403 3.75325" stroke="white" stroke-miterlimit="10" stroke-linecap="round" stroke-linejoin="round"/>
<path d="M1.83398 5.23324C1.83398 3.9999 2.49398 3.8999 3.31398 3.8999H13.6873C14.5073 3.8999 15.1673 3.9999 15.1673 5.23324C15.1673 6.66657 14.5073 6.56657 13.6873 6.56657H3.31398C2.49398 6.56657 1.83398 6.66657 1.83398 5.23324Z" stroke="white"/>
<path d="M7.00586 9.33325V11.6999" stroke="white" stroke-linecap="round"/>
<path d="M10.0742 9.33325V11.6999" stroke="white" stroke-linecap="round"/>
<path d="M2.83398 6.66675L3.77398 12.4267C3.98732 13.7201 4.50065 14.6667 6.40732 14.6667H10.4273C12.5007 14.6667 12.8073 13.7601 13.0473 12.5067L14.1673 6.66675" stroke="white" stroke-linecap="round"/>
</svg>
