<svg width="180" height="53" viewBox="0 0 180 53" fill="none" xmlns="http://www.w3.org/2000/svg">
<rect y="0.296875" width="180" height="52" rx="26" fill="#1D2329"/>
<path d="M42.2872 26.9664C42.2759 25.0399 43.1488 23.588 44.9114 22.5174C43.9256 21.105 42.4341 20.3282 40.4681 20.1785C38.6066 20.0316 36.5699 21.2632 35.8242 21.2632C35.0361 21.2632 33.2339 20.2293 31.8158 20.2293C28.8894 20.2745 25.7793 22.5626 25.7793 27.2178C25.7793 28.5935 26.0307 30.0143 26.5335 31.4776C27.2058 33.404 29.6295 38.1242 32.1576 38.048C33.4796 38.0169 34.4146 37.1101 36.1349 37.1101C37.8043 37.1101 38.6687 38.048 40.1432 38.048C42.694 38.0112 44.886 33.7204 45.5244 31.7883C42.1036 30.1753 42.2872 27.0653 42.2872 26.9664ZM39.3184 18.3509C40.7506 16.6503 40.6206 15.1024 40.5783 14.5459C39.3128 14.6193 37.8495 15.4075 37.0162 16.3763C36.0982 17.4159 35.5586 18.7011 35.6745 20.1502C37.0416 20.2548 38.2902 19.5514 39.3184 18.3509Z" fill="white"/>
<path d="M61.2121 19.6631V18.952H62.8078C63.2322 18.952 63.6042 18.8611 63.9239 18.6792C64.2436 18.4918 64.4917 18.2355 64.668 17.9103C64.8499 17.5851 64.9409 17.2103 64.9409 16.7859C64.9409 16.3669 64.8499 15.9949 64.668 15.6697C64.4862 15.3445 64.2354 15.0909 63.9157 14.909C63.596 14.7271 63.2267 14.6362 62.8078 14.6362H61.2203V13.9252H62.8243C63.2432 13.9252 63.629 13.9968 63.9818 14.1401C64.3401 14.2834 64.6488 14.4846 64.9078 14.7437C65.1724 15.0027 65.3763 15.3059 65.5196 15.6532C65.6685 16.0004 65.7429 16.3807 65.7429 16.7941C65.7429 17.202 65.6685 17.5823 65.5196 17.9351C65.3763 18.2823 65.1751 18.5855 64.9161 18.8446C64.657 19.1036 64.3484 19.3048 63.9901 19.4481C63.6373 19.5914 63.2542 19.6631 62.8408 19.6631H61.2121ZM60.6995 19.6631V13.9252H61.4766V19.6631H60.6995ZM68.4815 19.7458C68.0957 19.7458 67.7484 19.6548 67.4397 19.4729C67.1311 19.291 66.8858 19.0457 66.7039 18.7371C66.522 18.4229 66.431 18.0729 66.431 17.6871C66.431 17.3067 66.522 16.965 66.7039 16.6618C66.8858 16.3532 67.1311 16.1079 67.4397 15.926C67.7484 15.7441 68.0957 15.6532 68.4815 15.6532C68.8618 15.6532 69.2063 15.7441 69.515 15.926C69.8292 16.1024 70.0772 16.3449 70.2591 16.6536C70.441 16.9622 70.5319 17.3067 70.5319 17.6871C70.5319 18.0729 70.441 18.4229 70.2591 18.7371C70.0772 19.0457 69.8292 19.291 69.515 19.4729C69.2063 19.6548 68.8618 19.7458 68.4815 19.7458ZM68.4815 19.0265C68.7295 19.0265 68.95 18.9686 69.1429 18.8528C69.3358 18.7371 69.4874 18.58 69.5977 18.3816C69.7079 18.1776 69.763 17.9461 69.763 17.6871C69.763 17.4335 69.7051 17.2075 69.5894 17.0091C69.4792 16.8107 69.3276 16.6563 69.1347 16.5461C68.9472 16.4303 68.7295 16.3725 68.4815 16.3725C68.2335 16.3725 68.013 16.4303 67.8201 16.5461C67.6271 16.6563 67.4756 16.8107 67.3653 17.0091C67.2551 17.2075 67.2 17.4335 67.2 17.6871C67.2 17.9461 67.2551 18.1776 67.3653 18.3816C67.4756 18.58 67.6271 18.7371 67.8201 18.8528C68.013 18.9686 68.2335 19.0265 68.4815 19.0265ZM72.3817 19.6631L70.8274 15.7358H71.6046L72.729 18.795H72.481L73.5971 15.7358H74.0271L75.1432 18.795H74.8952L76.0196 15.7358H76.7968L75.2507 19.6631H74.8125L73.6798 16.6949H73.9526L72.8117 19.6631H72.3817ZM80.2363 19.6631V17.3729C80.2363 17.0752 80.1426 16.8299 79.9551 16.637C79.7677 16.4441 79.5252 16.3477 79.2276 16.3477C79.0291 16.3477 78.8528 16.3918 78.6984 16.4799C78.5441 16.5681 78.4228 16.6894 78.3346 16.8437C78.2464 16.9981 78.2024 17.1744 78.2024 17.3729L77.8964 17.1992C77.8964 16.9016 77.9626 16.637 78.0949 16.4055C78.2272 16.174 78.4118 15.9921 78.6488 15.8598C78.8858 15.7221 79.1532 15.6532 79.4508 15.6532C79.7484 15.6532 80.0103 15.7276 80.2363 15.8764C80.4678 16.0252 80.6497 16.2209 80.7819 16.4634C80.9142 16.7004 80.9804 16.954 80.9804 17.2241V19.6631H80.2363ZM77.4582 19.6631V15.7358H78.2024V19.6631H77.4582ZM81.9878 19.6631V13.7598H82.7319V19.6631H81.9878ZM85.6148 19.7458C85.229 19.7458 84.8817 19.6548 84.573 19.4729C84.2644 19.291 84.0191 19.0457 83.8372 18.7371C83.6553 18.4229 83.5643 18.0729 83.5643 17.6871C83.5643 17.3067 83.6553 16.965 83.8372 16.6618C84.0191 16.3532 84.2644 16.1079 84.573 15.926C84.8817 15.7441 85.229 15.6532 85.6148 15.6532C85.9951 15.6532 86.3396 15.7441 86.6483 15.926C86.9625 16.1024 87.2105 16.3449 87.3924 16.6536C87.5743 16.9622 87.6652 17.3067 87.6652 17.6871C87.6652 18.0729 87.5743 18.4229 87.3924 18.7371C87.2105 19.0457 86.9625 19.291 86.6483 19.4729C86.3396 19.6548 85.9951 19.7458 85.6148 19.7458ZM85.6148 19.0265C85.8628 19.0265 86.0833 18.9686 86.2762 18.8528C86.4691 18.7371 86.6207 18.58 86.731 18.3816C86.8412 18.1776 86.8963 17.9461 86.8963 17.6871C86.8963 17.4335 86.8384 17.2075 86.7227 17.0091C86.6124 16.8107 86.4609 16.6563 86.268 16.5461C86.0805 16.4303 85.8628 16.3725 85.6148 16.3725C85.3668 16.3725 85.1463 16.4303 84.9534 16.5461C84.7604 16.6563 84.6089 16.8107 84.4986 17.0091C84.3884 17.2075 84.3333 17.4335 84.3333 17.6871C84.3333 17.9461 84.3884 18.1776 84.4986 18.3816C84.6089 18.58 84.7604 18.7371 84.9534 18.8528C85.1463 18.9686 85.3668 19.0265 85.6148 19.0265ZM90.1738 19.7458C89.8155 19.7458 89.4903 19.6576 89.1981 19.4812C88.906 19.2993 88.6745 19.054 88.5036 18.7453C88.3383 18.4367 88.2556 18.0894 88.2556 17.7036C88.2556 17.3178 88.3383 16.9705 88.5036 16.6618C88.6745 16.3532 88.9033 16.1079 89.1899 15.926C89.482 15.7441 89.81 15.6532 90.1738 15.6532C90.4714 15.6532 90.736 15.7165 90.9675 15.8433C91.2045 15.9646 91.3947 16.1354 91.538 16.3559C91.6813 16.5709 91.7612 16.8217 91.7777 17.1083V18.2906C91.7612 18.5717 91.6813 18.8225 91.538 19.043C91.4002 19.2635 91.2128 19.4371 90.9757 19.5639C90.7442 19.6851 90.4769 19.7458 90.1738 19.7458ZM90.2978 19.043C90.6671 19.043 90.9647 18.919 91.1907 18.6709C91.4167 18.4174 91.5297 18.0949 91.5297 17.7036C91.5297 17.4335 91.4773 17.1992 91.3726 17.0008C91.2734 16.7969 91.1301 16.6398 90.9427 16.5295C90.7553 16.4138 90.5376 16.3559 90.2895 16.3559C90.0415 16.3559 89.821 16.4138 89.6281 16.5295C89.4407 16.6453 89.2919 16.8051 89.1816 17.0091C89.0769 17.2075 89.0245 17.4363 89.0245 17.6953C89.0245 17.9599 89.0769 18.1942 89.1816 18.3981C89.2919 18.5965 89.4434 18.7536 89.6363 18.8694C89.8293 18.9851 90.0497 19.043 90.2978 19.043ZM91.4801 19.6631V18.6048L91.6206 17.6457L91.4801 16.6949V15.7358H92.2325V19.6631H91.4801ZM94.9777 19.7458C94.6139 19.7458 94.2887 19.6576 94.0021 19.4812C93.7154 19.2993 93.4867 19.054 93.3158 18.7453C93.1505 18.4367 93.0678 18.0894 93.0678 17.7036C93.0678 17.3178 93.1505 16.9705 93.3158 16.6618C93.4867 16.3532 93.7154 16.1079 94.0021 15.926C94.2887 15.7441 94.6139 15.6532 94.9777 15.6532C95.2698 15.6532 95.5344 15.7165 95.7714 15.8433C96.0084 15.9646 96.1986 16.1354 96.3419 16.3559C96.4907 16.5709 96.5734 16.8217 96.5899 17.1083V18.2906C96.5734 18.5717 96.4935 18.8225 96.3501 19.043C96.2068 19.2635 96.0167 19.4371 95.7797 19.5639C95.5427 19.6851 95.2753 19.7458 94.9777 19.7458ZM95.1017 19.043C95.3497 19.043 95.5647 18.9851 95.7466 18.8694C95.934 18.7536 96.0801 18.5965 96.1848 18.3981C96.2895 18.1942 96.3419 17.9627 96.3419 17.7036C96.3419 17.4335 96.2868 17.1992 96.1765 17.0008C96.0718 16.8024 95.9257 16.6453 95.7383 16.5295C95.5564 16.4138 95.3415 16.3559 95.0934 16.3559C94.8454 16.3559 94.6277 16.4138 94.4403 16.5295C94.2529 16.6453 94.104 16.8051 93.9938 17.0091C93.8891 17.2075 93.8367 17.4363 93.8367 17.6953C93.8367 17.9599 93.8891 18.1942 93.9938 18.3981C94.104 18.5965 94.2529 18.7536 94.4403 18.8694C94.6332 18.9851 94.8537 19.043 95.1017 19.043ZM97.0447 19.6631H96.2923V18.6048L96.4328 17.6457L96.2923 16.6949V13.7598H97.0447V19.6631ZM99.9801 19.6631V13.9252H100.526L100.757 14.8264V19.6631H99.9801ZM103.949 19.6631L100.427 14.9586L100.526 13.9252L104.056 18.6213L103.949 19.6631ZM103.949 19.6631L103.717 18.8115V13.9252H104.494V19.6631H103.949ZM107.512 19.7458C107.126 19.7458 106.779 19.6548 106.47 19.4729C106.161 19.291 105.916 19.0457 105.734 18.7371C105.552 18.4229 105.461 18.0729 105.461 17.6871C105.461 17.3067 105.552 16.965 105.734 16.6618C105.916 16.3532 106.161 16.1079 106.47 15.926C106.779 15.7441 107.126 15.6532 107.512 15.6532C107.892 15.6532 108.237 15.7441 108.545 15.926C108.859 16.1024 109.108 16.3449 109.289 16.6536C109.471 16.9622 109.562 17.3067 109.562 17.6871C109.562 18.0729 109.471 18.4229 109.289 18.7371C109.108 19.0457 108.859 19.291 108.545 19.4729C108.237 19.6548 107.892 19.7458 107.512 19.7458ZM107.512 19.0265C107.76 19.0265 107.98 18.9686 108.173 18.8528C108.366 18.7371 108.518 18.58 108.628 18.3816C108.738 18.1776 108.793 17.9461 108.793 17.6871C108.793 17.4335 108.735 17.2075 108.62 17.0091C108.509 16.8107 108.358 16.6563 108.165 16.5461C107.978 16.4303 107.76 16.3725 107.512 16.3725C107.264 16.3725 107.043 16.4303 106.85 16.5461C106.657 16.6563 106.506 16.8107 106.396 17.0091C106.285 17.2075 106.23 17.4335 106.23 17.6871C106.23 17.9461 106.285 18.1776 106.396 18.3816C106.506 18.58 106.657 18.7371 106.85 18.8528C107.043 18.9686 107.264 19.0265 107.512 19.0265ZM111.412 19.6631L109.858 15.7358H110.635L111.759 18.795H111.511L112.627 15.7358H113.057L114.174 18.795H113.926L115.05 15.7358H115.827L114.281 19.6631H113.843L112.71 16.6949H112.983L111.842 19.6631H111.412Z" fill="white"/>
<path d="M60.4183 38.9312L65.1807 27.3561H66.5035L71.2328 38.9312H69.1823L65.4783 29.5553H66.1728L62.4357 38.9312H60.4183ZM62.7664 36.6988V35.0452H68.9012V36.6988H62.7664ZM76.8905 39.0965C76.2842 39.0965 75.744 38.9697 75.27 38.7162C74.7959 38.4516 74.4211 38.0933 74.1455 37.6414C73.8809 37.1894 73.7487 36.6768 73.7487 36.1035V33.8216C73.7487 33.2483 73.8865 32.7357 74.1621 32.2838C74.4377 31.8318 74.8125 31.479 75.2865 31.2255C75.7605 30.9609 76.2952 30.8286 76.8905 30.8286C77.607 30.8286 78.2519 31.016 78.8252 31.3908C79.4094 31.7546 79.8669 32.2507 80.1976 32.879C80.5394 33.4964 80.7102 34.1964 80.7102 34.9791C80.7102 35.7508 80.5394 36.4508 80.1976 37.0791C79.8669 37.6965 79.4094 38.187 78.8252 38.5508C78.2519 38.9146 77.607 39.0965 76.8905 39.0965ZM76.5928 37.3768C77.0338 37.3768 77.4196 37.2776 77.7503 37.0791C78.0921 36.8697 78.3566 36.5831 78.544 36.2193C78.7425 35.8555 78.8417 35.4366 78.8417 34.9626C78.8417 34.4885 78.7425 34.0696 78.544 33.7058C78.3566 33.342 78.0921 33.0609 77.7503 32.8625C77.4196 32.6531 77.0338 32.5483 76.5928 32.5483C76.1519 32.5483 75.7605 32.6531 75.4188 32.8625C75.077 33.0609 74.8125 33.342 74.6251 33.7058C74.4377 34.0696 74.344 34.4885 74.344 34.9626C74.344 35.4366 74.4377 35.8555 74.6251 36.2193C74.8125 36.5831 75.077 36.8697 75.4188 37.0791C75.7605 37.2776 76.1519 37.3768 76.5928 37.3768ZM72.6408 42.2383V30.994H74.4597V33.1271L74.1455 35.0618L74.4597 36.9799V42.2383H72.6408ZM86.4825 39.0965C85.8762 39.0965 85.336 38.9697 84.862 38.7162C84.388 38.4516 84.0132 38.0933 83.7376 37.6414C83.473 37.1894 83.3407 36.6768 83.3407 36.1035V33.8216C83.3407 33.2483 83.4785 32.7357 83.7541 32.2838C84.0297 31.8318 84.4045 31.479 84.8786 31.2255C85.3526 30.9609 85.8872 30.8286 86.4825 30.8286C87.1991 30.8286 87.844 31.016 88.4172 31.3908C89.0015 31.7546 89.459 32.2507 89.7897 32.879C90.1314 33.4964 90.3023 34.1964 90.3023 34.9791C90.3023 35.7508 90.1314 36.4508 89.7897 37.0791C89.459 37.6965 89.0015 38.187 88.4172 38.5508C87.844 38.9146 87.1991 39.0965 86.4825 39.0965ZM86.1849 37.3768C86.6258 37.3768 87.0117 37.2776 87.3424 37.0791C87.6841 36.8697 87.9487 36.5831 88.1361 36.2193C88.3345 35.8555 88.4338 35.4366 88.4338 34.9626C88.4338 34.4885 88.3345 34.0696 88.1361 33.7058C87.9487 33.342 87.6841 33.0609 87.3424 32.8625C87.0117 32.6531 86.6258 32.5483 86.1849 32.5483C85.7439 32.5483 85.3526 32.6531 85.0108 32.8625C84.6691 33.0609 84.4045 33.342 84.2171 33.7058C84.0297 34.0696 83.936 34.4885 83.936 34.9626C83.936 35.4366 84.0297 35.8555 84.2171 36.2193C84.4045 36.5831 84.6691 36.8697 85.0108 37.0791C85.3526 37.2776 85.7439 37.3768 86.1849 37.3768ZM82.2328 42.2383V30.994H84.0518V33.1271L83.7376 35.0618L84.0518 36.9799V42.2383H82.2328ZM98.6078 39.0965C97.6928 39.0965 96.9156 38.9312 96.2763 38.6004C95.6369 38.2697 95.0636 37.7847 94.5565 37.1453L95.8463 35.8555C96.166 36.3185 96.5463 36.6823 96.9873 36.9469C97.4282 37.2004 97.9905 37.3272 98.6739 37.3272C99.3133 37.3272 99.8204 37.1949 100.195 36.9303C100.581 36.6657 100.774 36.302 100.774 35.839C100.774 35.4531 100.675 35.1389 100.476 34.8964C100.278 34.6539 100.013 34.4555 99.6826 34.3011C99.3629 34.1358 99.0047 33.9925 98.6078 33.8712C98.222 33.7389 97.8306 33.5956 97.4338 33.4413C97.0479 33.2759 96.6896 33.072 96.3589 32.8294C96.0392 32.5869 95.7802 32.2727 95.5817 31.8869C95.3833 31.5011 95.2841 31.0105 95.2841 30.4152C95.2841 29.7317 95.4495 29.153 95.7802 28.6789C96.1219 28.1939 96.5794 27.8246 97.1527 27.571C97.7259 27.3175 98.3653 27.1907 99.0708 27.1907C99.8315 27.1907 100.509 27.3395 101.105 27.6372C101.711 27.9348 102.202 28.3152 102.576 28.7782L101.287 30.068C100.956 29.6931 100.609 29.4175 100.245 29.2412C99.8921 29.0538 99.4842 28.9601 99.0212 28.9601C98.448 28.9601 97.996 29.0758 97.6653 29.3073C97.3456 29.5388 97.1857 29.864 97.1857 30.2829C97.1857 30.6357 97.2849 30.9223 97.4834 31.1428C97.6818 31.3522 97.9409 31.5341 98.2606 31.6885C98.5913 31.8318 98.9495 31.9696 99.3354 32.1019C99.7322 32.2341 100.124 32.383 100.509 32.5483C100.906 32.7137 101.265 32.9287 101.584 33.1932C101.915 33.4468 102.18 33.7775 102.378 34.1854C102.576 34.5933 102.676 35.1059 102.676 35.7232C102.676 36.7594 102.306 37.5807 101.568 38.187C100.84 38.7934 99.8535 39.0965 98.6078 39.0965ZM105.531 38.9312V27.6868H107.35V38.9312H105.531ZM103.629 32.6475V30.994H109.251V32.6475H103.629ZM113.985 39.0965C113.213 39.0965 112.513 38.9146 111.885 38.5508C111.256 38.176 110.755 37.6744 110.38 37.0461C110.016 36.4177 109.834 35.7177 109.834 34.946C109.834 34.1744 110.016 33.4798 110.38 32.8625C110.755 32.2452 111.256 31.7546 111.885 31.3908C112.513 31.016 113.213 30.8286 113.985 30.8286C114.768 30.8286 115.473 31.0105 116.101 31.3743C116.73 31.7381 117.226 32.2341 117.59 32.8625C117.964 33.4798 118.152 34.1744 118.152 34.946C118.152 35.7177 117.964 36.4177 117.59 37.0461C117.226 37.6744 116.73 38.176 116.101 38.5508C115.473 38.9146 114.768 39.0965 113.985 39.0965ZM113.985 37.3437C114.437 37.3437 114.834 37.2445 115.175 37.0461C115.528 36.8366 115.798 36.55 115.986 36.1862C116.184 35.8224 116.283 35.409 116.283 34.946C116.283 34.483 116.184 34.0751 115.986 33.7224C115.787 33.3696 115.517 33.094 115.175 32.8956C114.834 32.6861 114.437 32.5814 113.985 32.5814C113.544 32.5814 113.147 32.6861 112.794 32.8956C112.452 33.094 112.182 33.3696 111.984 33.7224C111.797 34.0751 111.703 34.483 111.703 34.946C111.703 35.409 111.797 35.8224 111.984 36.1862C112.182 36.55 112.452 36.8366 112.794 37.0461C113.147 37.2445 113.544 37.3437 113.985 37.3437ZM119.664 38.9312V30.994H121.483V38.9312H119.664ZM121.483 34.5161L120.855 34.2019C120.855 33.1987 121.076 32.3885 121.516 31.7711C121.968 31.1428 122.646 30.8286 123.55 30.8286C123.947 30.8286 124.306 30.9003 124.625 31.0436C124.945 31.1869 125.243 31.4184 125.518 31.7381L124.328 32.9617C124.184 32.8074 124.024 32.6972 123.848 32.631C123.672 32.5649 123.468 32.5318 123.236 32.5318C122.729 32.5318 122.31 32.6916 121.979 33.0113C121.649 33.331 121.483 33.8326 121.483 34.5161ZM129.844 39.0965C129.05 39.0965 128.333 38.9201 127.694 38.5674C127.066 38.2036 126.564 37.7075 126.189 37.0791C125.825 36.4508 125.643 35.7453 125.643 34.9626C125.643 34.1799 125.825 33.4798 126.189 32.8625C126.553 32.2341 127.043 31.7381 127.661 31.3743C128.289 31.0105 128.984 30.8286 129.744 30.8286C130.483 30.8286 131.133 30.9995 131.696 31.3412C132.269 31.683 132.715 32.1515 133.035 32.7468C133.366 33.342 133.531 34.02 133.531 34.7807C133.531 34.9129 133.52 35.0507 133.498 35.1941C133.487 35.3263 133.465 35.4752 133.432 35.6405H126.917V34.1523H132.489L131.811 34.7476C131.789 34.2625 131.696 33.8547 131.53 33.5239C131.365 33.1932 131.128 32.9397 130.819 32.7633C130.522 32.5869 130.152 32.4987 129.711 32.4987C129.248 32.4987 128.846 32.5979 128.504 32.7964C128.162 32.9948 127.898 33.2759 127.71 33.6397C127.523 33.9925 127.429 34.4169 127.429 34.9129C127.429 35.409 127.529 35.8445 127.727 36.2193C127.925 36.5941 128.207 36.8862 128.57 37.0957C128.934 37.2941 129.353 37.3933 129.827 37.3933C130.235 37.3933 130.61 37.3217 130.951 37.1784C131.304 37.035 131.602 36.8256 131.844 36.55L133.002 37.724C132.616 38.176 132.148 38.5178 131.596 38.7493C131.045 38.9808 130.461 39.0965 129.844 39.0965Z" fill="white"/>
</svg>
