<svg width="165" height="53" viewBox="0 0 165 53" fill="none" xmlns="http://www.w3.org/2000/svg">
<rect x="0.28418" y="0.296875" width="164" height="52" rx="26" fill="#1D2329"/>
<g clip-path="url(#clip0_4873_4769)">
<path d="M36.087 28.9373C38.1157 27.8133 39.6537 26.9568 39.7862 26.8902C40.2103 26.6626 40.6482 26.0603 39.7862 25.5925C39.5079 25.4454 38.0095 24.6156 36.087 23.5454L33.4219 26.2613L36.087 28.9372V28.9373Z" fill="#FFD900"/>
<path d="M33.4206 26.2612L24.9346 34.8913C25.1338 34.9179 25.3586 34.8647 25.6238 34.7176C26.1804 34.4101 32.0811 31.1585 36.0858 28.9378L33.4206 26.2612Z" fill="#F43249"/>
<path d="M33.4211 26.2617L36.0863 23.5591C36.0863 23.5591 26.2211 18.1266 25.6243 17.8059C25.3994 17.6715 25.1474 17.6316 24.9219 17.6715L33.4211 26.2617Z" fill="#00EE76"/>
<path d="M33.4199 26.2616L24.9206 17.6714C24.5757 17.7519 24.2842 18.0594 24.2842 18.6883V33.8748C24.2842 34.4504 24.5097 34.865 24.9338 34.905L33.4199 26.2616Z" fill="#00D3FF"/>
</g>
<path d="M52.4748 19.6631V18.952H54.0705C54.4949 18.952 54.8669 18.8611 55.1866 18.6792C55.5063 18.4918 55.7544 18.2355 55.9307 17.9103C56.1126 17.5851 56.2036 17.2103 56.2036 16.7859C56.2036 16.3669 56.1126 15.9949 55.9307 15.6697C55.7488 15.3445 55.4981 15.0909 55.1784 14.909C54.8587 14.7271 54.4894 14.6362 54.0705 14.6362H52.483V13.9252H54.087C54.5059 13.9252 54.8917 13.9968 55.2445 14.1401C55.6028 14.2834 55.9115 14.4846 56.1705 14.7437C56.4351 15.0027 56.639 15.3059 56.7823 15.6532C56.9312 16.0004 57.0056 16.3807 57.0056 16.7941C57.0056 17.202 56.9312 17.5823 56.7823 17.9351C56.639 18.2823 56.4378 18.5855 56.1788 18.8446C55.9197 19.1036 55.6111 19.3048 55.2528 19.4481C54.9 19.5914 54.5169 19.6631 54.1035 19.6631H52.4748ZM51.9621 19.6631V13.9252H52.7393V19.6631H51.9621ZM59.7442 19.7458C59.3583 19.7458 59.0111 19.6548 58.7024 19.4729C58.3938 19.291 58.1485 19.0457 57.9666 18.7371C57.7847 18.4229 57.6937 18.0729 57.6937 17.6871C57.6937 17.3067 57.7847 16.965 57.9666 16.6618C58.1485 16.3532 58.3938 16.1079 58.7024 15.926C59.0111 15.7441 59.3583 15.6532 59.7442 15.6532C60.1245 15.6532 60.469 15.7441 60.7777 15.926C61.0919 16.1024 61.3399 16.3449 61.5218 16.6536C61.7037 16.9622 61.7946 17.3067 61.7946 17.6871C61.7946 18.0729 61.7037 18.4229 61.5218 18.7371C61.3399 19.0457 61.0919 19.291 60.7777 19.4729C60.469 19.6548 60.1245 19.7458 59.7442 19.7458ZM59.7442 19.0265C59.9922 19.0265 60.2127 18.9686 60.4056 18.8528C60.5985 18.7371 60.7501 18.58 60.8604 18.3816C60.9706 18.1776 61.0257 17.9461 61.0257 17.6871C61.0257 17.4335 60.9678 17.2075 60.8521 17.0091C60.7418 16.8107 60.5903 16.6563 60.3974 16.5461C60.2099 16.4303 59.9922 16.3725 59.7442 16.3725C59.4961 16.3725 59.2757 16.4303 59.0828 16.5461C58.8898 16.6563 58.7383 16.8107 58.628 17.0091C58.5178 17.2075 58.4627 17.4335 58.4627 17.6871C58.4627 17.9461 58.5178 18.1776 58.628 18.3816C58.7383 18.58 58.8898 18.7371 59.0828 18.8528C59.2757 18.9686 59.4961 19.0265 59.7442 19.0265ZM63.6444 19.6631L62.0901 15.7358H62.8673L63.9917 18.795H63.7437L64.8598 15.7358H65.2898L66.4059 18.795H66.1579L67.2823 15.7358H68.0595L66.5134 19.6631H66.0752L64.9425 16.6949H65.2153L64.0744 19.6631H63.6444ZM71.499 19.6631V17.3729C71.499 17.0752 71.4052 16.8299 71.2178 16.637C71.0304 16.4441 70.7879 16.3477 70.4903 16.3477C70.2918 16.3477 70.1155 16.3918 69.9611 16.4799C69.8068 16.5681 69.6855 16.6894 69.5973 16.8437C69.5091 16.9981 69.465 17.1744 69.465 17.3729L69.1591 17.1992C69.1591 16.9016 69.2253 16.637 69.3576 16.4055C69.4899 16.174 69.6745 15.9921 69.9115 15.8598C70.1485 15.7221 70.4159 15.6532 70.7135 15.6532C71.0111 15.6532 71.273 15.7276 71.499 15.8764C71.7305 16.0252 71.9123 16.2209 72.0446 16.4634C72.1769 16.7004 72.2431 16.954 72.2431 17.2241V19.6631H71.499ZM68.7209 19.6631V15.7358H69.465V19.6631H68.7209ZM73.2505 19.6631V13.7598H73.9946V19.6631H73.2505ZM76.8775 19.7458C76.4916 19.7458 76.1444 19.6548 75.8357 19.4729C75.5271 19.291 75.2818 19.0457 75.0999 18.7371C74.918 18.4229 74.827 18.0729 74.827 17.6871C74.827 17.3067 74.918 16.965 75.0999 16.6618C75.2818 16.3532 75.5271 16.1079 75.8357 15.926C76.1444 15.7441 76.4916 15.6532 76.8775 15.6532C77.2578 15.6532 77.6023 15.7441 77.911 15.926C78.2252 16.1024 78.4732 16.3449 78.6551 16.6536C78.837 16.9622 78.9279 17.3067 78.9279 17.6871C78.9279 18.0729 78.837 18.4229 78.6551 18.7371C78.4732 19.0457 78.2252 19.291 77.911 19.4729C77.6023 19.6548 77.2578 19.7458 76.8775 19.7458ZM76.8775 19.0265C77.1255 19.0265 77.346 18.9686 77.5389 18.8528C77.7318 18.7371 77.8834 18.58 77.9937 18.3816C78.1039 18.1776 78.159 17.9461 78.159 17.6871C78.159 17.4335 78.1011 17.2075 77.9854 17.0091C77.8751 16.8107 77.7236 16.6563 77.5306 16.5461C77.3432 16.4303 77.1255 16.3725 76.8775 16.3725C76.6294 16.3725 76.409 16.4303 76.2161 16.5461C76.0231 16.6563 75.8716 16.8107 75.7613 17.0091C75.6511 17.2075 75.596 17.4335 75.596 17.6871C75.596 17.9461 75.6511 18.1776 75.7613 18.3816C75.8716 18.58 76.0231 18.7371 76.2161 18.8528C76.409 18.9686 76.6294 19.0265 76.8775 19.0265ZM81.4365 19.7458C81.0782 19.7458 80.753 19.6576 80.4608 19.4812C80.1687 19.2993 79.9372 19.054 79.7663 18.7453C79.601 18.4367 79.5183 18.0894 79.5183 17.7036C79.5183 17.3178 79.601 16.9705 79.7663 16.6618C79.9372 16.3532 80.166 16.1079 80.4526 15.926C80.7447 15.7441 81.0727 15.6532 81.4365 15.6532C81.7341 15.6532 81.9987 15.7165 82.2302 15.8433C82.4672 15.9646 82.6574 16.1354 82.8007 16.3559C82.944 16.5709 83.0239 16.8217 83.0404 17.1083V18.2906C83.0239 18.5717 82.944 18.8225 82.8007 19.043C82.6629 19.2635 82.4755 19.4371 82.2384 19.5639C82.0069 19.6851 81.7396 19.7458 81.4365 19.7458ZM81.5605 19.043C81.9298 19.043 82.2274 18.919 82.4534 18.6709C82.6794 18.4174 82.7924 18.0949 82.7924 17.7036C82.7924 17.4335 82.74 17.1992 82.6353 17.0008C82.5361 16.7969 82.3928 16.6398 82.2054 16.5295C82.018 16.4138 81.8002 16.3559 81.5522 16.3559C81.3042 16.3559 81.0837 16.4138 80.8908 16.5295C80.7034 16.6453 80.5545 16.8051 80.4443 17.0091C80.3396 17.2075 80.2872 17.4363 80.2872 17.6953C80.2872 17.9599 80.3396 18.1942 80.4443 18.3981C80.5545 18.5965 80.7061 18.7536 80.899 18.8694C81.092 18.9851 81.3124 19.043 81.5605 19.043ZM82.7428 19.6631V18.6048L82.8833 17.6457L82.7428 16.6949V15.7358H83.4952V19.6631H82.7428ZM86.2404 19.7458C85.8766 19.7458 85.5514 19.6576 85.2648 19.4812C84.9781 19.2993 84.7494 19.054 84.5785 18.7453C84.4132 18.4367 84.3305 18.0894 84.3305 17.7036C84.3305 17.3178 84.4132 16.9705 84.5785 16.6618C84.7494 16.3532 84.9781 16.1079 85.2648 15.926C85.5514 15.7441 85.8766 15.6532 86.2404 15.6532C86.5325 15.6532 86.7971 15.7165 87.0341 15.8433C87.2711 15.9646 87.4613 16.1354 87.6046 16.3559C87.7534 16.5709 87.8361 16.8217 87.8526 17.1083V18.2906C87.8361 18.5717 87.7562 18.8225 87.6128 19.043C87.4695 19.2635 87.2794 19.4371 87.0424 19.5639C86.8053 19.6851 86.538 19.7458 86.2404 19.7458ZM86.3644 19.043C86.6124 19.043 86.8274 18.9851 87.0093 18.8694C87.1967 18.7536 87.3428 18.5965 87.4475 18.3981C87.5522 18.1942 87.6046 17.9627 87.6046 17.7036C87.6046 17.4335 87.5495 17.1992 87.4392 17.0008C87.3345 16.8024 87.1884 16.6453 87.001 16.5295C86.8191 16.4138 86.6042 16.3559 86.3561 16.3559C86.1081 16.3559 85.8904 16.4138 85.703 16.5295C85.5156 16.6453 85.3667 16.8051 85.2565 17.0091C85.1518 17.2075 85.0994 17.4363 85.0994 17.6953C85.0994 17.9599 85.1518 18.1942 85.2565 18.3981C85.3667 18.5965 85.5156 18.7536 85.703 18.8694C85.8959 18.9851 86.1164 19.043 86.3644 19.043ZM88.3073 19.6631H87.555V18.6048L87.6955 17.6457L87.555 16.6949V13.7598H88.3073V19.6631ZM91.2428 19.6631V13.9252H91.7885L92.02 14.8264V19.6631H91.2428ZM95.2114 19.6631L91.6892 14.9586L91.7885 13.9252L95.3189 18.6213L95.2114 19.6631ZM95.2114 19.6631L94.9799 18.8115V13.9252H95.7571V19.6631H95.2114ZM98.7745 19.7458C98.3887 19.7458 98.0414 19.6548 97.7328 19.4729C97.4241 19.291 97.1788 19.0457 96.9969 18.7371C96.815 18.4229 96.7241 18.0729 96.7241 17.6871C96.7241 17.3067 96.815 16.965 96.9969 16.6618C97.1788 16.3532 97.4241 16.1079 97.7328 15.926C98.0414 15.7441 98.3887 15.6532 98.7745 15.6532C99.1548 15.6532 99.4993 15.7441 99.808 15.926C100.122 16.1024 100.37 16.3449 100.552 16.6536C100.734 16.9622 100.825 17.3067 100.825 17.6871C100.825 18.0729 100.734 18.4229 100.552 18.7371C100.37 19.0457 100.122 19.291 99.808 19.4729C99.4993 19.6548 99.1548 19.7458 98.7745 19.7458ZM98.7745 19.0265C99.0226 19.0265 99.243 18.9686 99.4359 18.8528C99.6289 18.7371 99.7804 18.58 99.8907 18.3816C100.001 18.1776 100.056 17.9461 100.056 17.6871C100.056 17.4335 99.9982 17.2075 99.8824 17.0091C99.7722 16.8107 99.6206 16.6563 99.4277 16.5461C99.2403 16.4303 99.0226 16.3725 98.7745 16.3725C98.5265 16.3725 98.306 16.4303 98.1131 16.5461C97.9202 16.6563 97.7686 16.8107 97.6583 17.0091C97.5481 17.2075 97.493 17.4335 97.493 17.6871C97.493 17.9461 97.5481 18.1776 97.6583 18.3816C97.7686 18.58 97.9202 18.7371 98.1131 18.8528C98.306 18.9686 98.5265 19.0265 98.7745 19.0265ZM102.675 19.6631L101.12 15.7358H101.898L103.022 18.795H102.774L103.89 15.7358H104.32L105.436 18.795H105.188L106.313 15.7358H107.09L105.544 19.6631H105.106L103.973 16.6949H104.246L103.105 19.6631H102.675Z" fill="white"/>
<path d="M57.7662 39.0965C56.9725 39.0965 56.2229 38.9422 55.5173 38.6335C54.8118 38.3248 54.1945 37.9004 53.6653 37.3603C53.1362 36.8091 52.7173 36.1752 52.4086 35.4586C52.111 34.7311 51.9621 33.9539 51.9621 33.1271C51.9621 32.3003 52.111 31.5286 52.4086 30.8121C52.7173 30.0955 53.1362 29.4672 53.6653 28.927C54.2055 28.3758 54.8339 27.9514 55.5504 27.6537C56.278 27.3451 57.0607 27.1907 57.8985 27.1907C58.8135 27.1907 59.6623 27.3671 60.445 27.7199C61.2277 28.0726 61.8836 28.5742 62.4128 29.2246L61.123 30.5144C60.7812 30.0294 60.3238 29.6601 59.7505 29.4065C59.1773 29.142 58.5599 29.0097 57.8985 29.0097C57.1048 29.0097 56.4048 29.186 55.7985 29.5388C55.2032 29.8806 54.7402 30.3601 54.4094 30.9774C54.0787 31.5948 53.9134 32.3113 53.9134 33.1271C53.9134 33.9428 54.0787 34.6649 54.4094 35.2933C54.7512 35.9106 55.2087 36.3957 55.7819 36.7484C56.3552 37.1012 57.0056 37.2776 57.7331 37.2776C58.5048 37.2776 59.1663 37.1398 59.7174 36.8642C60.2797 36.5776 60.7096 36.1586 61.0072 35.6075C61.3049 35.0452 61.4537 34.3562 61.4537 33.5405L62.6443 34.4003H57.7001V32.6641H63.4215V32.9287C63.4215 34.3066 63.1734 35.4531 62.6774 36.3681C62.1923 37.2831 61.5254 37.9666 60.6765 38.4185C59.8277 38.8705 58.8576 39.0965 57.7662 39.0965ZM68.704 39.0965C67.9323 39.0965 67.2323 38.9146 66.604 38.5508C65.9756 38.176 65.474 37.6744 65.0992 37.0461C64.7354 36.4177 64.5535 35.7177 64.5535 34.946C64.5535 34.1744 64.7354 33.4798 65.0992 32.8625C65.474 32.2452 65.9756 31.7546 66.604 31.3908C67.2323 31.016 67.9323 30.8286 68.704 30.8286C69.4867 30.8286 70.1922 31.0105 70.8206 31.3743C71.449 31.7381 71.945 32.2341 72.3088 32.8625C72.6836 33.4798 72.871 34.1744 72.871 34.946C72.871 35.7177 72.6836 36.4177 72.3088 37.0461C71.945 37.6744 71.449 38.176 70.8206 38.5508C70.1922 38.9146 69.4867 39.0965 68.704 39.0965ZM68.704 37.3437C69.156 37.3437 69.5529 37.2445 69.8946 37.0461C70.2474 36.8366 70.5174 36.55 70.7048 36.1862C70.9033 35.8224 71.0025 35.409 71.0025 34.946C71.0025 34.483 70.9033 34.0751 70.7048 33.7224C70.5064 33.3696 70.2363 33.094 69.8946 32.8956C69.5529 32.6861 69.156 32.5814 68.704 32.5814C68.2631 32.5814 67.8662 32.6861 67.5134 32.8956C67.1717 33.094 66.9016 33.3696 66.7032 33.7224C66.5158 34.0751 66.4221 34.483 66.4221 34.946C66.4221 35.409 66.5158 35.8224 66.7032 36.1862C66.9016 36.55 67.1717 36.8366 67.5134 37.0461C67.8662 37.2445 68.2631 37.3437 68.704 37.3437ZM78.0216 39.0965C77.2499 39.0965 76.5499 38.9146 75.9215 38.5508C75.2931 38.176 74.7916 37.6744 74.4167 37.0461C74.053 36.4177 73.8711 35.7177 73.8711 34.946C73.8711 34.1744 74.053 33.4798 74.4167 32.8625C74.7916 32.2452 75.2931 31.7546 75.9215 31.3908C76.5499 31.016 77.2499 30.8286 78.0216 30.8286C78.8043 30.8286 79.5098 31.0105 80.1381 31.3743C80.7665 31.7381 81.2626 32.2341 81.6264 32.8625C82.0012 33.4798 82.1886 34.1744 82.1886 34.946C82.1886 35.7177 82.0012 36.4177 81.6264 37.0461C81.2626 37.6744 80.7665 38.176 80.1381 38.5508C79.5098 38.9146 78.8043 39.0965 78.0216 39.0965ZM78.0216 37.3437C78.4735 37.3437 78.8704 37.2445 79.2121 37.0461C79.5649 36.8366 79.835 36.55 80.0224 36.1862C80.2208 35.8224 80.32 35.409 80.32 34.946C80.32 34.483 80.2208 34.0751 80.0224 33.7224C79.824 33.3696 79.5539 33.094 79.2121 32.8956C78.8704 32.6861 78.4735 32.5814 78.0216 32.5814C77.5806 32.5814 77.1837 32.6861 76.831 32.8956C76.4892 33.094 76.2192 33.3696 76.0207 33.7224C75.8333 34.0751 75.7396 34.483 75.7396 34.946C75.7396 35.409 75.8333 35.8224 76.0207 36.1862C76.2192 36.55 76.4892 36.8366 76.831 37.0461C77.1837 37.2445 77.5806 37.3437 78.0216 37.3437ZM87.0084 42.4037C86.1706 42.4037 85.4375 42.2493 84.8091 41.9407C84.1808 41.643 83.6737 41.2186 83.2878 40.6674L84.4784 39.4768C84.7981 39.8737 85.1619 40.1713 85.5698 40.3698C85.9777 40.5682 86.4682 40.6674 87.0415 40.6674C87.758 40.6674 88.3257 40.48 88.7446 40.1052C89.1636 39.7414 89.373 39.2398 89.373 38.6004V36.6492L89.6872 34.8964L89.373 33.1271V30.994H91.1919V38.6004C91.1919 39.3611 91.0156 40.0225 90.6628 40.5847C90.31 41.158 89.8195 41.6044 89.1911 41.9241C88.5627 42.2438 87.8352 42.4037 87.0084 42.4037ZM86.9257 38.7658C86.2202 38.7658 85.5808 38.5949 85.0075 38.2532C84.4453 37.9004 83.9989 37.4209 83.6681 36.8146C83.3485 36.2083 83.1886 35.5303 83.1886 34.7807C83.1886 34.031 83.3485 33.3586 83.6681 32.7633C83.9989 32.168 84.4453 31.6995 85.0075 31.3577C85.5808 31.005 86.2202 30.8286 86.9257 30.8286C87.5541 30.8286 88.1053 30.9554 88.5793 31.2089C89.0533 31.4625 89.4226 31.8152 89.6872 32.2672C89.9518 32.7082 90.084 33.2263 90.084 33.8216V35.7728C90.084 36.3571 89.9462 36.8752 89.6706 37.3272C89.4061 37.7792 89.0368 38.1319 88.5627 38.3855C88.0887 38.639 87.543 38.7658 86.9257 38.7658ZM87.2895 37.0461C87.7304 37.0461 88.1163 36.9524 88.447 36.765C88.7777 36.5776 89.0313 36.3185 89.2076 35.9878C89.3951 35.646 89.4888 35.2492 89.4888 34.7972C89.4888 34.3452 89.3951 33.9539 89.2076 33.6232C89.0313 33.2814 88.7777 33.0168 88.447 32.8294C88.1163 32.642 87.7304 32.5483 87.2895 32.5483C86.8485 32.5483 86.4572 32.642 86.1154 32.8294C85.7847 33.0168 85.5257 33.2814 85.3383 33.6232C85.1509 33.9539 85.0572 34.3452 85.0572 34.7972C85.0572 35.2382 85.1509 35.6295 85.3383 35.9712C85.5257 36.313 85.7847 36.5776 86.1154 36.765C86.4572 36.9524 86.8485 37.0461 87.2895 37.0461ZM93.2125 38.9312V27.0254H95.0315V38.9312H93.2125ZM100.743 39.0965C99.9496 39.0965 99.233 38.9201 98.5937 38.5674C97.9653 38.2036 97.4637 37.7075 97.0889 37.0791C96.7251 36.4508 96.5432 35.7453 96.5432 34.9626C96.5432 34.1799 96.7251 33.4798 97.0889 32.8625C97.4527 32.2341 97.9432 31.7381 98.5606 31.3743C99.1889 31.0105 99.8835 30.8286 100.644 30.8286C101.383 30.8286 102.033 30.9995 102.595 31.3412C103.169 31.683 103.615 32.1515 103.935 32.7468C104.265 33.342 104.431 34.02 104.431 34.7807C104.431 34.9129 104.42 35.0507 104.398 35.1941C104.387 35.3263 104.365 35.4752 104.332 35.6405H97.8165V34.1523H103.389L102.711 34.7476C102.689 34.2625 102.595 33.8547 102.43 33.5239C102.265 33.1932 102.028 32.9397 101.719 32.7633C101.421 32.5869 101.052 32.4987 100.611 32.4987C100.148 32.4987 99.7457 32.5979 99.4039 32.7964C99.0622 32.9948 98.7976 33.2759 98.6102 33.6397C98.4228 33.9925 98.3291 34.4169 98.3291 34.9129C98.3291 35.409 98.4283 35.8445 98.6267 36.2193C98.8252 36.5941 99.1063 36.8862 99.4701 37.0957C99.8338 37.2941 100.253 37.3933 100.727 37.3933C101.135 37.3933 101.509 37.3217 101.851 37.1784C102.204 37.035 102.502 36.8256 102.744 36.55L103.902 37.724C103.516 38.176 103.047 38.5178 102.496 38.7493C101.945 38.9808 101.361 39.0965 100.743 39.0965ZM110.754 34.5657V32.9121H113.647C114.044 32.9121 114.392 32.8349 114.689 32.6806C114.998 32.5153 115.24 32.2893 115.417 32.0026C115.593 31.705 115.681 31.3578 115.681 30.9609C115.681 30.564 115.593 30.2223 115.417 29.9357C115.24 29.638 114.998 29.412 114.689 29.2577C114.392 29.0923 114.044 29.0097 113.647 29.0097H110.754V27.3561H113.747C114.474 27.3561 115.125 27.5049 115.698 27.8025C116.282 28.1002 116.74 28.5191 117.07 29.0593C117.412 29.5994 117.583 30.2333 117.583 30.9609C117.583 31.6885 117.412 32.3223 117.07 32.8625C116.74 33.4027 116.282 33.8216 115.698 34.1192C115.125 34.4169 114.474 34.5657 113.747 34.5657H110.754ZM109.447 38.9312V27.3561H111.349V38.9312H109.447ZM119.179 38.9312V27.0254H120.998V38.9312H119.179ZM126.346 39.0965C125.629 39.0965 124.979 38.9146 124.395 38.5508C123.821 38.187 123.364 37.6965 123.022 37.0791C122.692 36.4508 122.526 35.7508 122.526 34.9791C122.526 34.1964 122.692 33.4964 123.022 32.879C123.364 32.2507 123.821 31.7546 124.395 31.3908C124.979 31.016 125.629 30.8286 126.346 30.8286C126.952 30.8286 127.487 30.9609 127.95 31.2255C128.424 31.479 128.799 31.8318 129.074 32.2838C129.35 32.7357 129.488 33.2483 129.488 33.8216V36.1035C129.488 36.6768 129.35 37.1894 129.074 37.6414C128.81 38.0933 128.44 38.4516 127.966 38.7162C127.492 38.9697 126.952 39.0965 126.346 39.0965ZM126.644 37.3768C127.316 37.3768 127.856 37.1508 128.264 36.6988C128.683 36.2468 128.892 35.6681 128.892 34.9626C128.892 34.4885 128.799 34.0696 128.611 33.7058C128.424 33.342 128.159 33.0609 127.818 32.8625C127.487 32.6531 127.096 32.5483 126.644 32.5483C126.203 32.5483 125.811 32.6531 125.47 32.8625C125.139 33.0609 124.874 33.342 124.676 33.7058C124.488 34.0696 124.395 34.4885 124.395 34.9626C124.395 35.4366 124.488 35.8555 124.676 36.2193C124.874 36.5831 125.139 36.8697 125.47 37.0791C125.811 37.2776 126.203 37.3768 126.644 37.3768ZM128.777 38.9312V36.798L129.091 34.8633L128.777 32.9452V30.994H130.596V38.9312H128.777ZM135.177 39.0138L131.787 30.994H133.788L136.103 36.8807H135.525L137.972 30.994H139.989L136.302 39.0138H135.177ZM132.813 42.2383L135.277 37.1618L136.302 39.0138L134.83 42.2383H132.813Z" fill="white"/>
<defs>
<clipPath id="clip0_4873_4769">
<rect width="16" height="17.28" fill="white" transform="translate(24.2842 17.6567)"/>
</clipPath>
</defs>
</svg>
