<svg width="336" height="128" viewBox="0 0 336 128" fill="none" xmlns="http://www.w3.org/2000/svg">
<g filter="url(#filter0_d_4756_24923)">
<rect x="48" y="67.25" width="240" height="40.5" rx="12" fill="white" shape-rendering="crispEdges"/>
<circle cx="71.25" cy="87.5" r="11.8125" fill="#E3EAF4" stroke="white" stroke-width="1.125"/>
<circle cx="81.75" cy="87.5" r="11.8125" fill="#E3EAF4" stroke="white" stroke-width="1.125"/>
<circle cx="92.25" cy="87.5" r="11.8125" fill="#E3EAF4" stroke="white" stroke-width="1.125"/>
<rect x="111" y="76.25" width="60" height="9" rx="4.5" fill="#E3EAF4"/>
<rect x="111" y="89.75" width="30" height="9" rx="4.5" fill="#E3EAF4"/>
<rect x="250.5" y="76.25" width="15" height="6" rx="3" fill="#E3EAF4"/>
<path d="M272.237 77.2695L273.867 78.8995C274.06 79.092 274.06 79.407 273.867 79.5995L272.237 81.2295" stroke="#E3EAF4" stroke-width="0.375" stroke-miterlimit="10" stroke-linecap="round" stroke-linejoin="round"/>
</g>
<g filter="url(#filter1_d_4756_24923)">
<rect x="28" y="40" width="280" height="47.25" rx="14" fill="white" shape-rendering="crispEdges"/>
<circle cx="55.125" cy="63.625" r="13.7812" fill="#D3DBE8" stroke="white" stroke-width="1.3125"/>
<circle cx="67.375" cy="63.625" r="13.7812" fill="#D3DBE8" stroke="white" stroke-width="1.3125"/>
<circle cx="79.625" cy="63.625" r="13.7812" fill="#D3DBE8" stroke="white" stroke-width="1.3125"/>
<rect x="101.5" y="50.5" width="70" height="10.5" rx="5.25" fill="#D3DBE8"/>
<rect x="101.5" y="66.25" width="35" height="10.5" rx="5.25" fill="#D3DBE8"/>
<rect x="264.25" y="50.5" width="17.5" height="7" rx="3.5" fill="#D3DBE8"/>
<path d="M289.61 51.6896L291.512 53.5912C291.737 53.8158 291.737 54.1833 291.512 54.4079L289.61 56.3096" stroke="#D3DBE8" stroke-width="0.4375" stroke-miterlimit="10" stroke-linecap="round" stroke-linejoin="round"/>
</g>
<g filter="url(#filter2_d_4756_24923)">
<rect x="8" y="6" width="320" height="54" rx="16" fill="white" shape-rendering="crispEdges"/>
<circle cx="39" cy="33" r="15.75" fill="#BAC7DA" stroke="white" stroke-width="1.5"/>
<circle cx="55" cy="33" r="15.75" fill="#BAC7DA" stroke="white" stroke-width="1.5"/>
<circle cx="71" cy="33" r="15.75" fill="#BAC7DA" stroke="white" stroke-width="1.5"/>
<rect x="96" y="18" width="80" height="12" rx="6" fill="#BAC7DA"/>
<rect x="96" y="36" width="40" height="12" rx="6" fill="#BAC7DA"/>
<rect x="278" y="18" width="20" height="8" rx="4" fill="#BAC7DA"/>
<path d="M306.983 19.3596L309.157 21.533C309.413 21.7896 309.413 22.2096 309.157 22.4663L306.983 24.6396" stroke="#BAC7DA" stroke-width="0.5" stroke-miterlimit="10" stroke-linecap="round" stroke-linejoin="round"/>
</g>
<defs>
<filter id="filter0_d_4756_24923" x="40" y="61.25" width="256" height="56.5" filterUnits="userSpaceOnUse" color-interpolation-filters="sRGB">
<feFlood flood-opacity="0" result="BackgroundImageFix"/>
<feColorMatrix in="SourceAlpha" type="matrix" values="0 0 0 0 0 0 0 0 0 0 0 0 0 0 0 0 0 0 127 0" result="hardAlpha"/>
<feOffset dy="2"/>
<feGaussianBlur stdDeviation="4"/>
<feComposite in2="hardAlpha" operator="out"/>
<feColorMatrix type="matrix" values="0 0 0 0 0.113725 0 0 0 0 0.137255 0 0 0 0 0.160784 0 0 0 0.04 0"/>
<feBlend mode="normal" in2="BackgroundImageFix" result="effect1_dropShadow_4756_24923"/>
<feBlend mode="normal" in="SourceGraphic" in2="effect1_dropShadow_4756_24923" result="shape"/>
</filter>
<filter id="filter1_d_4756_24923" x="20" y="34" width="296" height="63.25" filterUnits="userSpaceOnUse" color-interpolation-filters="sRGB">
<feFlood flood-opacity="0" result="BackgroundImageFix"/>
<feColorMatrix in="SourceAlpha" type="matrix" values="0 0 0 0 0 0 0 0 0 0 0 0 0 0 0 0 0 0 127 0" result="hardAlpha"/>
<feOffset dy="2"/>
<feGaussianBlur stdDeviation="4"/>
<feComposite in2="hardAlpha" operator="out"/>
<feColorMatrix type="matrix" values="0 0 0 0 0.113725 0 0 0 0 0.137255 0 0 0 0 0.160784 0 0 0 0.04 0"/>
<feBlend mode="normal" in2="BackgroundImageFix" result="effect1_dropShadow_4756_24923"/>
<feBlend mode="normal" in="SourceGraphic" in2="effect1_dropShadow_4756_24923" result="shape"/>
</filter>
<filter id="filter2_d_4756_24923" x="0" y="0" width="336" height="70" filterUnits="userSpaceOnUse" color-interpolation-filters="sRGB">
<feFlood flood-opacity="0" result="BackgroundImageFix"/>
<feColorMatrix in="SourceAlpha" type="matrix" values="0 0 0 0 0 0 0 0 0 0 0 0 0 0 0 0 0 0 127 0" result="hardAlpha"/>
<feOffset dy="2"/>
<feGaussianBlur stdDeviation="4"/>
<feComposite in2="hardAlpha" operator="out"/>
<feColorMatrix type="matrix" values="0 0 0 0 0.113725 0 0 0 0 0.137255 0 0 0 0 0.160784 0 0 0 0.04 0"/>
<feBlend mode="normal" in2="BackgroundImageFix" result="effect1_dropShadow_4756_24923"/>
<feBlend mode="normal" in="SourceGraphic" in2="effect1_dropShadow_4756_24923" result="shape"/>
</filter>
</defs>
</svg>
