<svg width="21" height="21" viewBox="0 0 21 21" fill="none" xmlns="http://www.w3.org/2000/svg">
<g clip-path="url(#clip0_4708_91)">
<path d="M20.5 10.0823C20.5 4.55946 16.0228 0.0822754 10.5 0.0822754C4.97719 0.0822754 0.5 4.55946 0.5 10.0823C0.5 15.0735 4.15687 19.2106 8.9375 19.9608V12.9729H6.39844V10.0823H8.9375V7.87915C8.9375 5.3729 10.4305 3.98853 12.7147 3.98853C13.8088 3.98853 14.9531 4.18384 14.9531 4.18384V6.64478H13.6922C12.4499 6.64478 12.0625 7.41564 12.0625 8.20649V10.0823H14.8359L14.3926 12.9729H12.0625V19.9608C16.8431 19.2106 20.5 15.0736 20.5 10.0823Z" fill="#1877F2"/>
<path d="M14.3926 12.9729L14.8359 10.0823H12.0625V8.20649C12.0625 7.41556 12.4499 6.64478 13.6922 6.64478H14.9531V4.18384C14.9531 4.18384 13.8088 3.98853 12.7146 3.98853C10.4305 3.98853 8.9375 5.3729 8.9375 7.87915V10.0823H6.39844V12.9729H8.9375V19.9608C9.45439 20.0418 9.9768 20.0824 10.5 20.0823C11.0232 20.0824 11.5456 20.0418 12.0625 19.9608V12.9729H14.3926Z" fill="white"/>
</g>
<defs>
<clipPath id="clip0_4708_91">
<rect width="20" height="20" fill="white" transform="translate(0.5 0.0822754)"/>
</clipPath>
</defs>
</svg>
