<svg width="61" height="60" viewBox="0 0 61 60" fill="none" xmlns="http://www.w3.org/2000/svg">
<path d="M30.5 0C14 0 0.5 13.5 0.5 30C0.5 46.5 14 60 30.5 60C47 60 60.5 46.5 60.5 30C60.5 13.5 47 0 30.5 0ZM30.5 6.66667C35.6667 6.66667 40.5 8.5 44.5 11.3333L11.8333 44C9 40 7.16667 35.1667 7.16667 30C7.16667 17.1667 17.6667 6.66667 30.5 6.66667ZM30.5 53.3333C25.3333 53.3333 20.5 51.5 16.5 48.6667L49.1667 16C52 20 53.8333 24.8333 53.8333 30C53.8333 42.8333 43.3333 53.3333 30.5 53.3333Z" fill="#D50000"/>
</svg>
