<svg width="21" height="21" viewBox="0 0 21 21" fill="none" xmlns="http://www.w3.org/2000/svg">
<path d="M18.6716 8.45027H18.0003V8.41569H10.5003V11.749H15.2099C14.5228 13.6894 12.6766 15.0824 10.5003 15.0824C7.73908 15.0824 5.50033 12.8436 5.50033 10.0824C5.50033 7.32111 7.73908 5.08236 10.5003 5.08236C11.7749 5.08236 12.9345 5.56319 13.8174 6.34861L16.1745 3.99152C14.6862 2.60444 12.6953 1.74902 10.5003 1.74902C5.89824 1.74902 2.16699 5.48027 2.16699 10.0824C2.16699 14.6844 5.89824 18.4157 10.5003 18.4157C15.1024 18.4157 18.8337 14.6844 18.8337 10.0824C18.8337 9.52361 18.7762 8.97819 18.6716 8.45027Z" fill="#FFC107"/>
<path d="M3.12793 6.20361L5.86585 8.21152C6.60668 6.37736 8.40085 5.08236 10.5004 5.08236C11.775 5.08236 12.9346 5.56319 13.8175 6.34861L16.1746 3.99152C14.6863 2.60444 12.6954 1.74902 10.5004 1.74902C7.2996 1.74902 4.52376 3.55611 3.12793 6.20361Z" fill="#FF3D00"/>
<path d="M10.4998 18.4157C12.6523 18.4157 14.6081 17.5919 16.0869 16.2523L13.5077 14.0698C12.6429 14.7275 11.5862 15.0832 10.4998 15.0823C8.3323 15.0823 6.49189 13.7002 5.79855 11.7715L3.08105 13.8652C4.46022 16.564 7.26105 18.4157 10.4998 18.4157Z" fill="#4CAF50"/>
<path d="M18.6712 8.45011H18V8.41553H10.5V11.7489H15.2096C14.8809 12.6724 14.2889 13.4794 13.5067 14.0701L13.5079 14.0693L16.0871 16.2518C15.9046 16.4176 18.8333 14.2489 18.8333 10.0822C18.8333 9.52344 18.7758 8.97803 18.6712 8.45011Z" fill="#1976D2"/>
</svg>
