<svg width="100" height="30" viewBox="0 0 100 30" fill="none" xmlns="http://www.w3.org/2000/svg">
<ellipse cx="67.4274" cy="14.9841" rx="0.977215" ry="0.977215" fill="#C1CAD8"/>
<path d="M24.9986 19.3C24.5643 20.1958 23.3211 21.9548 21.8227 21.8245C20.0311 22.3945 21.8553 26.4174 22.3113 27.1991C23.5328 27.0634 25.9433 26.2219 25.813 23.9418C25.9433 23.8115 26.5187 23.5617 26.7902 23.4532V20.9287L29.0704 18.73C29.3961 17.9699 29.5915 16.6127 27.7674 17.2641C27.5068 17.0035 26.3559 15.364 25.813 14.5768L25.4872 13.1924H21.8227L21.0083 12.7038V11.9709C19.1896 11.8352 15.5034 12.4269 15.3079 15.8797C14.7379 17.2641 17.0506 20.3749 18.8096 18.4856C18.8096 18.1599 18.2396 15.4726 20.6826 14.9025C21.6327 14.6582 23.7608 14.7234 24.6729 16.9384L24.0214 16.7755L23.5328 16.2055L23.1256 15.8797H22.4742L23.1256 16.6127L23.7771 17.2641L24.2657 17.6713V18.3228L23.5328 18.4856C22.9628 17.4541 21.3829 15.6354 19.6239 16.6127C19.2439 17.047 18.8422 18.1273 20.2754 18.9743L20.3569 19.6257L20.4383 20.2772H21.0083L21.2526 19.6257L21.8227 19.3C21.877 19.1914 22.0181 19.0068 22.1484 19.1371L22.637 19.6257C22.637 19.6257 23.1915 19.7024 23.5328 19.6257C23.8384 19.5571 24.2657 19.3 24.2657 19.3L24.6729 18.73C24.9172 18.7842 25.3244 18.9743 24.9986 19.3Z" fill="white"/>
<path d="M27.1159 24.5118C27.1974 24.4847 27.3765 24.3815 27.4417 24.1861C27.5068 23.9906 27.5774 23.5074 27.6045 23.2903L28.4189 23.046V22.6388L28.9889 22.5574V23.9418H28.5818L28.4189 24.6747H28.0931V25.4076C28.0931 25.4076 27.2788 25.8148 27.1159 25.4076C26.986 25.0828 27.1159 24.5118 27.1159 24.5118Z" fill="white"/>
<path fill-rule="evenodd" clip-rule="evenodd" d="M30.4548 7.32911H12.0505C10.0961 7.24768 8.54885 8.55063 10.829 9.77215C12.5391 9.77215 13.5652 12.2966 10.829 11.9709H7.2459C5.86151 11.9709 4.83544 13.681 7.2459 14.3325H12.2948C13.5164 14.3325 14.4447 16.4824 12.2948 16.6127H9.11889C7.73451 16.6127 6.92016 18.9743 9.11889 18.9743C11.3176 18.9743 11.1548 21.9873 9.11889 21.4173H5.53577C4.15138 21.173 3.09273 23.616 5.53577 23.9418H14.575C15.4708 23.9418 16.0083 25.5379 14.575 26.0591H10.0147C8.63028 26.0591 8.58142 28.1112 10.0147 28.1764H30.5362C32.4092 28.0135 32.4092 27.9321 32.4092 24.6747L32.8978 8.55063C32.8978 7.81772 32.6046 7.19882 30.4548 7.32911ZM21.8227 21.8245C23.3211 21.9548 24.5643 20.1958 24.9986 19.3C25.3244 18.9743 24.9172 18.7842 24.6729 18.73L24.2657 19.3C24.2657 19.3 23.8384 19.5571 23.5328 19.6257C23.1915 19.7024 22.637 19.6257 22.637 19.6257L22.1484 19.1371C22.0181 19.0068 21.877 19.1914 21.8227 19.3L21.2526 19.6257L21.0083 20.2772H20.4383L20.3569 19.6257L20.2754 18.9743C18.8422 18.1273 19.2439 17.047 19.6239 16.6127C21.3829 15.6354 22.9628 17.4541 23.5328 18.4856L24.2657 18.3228V17.6713L23.7771 17.2641L23.1256 16.6127L22.4742 15.8797H23.1256L23.5328 16.2055L24.0214 16.7755L24.6729 16.9384C23.7608 14.7234 21.6327 14.6582 20.6826 14.9025C18.2396 15.4726 18.8096 18.1599 18.8096 18.4856C17.0506 20.3749 14.7379 17.2641 15.3079 15.8797C15.5034 12.4269 19.1896 11.8352 21.0083 11.9709V12.7038L21.8227 13.1924H25.4872L25.813 14.5768C26.3559 15.364 27.5068 17.0035 27.7674 17.2641C29.5915 16.6127 29.3961 17.9699 29.0704 18.73L26.7902 20.9287V23.4532C26.5187 23.5617 25.9433 23.8115 25.813 23.9418C25.9433 26.2219 23.5328 27.0634 22.3113 27.1991C21.8553 26.4174 20.0311 22.3945 21.8227 21.8245ZM27.4417 24.1861C27.3765 24.3815 27.1974 24.4847 27.1159 24.5118C27.1159 24.5118 26.986 25.0828 27.1159 25.4076C27.2788 25.8148 28.0931 25.4076 28.0931 25.4076V24.6747H28.4189L28.5818 23.9418H28.9889V22.5574L28.4189 22.6388V23.046L27.6045 23.2903C27.5774 23.5074 27.5068 23.9906 27.4417 24.1861Z" fill="#C1CAD8"/>
<path d="M7.2459 7.32911C8.63029 7.00337 10.6987 9.51156 7.2459 9.77215C4.37941 9.77215 5.04716 7.00337 7.2459 7.32911Z" fill="#C1CAD8"/>
<path d="M1.30117 16.6127H6.35012C7.4902 16.6127 8.06024 18.5671 6.35012 18.9743H1.1383C0.0796543 19.2186 -0.8487 16.8732 1.30117 16.6127Z" fill="#C1CAD8"/>
<path d="M17.6695 6.43333H19.6239C19.8411 4.77749 21.0246 1.54726 24.0214 1.873C27.0182 2.19873 27.5503 5.04894 27.4417 6.43333H29.4775C29.6404 4.15316 28.7883 4.66483e-08 24.0214 0C18.5653 -5.33927e-08 17.8052 4.42461 17.6695 6.43333Z" fill="#C1CAD8"/>
<path d="M43.2024 21.8779L42.7031 20.335H43.6811H43.8478V20.1683V17.7292V17.5625H43.6811H41.806L40.7424 14.2758L41.2858 12.6376L41.3585 12.4184H41.1276H40.0201H39.791L39.8615 12.6364L40.3916 14.2745L39.3008 17.5625H37.5589H37.3922V17.7292V20.1683V20.335H37.5589H38.3811L37.8693 21.8779H35.0919L39.1358 11.0788H42.0422L46.0413 21.8779H43.2024ZM42.5953 20.0016L41.9138 17.8958H43.5144V20.0016H42.5953ZM41.5635 17.8958L42.2449 20.0016H38.8429L39.5415 17.8958H41.5635ZM37.7255 17.8958H39.1903L38.4917 20.0016H37.7255V17.8958ZM40.8967 12.7518L40.5689 13.7399L40.2492 12.7518H40.8967ZM50.0685 11.0788V13.3409H49.8172V11.0788H50.0685ZM50.4018 11.0788H55.0985V13.3409H50.4018V11.0788ZM49.6506 13.6743H50.0685V15.3266H49.6506H49.4839V15.4933V18.0888V18.2554H49.6506H50.0685V21.8779H47.3253V11.0788H49.4839V13.5076V13.6743H49.6506ZM49.8172 15.66H50.0685V17.9221H49.8172V15.66ZM50.4018 17.9221V15.66H54.8678V17.9221H50.4018ZM62.6291 21.8779L61.0616 17.7707H61.2991C62.1283 17.7707 62.8561 17.6267 63.4778 17.3326C63.6201 17.2652 63.7554 17.1917 63.8836 17.112L65.7613 21.8779H62.6291ZM59.8506 11.0788H61.4529C62.1911 11.0788 62.8317 11.2156 63.3793 11.4839C63.9286 11.7532 64.3563 12.1247 64.6669 12.5983C64.9753 13.0684 65.1319 13.6196 65.1319 14.2581C65.1319 14.8955 64.9707 15.446 64.6528 15.9159L64.6515 15.9179C64.4843 16.1728 64.2801 16.3983 64.0379 16.5944L63.5615 15.3853L63.52 15.2797H63.4065H62.0022C62.0112 15.2716 62.0201 15.2632 62.0289 15.2548C62.292 15.0109 62.4195 14.6886 62.4195 14.305C62.4195 13.9214 62.292 13.599 62.0289 13.3552C61.7718 13.1073 61.406 12.9969 60.9607 12.9969H59.8506V11.0788ZM59.2661 11.0788H59.5173V12.9969H59.2661V11.0788ZM59.5173 13.3303V21.8779H56.7741V11.0788H58.9327V13.1636V13.3303H59.0994H59.5173ZM61.2991 17.4374H61.072L60.4469 15.9281L61.0045 15.6131H63.293L63.7592 16.7962C63.6271 16.8817 63.4858 16.96 63.3352 17.0313C62.7672 17.3 62.0901 17.4374 61.2991 17.4374ZM60.3268 15.6131L60.2539 15.6543L60.2381 15.6131H60.3268ZM66.7139 17.5259V11.0788H69.4571V17.8073C69.4571 18.1862 69.5395 18.5201 69.7125 18.8015C69.8818 19.0767 70.1088 19.2904 70.3919 19.4401L70.3918 19.4402L70.399 19.4436C70.6895 19.5799 71.0062 19.647 71.3466 19.647C71.6961 19.647 72.01 19.5803 72.2835 19.4413L72.2859 19.4401C72.5681 19.2909 72.7911 19.0824 72.9509 18.8155L72.9525 18.8128C73.1135 18.5322 73.19 18.1999 73.19 17.823V11.0788H75.9485V17.5415C75.9485 18.4338 75.7542 19.218 75.3701 19.8988L75.3697 19.8995C74.9954 20.5702 74.464 21.101 73.7719 21.4929C73.0937 21.8725 72.2872 22.0655 71.3466 22.0655C70.4062 22.0655 69.5942 21.8725 68.9052 21.4926C68.2137 21.1008 67.677 20.5649 67.2923 19.8831C66.9082 19.2024 66.7139 18.4182 66.7139 17.5259ZM77.895 11.0788H79.6533L78.7541 13.8788L78.727 13.9629L78.7815 14.0325L80.6381 16.404V21.8779H77.895V11.0788ZM80.9599 13.1964L80.4559 11.9157L84.3299 16.8641V19.5741V19.5995L84.3374 19.6237L84.8361 21.2255L80.9714 16.289V13.2574V13.2258L80.9599 13.1964ZM79.0984 13.8966L79.8977 11.4077L80.6381 13.289V15.8632L79.0984 13.8966ZM84.6632 19.5488V17.2899L86.0491 19.0601L85.2682 21.4918L84.6632 19.5488ZM87.4064 21.8779H85.4943L86.3935 19.0779L86.4205 18.9937L86.366 18.9242L84.6632 16.7492V11.0788H87.4064V21.8779ZM96.9209 21.8779L96.4216 20.335H97.3996H97.5662V20.1683V17.7292V17.5625H97.3996H95.5244L94.4608 14.2758L95.0043 12.6376L95.077 12.4184H94.8461H93.7386H93.5094L93.58 12.6364L94.1101 14.2745L93.0193 17.5625H91.2774H91.1107V17.7292V20.1683V20.335H91.2774H92.0996L91.5878 21.8779H88.8104L92.8542 11.0788H95.7607L99.7598 21.8779H96.9209ZM96.3137 20.0016L95.6323 17.8958H97.2329V20.0016H96.3137ZM95.282 17.8958L95.9634 20.0016H92.5614L93.2599 17.8958H95.282ZM91.444 17.8958H92.9087L92.2102 20.0016H91.444V17.8958ZM94.6152 12.7518L94.2874 13.7399L93.9677 12.7518H94.6152Z" fill="#C1CAD8" stroke="#C1CAD8" stroke-width="0.333333"/>
<path d="M35.0127 27.8366C35.0127 27.7604 35.0395 27.694 35.0932 27.6376C35.1468 27.5811 35.2131 27.5529 35.2922 27.5529C35.3684 27.5529 35.4347 27.5811 35.4912 27.6376C35.5477 27.694 35.5759 27.7604 35.5759 27.8366C35.5759 27.9156 35.5477 27.982 35.4912 28.0356C35.4347 28.0892 35.3684 28.1161 35.2922 28.1161C35.2131 28.1161 35.1468 28.0892 35.0932 28.0356C35.0395 27.982 35.0127 27.9156 35.0127 27.8366Z" fill="#C1CAD8"/>
<path d="M37.2951 27.8366C37.2951 27.7604 37.3219 27.694 37.3755 27.6376C37.4292 27.5811 37.4955 27.5529 37.5746 27.5529C37.6508 27.5529 37.7171 27.5811 37.7736 27.6376C37.83 27.694 37.8583 27.7604 37.8583 27.8366C37.8583 27.9156 37.83 27.982 37.7736 28.0356C37.7171 28.0892 37.6508 28.1161 37.5746 28.1161C37.4955 28.1161 37.4292 28.0892 37.3755 28.0356C37.3219 27.982 37.2951 27.9156 37.2951 27.8366Z" fill="#C1CAD8"/>
<path d="M39.5775 27.8366C39.5775 27.7604 39.6043 27.694 39.6579 27.6376C39.7116 27.5811 39.7779 27.5529 39.8569 27.5529C39.9332 27.5529 39.9995 27.5811 40.056 27.6376C40.1124 27.694 40.1407 27.7604 40.1407 27.8366C40.1407 27.9156 40.1124 27.982 40.056 28.0356C39.9995 28.0892 39.9332 28.1161 39.8569 28.1161C39.7779 28.1161 39.7116 28.0892 39.6579 28.0356C39.6043 27.982 39.5775 27.9156 39.5775 27.8366Z" fill="#C1CAD8"/>
<path d="M45.899 28.0949V26.5704C45.7917 26.5196 45.6689 26.4773 45.5306 26.4434C45.3951 26.4067 45.2567 26.3799 45.1156 26.3629C45.0817 26.4872 45.0507 26.6156 45.0224 26.7483C44.9942 26.8782 44.9702 27.008 44.9504 27.1379C44.9307 27.2649 44.9151 27.3905 44.9039 27.5148C44.8926 27.6361 44.8869 27.7519 44.8869 27.862C44.8869 27.9862 44.8954 28.1076 44.9123 28.2262C44.9321 28.3447 44.973 28.4619 45.0351 28.5776C44.9702 28.5776 44.9024 28.5706 44.8319 28.5565C44.7613 28.5424 44.6964 28.5099 44.6371 28.4591C44.5778 28.4111 44.5284 28.3405 44.4889 28.2473C44.4522 28.157 44.4338 28.0342 44.4338 27.8789C44.4338 27.7801 44.4409 27.67 44.455 27.5486C44.4691 27.4272 44.4903 27.3002 44.5185 27.1675C44.5467 27.0348 44.5806 26.8993 44.6201 26.761C44.6625 26.6198 44.7091 26.4815 44.7599 26.346C44.678 26.3488 44.6004 26.3559 44.527 26.3672C44.4564 26.3785 44.3943 26.3954 44.3407 26.418C44.2898 26.4378 44.2489 26.4618 44.2179 26.49C44.1868 26.5182 44.1713 26.5493 44.1713 26.5831C44.1713 26.5944 44.1727 26.6029 44.1755 26.6086C44.2489 26.6311 44.2856 26.6777 44.2856 26.7483C44.2856 26.7991 44.2673 26.8344 44.2306 26.8542C44.1939 26.8739 44.1543 26.8838 44.112 26.8838C44.0414 26.8838 43.9765 26.864 43.9172 26.8245C43.8551 26.7822 43.824 26.7102 43.824 26.6086C43.824 26.5408 43.8452 26.4801 43.8876 26.4265C43.9271 26.3728 43.9821 26.3277 44.0527 26.291C44.1261 26.2514 44.2108 26.2218 44.3068 26.202C44.4056 26.1823 44.5129 26.1724 44.6286 26.1724C44.6597 26.1724 44.6921 26.1738 44.726 26.1766C44.7599 26.1766 44.7938 26.178 44.8276 26.1809C44.8982 26.0115 44.9773 25.8506 45.0648 25.6981C45.1523 25.5428 45.2469 25.4087 45.3485 25.2958C45.4501 25.1801 45.5574 25.0883 45.6703 25.0206C45.7832 24.9528 45.9018 24.9189 46.026 24.9189C46.0684 24.9189 46.1206 24.9232 46.1827 24.9316C46.2476 24.9401 46.3083 24.9556 46.3648 24.9782V28.0949H45.899ZM45.1579 26.2232C45.2991 26.2486 45.4346 26.2811 45.5645 26.3206C45.6943 26.3573 45.8058 26.3982 45.899 26.4434V25.1222C45.8284 25.1279 45.7592 25.1603 45.6915 25.2196C45.6237 25.2761 45.5574 25.3537 45.4925 25.4525C45.4304 25.5513 45.3711 25.6671 45.3146 25.7997C45.2582 25.9296 45.2059 26.0708 45.1579 26.2232Z" fill="#C1CAD8"/>
<path d="M48.5733 25.9776H48.9163V26.1258H48.5733V28.4337C48.5733 28.5833 48.5578 28.7047 48.5267 28.7978C48.4985 28.891 48.4604 28.9644 48.4124 29.018C48.3644 29.0717 48.3079 29.107 48.243 29.1239C48.1809 29.1437 48.1146 29.1535 48.044 29.1535C47.8915 29.1535 47.78 29.1183 47.7094 29.0477C47.636 28.9771 47.5993 28.8755 47.5993 28.7428C47.5993 28.6722 47.6163 28.6073 47.6502 28.548C47.6812 28.4887 47.7236 28.4337 47.7772 28.3828C47.828 28.3349 47.8859 28.2911 47.9508 28.2516C48.0157 28.2149 48.0821 28.1824 48.1498 28.1542V25.6558C48.1498 25.4102 48.2077 25.2267 48.3235 25.1053C48.4392 24.9811 48.5874 24.9189 48.7681 24.9189C48.8528 24.9189 48.9304 24.9316 49.001 24.9571C49.0716 24.9825 49.1337 25.022 49.1873 25.0756C49.241 25.1293 49.2819 25.1956 49.3101 25.2747C49.3412 25.3537 49.3567 25.4469 49.3567 25.5541H49.1916C49.1746 25.4412 49.1436 25.3523 49.0984 25.2874C49.056 25.2224 48.9841 25.19 48.8824 25.19C48.8147 25.19 48.761 25.2055 48.7215 25.2365C48.682 25.2648 48.6509 25.3043 48.6284 25.3551C48.6058 25.4059 48.5902 25.468 48.5818 25.5414C48.5761 25.612 48.5733 25.6896 48.5733 25.7743V25.9776ZM47.9593 28.9333C48.0412 28.9333 48.0934 28.8896 48.116 28.8021C48.1385 28.7146 48.1498 28.5946 48.1498 28.4421V28.3109C48.0228 28.373 47.9268 28.4407 47.8619 28.5141C47.797 28.5875 47.7645 28.6595 47.7645 28.7301C47.7645 28.7865 47.7828 28.8345 47.8195 28.8741C47.8562 28.9136 47.9028 28.9333 47.9593 28.9333Z" fill="#C1CAD8"/>
<path d="M50.9839 25.9776V26.3333C51.0178 26.2825 51.0502 26.2345 51.0813 26.1893C51.1151 26.1442 51.1518 26.1046 51.1914 26.0708C51.2309 26.0369 51.2747 26.0101 51.3226 25.9903C51.3706 25.9677 51.4243 25.9564 51.4836 25.9564C51.5795 25.9564 51.6501 25.9818 51.6953 26.0326C51.7405 26.0806 51.763 26.1399 51.763 26.2105C51.763 26.2528 51.756 26.2881 51.7419 26.3164C51.7278 26.3446 51.7108 26.3672 51.6911 26.3841C51.6713 26.4011 51.6501 26.4138 51.6275 26.4222C51.605 26.4279 51.5852 26.4307 51.5683 26.4307C51.5428 26.4307 51.5217 26.4251 51.5047 26.4138C51.4906 26.4025 51.4751 26.3912 51.4582 26.3799C51.444 26.3658 51.4271 26.3531 51.4073 26.3418C51.3876 26.3305 51.3622 26.3248 51.3311 26.3248C51.2662 26.3248 51.2041 26.3474 51.1448 26.3926C51.0855 26.4378 51.0319 26.4857 50.9839 26.5366V28.0949H50.5604V25.9776H50.9839Z" fill="#C1CAD8"/>
<path d="M53.8081 25.9776V27.4174C53.8081 27.4456 53.8095 27.4809 53.8123 27.5232C53.8151 27.5656 53.8222 27.6079 53.8335 27.6503C53.8476 27.6898 53.8674 27.7251 53.8928 27.7561C53.9182 27.7844 53.9535 27.7985 53.9986 27.7985C54.137 27.7985 54.2386 27.6446 54.3035 27.3369H54.4602C54.4292 27.5148 54.3896 27.6559 54.3416 27.7604C54.2937 27.862 54.2428 27.9396 54.1892 27.9933C54.1356 28.0469 54.0805 28.0808 54.0241 28.0949C53.9676 28.1118 53.9168 28.1203 53.8716 28.1203C53.7728 28.1203 53.6923 28.102 53.6302 28.0653C53.5681 28.0257 53.5187 27.9763 53.482 27.917C53.4453 27.8578 53.4199 27.7914 53.4058 27.718C53.3917 27.6446 53.3846 27.574 53.3846 27.5063V25.9776H53.8081ZM53.3084 25.3678C53.3084 25.2916 53.3352 25.2252 53.3889 25.1688C53.4425 25.1123 53.5088 25.0841 53.5879 25.0841C53.6641 25.0841 53.7305 25.1123 53.7869 25.1688C53.8434 25.2252 53.8716 25.2916 53.8716 25.3678C53.8716 25.4469 53.8434 25.5132 53.7869 25.5668C53.7305 25.6205 53.6641 25.6473 53.5879 25.6473C53.5088 25.6473 53.4425 25.6205 53.3889 25.5668C53.3352 25.5132 53.3084 25.4469 53.3084 25.3678Z" fill="#C1CAD8"/>
<path d="M56.6571 26.6255C56.6797 26.6057 56.6966 26.5747 56.7079 26.5323C56.722 26.4872 56.7291 26.4448 56.7291 26.4053C56.7291 26.3404 56.7079 26.2867 56.6656 26.2444C56.6261 26.202 56.5696 26.1809 56.4962 26.1809C56.42 26.1809 56.3565 26.2091 56.3056 26.2655C56.2548 26.322 56.2139 26.394 56.1828 26.4815C56.1518 26.5662 56.1292 26.6622 56.1151 26.7695C56.1038 26.8739 56.0981 26.977 56.0981 27.0786C56.0981 27.2282 56.1109 27.3496 56.1363 27.4428C56.1645 27.5359 56.2012 27.6093 56.2464 27.663C56.2915 27.7138 56.3438 27.7491 56.403 27.7688C56.4651 27.7886 56.5301 27.7985 56.5978 27.7985C56.7475 27.7985 56.8731 27.7618 56.9747 27.6884C57.0792 27.6121 57.1681 27.495 57.2415 27.3369H57.3855C57.3516 27.4414 57.3036 27.5416 57.2415 27.6376C57.1794 27.7307 57.1074 27.814 57.0255 27.8874C56.9437 27.958 56.8547 28.0144 56.7587 28.0568C56.6628 28.0991 56.5625 28.1203 56.4581 28.1203C56.3593 28.1203 56.2619 28.1034 56.1659 28.0695C56.0699 28.0356 55.9838 27.9806 55.9076 27.9043C55.8314 27.8253 55.7693 27.7237 55.7213 27.5994C55.6733 27.4724 55.6493 27.3171 55.6493 27.1336C55.6493 27.0151 55.6592 26.888 55.6789 26.7525C55.7015 26.6142 55.741 26.4872 55.7975 26.3714C55.8568 26.2528 55.9372 26.154 56.0389 26.075C56.1405 25.9959 56.2718 25.9564 56.4327 25.9564C56.6105 25.9564 56.746 26.0002 56.8392 26.0877C56.9324 26.1724 56.9789 26.298 56.9789 26.4646C56.9789 26.5352 56.9648 26.5944 56.9366 26.6424C56.9112 26.6904 56.8703 26.7144 56.8138 26.7144C56.7517 26.7144 56.6995 26.6848 56.6571 26.6255Z" fill="#C1CAD8"/>
<path d="M60.1983 25.9776V27.4174C60.1983 27.4512 60.1997 27.4908 60.2026 27.5359C60.2054 27.5783 60.2124 27.6192 60.2237 27.6587C60.2379 27.6983 60.2576 27.7321 60.283 27.7604C60.3113 27.7858 60.3508 27.7985 60.4016 27.7985C60.4242 27.7985 60.4482 27.7956 60.4736 27.79C60.5018 27.7844 60.5244 27.7787 60.5413 27.7731C60.5442 27.7872 60.5456 27.7999 60.5456 27.8112C60.5484 27.8225 60.5498 27.8352 60.5498 27.8493C60.5498 27.934 60.5173 28.0003 60.4524 28.0483C60.3875 28.0963 60.3141 28.1203 60.2322 28.1203C60.1447 28.1203 60.0656 28.0907 59.9951 28.0314C59.9245 27.9693 59.8765 27.8662 59.8511 27.7222C59.8087 27.8323 59.7396 27.9269 59.6436 28.006C59.5476 28.0822 59.4319 28.1203 59.2964 28.1203C59.2117 28.1203 59.1256 28.1034 59.038 28.0695C58.9534 28.0328 58.8771 27.9763 58.8094 27.9001C58.7416 27.8239 58.6852 27.7251 58.64 27.6037C58.5977 27.4823 58.5765 27.3355 58.5765 27.1633C58.5765 27.0306 58.5906 26.8937 58.6188 26.7525C58.6499 26.6086 58.6965 26.4787 58.7586 26.3629C58.8235 26.2444 58.9068 26.147 59.0084 26.0708C59.11 25.9945 59.2314 25.9564 59.3726 25.9564C59.446 25.9564 59.5208 25.9719 59.597 26.003C59.6761 26.0341 59.7353 26.0933 59.7749 26.1809V25.9776H60.1983ZM59.3853 27.7985C59.4389 27.7985 59.4897 27.7858 59.5377 27.7604C59.5857 27.735 59.6267 27.7011 59.6605 27.6587C59.6972 27.6164 59.7255 27.5684 59.7452 27.5148C59.765 27.4583 59.7749 27.399 59.7749 27.3369V26.3714C59.7551 26.3234 59.7255 26.2811 59.6859 26.2444C59.6464 26.2077 59.59 26.1893 59.5166 26.1893C59.4262 26.1893 59.35 26.2204 59.2879 26.2825C59.2258 26.3418 59.175 26.418 59.1354 26.5112C59.0959 26.6043 59.0663 26.7088 59.0465 26.8245C59.0296 26.9374 59.0211 27.0461 59.0211 27.1506C59.0211 27.3792 59.0564 27.5444 59.127 27.646C59.1976 27.7477 59.2837 27.7985 59.3853 27.7985Z" fill="#C1CAD8"/>
<path d="M64.8812 25.3339V25.9776H65.2073V26.1258H64.8812V27.4174C64.8812 27.4512 64.8826 27.4908 64.8855 27.5359C64.8883 27.5783 64.8953 27.6192 64.9066 27.6587C64.9208 27.6983 64.9405 27.7321 64.9659 27.7604C64.9942 27.7858 65.0323 27.7985 65.0803 27.7985C65.1565 27.7985 65.2285 27.7604 65.2962 27.6841C65.3668 27.6079 65.4218 27.4922 65.4614 27.3369H65.6181C65.5701 27.5148 65.5178 27.6559 65.4614 27.7604C65.4077 27.862 65.3513 27.9396 65.292 27.9933C65.2327 28.0469 65.1734 28.0808 65.1141 28.0949C65.0577 28.1118 65.0054 28.1203 64.9575 28.1203C64.8558 28.1203 64.7725 28.102 64.7076 28.0653C64.6427 28.0257 64.5919 27.9763 64.5552 27.917C64.5185 27.8578 64.4931 27.7928 64.4789 27.7222C64.4648 27.6488 64.4578 27.5769 64.4578 27.5063V26.1258H64.3138V25.9776H64.4578V25.3932L64.8812 25.3339Z" fill="#C1CAD8"/>
<path d="M67.6266 25.9564C67.7254 25.9564 67.8116 25.9705 67.8849 25.9988C67.9583 26.027 68.0205 26.0665 68.0713 26.1173C68.1249 26.1653 68.1673 26.2246 68.1983 26.2952C68.2322 26.3629 68.2576 26.4363 68.2745 26.5154C68.3536 26.5154 68.41 26.4914 68.4439 26.4434C68.4778 26.3926 68.5018 26.346 68.5159 26.3037H68.6387C68.6161 26.3968 68.578 26.4928 68.5244 26.5916C68.4736 26.6876 68.4016 26.7596 68.3084 26.8076C68.3141 26.8415 68.3169 26.8753 68.3169 26.9092C68.3169 26.9403 68.3169 26.9727 68.3169 27.0066C68.3169 27.3538 68.2534 27.6263 68.1263 27.8239C67.9993 28.0215 67.8214 28.1203 67.5928 28.1203C67.4996 28.1203 67.405 28.1034 67.309 28.0695C67.2159 28.0356 67.1312 27.9791 67.055 27.9001C66.9787 27.8211 66.9166 27.7194 66.8686 27.5952C66.8235 27.471 66.8009 27.3171 66.8009 27.1336C66.8009 27.0094 66.8136 26.8782 66.839 26.7398C66.8672 26.6015 66.9124 26.4745 66.9745 26.3587C67.0394 26.243 67.1241 26.147 67.2286 26.0708C67.3359 25.9945 67.4685 25.9564 67.6266 25.9564ZM67.669 27.7985C67.8186 27.7985 67.9287 27.7251 67.9993 27.5783C68.0699 27.4287 68.1051 27.2183 68.1051 26.9473C68.1051 26.9332 68.1037 26.9191 68.1009 26.905C68.1009 26.888 68.1009 26.8725 68.1009 26.8584C68.0219 26.8584 67.964 26.8372 67.9273 26.7949C67.8906 26.7497 67.8722 26.6862 67.8722 26.6043C67.8722 26.5479 67.8864 26.5041 67.9146 26.473C67.9428 26.4392 67.9809 26.4194 68.0289 26.4138C67.995 26.3319 67.9527 26.274 67.9019 26.2401C67.8511 26.2063 67.796 26.1893 67.7367 26.1893C67.6492 26.1893 67.5744 26.219 67.5123 26.2783C67.453 26.3347 67.4036 26.4081 67.3641 26.4985C67.3274 26.5888 67.3006 26.689 67.2836 26.7991C67.2667 26.9064 67.2582 27.0122 67.2582 27.1167C67.2582 27.255 67.2709 27.368 67.2963 27.4555C67.3217 27.543 67.3542 27.6121 67.3937 27.663C67.4333 27.7138 67.477 27.7491 67.525 27.7688C67.573 27.7886 67.621 27.7985 67.669 27.7985Z" fill="#C1CAD8"/>
<path d="M72.9524 25.3339V25.9776H73.2785V26.1258H72.9524V27.4174C72.9524 27.4512 72.9538 27.4908 72.9567 27.5359C72.9595 27.5783 72.9666 27.6192 72.9778 27.6587C72.992 27.6983 73.0117 27.7321 73.0371 27.7604C73.0654 27.7858 73.1035 27.7985 73.1515 27.7985C73.2277 27.7985 73.2997 27.7604 73.3674 27.6841C73.438 27.6079 73.4931 27.4922 73.5326 27.3369H73.6893C73.6413 27.5148 73.589 27.6559 73.5326 27.7604C73.4789 27.862 73.4225 27.9396 73.3632 27.9933C73.3039 28.0469 73.2446 28.0808 73.1853 28.0949C73.1289 28.1118 73.0767 28.1203 73.0287 28.1203C72.927 28.1203 72.8438 28.102 72.7788 28.0653C72.7139 28.0257 72.6631 27.9763 72.6264 27.917C72.5897 27.8578 72.5643 27.7928 72.5502 27.7222C72.536 27.6488 72.529 27.5769 72.529 27.5063V26.1258H72.385V25.9776H72.529V25.3932L72.9524 25.3339Z" fill="#C1CAD8"/>
<path d="M75.3464 25.1307V26.2994C75.3887 26.2232 75.4311 26.1625 75.4734 26.1173C75.5186 26.0693 75.5638 26.0341 75.6089 26.0115C75.6541 25.9889 75.6964 25.9748 75.736 25.9691C75.7783 25.9607 75.8178 25.9564 75.8545 25.9564C75.9816 25.9564 76.0832 25.9804 76.1594 26.0284C76.2385 26.0764 76.2977 26.1385 76.3373 26.2147C76.3768 26.2881 76.4022 26.37 76.4135 26.4603C76.4276 26.5479 76.4347 26.6325 76.4347 26.7144C76.4347 26.7652 76.4333 26.8217 76.4304 26.8838C76.4276 26.9431 76.4248 27.0052 76.422 27.0701C76.4191 27.1322 76.4163 27.1957 76.4135 27.2607C76.4107 27.3228 76.4093 27.3807 76.4093 27.4343C76.4093 27.4569 76.4107 27.4893 76.4135 27.5317C76.4163 27.5712 76.4234 27.6107 76.4347 27.6503C76.446 27.6898 76.4643 27.7251 76.4897 27.7561C76.5151 27.7844 76.5518 27.7985 76.5998 27.7985C76.6647 27.7985 76.7226 27.7618 76.7734 27.6884C76.8271 27.615 76.8708 27.4978 76.9047 27.3369H77.0614C77.0303 27.5148 76.9908 27.6559 76.9428 27.7604C76.8948 27.862 76.844 27.9396 76.7904 27.9933C76.7367 28.0469 76.6831 28.0808 76.6295 28.0949C76.5758 28.1118 76.5264 28.1203 76.4813 28.1203C76.3909 28.1203 76.3147 28.1034 76.2526 28.0695C76.1905 28.0328 76.1397 27.9848 76.1001 27.9255C76.0606 27.8662 76.031 27.7971 76.0112 27.718C75.9943 27.639 75.9858 27.5571 75.9858 27.4724C75.9858 27.447 75.9858 27.4004 75.9858 27.3327C75.9886 27.2621 75.99 27.1873 75.99 27.1082C75.9929 27.0292 75.9943 26.9544 75.9943 26.8838C75.9971 26.8132 75.9985 26.7638 75.9985 26.7356C75.9985 26.6452 75.9914 26.5704 75.9773 26.5112C75.9632 26.4519 75.9435 26.4053 75.918 26.3714C75.8926 26.3375 75.863 26.3135 75.8291 26.2994C75.7981 26.2853 75.7642 26.2783 75.7275 26.2783C75.64 26.2783 75.5638 26.3135 75.4988 26.3841C75.4367 26.4547 75.3859 26.5733 75.3464 26.7398V28.0949H74.9229V25.19L75.3464 25.1307Z" fill="#C1CAD8"/>
<path d="M79.6225 26.5069C79.6225 26.7045 79.5406 26.8697 79.3769 27.0024C79.2159 27.1351 78.9915 27.2169 78.7036 27.248C78.7148 27.3609 78.7346 27.4526 78.7628 27.5232C78.7939 27.5938 78.8306 27.6503 78.8729 27.6926C78.9153 27.7321 78.9633 27.7604 79.0169 27.7773C79.0734 27.7914 79.1312 27.7985 79.1905 27.7985C79.2809 27.7985 79.3656 27.7829 79.4446 27.7519C79.5265 27.7208 79.5942 27.6672 79.6479 27.591C79.6507 27.6107 79.6521 27.6305 79.6521 27.6503C79.6549 27.6672 79.6563 27.6827 79.6563 27.6968C79.6563 27.7618 79.6394 27.8196 79.6055 27.8705C79.5745 27.9213 79.5307 27.9664 79.4743 28.006C79.4206 28.0427 79.3571 28.0709 79.2837 28.0907C79.2131 28.1104 79.1383 28.1203 79.0593 28.1203C78.9633 28.1203 78.8673 28.1034 78.7713 28.0695C78.6753 28.0328 78.5878 27.9763 78.5088 27.9001C78.4325 27.8211 78.3704 27.7194 78.3224 27.5952C78.2744 27.471 78.2505 27.32 78.2505 27.1421C78.2505 27.0235 78.2632 26.8951 78.2886 26.7568C78.3168 26.6184 78.362 26.49 78.4241 26.3714C78.489 26.2528 78.5723 26.154 78.6739 26.075C78.7784 25.9959 78.9068 25.9564 79.0593 25.9564C79.1298 25.9564 79.1976 25.9649 79.2625 25.9818C79.3303 25.9959 79.391 26.0242 79.4446 26.0665C79.4982 26.106 79.5406 26.1611 79.5716 26.2317C79.6055 26.3022 79.6225 26.394 79.6225 26.5069ZM78.6993 27.0828C78.8998 27.0518 79.0578 26.9812 79.1736 26.8711C79.2922 26.761 79.3514 26.6255 79.3514 26.4646C79.3514 26.3573 79.3331 26.2811 79.2964 26.2359C79.2597 26.1879 79.2075 26.1639 79.1397 26.1639C79.0663 26.1639 79.0014 26.1921 78.9449 26.2486C78.8913 26.3051 78.8461 26.3785 78.8094 26.4688C78.7727 26.5563 78.7445 26.6551 78.7247 26.7652C78.7078 26.8725 78.6993 26.9784 78.6993 27.0828Z" fill="#C1CAD8"/>
<path d="M85.4175 27.7561L85.9637 24.9401H86.2771L86.8826 27.7561L87.4289 24.9401H87.6703L87.0012 28.0949H86.5312L86.023 25.7997L85.536 28.0949H85.066L84.3927 25.1603C84.2854 25.1603 84.1951 25.1801 84.1217 25.2196C84.0483 25.2563 83.989 25.3071 83.9438 25.372C83.8987 25.4342 83.8648 25.5061 83.8422 25.588C83.8224 25.6671 83.8126 25.7489 83.8126 25.8336C83.8126 25.955 83.8295 26.0637 83.8634 26.1597C83.8973 26.2557 83.9467 26.3446 84.0116 26.4265C83.9551 26.4265 83.8987 26.418 83.8422 26.4011C83.7857 26.3841 83.7349 26.3545 83.6898 26.3121C83.6446 26.2698 83.6079 26.2133 83.5797 26.1427C83.5514 26.0693 83.5373 25.9776 83.5373 25.8675C83.5373 25.7405 83.5613 25.6191 83.6093 25.5033C83.6573 25.3876 83.7279 25.2874 83.821 25.2027C83.9142 25.1151 84.0285 25.046 84.164 24.9952C84.2995 24.9444 84.4548 24.9189 84.6298 24.9189C84.6609 24.9189 84.6905 24.9204 84.7188 24.9232C84.7498 24.926 84.7809 24.9302 84.8119 24.9359L85.4175 27.7561Z" fill="#C1CAD8"/>
<path d="M89.8973 25.9564C90.0074 25.9564 90.102 25.9734 90.181 26.0072C90.2601 26.0411 90.325 26.0891 90.3758 26.1512C90.4266 26.2105 90.4662 26.2811 90.4944 26.3629C90.5254 26.4448 90.548 26.5323 90.5621 26.6255H90.5876C90.7061 26.6255 90.8148 26.6015 90.9136 26.5535C91.0124 26.5055 91.0971 26.4448 91.1677 26.3714L91.2312 26.4857C91.1748 26.5761 91.0844 26.6509 90.9602 26.7102C90.8388 26.7695 90.7132 26.8104 90.5833 26.833C90.5833 26.8612 90.5833 26.8894 90.5833 26.9177C90.5861 26.9459 90.5876 26.9755 90.5876 27.0066C90.5876 27.3538 90.524 27.6263 90.397 27.8239C90.27 28.0215 90.0921 28.1203 89.8634 28.1203C89.7703 28.1203 89.6757 28.1034 89.5797 28.0695C89.4866 28.0356 89.4019 27.9791 89.3256 27.9001C89.2494 27.8211 89.1873 27.7194 89.1393 27.5952C89.0942 27.471 89.0716 27.3171 89.0716 27.1336C89.0716 27.0094 89.0843 26.8782 89.1097 26.7398C89.1379 26.6015 89.1831 26.4745 89.2452 26.3587C89.3101 26.243 89.3948 26.147 89.4993 26.0708C89.6065 25.9945 89.7392 25.9564 89.8973 25.9564ZM89.9397 27.7985C90.0893 27.7985 90.1994 27.7251 90.27 27.5783C90.3405 27.4287 90.3758 27.2183 90.3758 26.9473C90.3758 26.9304 90.3758 26.9134 90.3758 26.8965C90.3758 26.8796 90.3744 26.8626 90.3716 26.8457C90.2897 26.84 90.2304 26.8217 90.1937 26.7906C90.1599 26.7596 90.1429 26.7074 90.1429 26.634C90.1429 26.569 90.157 26.5239 90.1853 26.4985C90.2135 26.4702 90.2558 26.4547 90.3123 26.4519C90.2784 26.3531 90.2347 26.2853 90.181 26.2486C90.1302 26.2091 90.0723 26.1893 90.0074 26.1893C89.9199 26.1893 89.8451 26.219 89.783 26.2783C89.7237 26.3347 89.6743 26.4081 89.6348 26.4985C89.5981 26.5888 89.5712 26.689 89.5543 26.7991C89.5374 26.9064 89.5289 27.0122 89.5289 27.1167C89.5289 27.255 89.5416 27.368 89.567 27.4555C89.5924 27.543 89.6249 27.6121 89.6644 27.663C89.7039 27.7138 89.7477 27.7491 89.7957 27.7688C89.8437 27.7886 89.8917 27.7985 89.9397 27.7985Z" fill="#C1CAD8"/>
<path d="M92.7173 25.9776V26.3333C92.7512 26.2825 92.7837 26.2345 92.8147 26.1893C92.8486 26.1442 92.8853 26.1046 92.9248 26.0708C92.9643 26.0369 93.0081 26.0101 93.0561 25.9903C93.1041 25.9677 93.1577 25.9564 93.217 25.9564C93.313 25.9564 93.3836 25.9818 93.4287 26.0326C93.4739 26.0806 93.4965 26.1399 93.4965 26.2105C93.4965 26.2528 93.4894 26.2881 93.4753 26.3164C93.4612 26.3446 93.4443 26.3672 93.4245 26.3841C93.4047 26.4011 93.3836 26.4138 93.361 26.4222C93.3384 26.4279 93.3186 26.4307 93.3017 26.4307C93.2763 26.4307 93.2551 26.4251 93.2382 26.4138C93.2241 26.4025 93.2085 26.3912 93.1916 26.3799C93.1775 26.3658 93.1605 26.3531 93.1408 26.3418C93.121 26.3305 93.0956 26.3248 93.0646 26.3248C92.9996 26.3248 92.9375 26.3474 92.8782 26.3926C92.819 26.4378 92.7653 26.4857 92.7173 26.5366V28.0949H92.2939V25.9776H92.7173Z" fill="#C1CAD8"/>
<path d="M95.5415 25.1307V27.4174C95.5415 27.4456 95.5429 27.4809 95.5458 27.5232C95.5486 27.5656 95.5556 27.6079 95.5669 27.6503C95.5811 27.6898 95.6008 27.7251 95.6262 27.7561C95.6516 27.7844 95.6869 27.7985 95.7321 27.7985C95.8704 27.7985 95.9721 27.6446 96.037 27.3369H96.1937C96.1626 27.5148 96.1231 27.6559 96.0751 27.7604C96.0271 27.862 95.9763 27.9396 95.9227 27.9933C95.869 28.0469 95.814 28.0808 95.7575 28.0949C95.701 28.1118 95.6502 28.1203 95.6051 28.1203C95.5062 28.1203 95.4258 28.102 95.3637 28.0653C95.3016 28.0257 95.2522 27.9763 95.2155 27.917C95.1788 27.8578 95.1534 27.7914 95.1393 27.718C95.1251 27.6446 95.1181 27.574 95.1181 27.5063V25.19L95.5415 25.1307Z" fill="#C1CAD8"/>
<path d="M98.9877 25.1307V27.4174C98.9877 27.4512 98.9892 27.4908 98.992 27.5359C98.9948 27.5783 99.0019 27.6192 99.0132 27.6587C99.0273 27.6983 99.047 27.7321 99.0724 27.7604C99.1007 27.7858 99.1402 27.7985 99.191 27.7985C99.2136 27.7985 99.2376 27.7956 99.263 27.79C99.2912 27.7844 99.3138 27.7787 99.3307 27.7731C99.3336 27.7872 99.335 27.7999 99.335 27.8112C99.3378 27.8225 99.3392 27.8352 99.3392 27.8493C99.3392 27.934 99.3067 28.0003 99.2418 28.0483C99.1769 28.0963 99.1035 28.1203 99.0216 28.1203C98.9341 28.1203 98.8551 28.0907 98.7845 28.0314C98.7139 27.9693 98.6659 27.8662 98.6405 27.7222C98.5982 27.8323 98.529 27.9269 98.433 28.006C98.337 28.0822 98.2213 28.1203 98.0858 28.1203C98.0011 28.1203 97.915 28.1034 97.8275 28.0695C97.7428 28.0328 97.6665 27.9763 97.5988 27.9001C97.531 27.8239 97.4746 27.7251 97.4294 27.6037C97.3871 27.4823 97.3659 27.3355 97.3659 27.1633C97.3659 27.0306 97.38 26.8937 97.4082 26.7525C97.4393 26.6086 97.4859 26.4787 97.548 26.3629C97.6129 26.2444 97.6962 26.147 97.7978 26.0708C97.8994 25.9945 98.0208 25.9564 98.162 25.9564C98.2354 25.9564 98.3102 25.9719 98.3864 26.003C98.4655 26.0341 98.5248 26.0933 98.5643 26.1809V25.19L98.9877 25.1307ZM98.1747 27.7985C98.2283 27.7985 98.2792 27.7858 98.3271 27.7604C98.3751 27.735 98.4161 27.7011 98.4499 27.6587C98.4866 27.6164 98.5149 27.5684 98.5346 27.5148C98.5544 27.4583 98.5643 27.399 98.5643 27.3369V26.3714C98.5445 26.3234 98.5149 26.2811 98.4754 26.2444C98.4358 26.2077 98.3794 26.1893 98.306 26.1893C98.2156 26.1893 98.1394 26.2204 98.0773 26.2825C98.0152 26.3418 97.9644 26.418 97.9249 26.5112C97.8853 26.6043 97.8557 26.7088 97.8359 26.8245C97.819 26.9374 97.8105 27.0461 97.8105 27.1506C97.8105 27.3792 97.8458 27.5444 97.9164 27.646C97.987 27.7477 98.0731 27.7985 98.1747 27.7985Z" fill="#C1CAD8"/>
<ellipse cx="17.4264" cy="9.93522" rx="0.977215" ry="0.977215" fill="white"/>
<ellipse cx="26.2214" cy="9.93522" rx="0.977215" ry="0.977215" fill="white"/>
</svg>
