<svg width="204" height="25" viewBox="0 0 204 25" fill="none" xmlns="http://www.w3.org/2000/svg">
<path d="M6.00834 23.0823L0.560344 6.13827H4.30434L8.28834 19.1703H6.82434L10.7123 6.13827H13.6643L17.5523 19.1703H16.1123L20.0723 6.13827H23.7923L18.3443 23.0823H15.3923L11.4803 10.0503H12.8723L8.96034 23.0823H6.00834ZM29.7552 23.3463C28.4912 23.3463 27.3632 23.0903 26.3712 22.5783C25.3952 22.0503 24.6272 21.3223 24.0672 20.3943C23.5072 19.4663 23.2272 18.4183 23.2272 17.2503C23.2272 16.0823 23.4992 15.0423 24.0432 14.1303C24.6032 13.2023 25.3552 12.4743 26.2992 11.9463C27.2432 11.4183 28.3072 11.1543 29.4912 11.1543C30.6432 11.1543 31.6592 11.4023 32.5392 11.8983C33.4192 12.3943 34.1072 13.0823 34.6032 13.9623C35.1152 14.8423 35.3712 15.8503 35.3712 16.9863C35.3712 17.1943 35.3552 17.4183 35.3232 17.6583C35.3072 17.8823 35.2672 18.1463 35.2032 18.4503L25.1472 18.4743V15.9543L33.6432 15.9303L32.0592 16.9863C32.0432 16.3143 31.9392 15.7623 31.7472 15.3303C31.5552 14.8823 31.2672 14.5463 30.8832 14.3223C30.5152 14.0823 30.0592 13.9623 29.5152 13.9623C28.9392 13.9623 28.4352 14.0983 28.0032 14.3703C27.5872 14.6263 27.2592 14.9943 27.0192 15.4743C26.7952 15.9543 26.6832 16.5383 26.6832 17.2263C26.6832 17.9143 26.8032 18.5063 27.0432 19.0023C27.2992 19.4823 27.6512 19.8583 28.0992 20.1303C28.5632 20.3863 29.1072 20.5143 29.7312 20.5143C30.3072 20.5143 30.8272 20.4183 31.2912 20.2263C31.7552 20.0183 32.1632 19.7143 32.5152 19.3143L34.5312 21.3303C33.9552 22.0023 33.2592 22.5063 32.4432 22.8423C31.6272 23.1783 30.7312 23.3463 29.7552 23.3463ZM37.1437 23.0823V5.65828H40.8157V23.0823H37.1437ZM49.0415 23.3463C47.8415 23.3463 46.7535 23.0823 45.7775 22.5543C44.8015 22.0263 44.0335 21.2983 43.4735 20.3703C42.9135 19.4423 42.6335 18.4023 42.6335 17.2503C42.6335 16.0823 42.9135 15.0423 43.4735 14.1303C44.0495 13.2023 44.8255 12.4743 45.8015 11.9463C46.7775 11.4183 47.8735 11.1543 49.0895 11.1543C50.0015 11.1543 50.8335 11.3143 51.5855 11.6343C52.3535 11.9383 53.0335 12.4023 53.6255 13.0263L51.2735 15.3783C51.0015 15.0743 50.6815 14.8503 50.3135 14.7063C49.9615 14.5623 49.5535 14.4903 49.0895 14.4903C48.5615 14.4903 48.0895 14.6103 47.6735 14.8503C47.2735 15.0743 46.9535 15.3943 46.7135 15.8103C46.4895 16.2103 46.3775 16.6823 46.3775 17.2263C46.3775 17.7703 46.4895 18.2503 46.7135 18.6663C46.9535 19.0823 47.2815 19.4103 47.6975 19.6503C48.1135 19.8903 48.5775 20.0103 49.0895 20.0103C49.5695 20.0103 49.9935 19.9303 50.3615 19.7703C50.7455 19.5943 51.0735 19.3543 51.3455 19.0503L53.6735 21.4023C53.0655 22.0423 52.3775 22.5303 51.6095 22.8663C50.8415 23.1863 49.9855 23.3463 49.0415 23.3463ZM60.6425 23.3463C59.4425 23.3463 58.3545 23.0823 57.3785 22.5543C56.4185 22.0103 55.6585 21.2743 55.0985 20.3463C54.5385 19.4183 54.2585 18.3783 54.2585 17.2263C54.2585 16.0743 54.5385 15.0423 55.0985 14.1303C55.6585 13.2183 56.4185 12.4983 57.3785 11.9703C58.3385 11.4263 59.4265 11.1543 60.6425 11.1543C61.8585 11.1543 62.9465 11.4183 63.9065 11.9463C64.8665 12.4743 65.6265 13.2023 66.1865 14.1303C66.7465 15.0423 67.0265 16.0743 67.0265 17.2263C67.0265 18.3783 66.7465 19.4183 66.1865 20.3463C65.6265 21.2743 64.8665 22.0103 63.9065 22.5543C62.9465 23.0823 61.8585 23.3463 60.6425 23.3463ZM60.6425 20.0103C61.1705 20.0103 61.6345 19.8983 62.0345 19.6743C62.4345 19.4343 62.7385 19.1063 62.9465 18.6903C63.1705 18.2583 63.2825 17.7703 63.2825 17.2263C63.2825 16.6823 63.1705 16.2103 62.9465 15.8103C62.7225 15.3943 62.4105 15.0743 62.0105 14.8503C61.6265 14.6103 61.1705 14.4903 60.6425 14.4903C60.1305 14.4903 59.6745 14.6103 59.2745 14.8503C58.8745 15.0743 58.5625 15.3943 58.3385 15.8103C58.1145 16.2263 58.0025 16.7063 58.0025 17.2503C58.0025 17.7783 58.1145 18.2583 58.3385 18.6903C58.5625 19.1063 58.8745 19.4343 59.2745 19.6743C59.6745 19.8983 60.1305 20.0103 60.6425 20.0103ZM68.8546 23.0823V11.4183H72.5266V23.0823H68.8546ZM76.3186 23.0823V16.2663C76.3186 15.6743 76.1346 15.2183 75.7666 14.8983C75.4146 14.5623 74.9746 14.3943 74.4466 14.3943C74.0786 14.3943 73.7506 14.4743 73.4626 14.6343C73.1746 14.7783 72.9426 14.9863 72.7666 15.2583C72.6066 15.5303 72.5266 15.8663 72.5266 16.2663L71.1106 15.6423C71.1106 14.7143 71.3106 13.9223 71.7106 13.2663C72.1106 12.5943 72.6546 12.0823 73.3426 11.7303C74.0306 11.3623 74.8066 11.1783 75.6706 11.1783C76.4866 11.1783 77.2146 11.3623 77.8546 11.7303C78.5106 12.0983 79.0306 12.6103 79.4146 13.2663C79.7986 13.9223 79.9906 14.7063 79.9906 15.6183V23.0823H76.3186ZM83.7826 23.0823V16.2663C83.7826 15.6743 83.5986 15.2183 83.2306 14.8983C82.8786 14.5623 82.4386 14.3943 81.9106 14.3943C81.5426 14.3943 81.2146 14.4743 80.9266 14.6343C80.6386 14.7783 80.4066 14.9863 80.2306 15.2583C80.0706 15.5303 79.9906 15.8663 79.9906 16.2663L77.8786 15.9783C77.9106 14.9863 78.1426 14.1383 78.5746 13.4343C79.0226 12.7143 79.6066 12.1623 80.3266 11.7783C81.0626 11.3783 81.8866 11.1783 82.7986 11.1783C83.6946 11.1783 84.4866 11.3703 85.1746 11.7543C85.8786 12.1223 86.4306 12.6583 86.8306 13.3623C87.2466 14.0503 87.4546 14.8823 87.4546 15.8583V23.0823H83.7826ZM95.5677 23.3463C94.3037 23.3463 93.1757 23.0903 92.1837 22.5783C91.2077 22.0503 90.4397 21.3223 89.8797 20.3943C89.3197 19.4663 89.0397 18.4183 89.0397 17.2503C89.0397 16.0823 89.3117 15.0423 89.8557 14.1303C90.4157 13.2023 91.1677 12.4743 92.1117 11.9463C93.0557 11.4183 94.1197 11.1543 95.3037 11.1543C96.4557 11.1543 97.4717 11.4023 98.3517 11.8983C99.2317 12.3943 99.9197 13.0823 100.416 13.9623C100.928 14.8423 101.184 15.8503 101.184 16.9863C101.184 17.1943 101.168 17.4183 101.136 17.6583C101.12 17.8823 101.08 18.1463 101.016 18.4503L90.9597 18.4743V15.9543L99.4557 15.9303L97.8717 16.9863C97.8557 16.3143 97.7517 15.7623 97.5597 15.3303C97.3677 14.8823 97.0797 14.5463 96.6957 14.3223C96.3277 14.0823 95.8717 13.9623 95.3277 13.9623C94.7517 13.9623 94.2477 14.0983 93.8157 14.3703C93.3997 14.6263 93.0717 14.9943 92.8317 15.4743C92.6077 15.9543 92.4957 16.5383 92.4957 17.2263C92.4957 17.9143 92.6157 18.5063 92.8557 19.0023C93.1117 19.4823 93.4637 19.8583 93.9117 20.1303C94.3757 20.3863 94.9197 20.5143 95.5437 20.5143C96.1197 20.5143 96.6397 20.4183 97.1037 20.2263C97.5677 20.0183 97.9757 19.7143 98.3277 19.3143L100.344 21.3303C99.7677 22.0023 99.0717 22.5063 98.2557 22.8423C97.4397 23.1783 96.5437 23.3463 95.5677 23.3463ZM110.742 23.0823V20.1543H114.726C115.462 20.1543 116.038 19.9383 116.454 19.5063C116.87 19.0743 117.078 18.5463 117.078 17.9223C117.078 17.4903 116.982 17.1063 116.79 16.7703C116.598 16.4343 116.326 16.1703 115.974 15.9783C115.638 15.7863 115.222 15.6903 114.726 15.6903H110.742V12.8343H114.414C115.038 12.8343 115.542 12.6823 115.926 12.3783C116.31 12.0583 116.502 11.5783 116.502 10.9383C116.502 10.3143 116.31 9.85028 115.926 9.54628C115.542 9.22627 115.038 9.06627 114.414 9.06627H110.742V6.13827H115.134C116.222 6.13827 117.142 6.33827 117.894 6.73827C118.662 7.13827 119.246 7.67427 119.646 8.34627C120.046 9.01827 120.246 9.76227 120.246 10.5783C120.246 11.6183 119.91 12.4983 119.238 13.2183C118.566 13.9383 117.574 14.4343 116.262 14.7063L116.358 13.4343C117.782 13.7063 118.878 14.2583 119.646 15.0903C120.43 15.9223 120.822 16.9463 120.822 18.1623C120.822 19.0903 120.59 19.9303 120.126 20.6823C119.678 21.4183 119.022 22.0023 118.158 22.4343C117.31 22.8663 116.286 23.0823 115.086 23.0823H110.742ZM107.862 23.0823V6.13827H111.582V23.0823H107.862ZM127.773 23.3223C126.701 23.3223 125.741 23.0583 124.893 22.5303C124.061 22.0023 123.397 21.2823 122.901 20.3703C122.421 19.4583 122.181 18.4183 122.181 17.2503C122.181 16.0823 122.421 15.0423 122.901 14.1303C123.397 13.2183 124.061 12.4983 124.893 11.9703C125.741 11.4423 126.701 11.1783 127.773 11.1783C128.557 11.1783 129.261 11.3303 129.885 11.6343C130.525 11.9383 131.045 12.3623 131.445 12.9063C131.845 13.4343 132.069 14.0423 132.117 14.7303V19.7703C132.069 20.4583 131.845 21.0743 131.445 21.6183C131.061 22.1463 130.549 22.5623 129.909 22.8663C129.269 23.1703 128.557 23.3223 127.773 23.3223ZM128.517 20.0103C129.301 20.0103 129.933 19.7543 130.413 19.2423C130.893 18.7143 131.133 18.0503 131.133 17.2503C131.133 16.7063 131.021 16.2263 130.797 15.8103C130.589 15.3943 130.285 15.0743 129.885 14.8503C129.501 14.6103 129.053 14.4903 128.541 14.4903C128.029 14.4903 127.573 14.6103 127.173 14.8503C126.789 15.0743 126.477 15.3943 126.237 15.8103C126.013 16.2263 125.901 16.7063 125.901 17.2503C125.901 17.7783 126.013 18.2503 126.237 18.6663C126.461 19.0823 126.773 19.4103 127.173 19.6503C127.573 19.8903 128.021 20.0103 128.517 20.0103ZM130.989 23.0823V19.9383L131.541 17.1063L130.989 14.2743V11.4183H134.589V23.0823H130.989ZM142.815 23.3463C141.615 23.3463 140.527 23.0823 139.551 22.5543C138.575 22.0263 137.807 21.2983 137.247 20.3703C136.687 19.4423 136.407 18.4023 136.407 17.2503C136.407 16.0823 136.687 15.0423 137.247 14.1303C137.823 13.2023 138.599 12.4743 139.575 11.9463C140.551 11.4183 141.647 11.1543 142.863 11.1543C143.775 11.1543 144.607 11.3143 145.359 11.6343C146.127 11.9383 146.807 12.4023 147.399 13.0263L145.047 15.3783C144.775 15.0743 144.455 14.8503 144.087 14.7063C143.735 14.5623 143.327 14.4903 142.863 14.4903C142.335 14.4903 141.863 14.6103 141.447 14.8503C141.047 15.0743 140.727 15.3943 140.487 15.8103C140.263 16.2103 140.151 16.6823 140.151 17.2263C140.151 17.7703 140.263 18.2503 140.487 18.6663C140.727 19.0823 141.055 19.4103 141.471 19.6503C141.887 19.8903 142.351 20.0103 142.863 20.0103C143.343 20.0103 143.767 19.9303 144.135 19.7703C144.519 19.5943 144.847 19.3543 145.119 19.0503L147.447 21.4023C146.839 22.0423 146.151 22.5303 145.383 22.8663C144.615 23.1863 143.759 23.3463 142.815 23.3463ZM156.545 23.0823L152.465 17.0343L156.521 11.4183H160.625L155.729 17.7303L155.849 16.2183L160.865 23.0823H156.545ZM149.081 23.0823V5.65828H152.753V23.0823H149.081ZM179.848 24.7623H203.848V0.762275H179.848V24.7623Z" fill="#1D2329"/>
</svg>
