<svg width="14" height="15" viewBox="0 0 14 15" fill="none" xmlns="http://www.w3.org/2000/svg">
<path d="M2.05086 1.13616C1.66033 0.745631 1.02717 0.74563 0.636643 1.13616C0.246119 1.52668 0.246119 2.15984 0.636643 2.55037L5.58639 7.50012L0.636643 12.4499C0.246119 12.8404 0.246119 13.4736 0.636643 13.8641C1.02717 14.2546 1.66033 14.2546 2.05086 13.8641L7.0006 8.91433L11.9504 13.8641C12.3409 14.2546 12.974 14.2546 13.3646 13.8641C13.7551 13.4736 13.7551 12.8404 13.3646 12.4499L8.41482 7.50012L13.3646 2.55037C13.7551 2.15984 13.7551 1.52668 13.3646 1.13616C12.974 0.745631 12.3409 0.745631 11.9504 1.13616L7.0006 6.0859L2.05086 1.13616Z" fill="#586283"/>
</svg>
