<svg width="25" height="25" viewBox="0 0 25 25" fill="none" xmlns="http://www.w3.org/2000/svg">
<path d="M13.5458 21.3896C13.4829 21.3896 13.4199 21.3896 13.3566 21.3893C11.8672 21.3929 10.4911 21.3551 9.15278 21.2736C7.9258 21.199 6.80581 20.775 5.9137 20.0476C5.0529 19.3457 4.46507 18.3966 4.16659 17.2271C3.90682 16.2089 3.89305 15.2094 3.87985 14.2427C3.87029 13.5491 3.86043 12.7271 3.8584 11.8913C3.86043 11.052 3.87029 10.2301 3.87985 9.53651C3.89305 8.56992 3.90682 7.57043 4.16659 6.55209C4.46507 5.38256 5.0529 4.43352 5.9137 3.73163C6.80581 3.00422 7.9258 2.58022 9.15292 2.50556C10.4912 2.42424 11.8677 2.38626 13.3602 2.38989C14.85 2.3867 16.2257 2.42424 17.564 2.50556C18.791 2.58022 19.911 3.00422 20.8031 3.73163C21.664 4.43352 22.2517 5.38256 22.5502 6.55209C22.81 7.57028 22.8238 8.56992 22.8369 9.53651C22.8465 10.2301 22.8565 11.052 22.8584 11.8878V11.8913C22.8565 12.7271 22.8465 13.5491 22.8369 14.2427C22.8238 15.2093 22.8101 16.2088 22.5502 17.2271C22.2517 18.3966 21.664 19.3457 20.8031 20.0476C19.911 20.775 18.791 21.199 17.564 21.2736C16.2824 21.3516 14.9658 21.3896 13.5458 21.3896ZM13.3566 19.9049C14.8217 19.9084 16.167 19.8714 17.4739 19.792C18.4016 19.7356 19.206 19.4345 19.865 18.8972C20.4742 18.4004 20.8937 17.715 21.1119 16.8601C21.3282 16.0125 21.3406 15.1024 21.3527 14.2224C21.3621 13.5334 21.3719 12.7173 21.374 11.8896C21.3719 11.0617 21.3621 10.2458 21.3527 9.5568C21.3406 8.67674 21.3282 7.7667 21.1119 6.91898C20.8937 6.06402 20.4742 5.37865 19.865 4.88188C19.206 4.34466 18.4016 4.04358 17.4739 3.98719C16.167 3.90761 14.8217 3.87093 13.3601 3.87412C11.8952 3.87064 10.5498 3.90761 9.24294 3.98719C8.31517 4.04358 7.51077 4.34466 6.85176 4.88188C6.24262 5.37865 5.8231 6.06402 5.60493 6.91898C5.38864 7.7667 5.37617 8.67661 5.36414 9.5568C5.35472 10.2464 5.34486 11.0629 5.34283 11.8913C5.34486 12.7161 5.35472 13.5328 5.36414 14.2224C5.37617 15.1024 5.38864 16.0125 5.60493 16.8601C5.8231 17.715 6.24262 18.4004 6.85176 18.8972C7.51077 19.4344 8.31517 19.7355 9.24294 19.7919C10.5498 19.8714 11.8955 19.9086 13.3566 19.9049ZM13.3212 16.5283C10.7635 16.5283 8.68237 14.4474 8.68237 11.8896C8.68237 9.33182 10.7635 7.25094 13.3212 7.25094C15.8791 7.25094 17.9601 9.33182 17.9601 11.8896C17.9601 14.4474 15.8791 16.5283 13.3212 16.5283ZM13.3212 8.73532C11.5819 8.73532 10.1668 10.1504 10.1668 11.8896C10.1668 13.6288 11.5819 15.0439 13.3212 15.0439C15.0606 15.0439 16.4756 13.6288 16.4756 11.8896C16.4756 10.1504 15.0606 8.73532 13.3212 8.73532ZM18.4796 5.76656C17.8648 5.76656 17.3663 6.26493 17.3663 6.87984C17.3663 7.49476 17.8648 7.99313 18.4796 7.99313C19.0946 7.99313 19.5929 7.49476 19.5929 6.87984C19.5929 6.26493 19.0946 5.76656 18.4796 5.76656Z" fill="white" stroke="white" stroke-width="0.4"/>
</svg>
