<svg width="21" height="21" viewBox="0 0 21 21" fill="none" xmlns="http://www.w3.org/2000/svg">
<path d="M3.15746 1.38965C1.76731 1.38965 0.858398 2.30249 0.858398 3.5023C0.858398 4.6756 1.74023 5.61448 3.10411 5.61448H3.1305C4.54784 5.61448 5.4299 4.6756 5.4299 3.5023C5.4034 2.30249 4.54784 1.38965 3.15746 1.38965Z" stroke="white"/>
<path d="M1.10059 7.28223H5.16458V19.5088H1.10059V7.28223Z" stroke="white"/>
<path d="M15.1338 6.99707C12.9414 6.99707 11.4713 9.05715 11.4713 9.05715V7.28404H7.40723V19.5107H11.4711V12.6828C11.4711 12.3173 11.4976 11.9524 11.605 11.6911C11.8988 10.9611 12.5673 10.205 13.6901 10.205C15.1607 10.205 15.7488 11.3262 15.7488 12.9699V19.5107H19.8125V12.5002C19.8125 8.74465 17.8074 6.99707 15.1338 6.99707Z" stroke="white"/>
</svg>
