<svg width="60" height="60" viewBox="0 0 60 60" fill="none" xmlns="http://www.w3.org/2000/svg">
<path d="M41.3242 22.0875C40.8269 22.0875 40.35 21.89 39.9984 21.5383C39.6468 21.1867 39.4492 20.7098 39.4492 20.2125V17.0344C39.4468 15.2713 38.7479 13.5806 37.5047 12.3304C36.2615 11.0802 34.5748 10.3717 32.8117 10.3594H27.1867C25.4172 10.3619 23.7208 11.0659 22.4695 12.3172C21.2183 13.5684 20.5142 15.2648 20.5117 17.0344V20.2125C20.5117 20.7098 20.3142 21.1867 19.9625 21.5383C19.6109 21.89 19.134 22.0875 18.6367 22.0875C18.1394 22.0875 17.6625 21.89 17.3109 21.5383C16.9593 21.1867 16.7617 20.7098 16.7617 20.2125V17.0344C16.7642 14.2703 17.8633 11.6201 19.8179 9.66553C21.7724 7.711 24.4226 6.61186 27.1867 6.60938H32.8117C35.5693 6.62176 38.2099 7.72528 40.1563 9.67873C42.1028 11.6322 43.1968 14.2767 43.1992 17.0344V20.2125C43.1992 20.7098 43.0017 21.1867 42.65 21.5383C42.2984 21.89 41.8215 22.0875 41.3242 22.0875Z" fill="#1D2329"/>
<path d="M34.6867 53.1H25.3117C23.4028 53.1049 21.5116 52.7332 19.7465 52.0061C17.9814 51.279 16.3772 50.2108 15.0256 48.8627C13.674 47.5146 12.6017 45.9131 11.87 44.1499C11.1383 42.3867 10.7617 40.4965 10.7617 38.5875V30.9375C10.7617 29.1224 11.4828 27.3817 12.7662 26.0982C14.0497 24.8148 15.7904 24.0938 17.6055 24.0938H42.393C44.208 24.0938 45.9488 24.8148 47.2322 26.0982C48.5157 27.3817 49.2367 29.1224 49.2367 30.9375V38.6156C49.233 40.5222 48.8537 42.4094 48.1204 44.1694C47.3871 45.9293 46.3141 47.5275 44.9629 48.8726C43.6117 50.2177 42.0087 51.2834 40.2454 52.0088C38.4822 52.7341 36.5933 53.1049 34.6867 53.1Z" fill="#663300"/>
<path d="M30 42.2621C29.5027 42.2621 29.0258 42.0646 28.6742 41.7129C28.3225 41.3613 28.125 40.8844 28.125 40.3871V35.4746C28.125 34.9773 28.3225 34.5004 28.6742 34.1488C29.0258 33.7972 29.5027 33.5996 30 33.5996C30.4973 33.5996 30.9742 33.7972 31.3258 34.1488C31.6775 34.5004 31.875 34.9773 31.875 35.4746V40.3871C31.875 40.8844 31.6775 41.3613 31.3258 41.7129C30.9742 42.0646 30.4973 42.2621 30 42.2621Z" fill="white"/>
</svg>
