<svg width="16" height="16" viewBox="0 0 16 16" fill="none" xmlns="http://www.w3.org/2000/svg">
<g clip-path="url(#clip0_4834_5099)">
<rect x="0.444336" y="0.388672" width="15.1111" height="15.1111" rx="7.55556" fill="white"/>
<mask id="mask0_4834_5099" style="mask-type:alpha" maskUnits="userSpaceOnUse" x="0" y="0" width="16" height="16">
<path d="M14.4761 0.388672H1.5237C0.927584 0.388672 0.444336 1.06522 0.444336 1.89978V13.9887C0.444336 14.8232 0.927584 15.4998 1.5237 15.4998H14.4761C15.0722 15.4998 15.5554 14.8232 15.5554 13.9887V1.89978C15.5554 1.06522 15.0722 0.388672 14.4761 0.388672Z" fill="white"/>
</mask>
<g mask="url(#mask0_4834_5099)">
<path d="M14.341 0.577637H1.65847C1.06235 0.577637 0.579102 1.25418 0.579102 2.08875V13.7999C0.579102 14.6344 1.06235 15.311 1.65847 15.311H14.341C14.9371 15.311 15.4204 14.6344 15.4204 13.7999V2.08875C15.4204 1.25418 14.9371 0.577637 14.341 0.577637Z" stroke="white" stroke-width="0.472222"/>
<path fill-rule="evenodd" clip-rule="evenodd" d="M10.5186 0.388672H15.5554V15.4998H10.5186V0.388672ZM0.444336 0.388672H5.48119V15.4998H0.444336V0.388672Z" fill="#27AE60"/>
</g>
</g>
<defs>
<clipPath id="clip0_4834_5099">
<rect x="0.444336" y="0.388672" width="15.1111" height="15.1111" rx="7.55556" fill="white"/>
</clipPath>
</defs>
</svg>
