<svg width="165" height="53" viewBox="0 0 165 53" fill="none" xmlns="http://www.w3.org/2000/svg">
<rect x="0.142578" y="0.389648" width="164" height="52" rx="26" fill="white"/>
<g clip-path="url(#clip0_4873_4790)">
<path d="M35.9454 29.0305C37.9741 27.9065 39.5121 27.05 39.6446 26.9834C40.0687 26.7559 40.5066 26.1536 39.6446 25.6858C39.3663 25.5387 37.8679 24.7088 35.9454 23.6387L33.2803 26.3546L35.9454 29.0305V29.0305Z" fill="#FFD900"/>
<path d="M33.279 26.3545L24.793 34.9846C24.9922 35.0112 25.217 34.9579 25.4822 34.8108C26.0388 34.5034 31.9395 31.2518 35.9442 29.0311L33.279 26.3545Z" fill="#F43249"/>
<path d="M33.2795 26.3549L35.9446 23.6524C35.9446 23.6524 26.0795 18.2198 25.4826 17.8991C25.2578 17.7647 25.0058 17.7248 24.7803 17.7647L33.2795 26.3549Z" fill="#00EE76"/>
<path d="M33.2783 26.3548L24.779 17.7646C24.4341 17.8451 24.1426 18.1526 24.1426 18.7815V33.9681C24.1426 34.5437 24.3681 34.9582 24.7922 34.9982L33.2783 26.3548Z" fill="#00D3FF"/>
</g>
<path d="M52.3332 19.7559V19.0448H53.9289C54.3533 19.0448 54.7253 18.9539 55.045 18.772C55.3647 18.5846 55.6128 18.3283 55.7891 18.0031C55.971 17.6779 56.062 17.303 56.062 16.8786C56.062 16.4597 55.971 16.0877 55.7891 15.7625C55.6072 15.4373 55.3565 15.1837 55.0368 15.0018C54.7171 14.8199 54.3478 14.729 53.9289 14.729H52.3414V14.0179H53.9454C54.3643 14.0179 54.7501 14.0896 55.1029 14.2329C55.4612 14.3762 55.7698 14.5774 56.0289 14.8365C56.2935 15.0955 56.4974 15.3987 56.6407 15.7459C56.7896 16.0932 56.864 16.4735 56.864 16.8869C56.864 17.2948 56.7896 17.6751 56.6407 18.0279C56.4974 18.3751 56.2962 18.6783 56.0372 18.9373C55.7781 19.1964 55.4694 19.3976 55.1112 19.5409C54.7584 19.6842 54.3753 19.7559 53.9619 19.7559H52.3332ZM51.8205 19.7559V14.0179H52.5977V19.7559H51.8205ZM59.6026 19.8385C59.2167 19.8385 58.8695 19.7476 58.5608 19.5657C58.2522 19.3838 58.0069 19.1385 57.825 18.8299C57.6431 18.5157 57.5521 18.1657 57.5521 17.7798C57.5521 17.3995 57.6431 17.0578 57.825 16.7546C58.0069 16.4459 58.2522 16.2007 58.5608 16.0188C58.8695 15.8369 59.2167 15.7459 59.6026 15.7459C59.9829 15.7459 60.3274 15.8369 60.6361 16.0188C60.9503 16.1951 61.1983 16.4377 61.3802 16.7463C61.5621 17.055 61.653 17.3995 61.653 17.7798C61.653 18.1657 61.5621 18.5157 61.3802 18.8299C61.1983 19.1385 60.9503 19.3838 60.6361 19.5657C60.3274 19.7476 59.9829 19.8385 59.6026 19.8385ZM59.6026 19.1192C59.8506 19.1192 60.0711 19.0614 60.264 18.9456C60.4569 18.8299 60.6085 18.6728 60.7188 18.4743C60.829 18.2704 60.8841 18.0389 60.8841 17.7798C60.8841 17.5263 60.8262 17.3003 60.7105 17.1019C60.6002 16.9034 60.4487 16.7491 60.2557 16.6389C60.0683 16.5231 59.8506 16.4652 59.6026 16.4652C59.3545 16.4652 59.1341 16.5231 58.9412 16.6389C58.7482 16.7491 58.5967 16.9034 58.4864 17.1019C58.3762 17.3003 58.3211 17.5263 58.3211 17.7798C58.3211 18.0389 58.3762 18.2704 58.4864 18.4743C58.5967 18.6728 58.7482 18.8299 58.9412 18.9456C59.1341 19.0614 59.3545 19.1192 59.6026 19.1192ZM63.5028 19.7559L61.9485 15.8286H62.7257L63.8501 18.8877H63.6021L64.7182 15.8286H65.1482L66.2643 18.8877H66.0163L67.1407 15.8286H67.9179L66.3718 19.7559H65.9336L64.8009 16.7877H65.0737L63.9328 19.7559H63.5028ZM71.3573 19.7559V17.4656C71.3573 17.168 71.2636 16.9227 71.0762 16.7298C70.8888 16.5369 70.6463 16.4404 70.3487 16.4404C70.1502 16.4404 69.9739 16.4845 69.8195 16.5727C69.6652 16.6609 69.5439 16.7822 69.4557 16.9365C69.3675 17.0908 69.3234 17.2672 69.3234 17.4656L69.0175 17.292C69.0175 16.9944 69.0837 16.7298 69.216 16.4983C69.3482 16.2668 69.5329 16.0849 69.7699 15.9526C70.0069 15.8148 70.2743 15.7459 70.5719 15.7459C70.8695 15.7459 71.1314 15.8203 71.3573 15.9692C71.5889 16.118 71.7707 16.3137 71.903 16.5562C72.0353 16.7932 72.1015 17.0467 72.1015 17.3168V19.7559H71.3573ZM68.5793 19.7559V15.8286H69.3234V19.7559H68.5793ZM73.1089 19.7559V13.8526H73.853V19.7559H73.1089ZM76.7359 19.8385C76.35 19.8385 76.0028 19.7476 75.6941 19.5657C75.3855 19.3838 75.1402 19.1385 74.9583 18.8299C74.7764 18.5157 74.6854 18.1657 74.6854 17.7798C74.6854 17.3995 74.7764 17.0578 74.9583 16.7546C75.1402 16.4459 75.3855 16.2007 75.6941 16.0188C76.0028 15.8369 76.35 15.7459 76.7359 15.7459C77.1162 15.7459 77.4607 15.8369 77.7694 16.0188C78.0836 16.1951 78.3316 16.4377 78.5135 16.7463C78.6954 17.055 78.7863 17.3995 78.7863 17.7798C78.7863 18.1657 78.6954 18.5157 78.5135 18.8299C78.3316 19.1385 78.0836 19.3838 77.7694 19.5657C77.4607 19.7476 77.1162 19.8385 76.7359 19.8385ZM76.7359 19.1192C76.9839 19.1192 77.2044 19.0614 77.3973 18.9456C77.5902 18.8299 77.7418 18.6728 77.852 18.4743C77.9623 18.2704 78.0174 18.0389 78.0174 17.7798C78.0174 17.5263 77.9595 17.3003 77.8438 17.1019C77.7335 16.9034 77.582 16.7491 77.389 16.6389C77.2016 16.5231 76.9839 16.4652 76.7359 16.4652C76.4878 16.4652 76.2674 16.5231 76.0744 16.6389C75.8815 16.7491 75.73 16.9034 75.6197 17.1019C75.5095 17.3003 75.4544 17.5263 75.4544 17.7798C75.4544 18.0389 75.5095 18.2704 75.6197 18.4743C75.73 18.6728 75.8815 18.8299 76.0744 18.9456C76.2674 19.0614 76.4878 19.1192 76.7359 19.1192ZM81.2949 19.8385C80.9366 19.8385 80.6114 19.7503 80.3192 19.574C80.0271 19.3921 79.7956 19.1468 79.6247 18.8381C79.4594 18.5295 79.3767 18.1822 79.3767 17.7964C79.3767 17.4105 79.4594 17.0633 79.6247 16.7546C79.7956 16.4459 80.0244 16.2007 80.311 16.0188C80.6031 15.8369 80.9311 15.7459 81.2949 15.7459C81.5925 15.7459 81.8571 15.8093 82.0886 15.9361C82.3256 16.0573 82.5158 16.2282 82.6591 16.4487C82.8024 16.6637 82.8823 16.9145 82.8988 17.2011V18.3834C82.8823 18.6645 82.8024 18.9153 82.6591 19.1358C82.5213 19.3562 82.3339 19.5299 82.0968 19.6566C81.8653 19.7779 81.598 19.8385 81.2949 19.8385ZM81.4189 19.1358C81.7882 19.1358 82.0858 19.0117 82.3118 18.7637C82.5378 18.5102 82.6508 18.1877 82.6508 17.7964C82.6508 17.5263 82.5984 17.292 82.4937 17.0936C82.3945 16.8897 82.2512 16.7326 82.0638 16.6223C81.8764 16.5066 81.6586 16.4487 81.4106 16.4487C81.1626 16.4487 80.9421 16.5066 80.7492 16.6223C80.5618 16.7381 80.4129 16.8979 80.3027 17.1019C80.198 17.3003 80.1456 17.529 80.1456 17.7881C80.1456 18.0527 80.198 18.2869 80.3027 18.4909C80.4129 18.6893 80.5645 18.8464 80.7574 18.9621C80.9504 19.0779 81.1708 19.1358 81.4189 19.1358ZM82.6012 19.7559V18.6976L82.7417 17.7385L82.6012 16.7877V15.8286H83.3536V19.7559H82.6012ZM86.0988 19.8385C85.735 19.8385 85.4098 19.7503 85.1232 19.574C84.8365 19.3921 84.6078 19.1468 84.4369 18.8381C84.2716 18.5295 84.1889 18.1822 84.1889 17.7964C84.1889 17.4105 84.2716 17.0633 84.4369 16.7546C84.6078 16.4459 84.8365 16.2007 85.1232 16.0188C85.4098 15.8369 85.735 15.7459 86.0988 15.7459C86.3909 15.7459 86.6555 15.8093 86.8925 15.9361C87.1295 16.0573 87.3197 16.2282 87.463 16.4487C87.6118 16.6637 87.6945 16.9145 87.711 17.2011V18.3834C87.6945 18.6645 87.6146 18.9153 87.4712 19.1358C87.3279 19.3562 87.1378 19.5299 86.9008 19.6566C86.6637 19.7779 86.3964 19.8385 86.0988 19.8385ZM86.2228 19.1358C86.4708 19.1358 86.6858 19.0779 86.8677 18.9621C87.0551 18.8464 87.2012 18.6893 87.3059 18.4909C87.4106 18.2869 87.463 18.0554 87.463 17.7964C87.463 17.5263 87.4079 17.292 87.2976 17.0936C87.1929 16.8952 87.0468 16.7381 86.8594 16.6223C86.6775 16.5066 86.4626 16.4487 86.2145 16.4487C85.9665 16.4487 85.7488 16.5066 85.5614 16.6223C85.374 16.7381 85.2251 16.8979 85.1149 17.1019C85.0102 17.3003 84.9578 17.529 84.9578 17.7881C84.9578 18.0527 85.0102 18.2869 85.1149 18.4909C85.2251 18.6893 85.374 18.8464 85.5614 18.9621C85.7543 19.0779 85.9748 19.1358 86.2228 19.1358ZM88.1657 19.7559H87.4134V18.6976L87.5539 17.7385L87.4134 16.7877V13.8526H88.1657V19.7559ZM91.1012 19.7559V14.0179H91.6469L91.8784 14.9191V19.7559H91.1012ZM95.0698 19.7559L91.5476 15.0514L91.6469 14.0179L95.1773 18.7141L95.0698 19.7559ZM95.0698 19.7559L94.8383 18.9043V14.0179H95.6155V19.7559H95.0698ZM98.6329 19.8385C98.2471 19.8385 97.8998 19.7476 97.5912 19.5657C97.2825 19.3838 97.0372 19.1385 96.8553 18.8299C96.6734 18.5157 96.5825 18.1657 96.5825 17.7798C96.5825 17.3995 96.6734 17.0578 96.8553 16.7546C97.0372 16.4459 97.2825 16.2007 97.5912 16.0188C97.8998 15.8369 98.2471 15.7459 98.6329 15.7459C99.0132 15.7459 99.3577 15.8369 99.6664 16.0188C99.9806 16.1951 100.229 16.4377 100.411 16.7463C100.592 17.055 100.683 17.3995 100.683 17.7798C100.683 18.1657 100.592 18.5157 100.411 18.8299C100.229 19.1385 99.9806 19.3838 99.6664 19.5657C99.3577 19.7476 99.0132 19.8385 98.6329 19.8385ZM98.6329 19.1192C98.8809 19.1192 99.1014 19.0614 99.2943 18.9456C99.4873 18.8299 99.6388 18.6728 99.7491 18.4743C99.8593 18.2704 99.9144 18.0389 99.9144 17.7798C99.9144 17.5263 99.8566 17.3003 99.7408 17.1019C99.6306 16.9034 99.479 16.7491 99.2861 16.6389C99.0987 16.5231 98.8809 16.4652 98.6329 16.4652C98.3849 16.4652 98.1644 16.5231 97.9715 16.6389C97.7786 16.7491 97.627 16.9034 97.5167 17.1019C97.4065 17.3003 97.3514 17.5263 97.3514 17.7798C97.3514 18.0389 97.4065 18.2704 97.5167 18.4743C97.627 18.6728 97.7786 18.8299 97.9715 18.9456C98.1644 19.0614 98.3849 19.1192 98.6329 19.1192ZM102.533 19.7559L100.979 15.8286H101.756L102.88 18.8877H102.632L103.749 15.8286H104.178L105.295 18.8877H105.047L106.171 15.8286H106.948L105.402 19.7559H104.964L103.831 16.7877H104.104L102.963 19.7559H102.533Z" fill="#1D2329"/>
<path d="M57.6246 39.1888C56.8309 39.1888 56.0813 39.0345 55.3757 38.7258C54.6702 38.4171 54.0529 37.9927 53.5237 37.4525C52.9946 36.9013 52.5757 36.2675 52.267 35.5509C51.9694 34.8233 51.8205 34.0462 51.8205 33.2194C51.8205 32.3926 51.9694 31.6209 52.267 30.9044C52.5757 30.1878 52.9946 29.5594 53.5237 29.0193C54.0639 28.4681 54.6923 28.0437 55.4088 27.746C56.1364 27.4373 56.9191 27.283 57.7569 27.283C58.6719 27.283 59.5207 27.4594 60.3034 27.8122C61.0861 28.1649 61.742 28.6665 62.2712 29.3169L60.9814 30.6067C60.6396 30.1217 60.1822 29.7524 59.6089 29.4988C59.0357 29.2342 58.4183 29.1019 57.7569 29.1019C56.9632 29.1019 56.2632 29.2783 55.6569 29.6311C55.0616 29.9728 54.5986 30.4524 54.2678 31.0697C53.9371 31.687 53.7718 32.4036 53.7718 33.2194C53.7718 34.0351 53.9371 34.7572 54.2678 35.3856C54.6096 36.0029 55.0671 36.4879 55.6403 36.8407C56.2136 37.1935 56.864 37.3699 57.5915 37.3699C58.3632 37.3699 59.0246 37.2321 59.5758 36.9565C60.1381 36.6698 60.568 36.2509 60.8656 35.6997C61.1633 35.1375 61.3121 34.4485 61.3121 33.6328L62.5027 34.4926H57.5585V32.7564H63.2799V33.0209C63.2799 34.3989 63.0318 35.5454 62.5358 36.4604C62.0507 37.3754 61.3838 38.0588 60.5349 38.5108C59.6861 38.9628 58.716 39.1888 57.6246 39.1888ZM68.5624 39.1888C67.7907 39.1888 67.0907 39.0069 66.4624 38.6431C65.834 38.2683 65.3324 37.7667 64.9576 37.1384C64.5938 36.51 64.4119 35.81 64.4119 35.0383C64.4119 34.2666 64.5938 33.5721 64.9576 32.9548C65.3324 32.3375 65.834 31.8469 66.4624 31.4831C67.0907 31.1083 67.7907 30.9209 68.5624 30.9209C69.3451 30.9209 70.0506 31.1028 70.679 31.4666C71.3074 31.8304 71.8034 32.3264 72.1672 32.9548C72.542 33.5721 72.7294 34.2666 72.7294 35.0383C72.7294 35.81 72.542 36.51 72.1672 37.1384C71.8034 37.7667 71.3074 38.2683 70.679 38.6431C70.0506 39.0069 69.3451 39.1888 68.5624 39.1888ZM68.5624 37.436C69.0144 37.436 69.4112 37.3368 69.753 37.1384C70.1058 36.9289 70.3758 36.6423 70.5632 36.2785C70.7617 35.9147 70.8609 35.5013 70.8609 35.0383C70.8609 34.5753 70.7617 34.1674 70.5632 33.8147C70.3648 33.4619 70.0947 33.1863 69.753 32.9879C69.4112 32.7784 69.0144 32.6737 68.5624 32.6737C68.1215 32.6737 67.7246 32.7784 67.3718 32.9879C67.0301 33.1863 66.76 33.4619 66.5616 33.8147C66.3742 34.1674 66.2805 34.5753 66.2805 35.0383C66.2805 35.5013 66.3742 35.9147 66.5616 36.2785C66.76 36.6423 67.0301 36.9289 67.3718 37.1384C67.7246 37.3368 68.1215 37.436 68.5624 37.436ZM77.88 39.1888C77.1083 39.1888 76.4083 39.0069 75.7799 38.6431C75.1515 38.2683 74.65 37.7667 74.2751 37.1384C73.9114 36.51 73.7295 35.81 73.7295 35.0383C73.7295 34.2666 73.9114 33.5721 74.2751 32.9548C74.65 32.3375 75.1515 31.8469 75.7799 31.4831C76.4083 31.1083 77.1083 30.9209 77.88 30.9209C78.6626 30.9209 79.3682 31.1028 79.9965 31.4666C80.6249 31.8304 81.121 32.3264 81.4848 32.9548C81.8596 33.5721 82.047 34.2666 82.047 35.0383C82.047 35.81 81.8596 36.51 81.4848 37.1384C81.121 37.7667 80.6249 38.2683 79.9965 38.6431C79.3682 39.0069 78.6626 39.1888 77.88 39.1888ZM77.88 37.436C78.3319 37.436 78.7288 37.3368 79.0705 37.1384C79.4233 36.9289 79.6934 36.6423 79.8808 36.2785C80.0792 35.9147 80.1784 35.5013 80.1784 35.0383C80.1784 34.5753 80.0792 34.1674 79.8808 33.8147C79.6824 33.4619 79.4123 33.1863 79.0705 32.9879C78.7288 32.7784 78.3319 32.6737 77.88 32.6737C77.439 32.6737 77.0421 32.7784 76.6894 32.9879C76.3476 33.1863 76.0776 33.4619 75.8791 33.8147C75.6917 34.1674 75.598 34.5753 75.598 35.0383C75.598 35.5013 75.6917 35.9147 75.8791 36.2785C76.0776 36.6423 76.3476 36.9289 76.6894 37.1384C77.0421 37.3368 77.439 37.436 77.88 37.436ZM86.8668 42.496C86.029 42.496 85.2959 42.3416 84.6675 42.033C84.0392 41.7353 83.5321 41.3109 83.1462 40.7597L84.3368 39.5691C84.6565 39.966 85.0203 40.2636 85.4282 40.4621C85.836 40.6605 86.3266 40.7597 86.8999 40.7597C87.6164 40.7597 88.1841 40.5723 88.603 40.1975C89.0219 39.8337 89.2314 39.3321 89.2314 38.6927V36.7415L89.5456 34.9887L89.2314 33.2194V31.0862H91.0503V38.6927C91.0503 39.4534 90.874 40.1148 90.5212 40.677C90.1684 41.2503 89.6779 41.6967 89.0495 42.0164C88.4211 42.3361 87.6936 42.496 86.8668 42.496ZM86.7841 38.8581C86.0786 38.8581 85.4392 38.6872 84.8659 38.3455C84.3037 37.9927 83.8573 37.5132 83.5265 36.9069C83.2069 36.3005 83.047 35.6226 83.047 34.8729C83.047 34.1233 83.2069 33.4509 83.5265 32.8556C83.8573 32.2603 84.3037 31.7918 84.8659 31.45C85.4392 31.0973 86.0786 30.9209 86.7841 30.9209C87.4125 30.9209 87.9637 31.0477 88.4377 31.3012C88.9117 31.5548 89.281 31.9075 89.5456 32.3595C89.8102 32.8005 89.9424 33.3186 89.9424 33.9139V35.8651C89.9424 36.4494 89.8046 36.9675 89.529 37.4195C89.2645 37.8714 88.8952 38.2242 88.4211 38.4778C87.9471 38.7313 87.4014 38.8581 86.7841 38.8581ZM87.1479 37.1384C87.5888 37.1384 87.9747 37.0447 88.3054 36.8572C88.6361 36.6698 88.8897 36.4108 89.066 36.0801C89.2535 35.7383 89.3472 35.3415 89.3472 34.8895C89.3472 34.4375 89.2535 34.0462 89.066 33.7154C88.8897 33.3737 88.6361 33.1091 88.3054 32.9217C87.9747 32.7343 87.5888 32.6406 87.1479 32.6406C86.7069 32.6406 86.3156 32.7343 85.9738 32.9217C85.6431 33.1091 85.3841 33.3737 85.1967 33.7154C85.0093 34.0462 84.9156 34.4375 84.9156 34.8895C84.9156 35.3304 85.0093 35.7218 85.1967 36.0635C85.3841 36.4053 85.6431 36.6698 85.9738 36.8572C86.3156 37.0447 86.7069 37.1384 87.1479 37.1384ZM93.0709 39.0234V27.1177H94.8899V39.0234H93.0709ZM100.602 39.1888C99.808 39.1888 99.0914 39.0124 98.4521 38.6596C97.8237 38.2959 97.3221 37.7998 96.9473 37.1714C96.5835 36.5431 96.4016 35.8375 96.4016 35.0548C96.4016 34.2721 96.5835 33.5721 96.9473 32.9548C97.3111 32.3264 97.8016 31.8304 98.419 31.4666C99.0473 31.1028 99.7418 30.9209 100.502 30.9209C101.241 30.9209 101.892 31.0918 102.454 31.4335C103.027 31.7752 103.473 32.2438 103.793 32.839C104.124 33.4343 104.289 34.1123 104.289 34.8729C104.289 35.0052 104.278 35.143 104.256 35.2863C104.245 35.4186 104.223 35.5675 104.19 35.7328H97.6749V34.2446H103.247L102.569 34.8399C102.547 34.3548 102.454 33.9469 102.288 33.6162C102.123 33.2855 101.886 33.032 101.577 32.8556C101.28 32.6792 100.91 32.591 100.469 32.591C100.006 32.591 99.6041 32.6902 99.2623 32.8887C98.9206 33.0871 98.656 33.3682 98.4686 33.732C98.2812 34.0847 98.1875 34.5092 98.1875 35.0052C98.1875 35.5013 98.2867 35.9368 98.4851 36.3116C98.6836 36.6864 98.9647 36.9785 99.3285 37.188C99.6922 37.3864 100.111 37.4856 100.585 37.4856C100.993 37.4856 101.368 37.414 101.71 37.2706C102.062 37.1273 102.36 36.9179 102.603 36.6423L103.76 37.8163C103.374 38.2683 102.906 38.61 102.355 38.8415C101.803 39.073 101.219 39.1888 100.602 39.1888ZM110.612 34.658V33.0044H113.506C113.903 33.0044 114.25 32.9272 114.548 32.7729C114.856 32.6075 115.099 32.3816 115.275 32.0949C115.452 31.7973 115.54 31.45 115.54 31.0532C115.54 30.6563 115.452 30.3146 115.275 30.028C115.099 29.7303 114.856 29.5043 114.548 29.35C114.25 29.1846 113.903 29.1019 113.506 29.1019H110.612V27.4484H113.605C114.333 27.4484 114.983 27.5972 115.556 27.8948C116.141 28.1925 116.598 28.6114 116.929 29.1516C117.27 29.6917 117.441 30.3256 117.441 31.0532C117.441 31.7808 117.27 32.4146 116.929 32.9548C116.598 33.495 116.141 33.9139 115.556 34.2115C114.983 34.5092 114.333 34.658 113.605 34.658H110.612ZM109.306 39.0234V27.4484H111.207V39.0234H109.306ZM119.037 39.0234V27.1177H120.856V39.0234H119.037ZM126.204 39.1888C125.488 39.1888 124.837 39.0069 124.253 38.6431C123.68 38.2793 123.222 37.7888 122.881 37.1714C122.55 36.5431 122.385 35.843 122.385 35.0714C122.385 34.2887 122.55 33.5887 122.881 32.9713C123.222 32.343 123.68 31.8469 124.253 31.4831C124.837 31.1083 125.488 30.9209 126.204 30.9209C126.811 30.9209 127.345 31.0532 127.808 31.3177C128.282 31.5713 128.657 31.9241 128.933 32.376C129.208 32.828 129.346 33.3406 129.346 33.9139V36.1958C129.346 36.7691 129.208 37.2817 128.933 37.7336C128.668 38.1856 128.299 38.5439 127.825 38.8085C127.351 39.062 126.811 39.1888 126.204 39.1888ZM126.502 37.4691C127.174 37.4691 127.715 37.2431 128.122 36.7911C128.541 36.3391 128.751 35.7604 128.751 35.0548C128.751 34.5808 128.657 34.1619 128.47 33.7981C128.282 33.4343 128.018 33.1532 127.676 32.9548C127.345 32.7453 126.954 32.6406 126.502 32.6406C126.061 32.6406 125.67 32.7453 125.328 32.9548C124.997 33.1532 124.733 33.4343 124.534 33.7981C124.347 34.1619 124.253 34.5808 124.253 35.0548C124.253 35.5289 124.347 35.9478 124.534 36.3116C124.733 36.6754 124.997 36.962 125.328 37.1714C125.67 37.3699 126.061 37.4691 126.502 37.4691ZM128.635 39.0234V36.8903L128.949 34.9556L128.635 33.0375V31.0862H130.454V39.0234H128.635ZM135.036 39.1061L131.646 31.0862H133.647L135.962 36.973H135.383L137.83 31.0862H139.848L136.16 39.1061H135.036ZM132.671 42.3306L135.135 37.2541L136.16 39.1061L134.688 42.3306H132.671Z" fill="#1D2329"/>
<defs>
<clipPath id="clip0_4873_4790">
<rect width="16" height="17.28" fill="white" transform="translate(24.1426 17.75)"/>
</clipPath>
</defs>
</svg>
