<svg width="81" height="80" viewBox="0 0 81 80" fill="none" xmlns="http://www.w3.org/2000/svg">
<path d="M40.5 0C29.8913 0 19.7172 4.21427 12.2157 11.7157C4.71427 19.2172 0.5 29.3913 0.5 40C0.5 50.6087 4.71427 60.7828 12.2157 68.2843C19.7172 75.7857 29.8913 80 40.5 80C51.1087 80 61.2828 75.7857 68.7843 68.2843C76.2857 60.7828 80.5 50.6087 80.5 40C80.5 29.3913 76.2857 19.2172 68.7843 11.7157C61.2828 4.21427 51.1087 0 40.5 0ZM40.5 21.255C42.9628 21.2505 45.4021 21.7325 47.6781 22.6734C49.9541 23.6142 52.0218 24.9953 53.7625 26.7375C61.0725 34.05 61.0725 45.945 53.7625 53.2575C46.45 60.5675 34.55 60.5675 27.2375 53.2575C19.9275 45.945 19.9275 34.05 27.2375 26.7375C28.9782 24.9953 31.0459 23.6142 33.3219 22.6734C35.5979 21.7325 38.0372 21.2505 40.5 21.255ZM40.5 23.74C38.3645 23.7377 36.2496 24.1574 34.2769 24.9752C32.3042 25.7929 30.5126 26.9925 29.005 28.505C27.4937 30.013 26.2946 31.8043 25.4765 33.7764C24.6584 35.7484 24.2372 37.8625 24.2372 39.9975C24.2372 42.1325 24.6584 44.2466 25.4765 46.2186C26.2946 48.1907 27.4937 49.982 29.005 51.49C30.513 53.0013 32.3043 54.2004 34.2764 55.0185C36.2484 55.8366 38.3625 56.2578 40.4975 56.2578C42.6325 56.2578 44.7466 55.8366 46.7186 55.0185C48.6907 54.2004 50.482 53.0013 51.99 51.49C53.5013 49.982 54.7004 48.1907 55.5185 46.2186C56.3366 44.2466 56.7578 42.1325 56.7578 39.9975C56.7578 37.8625 56.3366 35.7484 55.5185 33.7764C54.7004 31.8043 53.5013 30.013 51.99 28.505C50.4834 26.9927 48.6926 25.7931 46.7207 24.9754C44.7488 24.1576 42.6347 23.7378 40.5 23.74ZM47.9 34.995L47.9075 35C47.9483 34.998 47.9892 34.998 48.03 35C48.2922 35.0039 48.5465 35.0902 48.7569 35.2466C48.9674 35.4031 49.1233 35.6217 49.2026 35.8716C49.282 36.1215 49.2807 36.3901 49.199 36.6392C49.1174 36.8884 48.9594 37.1056 48.7475 37.26L38.7525 44.76C38.5112 44.9393 38.2132 45.0257 37.9134 45.0032C37.6136 44.9807 37.3319 44.8509 37.12 44.6375L32.12 39.6375C31.9959 39.5235 31.8962 39.3855 31.8268 39.232C31.7574 39.0784 31.7198 38.9124 31.7162 38.7439C31.7125 38.5755 31.743 38.408 31.8058 38.2516C31.8686 38.0952 31.9623 37.9532 32.0814 37.8339C32.2004 37.7147 32.3424 37.6207 32.4987 37.5578C32.655 37.4948 32.8224 37.4641 32.9909 37.4674C33.1594 37.4708 33.3254 37.5082 33.4791 37.5774C33.6327 37.6466 33.7708 37.7461 33.885 37.87L38.1175 42.105L47.2475 35.255C47.4364 35.1073 47.6637 35.0171 47.9025 34.995H47.9Z" fill="#19B846"/>
</svg>
