<svg width="25" height="21" viewBox="0 0 25 21" fill="none" xmlns="http://www.w3.org/2000/svg">
<path d="M22.0305 1.21069L22.0304 1.2107C20.7254 1.67473 3.84481 8.7449 2.855 9.16014C2.38951 9.35552 1.98408 9.54098 1.69713 9.73885C1.39348 9.94824 1.35868 10.077 1.3584 10.1242C1.35849 10.2155 1.37692 10.247 1.42102 10.2886C1.49592 10.3593 1.6563 10.4547 1.999 10.5753L1.99911 10.5753C2.72574 10.8311 4.5851 11.3886 5.68599 11.6878L5.68628 11.6878C6.61193 11.94 7.68359 11.7117 8.25071 11.3646C8.60097 11.1496 10.8491 9.67438 13.0967 8.18432C14.2176 7.44119 15.334 6.69729 16.207 6.10943C17.0942 5.51204 17.6999 5.09565 17.8274 4.99291C18.2515 4.65101 18.8479 4.57194 19.2186 5.00552C19.5677 5.41387 19.449 5.98612 19.0745 6.35549C18.8783 6.54899 17.9225 7.46734 16.7759 8.56895C14.9339 10.3388 12.5995 12.5817 12.132 13.0517L12.1319 13.0517C11.7986 13.3866 11.7898 13.6636 11.8565 13.8778C11.937 14.136 12.1579 14.3818 12.3901 14.526L12.3903 14.5262C13.0982 14.9663 18.1391 18.2999 18.9063 18.8406M22.0305 1.21069L18.6182 19.2493M22.0305 1.21069C22.7355 0.959953 23.2929 0.854404 23.6915 0.899876C23.8211 0.914658 23.9231 0.943401 24.0036 0.98149L24.004 0.981722C24.2097 1.07882 24.4071 1.31778 24.3483 1.9311M22.0305 1.21069L24.2176 0.529599C24.6811 0.748517 24.9169 1.24094 24.846 1.97931M18.9063 18.8406L18.6182 19.2493M18.9063 18.8406C18.9061 18.8405 18.906 18.8404 18.9058 18.8403L18.6182 19.2493M18.9063 18.8406C19.5935 19.3237 20.2633 19.526 20.8498 19.526C20.9433 19.526 21.0796 19.478 21.2691 19.1724C21.4578 18.868 21.6219 18.4278 21.7986 17.8931L21.7986 17.893C21.8869 17.6261 22.0775 16.6655 22.323 15.2714C22.5643 13.9011 22.8504 12.163 23.1313 10.386C23.6942 6.82436 24.2319 3.13331 24.3483 1.9311M18.6182 19.2493C19.3773 19.783 20.1458 20.026 20.8498 20.026C21.5537 20.026 21.9227 19.111 22.2733 18.0501C22.6844 16.8078 24.6096 4.41979 24.846 1.97931M24.3483 1.9311C24.3483 1.93124 24.3483 1.93137 24.3483 1.9315L24.846 1.97931M24.3483 1.9311L24.846 1.97931" stroke="white"/>
</svg>
