<svg width="25" height="25" viewBox="0 0 25 25" fill="none" xmlns="http://www.w3.org/2000/svg">
<path d="M3.85617 20.2613C5.41496 20.9848 7.15108 21.3896 8.97844 21.3896C16.8584 21.3896 21.1884 14.8496 21.1884 9.17965C21.1884 8.98965 21.1884 8.80965 21.1784 8.61965C21.6316 8.29593 22.0499 7.92565 22.4301 7.51664L3.85617 20.2613ZM20.5251 6.40423C20.5073 6.41537 20.4895 6.42635 20.4715 6.43717L20.9536 7.82359C20.9686 7.82166 20.9837 7.81971 20.9987 7.81771C20.9147 7.88348 20.8293 7.94738 20.7425 8.00935L20.4079 8.24838L20.4295 8.65907C20.4383 8.82628 20.4384 8.98691 20.4384 9.17965C20.4384 14.5266 16.3586 20.6396 8.97844 20.6396C7.72804 20.6396 6.52349 20.4378 5.39572 20.0653C6.78114 19.7694 8.08937 19.158 9.21396 18.2677L10.8558 16.9679L8.76211 16.9298C8.02431 16.9163 7.30928 16.672 6.71753 16.2311C6.44194 16.0258 6.19955 15.7827 5.99658 15.5105C6.29305 15.4846 6.58754 15.4321 6.87641 15.353L6.8248 13.8941C5.57326 13.645 4.55706 12.7256 4.16387 11.5243C4.49048 11.5979 4.83293 11.6396 5.18844 11.6396H7.72978L5.59565 10.2598C4.64877 9.64761 4.02844 8.56442 4.02844 7.32965C4.02844 7.07253 4.05602 6.82113 4.1084 6.57907C6.30953 8.8047 9.32334 10.24 12.6606 10.4087L13.6477 10.4586L13.43 9.49445C13.3716 9.23571 13.3384 8.96112 13.3384 8.67965C13.3384 6.72158 14.9249 5.13965 16.8584 5.13965C17.9119 5.13965 18.8204 5.55412 19.4661 6.25702L19.7536 6.57002L20.1699 6.4842C20.2889 6.45965 20.4074 6.433 20.5251 6.40423Z" stroke="white" stroke-width="1.5"/>
</svg>
