<svg width="1241" height="88" viewBox="0 0 1241 88" fill="none" xmlns="http://www.w3.org/2000/svg">
<ellipse cx="108.742" cy="44.3643" rx="1.56354" ry="1.56354" fill="white"/>
<path fill-rule="evenodd" clip-rule="evenodd" d="M49.586 32.1162H20.1393C17.0122 31.9859 14.5366 34.0707 18.1848 36.0251C20.921 36.0251 22.5627 40.0642 18.1848 39.5431H12.4518C10.2368 39.5431 8.5951 42.2793 12.4518 43.3216H20.5301C22.4846 43.3216 23.9699 46.7614 20.5301 46.9699H15.4486C13.2336 46.9699 11.9307 50.7485 15.4486 50.7485C18.9666 50.7485 18.706 55.5694 15.4486 54.6573H9.71564C7.50061 54.2664 5.80677 58.1753 9.71564 58.6965H24.1784C25.6117 58.6965 26.4716 61.2503 24.1784 62.0841H16.8819C14.6669 62.0841 14.5887 65.3676 16.8819 65.4718H49.7163C52.7131 65.2112 52.7131 65.0809 52.7131 59.8691L53.4949 34.0707C53.4949 32.898 53.0258 31.9078 49.586 32.1162ZM35.7747 55.3088C38.1721 55.5173 40.1613 52.7029 40.8562 51.2696C41.3774 50.7485 40.7259 50.4444 40.335 50.3576L39.6836 51.2696C39.6836 51.2696 38.9999 51.681 38.5109 51.7908C37.9648 51.9134 37.0777 51.7908 37.0777 51.7908L36.2959 51.009C36.0874 50.8006 35.8616 51.0959 35.7747 51.2696L34.8626 51.7908L34.4717 52.8332H33.5597L33.4294 51.7908L33.2991 50.7485C31.0059 49.3934 31.6487 47.6648 32.2567 46.9699C35.0711 45.4063 37.5988 48.3163 38.5109 49.9667L39.6836 49.7061V48.6637L38.9018 48.0123L37.8594 46.9699L36.8171 45.7972H37.8594L38.5109 46.3184L39.2927 47.2305L40.335 47.4911C38.8757 43.947 35.4707 43.8428 33.9506 44.2337C30.0417 45.1458 30.9538 49.4455 30.9538 49.9667C28.1394 52.9895 24.439 48.0123 25.3511 45.7972C25.6638 40.2727 31.5618 39.3259 34.4717 39.5431V40.7157L35.7747 41.4975H41.638L42.1592 43.7125C43.0278 44.972 44.8693 47.5953 45.2863 48.0123C48.2049 46.9699 47.8922 49.1415 47.371 50.3576L43.7227 53.8755V57.9147C43.2884 58.0884 42.3676 58.488 42.1592 58.6965C42.3676 62.3447 38.5109 63.6911 36.5565 63.9083C35.8268 62.6574 32.9082 56.2209 35.7747 55.3088ZM44.7651 59.0873C44.6608 59.4001 44.3742 59.5651 44.2439 59.6085C44.2439 59.6085 44.036 60.5221 44.2439 61.0418C44.5045 61.6933 45.8074 61.0418 45.8074 61.0418V59.8691H46.3286L46.5892 58.6965H47.2407V56.4814L46.3286 56.6117V57.2632L45.0257 57.6541C44.9822 58.0016 44.8693 58.7746 44.7651 59.0873Z" fill="white"/>
<path d="M12.4518 32.1162C14.6669 31.595 17.9764 35.6081 12.4518 36.0251C7.86545 36.0251 8.93386 31.595 12.4518 32.1162Z" fill="white"/>
<path d="M2.94027 46.9699H11.0186C12.8427 46.9699 13.7548 50.097 11.0186 50.7485L2.67968 50.7485C0.985845 51.1393 -0.499522 47.3868 2.94027 46.9699Z" fill="white"/>
<path d="M29.1296 30.683H32.2567C32.6042 28.0336 34.4978 22.8653 39.2927 23.3864C44.0875 23.9076 44.9388 28.468 44.7651 30.683H48.0225C48.283 27.0347 46.9197 20.3896 39.2927 20.3896C30.5629 20.3896 29.3468 27.469 29.1296 30.683Z" fill="white"/>
<path d="M69.9844 55.3939L69.1856 52.9252H70.7503H71.017V52.6585V48.7559V48.4892H70.7503H67.7501L66.0483 43.2305L66.9178 40.6094L67.0341 40.2588H66.6647H64.8927H64.5261L64.639 40.6075L65.4871 43.2284L63.7419 48.4892H60.9548H60.6881V48.7559V52.6585V52.9252H60.9548H62.2703L61.4514 55.3939H57.0077L63.4778 38.1153H68.1281L74.5266 55.3939H69.9844ZM69.013 52.3919L67.9227 49.0226H70.4836V52.3919H69.013ZM67.3621 49.0226L68.4524 52.3919H63.0092L64.1269 49.0226H67.3621ZM61.2214 49.0226H63.565L62.4473 52.3919H61.2214V49.0226ZM66.2953 40.7921L65.7708 42.373L65.2592 40.7921H66.2953ZM80.9701 38.1153V41.7347H80.5681V38.1153H80.9701ZM81.5034 38.1153H89.0182V41.7347H81.5034V38.1153ZM80.3015 42.2681H80.9701V44.9119H80.3015H80.0348V45.1785V49.3313V49.598H80.3015H80.9701V55.3939H76.581V38.1153H80.0348V42.0014V42.2681H80.3015ZM80.5681 45.4452H80.9701V49.0646H80.5681V45.4452ZM81.5034 49.0646V45.4452H88.649V49.0646H81.5034ZM101.067 55.3939L98.5591 48.8224H98.9391C100.266 48.8224 101.43 48.592 102.425 48.1214C102.653 48.0136 102.869 47.896 103.074 47.7684L106.079 55.3939H101.067ZM96.6215 38.1153H99.1852C100.366 38.1153 101.391 38.3342 102.267 38.7635C103.146 39.1943 103.831 39.7888 104.328 40.5466C104.821 41.2988 105.072 42.1806 105.072 43.2022C105.072 44.2221 104.814 45.1028 104.305 45.8547L104.303 45.8578C104.035 46.2657 103.709 46.6266 103.321 46.9403L102.559 45.0057L102.492 44.8368H102.311H100.064C100.078 44.8238 100.093 44.8105 100.107 44.797C100.528 44.4068 100.732 43.8911 100.732 43.2773C100.732 42.6634 100.528 42.1477 100.107 41.7576C99.6955 41.3609 99.1101 41.1844 98.3976 41.1844H96.6215V38.1153ZM95.6862 38.1153H96.0882V41.1844H95.6862V38.1153ZM96.0882 41.7177V55.3939H91.6991V38.1153H95.1529V41.451V41.7177H95.4196H96.0882ZM98.9391 48.2891H98.5758L97.5756 45.8741L98.4677 45.3701H102.129L102.875 47.2632C102.664 47.3999 102.438 47.5253 102.197 47.6393C101.288 48.0693 100.205 48.2891 98.9391 48.2891ZM97.3835 45.3701L97.2667 45.4361L97.2416 45.3701H97.3835ZM107.603 48.4307V38.1153H111.992V48.881C111.992 49.4871 112.124 50.0214 112.401 50.4716C112.671 50.912 113.035 51.254 113.488 51.4933L113.487 51.4936L113.499 51.499C113.964 51.7171 114.47 51.8244 115.015 51.8244C115.574 51.8244 116.077 51.7177 116.514 51.4953L116.514 51.4953L116.518 51.4933C116.97 51.2547 117.326 50.921 117.582 50.494L117.582 50.494L117.585 50.4897C117.842 50.0408 117.964 49.5091 117.964 48.906V38.1153H122.378V48.4557C122.378 49.8834 122.067 51.138 121.453 52.2273L121.452 52.2284C120.853 53.3015 120.003 54.1506 118.896 54.7777C117.811 55.3851 116.52 55.6941 115.015 55.6941C113.51 55.6941 112.211 55.3853 111.109 54.7774C110.003 54.1505 109.144 53.2931 108.528 52.2023C107.914 51.113 107.603 49.8584 107.603 48.4307ZM125.492 38.1153H128.306L126.867 42.5953L126.824 42.7299L126.911 42.8412L129.882 46.6356V55.3939H125.492V38.1153ZM130.396 41.5035L129.59 39.4545L135.788 47.3719V51.7079V51.7484L135.8 51.7872L136.598 54.35L130.415 46.4517V41.6011V41.5506L130.396 41.5035ZM127.418 42.6238L128.697 38.6415L129.882 41.6517V45.7705L127.418 42.6238ZM136.322 51.6673V48.0531L138.539 50.8854L137.29 54.7761L136.322 51.6673ZM140.711 55.3939H137.651L139.09 50.9138L139.133 50.7792L139.046 50.6679L136.322 47.1879V38.1153H140.711V55.3939ZM155.934 55.3939L155.135 52.9252H156.7H156.967V52.6585V48.7559V48.4892H156.7H153.7L151.998 43.2305L152.867 40.6094L152.984 40.2588H152.614H150.842H150.476L150.589 40.6075L151.437 43.2284L149.691 48.4892H146.904H146.638V48.7559V52.6585V52.9252H146.904H148.22L147.401 55.3939H142.957L149.427 38.1153H154.078L160.476 55.3939H155.934ZM154.963 52.3919L153.872 49.0226H156.433V52.3919H154.963ZM153.312 49.0226L154.402 52.3919H148.959L150.076 49.0226H153.312ZM147.171 49.0226H149.515L148.397 52.3919H147.171V49.0226ZM152.245 40.7921L151.72 42.373L151.209 40.7921H152.245Z" fill="white" stroke="white" stroke-width="0.533333"/>
<path d="M56.8799 64.929C56.8799 64.807 56.9228 64.7009 57.0086 64.6105C57.0944 64.5202 57.2006 64.475 57.3271 64.475C57.449 64.475 57.5552 64.5202 57.6455 64.6105C57.7358 64.7009 57.781 64.807 57.781 64.929C57.781 65.0554 57.7358 65.1616 57.6455 65.2474C57.5552 65.3332 57.449 65.3761 57.3271 65.3761C57.2006 65.3761 57.0944 65.3332 57.0086 65.2474C56.9228 65.1616 56.8799 65.0554 56.8799 64.929Z" fill="white"/>
<path d="M60.5317 64.929C60.5317 64.807 60.5746 64.7009 60.6604 64.6105C60.7462 64.5202 60.8524 64.475 60.9789 64.475C61.1008 64.475 61.207 64.5202 61.2973 64.6105C61.3876 64.7009 61.4328 64.807 61.4328 64.929C61.4328 65.0554 61.3876 65.1616 61.2973 65.2474C61.207 65.3332 61.1008 65.3761 60.9789 65.3761C60.8524 65.3761 60.7462 65.3332 60.6604 65.2474C60.5746 65.1616 60.5317 65.0554 60.5317 64.929Z" fill="white"/>
<path d="M64.1835 64.929C64.1835 64.807 64.2264 64.7009 64.3122 64.6105C64.3981 64.5202 64.5042 64.475 64.6307 64.475C64.7526 64.475 64.8588 64.5202 64.9491 64.6105C65.0395 64.7009 65.0846 64.807 65.0846 64.929C65.0846 65.0554 65.0395 65.1616 64.9491 65.2474C64.8588 65.3332 64.7526 65.3761 64.6307 65.3761C64.5042 65.3761 64.3981 65.3332 64.3122 65.2474C64.2264 65.1616 64.1835 65.0554 64.1835 64.929Z" fill="white"/>
<path d="M74.2979 65.3423V62.9031C74.1263 62.8218 73.9298 62.7541 73.7085 62.6999C73.4917 62.6412 73.2704 62.5982 73.0445 62.5711C72.9903 62.7699 72.9406 62.9754 72.8954 63.1877C72.8503 63.3955 72.8119 63.6033 72.7803 63.811C72.7486 64.0143 72.7238 64.2153 72.7057 64.414C72.6877 64.6083 72.6786 64.7935 72.6786 64.9696C72.6786 65.1684 72.6922 65.3626 72.7193 65.5523C72.7509 65.742 72.8164 65.9295 72.9158 66.1147C72.8119 66.1147 72.7035 66.1034 72.5906 66.0808C72.4776 66.0582 72.3737 66.0062 72.2789 65.9249C72.184 65.8482 72.105 65.7352 72.0418 65.5862C71.983 65.4416 71.9537 65.2451 71.9537 64.9967C71.9537 64.8386 71.965 64.6625 71.9876 64.4682C72.0101 64.274 72.044 64.0708 72.0892 63.8585C72.1343 63.6462 72.1886 63.4294 72.2518 63.208C72.3195 62.9822 72.3941 62.7608 72.4754 62.544C72.3444 62.5486 72.2202 62.5598 72.1027 62.5779C71.9898 62.596 71.8904 62.6231 71.8046 62.6592C71.7233 62.6908 71.6578 62.7292 71.6081 62.7744C71.5584 62.8196 71.5336 62.8693 71.5336 62.9235C71.5336 62.9415 71.5359 62.9551 71.5404 62.9641C71.6578 63.0002 71.7165 63.0748 71.7165 63.1877C71.7165 63.269 71.6872 63.3255 71.6285 63.3571C71.5697 63.3887 71.5065 63.4045 71.4387 63.4045C71.3258 63.4045 71.2219 63.3729 71.1271 63.3097C71.0277 63.2419 70.978 63.1267 70.978 62.9641C70.978 62.8557 71.0119 62.7586 71.0797 62.6728C71.1429 62.5869 71.231 62.5147 71.3439 62.456C71.4613 62.3927 71.5968 62.3453 71.7504 62.3137C71.9085 62.2821 72.0801 62.2662 72.2653 62.2662C72.315 62.2662 72.367 62.2685 72.4212 62.273C72.4754 62.273 72.5296 62.2753 72.5838 62.2798C72.6967 62.0088 72.8232 61.7513 72.9632 61.5074C73.1032 61.259 73.2545 61.0444 73.4172 60.8637C73.5798 60.6786 73.7514 60.5318 73.9321 60.4234C74.1128 60.3149 74.3025 60.2607 74.5012 60.2607C74.569 60.2607 74.6525 60.2675 74.7519 60.2811C74.8558 60.2946 74.9529 60.3195 75.0432 60.3556V65.3423H74.2979ZM73.1123 62.3476C73.3381 62.3882 73.5549 62.4401 73.7627 62.5034C73.9705 62.5621 74.1489 62.6276 74.2979 62.6999V60.586C74.185 60.595 74.0744 60.6469 73.966 60.7418C73.8575 60.8321 73.7514 60.9563 73.6475 61.1144C73.5481 61.2725 73.4533 61.4577 73.3629 61.67C73.2726 61.8778 73.189 62.1036 73.1123 62.3476Z" fill="white"/>
<path d="M78.5768 61.9546H79.1257V62.1917H78.5768V65.8843C78.5768 66.1237 78.552 66.3179 78.5023 66.467C78.4572 66.616 78.3962 66.7335 78.3194 66.8193C78.2426 66.9051 78.1523 66.9616 78.0484 66.9887C77.949 67.0203 77.8429 67.0361 77.7299 67.0361C77.486 67.0361 77.3076 66.9796 77.1947 66.8667C77.0772 66.7538 77.0185 66.5912 77.0185 66.3789C77.0185 66.266 77.0456 66.1621 77.0998 66.0672C77.1495 65.9724 77.2173 65.8843 77.3031 65.803C77.3844 65.7262 77.477 65.6562 77.5809 65.5929C77.6848 65.5342 77.7909 65.4823 77.8993 65.4371V61.4397C77.8993 61.0467 77.9919 60.7531 78.1771 60.5589C78.3623 60.3601 78.5994 60.2607 78.8885 60.2607C79.024 60.2607 79.1482 60.2811 79.2612 60.3217C79.3741 60.3624 79.4735 60.4256 79.5593 60.5114C79.6451 60.5973 79.7106 60.7034 79.7558 60.8299C79.8054 60.9563 79.8303 61.1054 79.8303 61.277H79.5661C79.5389 61.0964 79.4893 60.9541 79.417 60.8502C79.3492 60.7463 79.2341 60.6944 79.0715 60.6944C78.963 60.6944 78.8772 60.7192 78.814 60.7689C78.7507 60.8141 78.7011 60.8773 78.6649 60.9586C78.6288 61.0399 78.604 61.1393 78.5904 61.2567C78.5814 61.3696 78.5768 61.4939 78.5768 61.6294V61.9546ZM77.5944 66.6838C77.7254 66.6838 77.809 66.6138 77.8451 66.4737C77.8812 66.3337 77.8993 66.1418 77.8993 65.8978V65.6878C77.6961 65.7872 77.5425 65.8956 77.4386 66.013C77.3347 66.1305 77.2828 66.2456 77.2828 66.3586C77.2828 66.4489 77.3121 66.5257 77.3708 66.5889C77.4296 66.6522 77.5041 66.6838 77.5944 66.6838Z" fill="white"/>
<path d="M82.4338 61.9546V62.5237C82.488 62.4424 82.5399 62.3656 82.5896 62.2933C82.6438 62.2211 82.7025 62.1578 82.7658 62.1036C82.829 62.0494 82.899 62.0065 82.9758 61.9749C83.0526 61.9388 83.1384 61.9207 83.2333 61.9207C83.3868 61.9207 83.4998 61.9614 83.572 62.0427C83.6443 62.1194 83.6804 62.2143 83.6804 62.3272C83.6804 62.395 83.6691 62.4514 83.6466 62.4966C83.624 62.5418 83.5969 62.5779 83.5653 62.605C83.5336 62.6321 83.4998 62.6524 83.4636 62.666C83.4275 62.675 83.3959 62.6795 83.3688 62.6795C83.3281 62.6795 83.2942 62.6705 83.2671 62.6524C83.2446 62.6344 83.2197 62.6163 83.1926 62.5982C83.17 62.5757 83.1429 62.5553 83.1113 62.5373C83.0797 62.5192 83.039 62.5102 82.9894 62.5102C82.8855 62.5102 82.7861 62.5463 82.6912 62.6186C82.5964 62.6908 82.5106 62.7676 82.4338 62.8489V65.3423H81.7562V61.9546H82.4338Z" fill="white"/>
<path d="M86.9525 61.9546V64.2582C86.9525 64.3034 86.9548 64.3598 86.9593 64.4276C86.9638 64.4953 86.9751 64.5631 86.9932 64.6308C87.0157 64.6941 87.0474 64.7505 87.088 64.8002C87.1287 64.8454 87.1851 64.868 87.2574 64.868C87.4787 64.868 87.6413 64.6218 87.7452 64.1295H87.9959C87.9462 64.414 87.883 64.6399 87.8062 64.807C87.7294 64.9696 87.6481 65.0938 87.5623 65.1797C87.4765 65.2655 87.3884 65.3197 87.2981 65.3423C87.2077 65.3694 87.1264 65.3829 87.0541 65.3829C86.896 65.3829 86.7673 65.3536 86.6679 65.2948C86.5686 65.2316 86.4895 65.1525 86.4308 65.0577C86.3721 64.9628 86.3314 64.8567 86.3089 64.7393C86.2863 64.6218 86.275 64.5089 86.275 64.4005V61.9546H86.9525ZM86.153 60.9789C86.153 60.857 86.1959 60.7508 86.2818 60.6605C86.3676 60.5702 86.4737 60.525 86.6002 60.525C86.7221 60.525 86.8283 60.5702 86.9186 60.6605C87.009 60.7508 87.0541 60.857 87.0541 60.9789C87.0541 61.1054 87.009 61.2116 86.9186 61.2974C86.8283 61.3832 86.7221 61.4261 86.6002 61.4261C86.4737 61.4261 86.3676 61.3832 86.2818 61.2974C86.1959 61.2116 86.153 61.1054 86.153 60.9789Z" fill="white"/>
<path d="M91.511 62.9912C91.5471 62.9596 91.5742 62.9099 91.5923 62.8422C91.6148 62.7699 91.6261 62.7021 91.6261 62.6389C91.6261 62.535 91.5923 62.4492 91.5245 62.3814C91.4613 62.3137 91.3709 62.2798 91.2535 62.2798C91.1315 62.2798 91.0299 62.325 90.9486 62.4153C90.8673 62.5056 90.8018 62.6208 90.7521 62.7608C90.7024 62.8964 90.6663 63.0499 90.6437 63.2216C90.6256 63.3887 90.6166 63.5536 90.6166 63.7162C90.6166 63.9556 90.6369 64.1498 90.6776 64.2989C90.7228 64.4479 90.7815 64.5654 90.8537 64.6512C90.926 64.7325 91.0096 64.7889 91.1044 64.8206C91.2038 64.8522 91.3077 64.868 91.4161 64.868C91.6555 64.868 91.8565 64.8093 92.0191 64.6918C92.1862 64.5699 92.3285 64.3824 92.4459 64.1295H92.6763C92.6221 64.2966 92.5453 64.4569 92.4459 64.6105C92.3466 64.7596 92.2314 64.8928 92.1004 65.0103C91.9694 65.1232 91.8271 65.2135 91.6736 65.2813C91.52 65.349 91.3596 65.3829 91.1925 65.3829C91.0344 65.3829 90.8786 65.3558 90.725 65.3016C90.5714 65.2474 90.4337 65.1593 90.3117 65.0374C90.1898 64.9109 90.0904 64.7483 90.0136 64.5495C89.9368 64.3463 89.8984 64.0979 89.8984 63.8043C89.8984 63.6145 89.9142 63.4113 89.9458 63.1945C89.982 62.9731 90.0452 62.7699 90.1356 62.5847C90.2304 62.395 90.3591 62.2369 90.5217 62.1104C90.6844 61.9839 90.8944 61.9207 91.1519 61.9207C91.4364 61.9207 91.6532 61.9907 91.8023 62.1307C91.9513 62.2662 92.0259 62.4672 92.0259 62.7337C92.0259 62.8467 92.0033 62.9415 91.9581 63.0183C91.9175 63.0951 91.852 63.1335 91.7616 63.1335C91.6623 63.1335 91.5787 63.0861 91.511 62.9912Z" fill="white"/>
<path d="M97.1769 61.9546V64.2582C97.1769 64.3124 97.1792 64.3756 97.1837 64.4479C97.1882 64.5157 97.1995 64.5812 97.2175 64.6444C97.2401 64.7076 97.2718 64.7618 97.3124 64.807C97.3576 64.8477 97.4208 64.868 97.5021 64.868C97.5382 64.868 97.5766 64.8635 97.6173 64.8544C97.6625 64.8454 97.6986 64.8364 97.7257 64.8273C97.7302 64.8499 97.7325 64.8702 97.7325 64.8883C97.737 64.9064 97.7393 64.9267 97.7393 64.9493C97.7393 65.0848 97.6873 65.1909 97.5834 65.2677C97.4795 65.3445 97.3621 65.3829 97.2311 65.3829C97.0911 65.3829 96.9646 65.3355 96.8517 65.2406C96.7388 65.1413 96.662 64.9764 96.6213 64.746C96.5536 64.9222 96.4429 65.0735 96.2893 65.2C96.1357 65.3219 95.9506 65.3829 95.7337 65.3829C95.5982 65.3829 95.4605 65.3558 95.3204 65.3016C95.1849 65.2429 95.063 65.1525 94.9546 65.0306C94.8462 64.9086 94.7558 64.7505 94.6836 64.5563C94.6158 64.3621 94.5819 64.1272 94.5819 63.8517C94.5819 63.6394 94.6045 63.4203 94.6497 63.1945C94.6994 62.9641 94.7739 62.7563 94.8733 62.5711C94.9772 62.3814 95.1104 62.2256 95.273 62.1036C95.4356 61.9817 95.6299 61.9207 95.8557 61.9207C95.9731 61.9207 96.0928 61.9455 96.2148 61.9952C96.3413 62.0449 96.4361 62.1398 96.4994 62.2798V61.9546H97.1769ZM95.876 64.868C95.9618 64.868 96.0432 64.8477 96.1199 64.807C96.1967 64.7664 96.2622 64.7122 96.3164 64.6444C96.3751 64.5766 96.4203 64.4999 96.4519 64.414C96.4836 64.3237 96.4994 64.2288 96.4994 64.1295V62.5847C96.4677 62.5079 96.4203 62.4401 96.3571 62.3814C96.2938 62.3227 96.2035 62.2933 96.0861 62.2933C95.9415 62.2933 95.8196 62.343 95.7202 62.4424C95.6208 62.5373 95.5395 62.6592 95.4763 62.8083C95.413 62.9573 95.3656 63.1245 95.334 63.3097C95.3069 63.4903 95.2933 63.6642 95.2933 63.8314C95.2933 64.1972 95.3498 64.4615 95.4627 64.6241C95.5757 64.7867 95.7134 64.868 95.876 64.868Z" fill="white"/>
<path d="M104.67 60.9247V61.9546H105.191V62.1917H104.67V64.2582C104.67 64.3124 104.672 64.3756 104.676 64.4479C104.681 64.5157 104.692 64.5812 104.71 64.6444C104.733 64.7076 104.764 64.7618 104.805 64.807C104.85 64.8477 104.911 64.868 104.988 64.868C105.11 64.868 105.225 64.807 105.334 64.6851C105.446 64.5631 105.535 64.3779 105.598 64.1295H105.848C105.772 64.414 105.688 64.6399 105.598 64.807C105.512 64.9696 105.422 65.0938 105.327 65.1797C105.232 65.2655 105.137 65.3197 105.042 65.3423C104.952 65.3694 104.868 65.3829 104.791 65.3829C104.629 65.3829 104.496 65.3536 104.392 65.2948C104.288 65.2316 104.207 65.1525 104.148 65.0577C104.089 64.9628 104.048 64.859 104.026 64.746C104.003 64.6286 103.992 64.5134 103.992 64.4005V62.1917H103.762V61.9546H103.992V61.0196L104.67 60.9247Z" fill="white"/>
<path d="M109.062 61.9207C109.22 61.9207 109.358 61.9433 109.475 61.9885C109.593 62.0336 109.692 62.0969 109.774 62.1782C109.859 62.255 109.927 62.3498 109.977 62.4627C110.031 62.5711 110.072 62.6886 110.099 62.8151C110.225 62.8151 110.316 62.7767 110.37 62.6999C110.424 62.6186 110.462 62.544 110.485 62.4763H110.682C110.645 62.6253 110.584 62.7789 110.499 62.937C110.417 63.0906 110.302 63.2058 110.153 63.2826C110.162 63.3368 110.167 63.391 110.167 63.4452C110.167 63.4948 110.167 63.5468 110.167 63.601C110.167 64.1566 110.065 64.5925 109.862 64.9086C109.658 65.2248 109.374 65.3829 109.008 65.3829C108.859 65.3829 108.708 65.3558 108.554 65.3016C108.405 65.2474 108.269 65.1571 108.148 65.0306C108.026 64.9041 107.926 64.7415 107.849 64.5428C107.777 64.344 107.741 64.0979 107.741 63.8043C107.741 63.6055 107.761 63.3955 107.802 63.1741C107.847 62.9528 107.919 62.7496 108.019 62.5644C108.123 62.3792 108.258 62.2256 108.425 62.1036C108.597 61.9817 108.809 61.9207 109.062 61.9207ZM109.13 64.868C109.369 64.868 109.545 64.7505 109.658 64.5157C109.771 64.2763 109.828 63.9398 109.828 63.5061C109.828 63.4836 109.826 63.461 109.821 63.4384C109.821 63.4113 109.821 63.3864 109.821 63.3639C109.695 63.3639 109.602 63.33 109.543 63.2622C109.485 63.19 109.455 63.0883 109.455 62.9573C109.455 62.867 109.478 62.797 109.523 62.7473C109.568 62.6931 109.629 62.6615 109.706 62.6524C109.652 62.5215 109.584 62.4289 109.503 62.3747C109.421 62.3205 109.333 62.2933 109.238 62.2933C109.098 62.2933 108.979 62.3408 108.879 62.4356C108.784 62.526 108.705 62.6434 108.642 62.788C108.583 62.9325 108.54 63.0928 108.513 63.269C108.486 63.4406 108.473 63.61 108.473 63.7772C108.473 63.9985 108.493 64.1792 108.534 64.3192C108.574 64.4592 108.626 64.5699 108.69 64.6512C108.753 64.7325 108.823 64.7889 108.9 64.8206C108.976 64.8522 109.053 64.868 109.13 64.868Z" fill="white"/>
<path d="M117.583 60.9247V61.9546H118.105V62.1917H117.583V64.2582C117.583 64.3124 117.586 64.3756 117.59 64.4479C117.595 64.5157 117.606 64.5812 117.624 64.6444C117.647 64.7076 117.678 64.7618 117.719 64.807C117.764 64.8477 117.825 64.868 117.902 64.868C118.024 64.868 118.139 64.807 118.247 64.6851C118.36 64.5631 118.448 64.3779 118.512 64.1295H118.762C118.686 64.414 118.602 64.6399 118.512 64.807C118.426 64.9696 118.336 65.0938 118.241 65.1797C118.146 65.2655 118.051 65.3197 117.956 65.3423C117.866 65.3694 117.782 65.3829 117.705 65.3829C117.543 65.3829 117.41 65.3536 117.306 65.2948C117.202 65.2316 117.12 65.1525 117.062 65.0577C117.003 64.9628 116.962 64.859 116.94 64.746C116.917 64.6286 116.906 64.5134 116.906 64.4005V62.1917H116.676V61.9546H116.906V61.0196L117.583 60.9247Z" fill="white"/>
<path d="M121.414 60.5995V62.4695C121.482 62.3476 121.549 62.2504 121.617 62.1782C121.689 62.1014 121.762 62.0449 121.834 62.0088C121.906 61.9726 121.974 61.9501 122.037 61.941C122.105 61.9275 122.168 61.9207 122.227 61.9207C122.43 61.9207 122.593 61.9591 122.715 62.0359C122.841 62.1127 122.936 62.212 122.999 62.334C123.062 62.4514 123.103 62.5824 123.121 62.727C123.144 62.867 123.155 63.0025 123.155 63.1335C123.155 63.2148 123.153 63.3051 123.148 63.4045C123.144 63.4994 123.139 63.5987 123.135 63.7026C123.13 63.802 123.126 63.9036 123.121 64.0075C123.117 64.1069 123.114 64.1995 123.114 64.2853C123.114 64.3214 123.117 64.3734 123.121 64.4411C123.126 64.5044 123.137 64.5676 123.155 64.6308C123.173 64.6941 123.202 64.7505 123.243 64.8002C123.284 64.8454 123.342 64.868 123.419 64.868C123.523 64.868 123.616 64.8093 123.697 64.6918C123.783 64.5744 123.853 64.3869 123.907 64.1295H124.158C124.108 64.414 124.045 64.6399 123.968 64.807C123.891 64.9696 123.81 65.0938 123.724 65.1797C123.638 65.2655 123.553 65.3197 123.467 65.3423C123.381 65.3694 123.302 65.3829 123.23 65.3829C123.085 65.3829 122.963 65.3558 122.864 65.3016C122.764 65.2429 122.683 65.1661 122.62 65.0712C122.557 64.9764 122.509 64.8657 122.478 64.7393C122.45 64.6128 122.437 64.4818 122.437 64.3463C122.437 64.3056 122.437 64.2311 122.437 64.1227C122.441 64.0098 122.444 63.8901 122.444 63.7636C122.448 63.6371 122.45 63.5174 122.45 63.4045C122.455 63.2916 122.457 63.2125 122.457 63.1674C122.457 63.0228 122.446 62.9031 122.423 62.8083C122.401 62.7134 122.369 62.6389 122.328 62.5847C122.288 62.5305 122.24 62.4921 122.186 62.4695C122.136 62.4469 122.082 62.4356 122.024 62.4356C121.884 62.4356 121.762 62.4921 121.658 62.605C121.558 62.7179 121.477 62.9076 121.414 63.1741V65.3423H120.736V60.6944L121.414 60.5995Z" fill="white"/>
<path d="M128.256 62.8015C128.256 63.1177 128.125 63.3819 127.863 63.5942C127.605 63.8065 127.246 63.9375 126.785 63.9872C126.803 64.1679 126.835 64.3147 126.88 64.4276C126.93 64.5405 126.989 64.6308 127.056 64.6986C127.124 64.7618 127.201 64.807 127.287 64.8341C127.377 64.8567 127.47 64.868 127.564 64.868C127.709 64.868 127.844 64.8431 127.971 64.7935C128.102 64.7438 128.21 64.6579 128.296 64.536C128.301 64.5676 128.303 64.5992 128.303 64.6308C128.307 64.6579 128.31 64.6828 128.31 64.7054C128.31 64.8093 128.283 64.9019 128.228 64.9832C128.179 65.0645 128.109 65.1367 128.018 65.2C127.933 65.2587 127.831 65.3039 127.713 65.3355C127.601 65.3671 127.481 65.3829 127.354 65.3829C127.201 65.3829 127.047 65.3558 126.894 65.3016C126.74 65.2429 126.6 65.1525 126.474 65.0306C126.352 64.9041 126.252 64.7415 126.175 64.5428C126.099 64.344 126.06 64.1024 126.06 63.8178C126.06 63.6281 126.081 63.4226 126.121 63.2012C126.166 62.9799 126.239 62.7744 126.338 62.5847C126.442 62.395 126.575 62.2369 126.738 62.1104C126.905 61.9839 127.11 61.9207 127.354 61.9207C127.467 61.9207 127.576 61.9343 127.68 61.9614C127.788 61.9839 127.885 62.0291 127.971 62.0969C128.057 62.1601 128.125 62.2482 128.174 62.3611C128.228 62.474 128.256 62.6208 128.256 62.8015ZM126.778 63.7229C127.099 63.6733 127.352 63.5603 127.537 63.3842C127.727 63.208 127.822 62.9912 127.822 62.7337C127.822 62.5621 127.793 62.4401 127.734 62.3679C127.675 62.2911 127.592 62.2527 127.483 62.2527C127.366 62.2527 127.262 62.2979 127.171 62.3882C127.086 62.4785 127.013 62.596 126.955 62.7405C126.896 62.8805 126.851 63.0386 126.819 63.2148C126.792 63.3864 126.778 63.5558 126.778 63.7229Z" fill="white"/>
<path d="M137.528 64.8002L138.402 60.2946H138.903L139.872 64.8002L140.746 60.2946H141.132L140.062 65.3423H139.309L138.496 61.67L137.717 65.3423H136.965L135.888 60.6469C135.716 60.6469 135.572 60.6786 135.454 60.7418C135.337 60.8005 135.242 60.8818 135.17 60.9857C135.097 61.0851 135.043 61.2003 135.007 61.3312C134.975 61.4577 134.96 61.5887 134.96 61.7242C134.96 61.9184 134.987 62.0923 135.041 62.2459C135.095 62.3995 135.174 62.5418 135.278 62.6728C135.188 62.6728 135.097 62.6592 135.007 62.6321C134.917 62.605 134.835 62.5576 134.763 62.4898C134.691 62.4221 134.632 62.3317 134.587 62.2188C134.542 62.1014 134.519 61.9546 134.519 61.7784C134.519 61.5752 134.558 61.3809 134.634 61.1957C134.711 61.0105 134.824 60.8502 134.973 60.7147C135.122 60.5747 135.305 60.464 135.522 60.3827C135.739 60.3014 135.987 60.2607 136.267 60.2607C136.317 60.2607 136.364 60.263 136.41 60.2675C136.459 60.272 136.509 60.2788 136.559 60.2878L137.528 64.8002Z" fill="white"/>
<path d="M144.695 61.9207C144.871 61.9207 145.023 61.9478 145.149 62.002C145.276 62.0562 145.38 62.133 145.461 62.2324C145.542 62.3272 145.605 62.4401 145.651 62.5711C145.7 62.7021 145.736 62.8422 145.759 62.9912H145.8C145.989 62.9912 146.163 62.9528 146.321 62.876C146.479 62.7992 146.615 62.7021 146.728 62.5847L146.83 62.7676C146.739 62.9122 146.595 63.0319 146.396 63.1267C146.202 63.2216 146.001 63.2871 145.793 63.3232C145.793 63.3684 145.793 63.4135 145.793 63.4587C145.797 63.5039 145.8 63.5513 145.8 63.601C145.8 64.1566 145.698 64.5925 145.495 64.9086C145.291 65.2248 145.007 65.3829 144.641 65.3829C144.492 65.3829 144.341 65.3558 144.187 65.3016C144.038 65.2474 143.903 65.1571 143.781 65.0306C143.659 64.9041 143.559 64.7415 143.482 64.5428C143.41 64.344 143.374 64.0979 143.374 63.8043C143.374 63.6055 143.394 63.3955 143.435 63.1741C143.48 62.9528 143.552 62.7496 143.652 62.5644C143.756 62.3792 143.891 62.2256 144.058 62.1036C144.23 61.9817 144.442 61.9207 144.695 61.9207ZM144.763 64.868C145.002 64.868 145.179 64.7505 145.291 64.5157C145.404 64.2763 145.461 63.9398 145.461 63.5061C145.461 63.479 145.461 63.4519 145.461 63.4248C145.461 63.3977 145.459 63.3706 145.454 63.3435C145.323 63.3345 145.228 63.3051 145.17 63.2554C145.115 63.2058 145.088 63.1222 145.088 63.0048C145.088 62.9009 145.111 62.8286 145.156 62.788C145.201 62.7428 145.269 62.7179 145.359 62.7134C145.305 62.5553 145.235 62.4469 145.149 62.3882C145.068 62.325 144.975 62.2933 144.871 62.2933C144.731 62.2933 144.612 62.3408 144.512 62.4356C144.417 62.526 144.338 62.6434 144.275 62.788C144.216 62.9325 144.174 63.0928 144.146 63.269C144.119 63.4406 144.106 63.61 144.106 63.7772C144.106 63.9985 144.126 64.1792 144.167 64.3192C144.207 64.4592 144.259 64.5699 144.323 64.6512C144.386 64.7325 144.456 64.7889 144.533 64.8206C144.609 64.8522 144.686 64.868 144.763 64.868Z" fill="white"/>
<path d="M149.207 61.9546V62.5237C149.261 62.4424 149.313 62.3656 149.363 62.2933C149.417 62.2211 149.476 62.1578 149.539 62.1036C149.603 62.0494 149.673 62.0065 149.749 61.9749C149.826 61.9388 149.912 61.9207 150.007 61.9207C150.16 61.9207 150.273 61.9614 150.346 62.0427C150.418 62.1194 150.454 62.2143 150.454 62.3272C150.454 62.395 150.443 62.4514 150.42 62.4966C150.397 62.5418 150.37 62.5779 150.339 62.605C150.307 62.6321 150.273 62.6524 150.237 62.666C150.201 62.675 150.169 62.6795 150.142 62.6795C150.102 62.6795 150.068 62.6705 150.041 62.6524C150.018 62.6344 149.993 62.6163 149.966 62.5982C149.944 62.5757 149.916 62.5553 149.885 62.5373C149.853 62.5192 149.813 62.5102 149.763 62.5102C149.659 62.5102 149.56 62.5463 149.465 62.6186C149.37 62.6908 149.284 62.7676 149.207 62.8489V65.3423H148.53V61.9546H149.207Z" fill="white"/>
<path d="M153.726 60.5995V64.2582C153.726 64.3034 153.728 64.3598 153.733 64.4276C153.737 64.4953 153.749 64.5631 153.767 64.6308C153.789 64.6941 153.821 64.7505 153.862 64.8002C153.902 64.8454 153.959 64.868 154.031 64.868C154.252 64.868 154.415 64.6218 154.519 64.1295H154.769C154.72 64.414 154.657 64.6399 154.58 64.807C154.503 64.9696 154.422 65.0938 154.336 65.1797C154.25 65.2655 154.162 65.3197 154.072 65.3423C153.981 65.3694 153.9 65.3829 153.828 65.3829C153.67 65.3829 153.541 65.3536 153.441 65.2948C153.342 65.2316 153.263 65.1525 153.204 65.0577C153.146 64.9628 153.105 64.8567 153.082 64.7393C153.06 64.6218 153.048 64.5089 153.048 64.4005V60.6944L153.726 60.5995Z" fill="white"/>
<path d="M159.24 60.5995V64.2582C159.24 64.3124 159.242 64.3756 159.247 64.4479C159.251 64.5157 159.263 64.5812 159.281 64.6444C159.303 64.7076 159.335 64.7618 159.375 64.807C159.421 64.8477 159.484 64.868 159.565 64.868C159.601 64.868 159.64 64.8635 159.68 64.8544C159.726 64.8454 159.762 64.8364 159.789 64.8273C159.793 64.8499 159.796 64.8702 159.796 64.8883C159.8 64.9064 159.802 64.9267 159.802 64.9493C159.802 65.0848 159.75 65.1909 159.646 65.2677C159.543 65.3445 159.425 65.3829 159.294 65.3829C159.154 65.3829 159.028 65.3355 158.915 65.2406C158.802 65.1413 158.725 64.9764 158.684 64.746C158.617 64.9222 158.506 65.0735 158.352 65.2C158.199 65.3219 158.014 65.3829 157.797 65.3829C157.661 65.3829 157.524 65.3558 157.384 65.3016C157.248 65.2429 157.126 65.1525 157.018 65.0306C156.909 64.9086 156.819 64.7505 156.747 64.5563C156.679 64.3621 156.645 64.1272 156.645 63.8517C156.645 63.6394 156.668 63.4203 156.713 63.1945C156.762 62.9641 156.837 62.7563 156.936 62.5711C157.04 62.3814 157.173 62.2256 157.336 62.1036C157.499 61.9817 157.693 61.9207 157.919 61.9207C158.036 61.9207 158.156 61.9455 158.278 61.9952C158.404 62.0449 158.499 62.1398 158.562 62.2798V60.6944L159.24 60.5995ZM157.939 64.868C158.025 64.868 158.106 64.8477 158.183 64.807C158.26 64.7664 158.325 64.7122 158.379 64.6444C158.438 64.5766 158.483 64.4999 158.515 64.414C158.547 64.3237 158.562 64.2288 158.562 64.1295V62.5847C158.531 62.5079 158.483 62.4401 158.42 62.3814C158.357 62.3227 158.267 62.2933 158.149 62.2933C158.005 62.2933 157.883 62.343 157.783 62.4424C157.684 62.5373 157.603 62.6592 157.539 62.8083C157.476 62.9573 157.429 63.1245 157.397 63.3097C157.37 63.4903 157.356 63.6642 157.356 63.8314C157.356 64.1972 157.413 64.4615 157.526 64.6241C157.639 64.7867 157.776 64.868 157.939 64.868Z" fill="white"/>
<path d="M914.696 48.8529C913.978 48.8529 913.315 48.7269 912.708 48.4749C912.102 48.2136 911.574 47.8542 911.126 47.3969C910.688 46.9396 910.347 46.4076 910.104 45.8009C909.862 45.1942 909.74 44.5409 909.74 43.8409C909.74 43.1316 909.862 42.4782 910.104 41.8809C910.347 41.2742 910.688 40.7469 911.126 40.2989C911.565 39.8416 912.083 39.4916 912.68 39.2489C913.287 38.9969 913.954 38.8709 914.682 38.8709C915.401 38.8709 916.064 38.9969 916.67 39.2489C917.286 39.5009 917.814 39.8509 918.252 40.2989C918.691 40.7469 919.032 41.2742 919.274 41.8809C919.517 42.4876 919.638 43.1456 919.638 43.8549C919.638 44.5549 919.517 45.2082 919.274 45.8149C919.032 46.4216 918.691 46.9536 918.252 47.4109C917.814 47.8682 917.291 48.2229 916.684 48.4749C916.087 48.7269 915.424 48.8529 914.696 48.8529ZM914.682 48.2789C915.541 48.2789 916.297 48.0829 916.95 47.6909C917.604 47.2989 918.112 46.7669 918.476 46.0949C918.85 45.4229 919.036 44.6716 919.036 43.8409C919.036 43.0196 918.85 42.2776 918.476 41.6149C918.112 40.9429 917.604 40.4109 916.95 40.0189C916.297 39.6269 915.541 39.4309 914.682 39.4309C913.824 39.4309 913.068 39.6269 912.414 40.0189C911.761 40.4016 911.252 40.9289 910.888 41.6009C910.524 42.2636 910.342 43.0102 910.342 43.8409C910.342 44.6716 910.524 45.4229 910.888 46.0949C911.262 46.7669 911.775 47.2989 912.428 47.6909C913.082 48.0829 913.833 48.2789 914.682 48.2789ZM914.808 46.6409C914.286 46.6409 913.81 46.5196 913.38 46.2769C912.951 46.0249 912.61 45.6889 912.358 45.2689C912.116 44.8489 911.994 44.3729 911.994 43.8409C911.994 43.3182 912.116 42.8469 912.358 42.4269C912.61 42.0069 912.951 41.6756 913.38 41.4329C913.819 41.1902 914.3 41.0689 914.822 41.0689C915.224 41.0689 915.602 41.1436 915.956 41.2929C916.311 41.4422 916.619 41.6616 916.88 41.9509L916.138 42.7069C915.97 42.5202 915.774 42.3802 915.55 42.2869C915.336 42.1936 915.093 42.1469 914.822 42.1469C914.514 42.1469 914.234 42.2216 913.982 42.3709C913.73 42.5109 913.53 42.7116 913.38 42.9729C913.24 43.2249 913.17 43.5142 913.17 43.8409C913.17 44.1769 913.24 44.4756 913.38 44.7369C913.53 44.9982 913.73 45.1989 913.982 45.3389C914.234 45.4789 914.514 45.5489 914.822 45.5489C915.102 45.5489 915.354 45.5022 915.578 45.4089C915.802 45.3062 915.989 45.1662 916.138 44.9889L916.88 45.7449C916.628 46.0342 916.32 46.2582 915.956 46.4169C915.602 46.5662 915.219 46.6409 914.808 46.6409ZM923.895 47.9149L927.479 44.1349C927.843 43.7616 928.127 43.4396 928.333 43.1689C928.538 42.8889 928.683 42.6322 928.767 42.3989C928.86 42.1656 928.907 41.9229 928.907 41.6709C928.907 41.1762 928.748 40.7889 928.431 40.5089C928.113 40.2289 927.703 40.0889 927.199 40.0889C926.704 40.0889 926.27 40.2102 925.897 40.4529C925.523 40.6862 925.192 41.0502 924.903 41.5449L923.979 40.7749C924.361 40.1402 924.823 39.6642 925.365 39.3469C925.906 39.0202 926.531 38.8569 927.241 38.8569C927.838 38.8569 928.356 38.9736 928.795 39.2069C929.243 39.4402 929.588 39.7669 929.831 40.1869C930.073 40.6069 930.195 41.0969 930.195 41.6569C930.195 42.0582 930.143 42.4176 930.041 42.7349C929.947 43.0522 929.775 43.3789 929.523 43.7149C929.28 44.0416 928.939 44.4336 928.501 44.8909L925.603 47.8729L923.895 47.9149ZM923.895 48.7129V47.9149L925.015 47.5369H930.419V48.7129H923.895ZM935.627 48.8529C934.899 48.8529 934.232 48.6476 933.625 48.2369C933.028 47.8262 932.552 47.2476 932.197 46.5009C931.842 45.7449 931.665 44.8582 931.665 43.8409C931.665 42.8236 931.838 41.9416 932.183 41.1949C932.538 40.4482 933.014 39.8742 933.611 39.4729C934.208 39.0622 934.866 38.8569 935.585 38.8569C936.322 38.8569 936.99 39.0622 937.587 39.4729C938.184 39.8742 938.656 40.4482 939.001 41.1949C939.356 41.9416 939.533 42.8282 939.533 43.8549C939.533 44.8722 939.356 45.7589 939.001 46.5149C938.656 47.2616 938.184 47.8402 937.587 48.2509C936.999 48.6522 936.346 48.8529 935.627 48.8529ZM935.599 47.6069C936.112 47.6069 936.56 47.4669 936.943 47.1869C937.335 46.8976 937.643 46.4729 937.867 45.9129C938.091 45.3529 938.203 44.6622 938.203 43.8409C938.203 43.0196 938.091 42.3336 937.867 41.7829C937.643 41.2229 937.335 40.8029 936.943 40.5229C936.551 40.2336 936.098 40.0889 935.585 40.0889C935.081 40.0889 934.633 40.2336 934.241 40.5229C933.849 40.8029 933.541 41.2229 933.317 41.7829C933.102 42.3336 932.995 43.0196 932.995 43.8409C932.995 44.6622 933.102 45.3529 933.317 45.9129C933.541 46.4729 933.849 46.8976 934.241 47.1869C934.633 47.4669 935.086 47.6069 935.599 47.6069ZM940.629 47.9149L944.213 44.1349C944.577 43.7616 944.862 43.4396 945.067 43.1689C945.272 42.8889 945.417 42.6322 945.501 42.3989C945.594 42.1656 945.641 41.9229 945.641 41.6709C945.641 41.1762 945.482 40.7889 945.165 40.5089C944.848 40.2289 944.437 40.0889 943.933 40.0889C943.438 40.0889 943.004 40.2102 942.631 40.4529C942.258 40.6862 941.926 41.0502 941.637 41.5449L940.713 40.7749C941.096 40.1402 941.558 39.6642 942.099 39.3469C942.64 39.0202 943.266 38.8569 943.975 38.8569C944.572 38.8569 945.09 38.9736 945.529 39.2069C945.977 39.4402 946.322 39.7669 946.565 40.1869C946.808 40.6069 946.929 41.0969 946.929 41.6569C946.929 42.0582 946.878 42.4176 946.775 42.7349C946.682 43.0522 946.509 43.3789 946.257 43.7149C946.014 44.0416 945.674 44.4336 945.235 44.8909L942.337 47.8729L940.629 47.9149ZM940.629 48.7129V47.9149L941.749 47.5369H947.153V48.7129H940.629ZM948.203 45.3669L951.745 38.9969H953.229L949.617 45.3669H948.203ZM948.203 46.1789V45.3669L948.763 45.0029H955.651V46.1789H948.203ZM952.949 48.7129V42.2869H954.251V48.7129H952.949ZM959.058 48.7129L963.034 38.9969H963.986L967.948 48.7129H966.52L963.258 40.4949H963.748L960.458 48.7129H959.058ZM960.948 46.5149V45.3669H966.058V46.5149H960.948ZM969.647 48.7129V41.0689C969.647 40.5742 969.754 40.1449 969.969 39.7809C970.183 39.4076 970.477 39.1136 970.851 38.8989C971.233 38.6842 971.677 38.5769 972.181 38.5769C972.563 38.5769 972.895 38.6422 973.175 38.7729C973.455 38.9036 973.711 39.0949 973.945 39.3469L973.119 40.1589C972.997 40.0282 972.862 39.9302 972.713 39.8649C972.563 39.7902 972.381 39.7529 972.167 39.7529C971.765 39.7529 971.453 39.8696 971.229 40.1029C971.014 40.3362 970.907 40.6582 970.907 41.0689V48.7129H969.647ZM968.009 43.2109V42.0629H973.021V43.2109H968.009ZM974.04 48.7129V42.0629H975.3V48.7129H974.04ZM975.3 44.9189L974.824 44.7089C974.824 43.8596 975.02 43.1829 975.412 42.6789C975.804 42.1749 976.369 41.9229 977.106 41.9229C977.442 41.9229 977.746 41.9836 978.016 42.1049C978.287 42.2169 978.539 42.4082 978.772 42.6789L977.946 43.5329C977.806 43.3836 977.652 43.2762 977.484 43.2109C977.316 43.1456 977.12 43.1129 976.896 43.1129C976.43 43.1129 976.047 43.2622 975.748 43.5609C975.45 43.8596 975.3 44.3122 975.3 44.9189ZM982.333 48.8529C981.792 48.8529 981.302 48.7316 980.863 48.4889C980.434 48.2369 980.098 47.8916 979.855 47.4529C979.613 47.0142 979.491 46.5056 979.491 45.9269V42.0629H980.751V45.8709C980.751 46.2349 980.812 46.5522 980.933 46.8229C981.064 47.0842 981.251 47.2849 981.493 47.4249C981.736 47.5649 982.021 47.6349 982.347 47.6349C982.842 47.6349 983.229 47.4809 983.509 47.1729C983.789 46.8556 983.929 46.4216 983.929 45.8709V42.0629H985.189V45.9269C985.189 46.5056 985.068 47.0142 984.825 47.4529C984.583 47.8916 984.247 48.2369 983.817 48.4889C983.397 48.7316 982.903 48.8529 982.333 48.8529ZM991.582 48.7129V44.8349C991.582 44.3309 991.423 43.9156 991.106 43.5889C990.789 43.2622 990.378 43.0989 989.874 43.0989C989.538 43.0989 989.239 43.1736 988.978 43.3229C988.717 43.4722 988.511 43.6776 988.362 43.9389C988.213 44.2002 988.138 44.4989 988.138 44.8349L987.62 44.5409C987.62 44.0369 987.732 43.5889 987.956 43.1969C988.18 42.8049 988.493 42.4969 988.894 42.2729C989.295 42.0396 989.748 41.9229 990.252 41.9229C990.756 41.9229 991.199 42.0489 991.582 42.3009C991.974 42.5529 992.282 42.8842 992.506 43.2949C992.73 43.6962 992.842 44.1256 992.842 44.5829V48.7129H991.582ZM986.878 48.7129V42.0629H988.138V48.7129H986.878ZM997.376 48.8529C996.769 48.8529 996.219 48.7036 995.724 48.4049C995.229 48.0969 994.837 47.6816 994.548 47.1589C994.268 46.6362 994.128 46.0482 994.128 45.3949C994.128 44.7416 994.268 44.1536 994.548 43.6309C994.837 43.1082 995.225 42.6929 995.71 42.3849C996.205 42.0769 996.76 41.9229 997.376 41.9229C997.88 41.9229 998.328 42.0302 998.72 42.2449C999.121 42.4502 999.443 42.7396 999.686 43.1129C999.929 43.4769 1000.06 43.9016 1000.09 44.3869V46.3889C1000.06 46.8649 999.929 47.2896 999.686 47.6629C999.453 48.0362 999.135 48.3302 998.734 48.5449C998.342 48.7502 997.889 48.8529 997.376 48.8529ZM997.586 47.6629C998.211 47.6629 998.715 47.4529 999.098 47.0329C999.481 46.6036 999.672 46.0576 999.672 45.3949C999.672 44.9376 999.583 44.5409 999.406 44.2049C999.238 43.8596 998.995 43.5936 998.678 43.4069C998.361 43.2109 997.992 43.1129 997.572 43.1129C997.152 43.1129 996.779 43.2109 996.452 43.4069C996.135 43.6029 995.883 43.8736 995.696 44.2189C995.519 44.5549 995.43 44.9422 995.43 45.3809C995.43 45.8289 995.519 46.2256 995.696 46.5709C995.883 46.9069 996.139 47.1729 996.466 47.3689C996.793 47.5649 997.166 47.6629 997.586 47.6629ZM999.588 48.7129V46.9209L999.826 45.2969L999.588 43.6869V42.0629H1000.86V48.7129H999.588ZM1010.23 48.8529C1009.55 48.8529 1008.91 48.7269 1008.31 48.4749C1007.72 48.2136 1007.2 47.8542 1006.76 47.3969C1006.32 46.9396 1005.97 46.4076 1005.72 45.8009C1005.47 45.1942 1005.34 44.5409 1005.34 43.8409C1005.34 43.1409 1005.47 42.4922 1005.72 41.8949C1005.97 41.2882 1006.32 40.7562 1006.77 40.2989C1007.22 39.8416 1007.74 39.4869 1008.34 39.2349C1008.95 38.9829 1009.6 38.8569 1010.31 38.8569C1011.09 38.8569 1011.8 39.0062 1012.45 39.3049C1013.11 39.6036 1013.65 40.0329 1014.09 40.5929L1013.18 41.5029C1012.87 41.0549 1012.47 40.7142 1011.96 40.4809C1011.46 40.2382 1010.91 40.1169 1010.31 40.1169C1009.6 40.1169 1008.97 40.2756 1008.42 40.5929C1007.88 40.9102 1007.46 41.3489 1007.15 41.9089C1006.85 42.4689 1006.7 43.1129 1006.7 43.8409C1006.7 44.5782 1006.85 45.2269 1007.16 45.7869C1007.47 46.3469 1007.89 46.7856 1008.41 47.1029C1008.93 47.4202 1009.53 47.5789 1010.2 47.5789C1010.88 47.5789 1011.47 47.4482 1011.96 47.1869C1012.47 46.9256 1012.86 46.5429 1013.13 46.0389C1013.4 45.5256 1013.53 44.9002 1013.53 44.1629L1014.33 44.7369H1010.13V43.5329H1014.89V43.7289C1014.89 44.8582 1014.69 45.8056 1014.29 46.5709C1013.9 47.3269 1013.35 47.8962 1012.64 48.2789C1011.94 48.6616 1011.13 48.8529 1010.23 48.8529ZM1016.44 48.7129V38.7169H1017.7V48.7129H1016.44ZM1022.58 48.8529C1021.92 48.8529 1021.34 48.6989 1020.81 48.3909C1020.29 48.0829 1019.88 47.6676 1019.57 47.1449C1019.26 46.6129 1019.11 46.0202 1019.11 45.3669C1019.11 44.7229 1019.26 44.1442 1019.57 43.6309C1019.88 43.1082 1020.29 42.6929 1020.81 42.3849C1021.34 42.0769 1021.92 41.9229 1022.58 41.9229C1023.22 41.9229 1023.81 42.0769 1024.33 42.3849C1024.86 42.6836 1025.28 43.0942 1025.59 43.6169C1025.9 44.1396 1026.05 44.7229 1026.05 45.3669C1026.05 46.0202 1025.9 46.6129 1025.59 47.1449C1025.28 47.6676 1024.86 48.0829 1024.33 48.3909C1023.81 48.6989 1023.22 48.8529 1022.58 48.8529ZM1022.58 47.6349C1023 47.6349 1023.37 47.5369 1023.7 47.3409C1024.02 47.1449 1024.28 46.8789 1024.47 46.5429C1024.65 46.1976 1024.75 45.8056 1024.75 45.3669C1024.75 44.9376 1024.65 44.5549 1024.45 44.2189C1024.27 43.8829 1024.01 43.6216 1023.68 43.4349C1023.37 43.2389 1023 43.1409 1022.58 43.1409C1022.16 43.1409 1021.78 43.2389 1021.46 43.4349C1021.13 43.6216 1020.87 43.8829 1020.69 44.2189C1020.5 44.5549 1020.41 44.9376 1020.41 45.3669C1020.41 45.8056 1020.5 46.1976 1020.69 46.5429C1020.87 46.8789 1021.13 47.1449 1021.46 47.3409C1021.78 47.5369 1022.16 47.6349 1022.58 47.6349ZM1030.97 48.8529C1030.47 48.8529 1030.01 48.7502 1029.6 48.5449C1029.2 48.3302 1028.87 48.0362 1028.63 47.6629C1028.39 47.2896 1028.25 46.8649 1028.23 46.3889V44.3869C1028.25 43.9016 1028.39 43.4769 1028.63 43.1129C1028.88 42.7396 1029.21 42.4502 1029.61 42.2449C1030.02 42.0302 1030.48 41.9229 1030.97 41.9229C1031.58 41.9229 1032.12 42.0769 1032.61 42.3849C1033.1 42.6929 1033.49 43.1082 1033.77 43.6309C1034.05 44.1536 1034.19 44.7416 1034.19 45.3949C1034.19 46.0482 1034.05 46.6362 1033.77 47.1589C1033.49 47.6816 1033.1 48.0969 1032.61 48.4049C1032.12 48.7036 1031.58 48.8529 1030.97 48.8529ZM1030.76 47.6629C1031.18 47.6629 1031.55 47.5649 1031.87 47.3689C1032.18 47.1729 1032.44 46.9069 1032.62 46.5709C1032.81 46.2256 1032.9 45.8289 1032.9 45.3809C1032.9 44.9422 1032.81 44.5502 1032.62 44.2049C1032.44 43.8596 1032.18 43.5936 1031.87 43.4069C1031.55 43.2109 1031.18 43.1129 1030.77 43.1129C1030.35 43.1129 1029.99 43.2109 1029.67 43.4069C1029.35 43.5936 1029.1 43.8596 1028.93 44.2049C1028.75 44.5502 1028.66 44.9469 1028.66 45.3949C1028.66 45.8336 1028.74 46.2256 1028.91 46.5709C1029.09 46.9069 1029.34 47.1729 1029.65 47.3689C1029.98 47.5649 1030.35 47.6629 1030.76 47.6629ZM1027.47 48.7129V38.7169H1028.73V43.6869L1028.49 45.2969L1028.73 46.9209V48.7129H1027.47ZM1038.45 48.8529C1037.84 48.8529 1037.29 48.7036 1036.79 48.4049C1036.3 48.0969 1035.91 47.6816 1035.62 47.1589C1035.34 46.6362 1035.2 46.0482 1035.2 45.3949C1035.2 44.7416 1035.34 44.1536 1035.62 43.6309C1035.91 43.1082 1036.3 42.6929 1036.78 42.3849C1037.28 42.0769 1037.83 41.9229 1038.45 41.9229C1038.95 41.9229 1039.4 42.0302 1039.79 42.2449C1040.19 42.4502 1040.51 42.7396 1040.76 43.1129C1041 43.4769 1041.13 43.9016 1041.16 44.3869V46.3889C1041.13 46.8649 1041 47.2896 1040.76 47.6629C1040.52 48.0362 1040.21 48.3302 1039.8 48.5449C1039.41 48.7502 1038.96 48.8529 1038.45 48.8529ZM1038.66 47.6629C1039.28 47.6629 1039.79 47.4529 1040.17 47.0329C1040.55 46.6036 1040.74 46.0576 1040.74 45.3949C1040.74 44.9376 1040.65 44.5409 1040.48 44.2049C1040.31 43.8596 1040.07 43.5936 1039.75 43.4069C1039.43 43.2109 1039.06 43.1129 1038.64 43.1129C1038.22 43.1129 1037.85 43.2109 1037.52 43.4069C1037.21 43.6029 1036.95 43.8736 1036.77 44.2189C1036.59 44.5549 1036.5 44.9422 1036.5 45.3809C1036.5 45.8289 1036.59 46.2256 1036.77 46.5709C1036.95 46.9069 1037.21 47.1729 1037.54 47.3689C1037.86 47.5649 1038.24 47.6629 1038.66 47.6629ZM1040.66 48.7129V46.9209L1040.9 45.2969L1040.66 43.6869V42.0629H1041.93V48.7129H1040.66ZM1043.77 48.7129V38.7169H1045.03V48.7129H1043.77ZM1054.42 48.8529C1053.72 48.8529 1053.07 48.7269 1052.47 48.4749C1051.87 48.2136 1051.35 47.8542 1050.9 47.3969C1050.46 46.9396 1050.12 46.4076 1049.88 45.8009C1049.64 45.1942 1049.52 44.5456 1049.52 43.8549C1049.52 43.1549 1049.64 42.5016 1049.88 41.8949C1050.12 41.2882 1050.46 40.7609 1050.9 40.3129C1051.35 39.8556 1051.87 39.5009 1052.46 39.2489C1053.05 38.9876 1053.7 38.8569 1054.4 38.8569C1055.17 38.8569 1055.84 38.9876 1056.42 39.2489C1057 39.5102 1057.51 39.8649 1057.96 40.3129L1057.05 41.2229C1056.74 40.8776 1056.36 40.6069 1055.91 40.4109C1055.48 40.2149 1054.97 40.1169 1054.4 40.1169C1053.89 40.1169 1053.42 40.2102 1052.99 40.3969C1052.56 40.5742 1052.19 40.8309 1051.87 41.1669C1051.55 41.5029 1051.3 41.8996 1051.13 42.3569C1050.96 42.8142 1050.87 43.3136 1050.87 43.8549C1050.87 44.3962 1050.96 44.8956 1051.13 45.3529C1051.3 45.8102 1051.55 46.2069 1051.87 46.5429C1052.19 46.8789 1052.56 47.1402 1052.99 47.3269C1053.42 47.5042 1053.89 47.5929 1054.4 47.5929C1055.01 47.5929 1055.54 47.4949 1055.98 47.2989C1056.43 47.0936 1056.81 46.8182 1057.12 46.4729L1058.03 47.3689C1057.58 47.8356 1057.05 48.1996 1056.45 48.4609C1055.85 48.7222 1055.17 48.8529 1054.42 48.8529ZM1062.23 48.8529C1061.57 48.8529 1060.99 48.6989 1060.46 48.3909C1059.94 48.0829 1059.52 47.6676 1059.22 47.1449C1058.91 46.6129 1058.75 46.0202 1058.75 45.3669C1058.75 44.7229 1058.91 44.1442 1059.22 43.6309C1059.52 43.1082 1059.94 42.6929 1060.46 42.3849C1060.99 42.0769 1061.57 41.9229 1062.23 41.9229C1062.87 41.9229 1063.45 42.0769 1063.98 42.3849C1064.51 42.6836 1064.93 43.0942 1065.24 43.6169C1065.54 44.1396 1065.7 44.7229 1065.7 45.3669C1065.7 46.0202 1065.54 46.6129 1065.24 47.1449C1064.93 47.6676 1064.51 48.0829 1063.98 48.3909C1063.45 48.6989 1062.87 48.8529 1062.23 48.8529ZM1062.23 47.6349C1062.65 47.6349 1063.02 47.5369 1063.35 47.3409C1063.67 47.1449 1063.93 46.8789 1064.12 46.5429C1064.3 46.1976 1064.4 45.8056 1064.4 45.3669C1064.4 44.9376 1064.3 44.5549 1064.1 44.2189C1063.92 43.8829 1063.66 43.6216 1063.33 43.4349C1063.02 43.2389 1062.65 43.1409 1062.23 43.1409C1061.81 43.1409 1061.43 43.2389 1061.11 43.4349C1060.78 43.6216 1060.52 43.8829 1060.34 44.2189C1060.15 44.5549 1060.06 44.9376 1060.06 45.3669C1060.06 45.8056 1060.15 46.1976 1060.34 46.5429C1060.52 46.8789 1060.78 47.1449 1061.11 47.3409C1061.43 47.5369 1061.81 47.6349 1062.23 47.6349ZM1067.12 48.7129V42.0629H1068.38V48.7129H1067.12ZM1071.61 48.7129V44.6949C1071.61 44.2002 1071.46 43.8129 1071.15 43.5329C1070.85 43.2436 1070.47 43.0989 1070.02 43.0989C1069.71 43.0989 1069.43 43.1642 1069.19 43.2949C1068.95 43.4256 1068.75 43.6076 1068.6 43.8409C1068.45 44.0742 1068.38 44.3542 1068.38 44.6809L1067.86 44.4289C1067.86 43.9249 1067.97 43.4862 1068.18 43.1129C1068.41 42.7396 1068.71 42.4502 1069.09 42.2449C1069.48 42.0302 1069.9 41.9229 1070.38 41.9229C1070.85 41.9229 1071.27 42.0256 1071.64 42.2309C1072.02 42.4362 1072.32 42.7256 1072.54 43.0989C1072.76 43.4722 1072.87 43.9156 1072.87 44.4289V48.7129H1071.61ZM1076.11 48.7129V44.6949C1076.11 44.2002 1075.95 43.8129 1075.64 43.5329C1075.35 43.2436 1074.97 43.0989 1074.52 43.0989C1074.22 43.0989 1073.94 43.1642 1073.68 43.2949C1073.44 43.4256 1073.25 43.6076 1073.1 43.8409C1072.95 44.0742 1072.87 44.3542 1072.87 44.6809L1072.16 44.4289C1072.19 43.9156 1072.32 43.4769 1072.56 43.1129C1072.82 42.7396 1073.14 42.4502 1073.53 42.2449C1073.92 42.0302 1074.35 41.9229 1074.82 41.9229C1075.3 41.9229 1075.74 42.0256 1076.12 42.2309C1076.5 42.4362 1076.81 42.7256 1077.03 43.0989C1077.26 43.4722 1077.38 43.9202 1077.38 44.4429V48.7129H1076.11ZM1082.59 48.8529C1082.09 48.8529 1081.63 48.7502 1081.22 48.5449C1080.82 48.3302 1080.5 48.0362 1080.26 47.6629C1080.01 47.2896 1079.88 46.8649 1079.85 46.3889V44.3869C1079.88 43.9016 1080.01 43.4769 1080.26 43.1129C1080.51 42.7396 1080.84 42.4502 1081.24 42.2449C1081.65 42.0302 1082.1 41.9229 1082.59 41.9229C1083.2 41.9229 1083.75 42.0769 1084.23 42.3849C1084.73 42.6929 1085.11 43.1082 1085.39 43.6309C1085.67 44.1536 1085.81 44.7416 1085.81 45.3949C1085.81 46.0482 1085.67 46.6362 1085.39 47.1589C1085.11 47.6816 1084.73 48.0969 1084.23 48.4049C1083.75 48.7036 1083.2 48.8529 1082.59 48.8529ZM1082.38 47.6629C1082.8 47.6629 1083.17 47.5649 1083.49 47.3689C1083.81 47.1729 1084.06 46.9069 1084.25 46.5709C1084.43 46.2256 1084.53 45.8289 1084.53 45.3809C1084.53 44.9422 1084.43 44.5502 1084.25 44.2049C1084.06 43.8596 1083.81 43.5936 1083.49 43.4069C1083.17 43.2109 1082.81 43.1129 1082.4 43.1129C1081.98 43.1129 1081.61 43.2109 1081.29 43.4069C1080.98 43.5936 1080.73 43.8596 1080.55 44.2049C1080.37 44.5502 1080.28 44.9469 1080.28 45.3949C1080.28 45.8336 1080.37 46.2256 1080.54 46.5709C1080.71 46.9069 1080.96 47.1729 1081.28 47.3689C1081.61 47.5649 1081.97 47.6629 1082.38 47.6629ZM1079.09 51.4989V42.0629H1080.35V43.8129L1080.12 45.4229L1080.35 47.0469V51.4989H1079.09ZM1090.07 48.8529C1089.46 48.8529 1088.91 48.7036 1088.42 48.4049C1087.92 48.0969 1087.53 47.6816 1087.24 47.1589C1086.96 46.6362 1086.82 46.0482 1086.82 45.3949C1086.82 44.7416 1086.96 44.1536 1087.24 43.6309C1087.53 43.1082 1087.92 42.6929 1088.41 42.3849C1088.9 42.0769 1089.46 41.9229 1090.07 41.9229C1090.58 41.9229 1091.02 42.0302 1091.42 42.2449C1091.82 42.4502 1092.14 42.7396 1092.38 43.1129C1092.62 43.4769 1092.76 43.9016 1092.79 44.3869V46.3889C1092.76 46.8649 1092.62 47.2896 1092.38 47.6629C1092.15 48.0362 1091.83 48.3302 1091.43 48.5449C1091.04 48.7502 1090.58 48.8529 1090.07 48.8529ZM1090.28 47.6629C1090.91 47.6629 1091.41 47.4529 1091.79 47.0329C1092.18 46.6036 1092.37 46.0576 1092.37 45.3949C1092.37 44.9376 1092.28 44.5409 1092.1 44.2049C1091.93 43.8596 1091.69 43.5936 1091.37 43.4069C1091.06 43.2109 1090.69 43.1129 1090.27 43.1129C1089.85 43.1129 1089.47 43.2109 1089.15 43.4069C1088.83 43.6029 1088.58 43.8736 1088.39 44.2189C1088.21 44.5549 1088.13 44.9422 1088.13 45.3809C1088.13 45.8289 1088.21 46.2256 1088.39 46.5709C1088.58 46.9069 1088.83 47.1729 1089.16 47.3689C1089.49 47.5649 1089.86 47.6629 1090.28 47.6629ZM1092.28 48.7129V46.9209L1092.52 45.2969L1092.28 43.6869V42.0629H1093.56V48.7129H1092.28ZM1100.1 48.7129V44.8349C1100.1 44.3309 1099.94 43.9156 1099.62 43.5889C1099.3 43.2622 1098.89 43.0989 1098.39 43.0989C1098.05 43.0989 1097.75 43.1736 1097.49 43.3229C1097.23 43.4722 1097.03 43.6776 1096.88 43.9389C1096.73 44.2002 1096.65 44.4989 1096.65 44.8349L1096.13 44.5409C1096.13 44.0369 1096.25 43.5889 1096.47 43.1969C1096.69 42.8049 1097.01 42.4969 1097.41 42.2729C1097.81 42.0396 1098.26 41.9229 1098.77 41.9229C1099.27 41.9229 1099.71 42.0489 1100.1 42.3009C1100.49 42.5529 1100.8 42.8842 1101.02 43.2949C1101.24 43.6962 1101.36 44.1256 1101.36 44.5829V48.7129H1100.1ZM1095.39 48.7129V42.0629H1096.65V48.7129H1095.39ZM1105.25 48.7689L1102.36 42.0629H1103.76L1105.9 47.3129H1105.46L1107.71 42.0629H1109.11L1106 48.7689H1105.25ZM1103.34 51.4989L1105.3 47.4809L1106 48.7689L1104.74 51.4989H1103.34ZM1113.61 50.5329V38.0169H1114.76V50.5329H1113.61ZM1119.09 48.7129L1123.06 38.9969H1124.02L1127.98 48.7129H1126.55L1123.29 40.4949H1123.78L1120.49 48.7129H1119.09ZM1120.98 46.5149V45.3669H1126.09V46.5149H1120.98ZM1129.33 48.7129V38.7169H1130.59V48.7129H1129.33ZM1132.43 48.7129V38.7169H1133.69V48.7129H1132.43ZM1139.55 44.4849V43.3789H1142.18C1142.75 43.3789 1143.19 43.2342 1143.5 42.9449C1143.81 42.6556 1143.96 42.2636 1143.96 41.7689C1143.96 41.3022 1143.81 40.9149 1143.5 40.6069C1143.2 40.2989 1142.77 40.1449 1142.2 40.1449H1139.55V38.9969H1142.24C1142.85 38.9969 1143.39 39.1182 1143.85 39.3609C1144.31 39.5942 1144.66 39.9162 1144.9 40.3269C1145.15 40.7376 1145.28 41.2089 1145.28 41.7409C1145.28 42.2916 1145.15 42.7722 1144.9 43.1829C1144.66 43.5936 1144.31 43.9156 1143.85 44.1489C1143.39 44.3729 1142.85 44.4849 1142.24 44.4849H1139.55ZM1138.67 48.7129V38.9969H1139.98V48.7129H1138.67ZM1144.27 48.7129L1140.74 44.3589L1141.99 43.9249L1145.93 48.7129H1144.27ZM1147.28 48.7129V42.0629H1148.54V48.7129H1147.28ZM1147.91 40.7329C1147.67 40.7329 1147.48 40.6582 1147.33 40.5089C1147.18 40.3502 1147.11 40.1542 1147.11 39.9209C1147.11 39.6969 1147.18 39.5102 1147.33 39.3609C1147.48 39.2022 1147.67 39.1229 1147.91 39.1229C1148.14 39.1229 1148.33 39.2022 1148.48 39.3609C1148.63 39.5102 1148.7 39.6969 1148.7 39.9209C1148.7 40.1542 1148.63 40.3502 1148.48 40.5089C1148.33 40.6582 1148.14 40.7329 1147.91 40.7329ZM1153.15 51.6389C1152.47 51.6389 1151.86 51.5129 1151.33 51.2609C1150.81 51.0089 1150.39 50.6542 1150.07 50.1969L1150.88 49.3709C1151.15 49.7162 1151.48 49.9776 1151.85 50.1549C1152.22 50.3416 1152.67 50.4349 1153.18 50.4349C1153.86 50.4349 1154.4 50.2529 1154.79 49.8889C1155.19 49.5342 1155.39 49.0536 1155.39 48.4469V46.7949L1155.62 45.2969L1155.39 43.8129V42.0629H1156.65V48.4469C1156.65 49.0816 1156.5 49.6369 1156.2 50.1129C1155.91 50.5889 1155.5 50.9622 1154.97 51.2329C1154.45 51.5036 1153.84 51.6389 1153.15 51.6389ZM1153.15 48.6009C1152.55 48.6009 1152 48.4562 1151.51 48.1669C1151.04 47.8776 1150.66 47.4809 1150.38 46.9769C1150.1 46.4636 1149.96 45.8896 1149.96 45.2549C1149.96 44.6202 1150.1 44.0556 1150.38 43.5609C1150.66 43.0569 1151.04 42.6602 1151.51 42.3709C1152 42.0722 1152.55 41.9229 1153.15 41.9229C1153.67 41.9229 1154.14 42.0256 1154.54 42.2309C1154.94 42.4362 1155.26 42.7256 1155.49 43.0989C1155.73 43.4629 1155.86 43.8922 1155.88 44.3869V46.1509C1155.85 46.6362 1155.72 47.0656 1155.48 47.4389C1155.24 47.8029 1154.93 48.0876 1154.52 48.2929C1154.12 48.4982 1153.67 48.6009 1153.15 48.6009ZM1153.4 47.4109C1153.81 47.4109 1154.17 47.3222 1154.48 47.1449C1154.8 46.9676 1155.04 46.7202 1155.21 46.4029C1155.38 46.0762 1155.46 45.6982 1155.46 45.2689C1155.46 44.8396 1155.37 44.4662 1155.2 44.1489C1155.03 43.8222 1154.79 43.5702 1154.48 43.3929C1154.17 43.2062 1153.81 43.1129 1153.39 43.1129C1152.97 43.1129 1152.6 43.2062 1152.28 43.3929C1151.97 43.5702 1151.71 43.8222 1151.53 44.1489C1151.35 44.4662 1151.26 44.8349 1151.26 45.2549C1151.26 45.6749 1151.35 46.0482 1151.53 46.3749C1151.71 46.7016 1151.97 46.9582 1152.28 47.1449C1152.61 47.3222 1152.98 47.4109 1153.4 47.4109ZM1163.21 48.7129V44.8349C1163.21 44.3309 1163.05 43.9156 1162.73 43.5889C1162.41 43.2622 1162 43.0989 1161.5 43.0989C1161.16 43.0989 1160.86 43.1736 1160.6 43.3229C1160.34 43.4722 1160.13 43.6776 1159.99 43.9389C1159.84 44.2002 1159.76 44.4989 1159.76 44.8349L1159.24 44.5409C1159.24 44.0369 1159.36 43.5889 1159.58 43.1969C1159.8 42.8049 1160.12 42.4969 1160.52 42.2729C1160.92 42.0396 1161.37 41.9229 1161.88 41.9229C1162.38 41.9229 1162.82 42.0349 1163.21 42.2589C1163.6 42.4829 1163.91 42.7956 1164.13 43.1969C1164.35 43.5982 1164.47 44.0602 1164.47 44.5829V48.7129H1163.21ZM1158.5 48.7129V38.7169H1159.76V48.7129H1158.5ZM1167.11 48.7129V39.2769H1168.37V48.7129H1167.11ZM1165.47 43.2109V42.0629H1170.01V43.2109H1165.47ZM1173.22 48.8529C1172.85 48.8529 1172.49 48.8062 1172.16 48.7129C1171.83 48.6102 1171.53 48.4702 1171.25 48.2929C1170.97 48.1062 1170.72 47.8869 1170.52 47.6349L1171.33 46.8229C1171.57 47.1216 1171.85 47.3456 1172.17 47.4949C1172.49 47.6349 1172.84 47.7049 1173.23 47.7049C1173.63 47.7049 1173.93 47.6396 1174.14 47.5089C1174.36 47.3689 1174.47 47.1776 1174.47 46.9349C1174.47 46.6922 1174.38 46.5056 1174.2 46.3749C1174.03 46.2349 1173.81 46.1229 1173.54 46.0389C1173.27 45.9456 1172.98 45.8569 1172.67 45.7729C1172.38 45.6796 1172.09 45.5629 1171.82 45.4229C1171.55 45.2829 1171.33 45.0916 1171.15 44.8489C1170.98 44.6062 1170.9 44.2842 1170.9 43.8829C1170.9 43.4816 1170.99 43.1362 1171.19 42.8469C1171.39 42.5482 1171.66 42.3196 1172 42.1609C1172.36 42.0022 1172.78 41.9229 1173.28 41.9229C1173.8 41.9229 1174.26 42.0162 1174.66 42.2029C1175.07 42.3802 1175.41 42.6509 1175.67 43.0149L1174.86 43.8269C1174.67 43.5842 1174.44 43.3976 1174.16 43.2669C1173.89 43.1362 1173.58 43.0709 1173.23 43.0709C1172.87 43.0709 1172.59 43.1362 1172.39 43.2669C1172.21 43.3882 1172.11 43.5609 1172.11 43.7849C1172.11 44.0089 1172.2 44.1816 1172.37 44.3029C1172.53 44.4242 1172.75 44.5269 1173.02 44.6109C1173.3 44.6949 1173.59 44.7836 1173.89 44.8769C1174.19 44.9609 1174.48 45.0776 1174.75 45.2269C1175.02 45.3762 1175.24 45.5769 1175.4 45.8289C1175.58 46.0809 1175.67 46.4122 1175.67 46.8229C1175.67 47.4482 1175.45 47.9429 1175 48.3069C1174.56 48.6709 1173.97 48.8529 1173.22 48.8529ZM1181.1 44.4849V43.3789H1183.73C1184.3 43.3789 1184.74 43.2342 1185.05 42.9449C1185.36 42.6556 1185.51 42.2636 1185.51 41.7689C1185.51 41.3022 1185.36 40.9149 1185.05 40.6069C1184.75 40.2989 1184.31 40.1449 1183.75 40.1449H1181.1V38.9969H1183.79C1184.4 38.9969 1184.94 39.1182 1185.4 39.3609C1185.85 39.5942 1186.2 39.9162 1186.45 40.3269C1186.7 40.7376 1186.83 41.2089 1186.83 41.7409C1186.83 42.2916 1186.7 42.7722 1186.45 43.1829C1186.2 43.5936 1185.85 43.9156 1185.4 44.1489C1184.94 44.3729 1184.4 44.4849 1183.79 44.4849H1181.1ZM1180.22 48.7129V38.9969H1181.53V48.7129H1180.22ZM1185.82 48.7129L1182.29 44.3589L1183.54 43.9249L1187.48 48.7129H1185.82ZM1191.48 48.8529C1190.82 48.8529 1190.22 48.7036 1189.69 48.4049C1189.16 48.0969 1188.74 47.6816 1188.43 47.1589C1188.12 46.6362 1187.97 46.0436 1187.97 45.3809C1187.97 44.7276 1188.12 44.1396 1188.42 43.6169C1188.72 43.0942 1189.13 42.6836 1189.65 42.3849C1190.17 42.0769 1190.75 41.9229 1191.4 41.9229C1192.01 41.9229 1192.55 42.0629 1193.02 42.3429C1193.5 42.6229 1193.87 43.0102 1194.13 43.5049C1194.4 43.9996 1194.53 44.5596 1194.53 45.1849C1194.53 45.2782 1194.53 45.3809 1194.52 45.4929C1194.51 45.5956 1194.49 45.7169 1194.46 45.8569H1188.85V44.8069H1193.79L1193.33 45.2129C1193.33 44.7649 1193.25 44.3869 1193.09 44.0789C1192.93 43.7616 1192.71 43.5189 1192.42 43.3509C1192.13 43.1736 1191.78 43.0849 1191.37 43.0849C1190.94 43.0849 1190.56 43.1782 1190.24 43.3649C1189.91 43.5516 1189.66 43.8129 1189.48 44.1489C1189.3 44.4849 1189.21 44.8816 1189.21 45.3389C1189.21 45.8056 1189.31 46.2162 1189.49 46.5709C1189.68 46.9162 1189.95 47.1869 1190.29 47.3829C1190.64 47.5696 1191.03 47.6629 1191.48 47.6629C1191.85 47.6629 1192.2 47.5976 1192.5 47.4669C1192.82 47.3362 1193.09 47.1402 1193.32 46.8789L1194.13 47.7049C1193.81 48.0782 1193.42 48.3629 1192.95 48.5589C1192.49 48.7549 1192 48.8529 1191.48 48.8529ZM1198.02 48.8529C1197.65 48.8529 1197.29 48.8062 1196.96 48.7129C1196.63 48.6102 1196.33 48.4702 1196.05 48.2929C1195.77 48.1062 1195.52 47.8869 1195.32 47.6349L1196.13 46.8229C1196.37 47.1216 1196.65 47.3456 1196.97 47.4949C1197.29 47.6349 1197.64 47.7049 1198.04 47.7049C1198.43 47.7049 1198.73 47.6396 1198.95 47.5089C1199.16 47.3689 1199.27 47.1776 1199.27 46.9349C1199.27 46.6922 1199.18 46.5056 1199 46.3749C1198.83 46.2349 1198.61 46.1229 1198.34 46.0389C1198.07 45.9456 1197.78 45.8569 1197.48 45.7729C1197.18 45.6796 1196.89 45.5629 1196.62 45.4229C1196.35 45.2829 1196.13 45.0916 1195.95 44.8489C1195.78 44.6062 1195.7 44.2842 1195.7 43.8829C1195.7 43.4816 1195.8 43.1362 1195.99 42.8469C1196.19 42.5482 1196.46 42.3196 1196.8 42.1609C1197.16 42.0022 1197.58 41.9229 1198.08 41.9229C1198.6 41.9229 1199.06 42.0162 1199.46 42.2029C1199.87 42.3802 1200.21 42.6509 1200.47 43.0149L1199.66 43.8269C1199.47 43.5842 1199.24 43.3976 1198.96 43.2669C1198.69 43.1362 1198.38 43.0709 1198.04 43.0709C1197.67 43.0709 1197.39 43.1362 1197.2 43.2669C1197.01 43.3882 1196.92 43.5609 1196.92 43.7849C1196.92 44.0089 1197 44.1816 1197.17 44.3029C1197.34 44.4242 1197.55 44.5269 1197.83 44.6109C1198.11 44.6949 1198.39 44.7836 1198.69 44.8769C1198.99 44.9609 1199.28 45.0776 1199.55 45.2269C1199.82 45.3762 1200.04 45.5769 1200.21 45.8289C1200.38 46.0809 1200.47 46.4122 1200.47 46.8229C1200.47 47.4482 1200.25 47.9429 1199.8 48.3069C1199.36 48.6709 1198.77 48.8529 1198.02 48.8529ZM1204.96 48.8529C1204.3 48.8529 1203.7 48.7036 1203.17 48.4049C1202.64 48.0969 1202.22 47.6816 1201.91 47.1589C1201.6 46.6362 1201.45 46.0436 1201.45 45.3809C1201.45 44.7276 1201.6 44.1396 1201.9 43.6169C1202.2 43.0942 1202.61 42.6836 1203.13 42.3849C1203.65 42.0769 1204.23 41.9229 1204.88 41.9229C1205.49 41.9229 1206.04 42.0629 1206.5 42.3429C1206.98 42.6229 1207.35 43.0102 1207.61 43.5049C1207.88 43.9996 1208.01 44.5596 1208.01 45.1849C1208.01 45.2782 1208.01 45.3809 1208 45.4929C1207.99 45.5956 1207.97 45.7169 1207.94 45.8569H1202.33V44.8069H1207.27L1206.81 45.2129C1206.81 44.7649 1206.73 44.3869 1206.57 44.0789C1206.41 43.7616 1206.19 43.5189 1205.9 43.3509C1205.61 43.1736 1205.26 43.0849 1204.85 43.0849C1204.42 43.0849 1204.04 43.1782 1203.72 43.3649C1203.39 43.5516 1203.14 43.8129 1202.96 44.1489C1202.78 44.4849 1202.69 44.8816 1202.69 45.3389C1202.69 45.8056 1202.79 46.2162 1202.97 46.5709C1203.16 46.9162 1203.43 47.1869 1203.77 47.3829C1204.12 47.5696 1204.51 47.6629 1204.96 47.6629C1205.34 47.6629 1205.68 47.5976 1205.98 47.4669C1206.3 47.3362 1206.57 47.1402 1206.8 46.8789L1207.61 47.7049C1207.29 48.0782 1206.9 48.3629 1206.43 48.5589C1205.97 48.7549 1205.48 48.8529 1204.96 48.8529ZM1209.39 48.7129V42.0629H1210.65V48.7129H1209.39ZM1210.65 44.9189L1210.17 44.7089C1210.17 43.8596 1210.37 43.1829 1210.76 42.6789C1211.15 42.1749 1211.72 41.9229 1212.45 41.9229C1212.79 41.9229 1213.09 41.9836 1213.36 42.1049C1213.63 42.2169 1213.89 42.4082 1214.12 42.6789L1213.29 43.5329C1213.15 43.3836 1213 43.2762 1212.83 43.2109C1212.66 43.1456 1212.47 43.1129 1212.24 43.1129C1211.78 43.1129 1211.39 43.2622 1211.1 43.5609C1210.8 43.8596 1210.65 44.3122 1210.65 44.9189ZM1217.17 48.7129L1214.11 42.0629H1215.51L1217.96 47.6769H1217.15L1219.62 42.0629H1220.96L1217.91 48.7129H1217.17ZM1224.85 48.8529C1224.19 48.8529 1223.59 48.7036 1223.06 48.4049C1222.53 48.0969 1222.11 47.6816 1221.8 47.1589C1221.49 46.6362 1221.34 46.0436 1221.34 45.3809C1221.34 44.7276 1221.49 44.1396 1221.79 43.6169C1222.1 43.0942 1222.51 42.6836 1223.02 42.3849C1223.54 42.0769 1224.13 41.9229 1224.77 41.9229C1225.39 41.9229 1225.93 42.0629 1226.39 42.3429C1226.87 42.6229 1227.24 43.0102 1227.5 43.5049C1227.77 43.9996 1227.91 44.5596 1227.91 45.1849C1227.91 45.2782 1227.9 45.3809 1227.89 45.4929C1227.88 45.5956 1227.86 45.7169 1227.84 45.8569H1222.22V44.8069H1227.16L1226.7 45.2129C1226.7 44.7649 1226.62 44.3869 1226.46 44.0789C1226.31 43.7616 1226.08 43.5189 1225.79 43.3509C1225.5 43.1736 1225.15 43.0849 1224.74 43.0849C1224.31 43.0849 1223.94 43.1782 1223.61 43.3649C1223.28 43.5516 1223.03 43.8129 1222.85 44.1489C1222.68 44.4849 1222.59 44.8816 1222.59 45.3389C1222.59 45.8056 1222.68 46.2162 1222.87 46.5709C1223.05 46.9162 1223.32 47.1869 1223.66 47.3829C1224.01 47.5696 1224.41 47.6629 1224.85 47.6629C1225.23 47.6629 1225.57 47.5976 1225.88 47.4669C1226.19 47.3362 1226.46 47.1402 1226.69 46.8789L1227.5 47.7049C1227.18 48.0782 1226.79 48.3629 1226.32 48.5589C1225.87 48.7549 1225.38 48.8529 1224.85 48.8529ZM1232.09 48.8529C1231.48 48.8529 1230.93 48.7036 1230.44 48.4049C1229.96 48.0969 1229.57 47.6816 1229.28 47.1589C1229 46.6362 1228.86 46.0482 1228.86 45.3949C1228.86 44.7416 1229 44.1536 1229.28 43.6309C1229.57 43.1082 1229.96 42.6929 1230.44 42.3849C1230.93 42.0769 1231.48 41.9229 1232.09 41.9229C1232.59 41.9229 1233.04 42.0302 1233.44 42.2449C1233.84 42.4502 1234.16 42.7396 1234.4 43.1129C1234.66 43.4769 1234.8 43.9016 1234.82 44.3869V46.3889C1234.8 46.8649 1234.66 47.2896 1234.42 47.6629C1234.18 48.0362 1233.85 48.3302 1233.45 48.5449C1233.05 48.7502 1232.6 48.8529 1232.09 48.8529ZM1232.3 47.6629C1232.72 47.6629 1233.09 47.5649 1233.4 47.3689C1233.71 47.1729 1233.96 46.9069 1234.14 46.5709C1234.32 46.2256 1234.4 45.8336 1234.4 45.3949C1234.4 44.9376 1234.31 44.5409 1234.12 44.2049C1233.95 43.8689 1233.7 43.6029 1233.38 43.4069C1233.07 43.2109 1232.71 43.1129 1232.29 43.1129C1231.87 43.1129 1231.5 43.2109 1231.18 43.4069C1230.87 43.6029 1230.62 43.8736 1230.43 44.2189C1230.25 44.5549 1230.16 44.9422 1230.16 45.3809C1230.16 45.8289 1230.25 46.2256 1230.43 46.5709C1230.62 46.9069 1230.87 47.1729 1231.18 47.3689C1231.51 47.5649 1231.88 47.6629 1232.3 47.6629ZM1235.59 48.7129H1234.32V46.9209L1234.56 45.2969L1234.32 43.6869V38.7169H1235.59V48.7129ZM1238.53 48.8529C1238.27 48.8529 1238.05 48.7642 1237.88 48.5869C1237.71 48.4002 1237.62 48.1809 1237.62 47.9289C1237.62 47.6676 1237.71 47.4529 1237.88 47.2849C1238.05 47.1076 1238.27 47.0189 1238.53 47.0189C1238.8 47.0189 1239.01 47.1076 1239.18 47.2849C1239.36 47.4529 1239.44 47.6676 1239.44 47.9289C1239.44 48.1809 1239.36 48.4002 1239.18 48.5869C1239.01 48.7642 1238.8 48.8529 1238.53 48.8529Z" fill="white"/>
</svg>
