<svg width="17" height="17" viewBox="0 0 17 17" fill="none" xmlns="http://www.w3.org/2000/svg">
<path d="M1.49902 14.7224H14.8324" stroke="#1D2329" stroke-width="0.944444" stroke-miterlimit="10" stroke-linecap="round" stroke-linejoin="round"/>
<path d="M10.1737 14.7153L2.17367 14.7287L2.16699 4.76866C2.16699 4.32199 2.39367 3.90864 2.76034 3.66197L5.427 1.88198C5.87367 1.58198 6.46032 1.58198 6.90698 1.88198L9.57365 3.66197C9.94698 3.90864 10.167 4.32199 10.167 4.76866L10.1737 14.7153Z" stroke="#1D2329" stroke-width="0.944444" stroke-miterlimit="10" stroke-linecap="round" stroke-linejoin="round"/>
<path d="M13.4873 14.7288V12.0554" stroke="#1D2329" stroke-width="0.944444" stroke-miterlimit="10" stroke-linecap="round" stroke-linejoin="round"/>
<path d="M13.5013 8.05566C12.768 8.05566 12.168 8.65566 12.168 9.389V10.7223C12.168 11.4557 12.768 12.0557 13.5013 12.0557C14.2346 12.0557 14.8346 11.4557 14.8346 10.7223V9.389C14.8346 8.65566 14.2346 8.05566 13.5013 8.05566Z" stroke="#1D2329" stroke-width="0.944444" stroke-miterlimit="10" stroke-linecap="round" stroke-linejoin="round"/>
<path d="M2.16699 9.38892H10.167" stroke="#1D2329" stroke-width="0.944444" stroke-miterlimit="10" stroke-linecap="round" stroke-linejoin="round"/>
<path d="M6.16602 14.7224V12.2224" stroke="#1D2329" stroke-width="0.944444" stroke-miterlimit="10" stroke-linecap="round" stroke-linejoin="round"/>
<path d="M6.16602 7.05542C6.7183 7.05542 7.16602 6.6077 7.16602 6.05542C7.16602 5.50314 6.7183 5.05542 6.16602 5.05542C5.61373 5.05542 5.16602 5.50314 5.16602 6.05542C5.16602 6.6077 5.61373 7.05542 6.16602 7.05542Z" stroke="#1D2329" stroke-width="0.944444" stroke-miterlimit="10" stroke-linecap="round" stroke-linejoin="round"/>
</svg>
