<svg width="17" height="17" viewBox="0 0 17 17" fill="none" xmlns="http://www.w3.org/2000/svg">
<path d="M10.5063 2.05273H5.82634C4.16634 2.05273 3.79967 2.8794 3.58634 3.89273L2.83301 7.4994H13.4997L12.7463 3.89273C12.533 2.8794 12.1663 2.05273 10.5063 2.05273Z" stroke="#1D2329" stroke-width="0.944444" stroke-linecap="round" stroke-linejoin="round"/>
<path d="M14.8258 13.3795C14.8992 14.1595 14.2725 14.8328 13.4725 14.8328H12.2192C11.4992 14.8328 11.3992 14.5262 11.2725 14.1462L11.1392 13.7462C10.9525 13.1995 10.8325 12.8328 9.87251 12.8328H6.45917C5.49917 12.8328 5.35917 13.2462 5.19251 13.7462L5.05917 14.1462C4.93251 14.5262 4.83251 14.8328 4.11251 14.8328H2.85917C2.05917 14.8328 1.43251 14.1595 1.50584 13.3795L1.87917 9.31951C1.97251 8.31951 2.16584 7.49951 3.91251 7.49951H12.4192C14.1658 7.49951 14.3592 8.31951 14.4525 9.31951L14.8258 13.3795Z" stroke="#1D2329" stroke-width="0.944444" stroke-linecap="round" stroke-linejoin="round"/>
<path d="M2.83464 5.49902H2.16797" stroke="#1D2329" stroke-width="0.944444" stroke-linecap="round" stroke-linejoin="round"/>
<path d="M14.1676 5.49951H13.501" stroke="#1D2329" stroke-width="0.944444" stroke-linecap="round" stroke-linejoin="round"/>
<path d="M8.16504 2.16626V3.49959" stroke="#1D2329" stroke-width="0.944444" stroke-linecap="round" stroke-linejoin="round"/>
<path d="M7.16699 3.49951H9.16699" stroke="#1D2329" stroke-width="0.944444" stroke-linecap="round" stroke-linejoin="round"/>
<path d="M4.16602 10.166H6.16602" stroke="#1D2329" stroke-width="0.944444" stroke-linecap="round" stroke-linejoin="round"/>
<path d="M10.166 10.1663H12.166" stroke="#1D2329" stroke-width="0.944444" stroke-linecap="round" stroke-linejoin="round"/>
</svg>
