<svg width="36" height="36" viewBox="0 0 36 36" fill="none" xmlns="http://www.w3.org/2000/svg">
<g clip-path="url(#clip0_4836_7379)">
<path d="M18.278 20.7495H19.7364C21.3405 20.7495 22.653 19.437 22.653 17.8328V3.24951H9.52805C7.34055 3.24951 5.43014 4.45991 4.43848 6.23908" stroke="#586283" stroke-width="2.1875" stroke-linecap="round" stroke-linejoin="round"/>
<path d="M3.69434 25.125C3.69434 27.5458 5.6485 29.5 8.06934 29.5H9.52767C9.52767 27.8958 10.8402 26.5833 12.4443 26.5833C14.0485 26.5833 15.361 27.8958 15.361 29.5H21.1943C21.1943 27.8958 22.5068 26.5833 24.111 26.5833C25.7152 26.5833 27.0277 27.8958 27.0277 29.5H28.486C30.9068 29.5 32.861 27.5458 32.861 25.125V20.75H28.486C27.6839 20.75 27.0277 20.0938 27.0277 19.2917V14.9167C27.0277 14.1146 27.6839 13.4583 28.486 13.4583H30.3672L27.8735 9.09793C27.3485 8.19376 26.386 7.625 25.336 7.625H22.6527V17.8333C22.6527 19.4375 21.3402 20.75 19.736 20.75H18.2777" stroke="#586283" stroke-width="2.1875" stroke-linecap="round" stroke-linejoin="round"/>
<path d="M12.445 32.4168C14.0558 32.4168 15.3617 31.111 15.3617 29.5002C15.3617 27.8893 14.0558 26.5835 12.445 26.5835C10.8342 26.5835 9.52832 27.8893 9.52832 29.5002C9.52832 31.111 10.8342 32.4168 12.445 32.4168Z" stroke="#586283" stroke-width="2.1875" stroke-linecap="round" stroke-linejoin="round"/>
<path d="M24.11 32.4168C25.7209 32.4168 27.0267 31.111 27.0267 29.5002C27.0267 27.8893 25.7209 26.5835 24.11 26.5835C22.4992 26.5835 21.1934 27.8893 21.1934 29.5002C21.1934 31.111 22.4992 32.4168 24.11 32.4168Z" stroke="#586283" stroke-width="2.1875" stroke-linecap="round" stroke-linejoin="round"/>
<path d="M32.8607 17.8335V20.7502H28.4857C27.6836 20.7502 27.0273 20.0939 27.0273 19.2918V14.9168C27.0273 14.1147 27.6836 13.4585 28.4857 13.4585H30.3669L32.8607 17.8335Z" stroke="#586283" stroke-width="2.1875" stroke-linecap="round" stroke-linejoin="round"/>
<path d="M3.69434 12H12.4443" stroke="#586283" stroke-width="2.1875" stroke-linecap="round" stroke-linejoin="round"/>
<path d="M3.69434 16.3755H9.52767" stroke="#586283" stroke-width="2.1875" stroke-linecap="round" stroke-linejoin="round"/>
<path d="M3.69434 20.75H6.611" stroke="#586283" stroke-width="2.1875" stroke-linecap="round" stroke-linejoin="round"/>
</g>
<defs>
<clipPath id="clip0_4836_7379">
<rect width="35" height="35" fill="white" transform="translate(0.777344 0.333496)"/>
</clipPath>
</defs>
</svg>
