<svg width="36" height="36" viewBox="0 0 36 36" fill="none" xmlns="http://www.w3.org/2000/svg">
<g clip-path="url(#clip0_4836_7397)">
<path d="M6.00122 21.7132L3.78457 19.4965C2.8804 18.5924 2.8804 17.1048 3.78457 16.2007L6.00122 13.984C6.38039 13.6048 6.68664 12.8611 6.68664 12.3361V9.2006C6.68664 7.91727 7.73665 6.8673 9.01998 6.8673H12.1554C12.6804 6.8673 13.4241 6.5611 13.8033 6.18193L16.02 3.96523C16.9241 3.06107 18.4116 3.06107 19.3158 3.96523L21.5325 6.18193C21.9117 6.5611 22.6554 6.8673 23.1804 6.8673H26.3158C27.5992 6.8673 28.6491 7.91727 28.6491 9.2006V12.3361C28.6491 12.8611 28.9554 13.6048 29.3346 13.984L31.5513 16.2007C32.4554 17.1048 32.4554 18.5924 31.5513 19.4965L29.3346 21.7132C28.9554 22.0924 28.6491 22.8361 28.6491 23.3611V26.4964C28.6491 27.7797 27.5992 28.8299 26.3158 28.8299H23.1804C22.6554 28.8299 21.9117 29.1361 21.5325 29.5153L19.3158 31.732C18.4116 32.6361 16.9241 32.6361 16.02 31.732L13.8033 29.5153C13.4241 29.1361 12.6804 28.8299 12.1554 28.8299H9.01998C7.73665 28.8299 6.68664 27.7797 6.68664 26.4964V23.3611C6.68664 22.8216 6.38039 22.0778 6.00122 21.7132Z" stroke="#586283" stroke-width="2.1875" stroke-linecap="round" stroke-linejoin="round"/>
<path d="M13.3096 22.2085L22.0596 13.4585" stroke="#586283" stroke-width="2.1875" stroke-linecap="round" stroke-linejoin="round"/>
<path d="M21.3217 21.4792H21.3348" stroke="#586283" stroke-width="2.91667" stroke-linecap="round" stroke-linejoin="round"/>
<path d="M14.0307 14.1877H14.0438" stroke="#586283" stroke-width="2.91667" stroke-linecap="round" stroke-linejoin="round"/>
</g>
<defs>
<clipPath id="clip0_4836_7397">
<rect width="35" height="35" fill="white" transform="translate(0.185547 0.333496)"/>
</clipPath>
</defs>
</svg>
