<svg width="36" height="36" viewBox="0 0 36 36" fill="none" xmlns="http://www.w3.org/2000/svg">
<path d="M11.7979 27.0931L16.3187 30.5931C16.902 31.1764 18.2145 31.4681 19.0895 31.4681H24.6312C26.3812 31.4681 28.277 30.1556 28.7145 28.4056L32.2145 17.7598C32.9437 15.7181 31.6312 13.9681 29.4437 13.9681H23.6104C22.7354 13.9681 22.0062 13.2389 22.152 12.2181L22.8812 7.55145C23.1729 6.23895 22.2979 4.78061 20.9854 4.34311C19.8187 3.90561 18.3604 4.48895 17.777 5.36395L11.7979 14.2598" stroke="#586283" stroke-width="2.1875" stroke-miterlimit="10"/>
<path d="M4.35938 27.0938V12.8021C4.35938 10.7604 5.23438 10.0312 7.27604 10.0312H8.73438C10.776 10.0312 11.651 10.7604 11.651 12.8021V27.0938C11.651 29.1354 10.776 29.8646 8.73438 29.8646H7.27604C5.23438 29.8646 4.35938 29.1354 4.35938 27.0938Z" stroke="#586283" stroke-width="2.1875" stroke-linecap="round" stroke-linejoin="round"/>
</svg>
