<svg width="17" height="17" viewBox="0 0 17 17" fill="none" xmlns="http://www.w3.org/2000/svg">
<path d="M8.16569 15.5001C11.8476 15.5001 14.8324 12.5153 14.8324 8.83341C14.8324 5.15152 11.8476 2.16675 8.16569 2.16675C4.48379 2.16675 1.49902 5.15152 1.49902 8.83341C1.49902 12.5153 4.48379 15.5001 8.16569 15.5001Z" stroke="#1D2329" stroke-width="0.944444" stroke-linecap="round" stroke-linejoin="round"/>
<path d="M5.50072 2.8335H6.16738C4.86738 6.72683 4.86738 10.9402 6.16738 14.8335H5.50072" stroke="#1D2329" stroke-width="0.944444" stroke-linecap="round" stroke-linejoin="round"/>
<path d="M10.166 2.8335C11.466 6.72683 11.466 10.9402 10.166 14.8335" stroke="#1D2329" stroke-width="0.944444" stroke-linecap="round" stroke-linejoin="round"/>
<path d="M2.16797 11.5002V10.8335C6.0613 12.1335 10.2746 12.1335 14.168 10.8335V11.5002" stroke="#1D2329" stroke-width="0.944444" stroke-linecap="round" stroke-linejoin="round"/>
<path d="M2.16797 6.8334C6.0613 5.5334 10.2746 5.5334 14.168 6.8334" stroke="#1D2329" stroke-width="0.944444" stroke-linecap="round" stroke-linejoin="round"/>
</svg>
