<svg width="17" height="17" viewBox="0 0 17 17" fill="none" xmlns="http://www.w3.org/2000/svg">
<path d="M6.14811 14.9447H10.1481C13.4814 14.9447 14.8148 13.6113 14.8148 10.278V6.27799C14.8148 2.94466 13.4814 1.61133 10.1481 1.61133H6.14811C2.81478 1.61133 1.48145 2.94466 1.48145 6.27799V10.278C1.48145 13.6113 2.81478 14.9447 6.14811 14.9447Z" stroke="#1D2329" stroke-width="0.944444" stroke-linecap="round" stroke-linejoin="round"/>
<path d="M1.48145 8.74465L5.48145 8.73132C5.98145 8.73132 6.54145 9.11132 6.72811 9.57799L7.48811 11.498C7.66145 11.9313 7.93478 11.9313 8.10811 11.498L9.63478 7.62465C9.78145 7.25132 10.0548 7.23799 10.2414 7.59132L10.9348 8.90465C11.1414 9.29799 11.6748 9.61799 12.1148 9.61799H14.8214" stroke="#1D2329" stroke-width="0.944444" stroke-linecap="round" stroke-linejoin="round"/>
</svg>
