<svg width="161" height="48" viewBox="0 0 161 48" fill="none" xmlns="http://www.w3.org/2000/svg">
<ellipse cx="108.661" cy="24.7623" rx="1.56354" ry="1.56354" fill="#235094"/>
<path d="M40.7752 31.6678C40.0803 33.1011 38.0911 35.9155 35.6936 35.707C32.8271 36.619 35.7458 43.0556 36.4754 44.3065C38.4298 44.0893 42.2866 42.7429 42.0781 39.0947C42.2866 38.8862 43.2073 38.4866 43.6417 38.3129V34.2737L47.2899 30.7558C47.8111 29.5397 48.1238 27.3681 45.2052 28.4104C44.7883 27.9935 42.9467 25.3702 42.0781 24.1107L41.5569 21.8957H35.6936L34.3907 21.1139V19.9412C31.4808 19.7241 25.5827 20.6709 25.27 26.1954C24.3579 28.4104 28.0583 33.3877 30.8727 30.3649C30.8727 29.8437 29.9606 25.5439 33.8695 24.6319C35.3896 24.241 38.7947 24.3452 40.254 27.8893L39.2116 27.6287L38.4298 26.7166L37.7784 26.1954H36.736L37.7784 27.3681L38.8207 28.4104L39.6025 29.0619V30.1043L38.4298 30.3649C37.5178 28.7145 34.99 25.8045 32.1757 27.3681C31.5676 28.063 30.9248 29.7916 33.218 31.1466L33.3483 32.189L33.4786 33.2314H34.3907L34.7816 32.189L35.6936 31.6678C35.7805 31.4941 36.0064 31.1988 36.2148 31.4072L36.9966 32.189C36.9966 32.189 37.8837 32.3116 38.4298 32.189C38.9188 32.0792 39.6025 31.6678 39.6025 31.6678L40.254 30.7558C40.6449 30.8426 41.2963 31.1466 40.7752 31.6678Z" fill="white"/>
<path d="M44.1628 40.0067C44.2931 39.9633 44.5798 39.7983 44.684 39.4855C44.7883 39.1728 44.9012 38.3997 44.9446 38.0523L46.2476 37.6614V37.0099L47.1596 36.8796V39.0947H46.5082L46.2476 40.2673H45.7264V41.44C45.7264 41.44 44.4234 42.0914 44.1628 41.44C43.955 40.9203 44.1628 40.0067 44.1628 40.0067Z" fill="white"/>
<path fill-rule="evenodd" clip-rule="evenodd" d="M49.505 12.5144H20.0582C16.9311 12.3841 14.4555 14.4688 18.1038 16.4233C20.84 16.4233 22.4817 20.4624 18.1038 19.9412H12.3708C10.1558 19.9412 8.51404 22.6775 12.3708 23.7198H20.4491C22.4035 23.7198 23.8889 27.1596 20.4491 27.3681H15.3676C13.1526 27.3681 11.8496 31.1466 15.3676 31.1466C18.8856 31.1466 18.625 35.9676 15.3676 35.0555H9.63458C7.41956 34.6646 5.72572 38.5735 9.63458 39.0947H24.0974C25.5306 39.0947 26.3905 41.6484 24.0974 42.4823H16.8008C14.5858 42.4823 14.5076 45.7658 16.8008 45.87H49.6352C52.632 45.6094 52.632 45.4791 52.632 40.2673L53.4138 14.4688C53.4138 13.2962 52.9448 12.3059 49.505 12.5144ZM35.6936 35.707C38.0911 35.9155 40.0803 33.1011 40.7752 31.6678C41.2963 31.1466 40.6449 30.8426 40.254 30.7558L39.6025 31.6678C39.6025 31.6678 38.9188 32.0792 38.4298 32.189C37.8837 32.3116 36.9966 32.189 36.9966 32.189L36.2148 31.4072C36.0064 31.1988 35.7805 31.4941 35.6936 31.6678L34.7816 32.189L34.3907 33.2314H33.4786L33.3483 32.189L33.218 31.1466C30.9248 29.7916 31.5676 28.063 32.1757 27.3681C34.99 25.8045 37.5178 28.7145 38.4298 30.3649L39.6025 30.1043V29.0619L38.8207 28.4104L37.7784 27.3681L36.736 26.1954H37.7784L38.4298 26.7166L39.2116 27.6287L40.254 27.8893C38.7947 24.3452 35.3896 24.241 33.8695 24.6319C29.9606 25.5439 30.8727 29.8437 30.8727 30.3649C28.0583 33.3877 24.3579 28.4104 25.27 26.1954C25.5827 20.6709 31.4808 19.7241 34.3907 19.9412V21.1139L35.6936 21.8957H41.5569L42.0781 24.1107C42.9467 25.3702 44.7883 27.9935 45.2052 28.4104C48.1238 27.3681 47.8111 29.5397 47.2899 30.7558L43.6417 34.2737V38.3129C43.2073 38.4866 42.2866 38.8862 42.0781 39.0947C42.2866 42.7429 38.4298 44.0893 36.4754 44.3065C35.7458 43.0556 32.8271 36.619 35.6936 35.707ZM44.684 39.4855C44.5798 39.7983 44.2931 39.9633 44.1628 40.0067C44.1628 40.0067 43.955 40.9203 44.1628 41.44C44.4234 42.0914 45.7264 41.44 45.7264 41.44V40.2673H46.2476L46.5082 39.0947H47.1596V36.8796L46.2476 37.0099V37.6614L44.9446 38.0523C44.9012 38.3997 44.7883 39.1728 44.684 39.4855Z" fill="#235094"/>
<path d="M12.3708 12.5144C14.5858 11.9932 17.8953 16.0063 12.3708 16.4233C7.7844 16.4233 8.85281 11.9932 12.3708 12.5144Z" fill="#235094"/>
<path d="M2.85922 27.3681H10.9375C12.7617 27.3681 13.6737 30.4952 10.9375 31.1466L2.59863 31.1466C0.904791 31.5375 -0.580576 27.785 2.85922 27.3681Z" fill="#235094"/>
<path d="M29.0486 11.0812H32.1757C32.5231 8.43183 34.4167 3.26345 39.2116 3.78463C44.0065 4.30581 44.8577 8.86615 44.684 11.0812H47.9414C48.202 7.4329 46.8387 0.787842 39.2116 0.787842C30.4818 0.787842 29.2657 7.86722 29.0486 11.0812Z" fill="#235094"/>
<path d="M69.9024 35.7925L69.1035 33.3239H70.6683H70.9349V33.0572V29.1546V28.8879H70.6683H67.668L65.9663 23.6292L66.8358 21.0081L66.9521 20.6574H66.5827H64.8106H64.4441L64.5569 21.0062L65.4051 23.6271L63.6599 28.8879H60.8727H60.6061V29.1546V33.0572V33.3239H60.8727H62.1883L61.3694 35.7925H56.9256L63.3957 18.514H68.0461L74.4446 35.7925H69.9024ZM68.9309 32.7905L67.8406 29.4213H70.4016V32.7905H68.9309ZM67.2801 29.4213L68.3704 32.7905H62.9271L64.0448 29.4213H67.2801ZM61.1394 29.4213H63.4829L62.3652 32.7905H61.1394V29.4213ZM66.2133 21.1908L65.6888 22.7717L65.1772 21.1908H66.2133ZM80.888 18.514V22.1334H80.4861V18.514H80.888ZM81.4214 18.514H88.9361V22.1334H81.4214V18.514ZM80.2194 22.6668H80.888V25.3105H80.2194H79.9528V25.5772V29.73V29.9966H80.2194H80.888V35.7925H76.499V18.514H79.9528V22.4001V22.6668H80.2194ZM80.4861 25.8439H80.888V29.4633H80.4861V25.8439ZM81.4214 29.4633V25.8439H88.567V29.4633H81.4214ZM100.985 35.7925L98.4771 29.2211H98.857C100.184 29.2211 101.348 28.9907 102.343 28.5201C102.571 28.4123 102.787 28.2947 102.992 28.1671L105.997 35.7925H100.985ZM96.5395 18.514H99.1032C100.284 18.514 101.309 18.7329 102.185 19.1622C103.064 19.593 103.749 20.1875 104.246 20.9453C104.739 21.6975 104.989 22.5793 104.989 23.6009C104.989 24.6208 104.732 25.5015 104.223 26.2533L104.221 26.2565C103.953 26.6644 103.627 27.0253 103.239 27.339L102.477 25.4044L102.41 25.2355H102.229H99.982C99.9965 25.2224 100.011 25.2091 100.025 25.1955C100.446 24.8054 100.65 24.2897 100.65 23.6759C100.65 23.0622 100.446 22.5465 100.025 22.1564C99.6135 21.7596 99.0281 21.5831 98.3156 21.5831H96.5395V18.514ZM95.6042 18.514H96.0061V21.5831H95.6042V18.514ZM96.0061 22.1164V35.7925H91.6171V18.514H95.0709V21.8497V22.1164H95.3375H96.0061ZM98.857 28.6878H98.4938L97.4936 26.2728L98.3857 25.7688H102.047L102.793 27.6619C102.582 27.7986 102.356 27.924 102.115 28.038C101.206 28.468 100.123 28.6878 98.857 28.6878ZM97.3014 25.7688L97.1847 25.8348L97.1595 25.7688H97.3014ZM107.521 28.8294V18.514H111.91V29.2797C111.91 29.8858 112.042 30.4201 112.319 30.8703C112.589 31.3107 112.953 31.6526 113.406 31.892L113.405 31.8923L113.417 31.8977C113.882 32.1157 114.388 32.2231 114.933 32.2231C115.492 32.2231 115.994 32.1164 116.432 31.894L116.432 31.894L116.436 31.892C116.888 31.6533 117.244 31.3197 117.5 30.8927L117.5 30.8927L117.502 30.8884C117.76 30.4395 117.882 29.9077 117.882 29.3047V18.514H122.296V28.8544C122.296 30.2821 121.985 31.5367 121.371 32.626L121.37 32.6271C120.771 33.7002 119.921 34.5493 118.814 35.1764C117.729 35.7838 116.438 36.0927 114.933 36.0927C113.428 36.0927 112.129 35.784 111.027 35.176C109.92 34.5491 109.062 33.6918 108.446 32.6009C107.832 31.5117 107.521 30.257 107.521 28.8294ZM129.508 19.8531L135.706 27.7705V32.1066V32.1471L135.718 32.1858L136.516 34.7487L130.333 26.8504V21.9998V21.9492L130.314 21.9022L129.508 19.8531ZM136.24 32.066V28.4518L138.457 31.284L137.208 35.1748L136.24 32.066ZM137.569 35.7925L139.008 31.3125L139.051 31.1779L138.964 31.0666L136.24 27.5866V18.514H140.629V35.7925H137.569ZM129.799 22.0504V26.1691L127.336 23.0225L128.615 19.0402L129.799 22.0504ZM125.41 18.514H128.224L126.785 22.994L126.742 23.1286L126.829 23.2399L129.799 27.0343V35.7925H125.41V18.514ZM155.852 35.7925L155.053 33.3239H156.618H156.885V33.0572V29.1546V28.8879H156.618H153.618L151.916 23.6292L152.785 21.0081L152.902 20.6574H152.532H150.76H150.394L150.506 21.0062L151.355 23.6271L149.609 28.8879H146.822H146.556V29.1546V33.0572V33.3239H146.822H148.138L147.319 35.7925H142.875L149.345 18.514H153.996L160.394 35.7925H155.852ZM154.881 32.7905L153.79 29.4213H156.351V32.7905H154.881ZM153.23 29.4213L154.32 32.7905H148.877L149.994 29.4213H153.23ZM147.089 29.4213H149.432L148.315 32.7905H147.089V29.4213ZM152.163 21.1908L151.638 22.7717L151.127 21.1908H152.163Z" fill="#235094" stroke="#235094" stroke-width="0.533333"/>
<path d="M56.7979 45.3272C56.7979 45.2052 56.8408 45.0991 56.9266 45.0087C57.0124 44.9184 57.1186 44.8732 57.245 44.8732C57.367 44.8732 57.4731 44.9184 57.5635 45.0087C57.6538 45.0991 57.699 45.2052 57.699 45.3272C57.699 45.4536 57.6538 45.5598 57.5635 45.6456C57.4731 45.7314 57.367 45.7743 57.245 45.7743C57.1186 45.7743 57.0124 45.7314 56.9266 45.6456C56.8408 45.5598 56.7979 45.4536 56.7979 45.3272Z" fill="#235094"/>
<path d="M60.4497 45.3272C60.4497 45.2052 60.4926 45.0991 60.5784 45.0087C60.6642 44.9184 60.7704 44.8732 60.8968 44.8732C61.0188 44.8732 61.1249 44.9184 61.2153 45.0087C61.3056 45.0991 61.3508 45.2052 61.3508 45.3272C61.3508 45.4536 61.3056 45.5598 61.2153 45.6456C61.1249 45.7314 61.0188 45.7743 60.8968 45.7743C60.7704 45.7743 60.6642 45.7314 60.5784 45.6456C60.4926 45.5598 60.4497 45.4536 60.4497 45.3272Z" fill="#235094"/>
<path d="M64.1015 45.3272C64.1015 45.2052 64.1444 45.0991 64.2302 45.0087C64.316 44.9184 64.4222 44.8732 64.5486 44.8732C64.6706 44.8732 64.7768 44.9184 64.8671 45.0087C64.9574 45.0991 65.0026 45.2052 65.0026 45.3272C65.0026 45.4536 64.9574 45.5598 64.8671 45.6456C64.7768 45.7314 64.6706 45.7743 64.5486 45.7743C64.4222 45.7743 64.316 45.7314 64.2302 45.6456C64.1444 45.5598 64.1015 45.4536 64.1015 45.3272Z" fill="#235094"/>
<path d="M74.2159 45.7405V43.3013C74.0443 43.22 73.8478 43.1523 73.6265 43.0981C73.4096 43.0393 73.1883 42.9964 72.9625 42.9693C72.9083 43.1681 72.8586 43.3736 72.8134 43.5859C72.7682 43.7937 72.7299 44.0014 72.6982 44.2092C72.6666 44.4125 72.6418 44.6135 72.6237 44.8122C72.6056 45.0065 72.5966 45.1916 72.5966 45.3678C72.5966 45.5666 72.6102 45.7608 72.6373 45.9505C72.6689 46.1402 72.7344 46.3277 72.8337 46.5128C72.7299 46.5128 72.6214 46.5016 72.5085 46.479C72.3956 46.4564 72.2917 46.4044 72.1969 46.3231C72.102 46.2463 72.023 46.1334 71.9597 45.9844C71.901 45.8398 71.8716 45.6433 71.8716 45.3949C71.8716 45.2368 71.8829 45.0607 71.9055 44.8664C71.9281 44.6722 71.962 44.4689 72.0071 44.2566C72.0523 44.0444 72.1065 43.8275 72.1698 43.6062C72.2375 43.3804 72.312 43.159 72.3933 42.9422C72.2624 42.9467 72.1381 42.958 72.0207 42.9761C71.9078 42.9942 71.8084 43.0213 71.7226 43.0574C71.6413 43.089 71.5758 43.1274 71.5261 43.1726C71.4764 43.2178 71.4516 43.2674 71.4516 43.3217C71.4516 43.3397 71.4538 43.3533 71.4583 43.3623C71.5758 43.3984 71.6345 43.473 71.6345 43.5859C71.6345 43.6672 71.6051 43.7237 71.5464 43.7553C71.4877 43.7869 71.4245 43.8027 71.3567 43.8027C71.2438 43.8027 71.1399 43.7711 71.045 43.7078C70.9457 43.6401 70.896 43.5249 70.896 43.3623C70.896 43.2539 70.9299 43.1568 70.9976 43.071C71.0609 42.9851 71.1489 42.9129 71.2619 42.8542C71.3793 42.7909 71.5148 42.7435 71.6684 42.7119C71.8265 42.6803 71.9981 42.6644 72.1833 42.6644C72.233 42.6644 72.2849 42.6667 72.3391 42.6712C72.3933 42.6712 72.4475 42.6735 72.5018 42.678C72.6147 42.407 72.7411 42.1495 72.8812 41.9056C73.0212 41.6572 73.1725 41.4426 73.3351 41.2619C73.4977 41.0767 73.6694 40.93 73.85 40.8215C74.0307 40.7131 74.2204 40.6589 74.4192 40.6589C74.4869 40.6589 74.5705 40.6657 74.6699 40.6793C74.7738 40.6928 74.8709 40.7177 74.9612 40.7538V45.7405H74.2159ZM73.0302 42.7457C73.2561 42.7864 73.4729 42.8383 73.6807 42.9016C73.8884 42.9603 74.0669 43.0258 74.2159 43.0981V40.9842C74.103 40.9932 73.9923 41.0451 73.8839 41.14C73.7755 41.2303 73.6694 41.3545 73.5655 41.5126C73.4661 41.6707 73.3713 41.8559 73.2809 42.0682C73.1906 42.276 73.107 42.5018 73.0302 42.7457Z" fill="#235094"/>
<path d="M78.4948 42.3528H79.0436V42.5899H78.4948V46.2825C78.4948 46.5219 78.47 46.7161 78.4203 46.8652C78.3751 47.0142 78.3141 47.1317 78.2374 47.2175C78.1606 47.3033 78.0702 47.3598 77.9663 47.3869C77.867 47.4185 77.7608 47.4343 77.6479 47.4343C77.404 47.4343 77.2256 47.3778 77.1126 47.2649C76.9952 47.152 76.9365 46.9894 76.9365 46.7771C76.9365 46.6642 76.9636 46.5603 77.0178 46.4654C77.0675 46.3706 77.1352 46.2825 77.2211 46.2012C77.3024 46.1244 77.395 46.0544 77.4988 45.9911C77.6027 45.9324 77.7089 45.8805 77.8173 45.8353V41.8378C77.8173 41.4449 77.9099 41.1513 78.0951 40.9571C78.2803 40.7583 78.5174 40.6589 78.8065 40.6589C78.942 40.6589 79.0662 40.6793 79.1791 40.7199C79.2921 40.7606 79.3914 40.8238 79.4772 40.9096C79.5631 40.9954 79.6286 41.1016 79.6737 41.2281C79.7234 41.3545 79.7483 41.5036 79.7483 41.6752H79.484C79.4569 41.4946 79.4072 41.3523 79.335 41.2484C79.2672 41.1445 79.152 41.0926 78.9894 41.0926C78.881 41.0926 78.7952 41.1174 78.732 41.1671C78.6687 41.2123 78.619 41.2755 78.5829 41.3568C78.5468 41.4381 78.5219 41.5375 78.5084 41.6549C78.4993 41.7678 78.4948 41.8921 78.4948 42.0276V42.3528ZM77.5124 47.082C77.6434 47.082 77.7269 47.012 77.7631 46.8719C77.7992 46.7319 77.8173 46.5399 77.8173 46.296V46.086C77.614 46.1854 77.4604 46.2938 77.3566 46.4112C77.2527 46.5287 77.2007 46.6438 77.2007 46.7568C77.2007 46.8471 77.2301 46.9239 77.2888 46.9871C77.3475 47.0504 77.4221 47.082 77.5124 47.082Z" fill="#235094"/>
<path d="M82.3517 42.3528V42.9219C82.4059 42.8406 82.4579 42.7638 82.5076 42.6915C82.5618 42.6193 82.6205 42.556 82.6837 42.5018C82.747 42.4476 82.817 42.4047 82.8938 42.3731C82.9706 42.337 83.0564 42.3189 83.1512 42.3189C83.3048 42.3189 83.4177 42.3596 83.49 42.4409C83.5623 42.5176 83.5984 42.6125 83.5984 42.7254C83.5984 42.7932 83.5871 42.8496 83.5645 42.8948C83.5419 42.94 83.5148 42.9761 83.4832 43.0032C83.4516 43.0303 83.4177 43.0506 83.3816 43.0642C83.3455 43.0732 83.3138 43.0777 83.2867 43.0777C83.2461 43.0777 83.2122 43.0687 83.1851 43.0506C83.1625 43.0326 83.1377 43.0145 83.1106 42.9964C83.088 42.9738 83.0609 42.9535 83.0293 42.9355C82.9977 42.9174 82.957 42.9084 82.9073 42.9084C82.8034 42.9084 82.7041 42.9445 82.6092 43.0168C82.5143 43.089 82.4285 43.1658 82.3517 43.2471V45.7405H81.6742V42.3528H82.3517Z" fill="#235094"/>
<path d="M86.8705 42.3528V44.6564C86.8705 44.7016 86.8727 44.758 86.8773 44.8258C86.8818 44.8935 86.8931 44.9613 86.9111 45.029C86.9337 45.0923 86.9653 45.1487 87.006 45.1984C87.0466 45.2436 87.1031 45.2662 87.1754 45.2662C87.3967 45.2662 87.5593 45.02 87.6632 44.5277H87.9139C87.8642 44.8122 87.801 45.0381 87.7242 45.2052C87.6474 45.3678 87.5661 45.492 87.4803 45.5778C87.3944 45.6637 87.3064 45.7179 87.216 45.7405C87.1257 45.7676 87.0444 45.7811 86.9721 45.7811C86.814 45.7811 86.6853 45.7517 86.5859 45.693C86.4865 45.6298 86.4075 45.5507 86.3488 45.4559C86.2901 45.361 86.2494 45.2549 86.2268 45.1374C86.2042 45.02 86.1929 44.9071 86.1929 44.7987V42.3528H86.8705ZM86.071 41.3771C86.071 41.2552 86.1139 41.149 86.1997 41.0587C86.2855 40.9683 86.3917 40.9232 86.5182 40.9232C86.6401 40.9232 86.7463 40.9683 86.8366 41.0587C86.9269 41.149 86.9721 41.2552 86.9721 41.3771C86.9721 41.5036 86.9269 41.6097 86.8366 41.6956C86.7463 41.7814 86.6401 41.8243 86.5182 41.8243C86.3917 41.8243 86.2855 41.7814 86.1997 41.6956C86.1139 41.6097 86.071 41.5036 86.071 41.3771Z" fill="#235094"/>
<path d="M91.4289 43.3894C91.4651 43.3578 91.4922 43.3081 91.5102 43.2403C91.5328 43.1681 91.5441 43.1003 91.5441 43.0371C91.5441 42.9332 91.5102 42.8474 91.4425 42.7796C91.3792 42.7119 91.2889 42.678 91.1715 42.678C91.0495 42.678 90.9479 42.7232 90.8666 42.8135C90.7853 42.9038 90.7198 43.019 90.6701 43.159C90.6204 43.2945 90.5843 43.4481 90.5617 43.6198C90.5436 43.7869 90.5346 43.9518 90.5346 44.1144C90.5346 44.3538 90.5549 44.548 90.5956 44.697C90.6407 44.8461 90.6994 44.9635 90.7717 45.0494C90.844 45.1307 90.9275 45.1871 91.0224 45.2188C91.1218 45.2504 91.2257 45.2662 91.3341 45.2662C91.5735 45.2662 91.7745 45.2075 91.9371 45.09C92.1042 44.9681 92.2465 44.7806 92.3639 44.5277H92.5943C92.5401 44.6948 92.4633 44.8551 92.3639 45.0087C92.2645 45.1578 92.1494 45.291 92.0184 45.4085C91.8874 45.5214 91.7451 45.6117 91.5915 45.6795C91.438 45.7472 91.2776 45.7811 91.1105 45.7811C90.9524 45.7811 90.7966 45.754 90.643 45.6998C90.4894 45.6456 90.3516 45.5575 90.2297 45.4356C90.1077 45.3091 90.0084 45.1465 89.9316 44.9477C89.8548 44.7445 89.8164 44.496 89.8164 44.2024C89.8164 44.0127 89.8322 43.8095 89.8638 43.5927C89.8999 43.3713 89.9632 43.1681 90.0535 42.9829C90.1484 42.7932 90.2771 42.6351 90.4397 42.5086C90.6023 42.3821 90.8124 42.3189 91.0698 42.3189C91.3544 42.3189 91.5712 42.3889 91.7203 42.5289C91.8693 42.6644 91.9438 42.8654 91.9438 43.1319C91.9438 43.2449 91.9213 43.3397 91.8761 43.4165C91.8354 43.4933 91.7699 43.5317 91.6796 43.5317C91.5802 43.5317 91.4967 43.4843 91.4289 43.3894Z" fill="#235094"/>
<path d="M97.0949 42.3528V44.6564C97.0949 44.7106 97.0971 44.7738 97.1016 44.8461C97.1062 44.9139 97.1175 44.9794 97.1355 45.0426C97.1581 45.1058 97.1897 45.16 97.2304 45.2052C97.2755 45.2459 97.3388 45.2662 97.4201 45.2662C97.4562 45.2662 97.4946 45.2617 97.5353 45.2526C97.5804 45.2436 97.6166 45.2346 97.6437 45.2255C97.6482 45.2481 97.6504 45.2684 97.6504 45.2865C97.655 45.3046 97.6572 45.3249 97.6572 45.3475C97.6572 45.483 97.6053 45.5891 97.5014 45.6659C97.3975 45.7427 97.2801 45.7811 97.1491 45.7811C97.009 45.7811 96.8826 45.7337 96.7696 45.6388C96.6567 45.5395 96.5799 45.3746 96.5393 45.1442C96.4715 45.3204 96.3609 45.4717 96.2073 45.5982C96.0537 45.7201 95.8685 45.7811 95.6517 45.7811C95.5162 45.7811 95.3784 45.754 95.2384 45.6998C95.1029 45.6411 94.981 45.5507 94.8725 45.4288C94.7641 45.3068 94.6738 45.1487 94.6015 44.9545C94.5338 44.7603 94.4999 44.5254 94.4999 44.2499C94.4999 44.0376 94.5225 43.8185 94.5677 43.5927C94.6173 43.3623 94.6919 43.1545 94.7912 42.9693C94.8951 42.7796 95.0284 42.6238 95.191 42.5018C95.3536 42.3799 95.5478 42.3189 95.7737 42.3189C95.8911 42.3189 96.0108 42.3437 96.1328 42.3934C96.2592 42.4431 96.3541 42.538 96.4173 42.678V42.3528H97.0949ZM95.794 45.2662C95.8798 45.2662 95.9611 45.2459 96.0379 45.2052C96.1147 45.1645 96.1802 45.1103 96.2344 45.0426C96.2931 44.9748 96.3383 44.8981 96.3699 44.8122C96.4015 44.7219 96.4173 44.627 96.4173 44.5277V42.9829C96.3857 42.9061 96.3383 42.8383 96.275 42.7796C96.2118 42.7209 96.1215 42.6915 96.004 42.6915C95.8595 42.6915 95.7375 42.7412 95.6382 42.8406C95.5388 42.9355 95.4575 43.0574 95.3942 43.2065C95.331 43.3555 95.2836 43.5227 95.252 43.7078C95.2249 43.8885 95.2113 44.0624 95.2113 44.2295C95.2113 44.5954 95.2678 44.8597 95.3807 45.0223C95.4936 45.1849 95.6314 45.2662 95.794 45.2662Z" fill="#235094"/>
<path d="M104.588 41.3229V42.3528H105.109V42.5899H104.588V44.6564C104.588 44.7106 104.59 44.7738 104.594 44.8461C104.599 44.9139 104.61 44.9794 104.628 45.0426C104.651 45.1058 104.682 45.16 104.723 45.2052C104.768 45.2459 104.829 45.2662 104.906 45.2662C105.028 45.2662 105.143 45.2052 105.251 45.0832C105.364 44.9613 105.452 44.7761 105.516 44.5277H105.766C105.69 44.8122 105.606 45.0381 105.516 45.2052C105.43 45.3678 105.34 45.492 105.245 45.5778C105.15 45.6637 105.055 45.7179 104.96 45.7405C104.87 45.7676 104.786 45.7811 104.709 45.7811C104.547 45.7811 104.414 45.7517 104.31 45.693C104.206 45.6298 104.125 45.5507 104.066 45.4559C104.007 45.361 103.966 45.2571 103.944 45.1442C103.921 45.0268 103.91 44.9116 103.91 44.7987V42.5899H103.68V42.3528H103.91V41.4178L104.588 41.3229Z" fill="#235094"/>
<path d="M108.98 42.3189C109.138 42.3189 109.276 42.3415 109.393 42.3867C109.511 42.4318 109.61 42.4951 109.692 42.5764C109.777 42.6531 109.845 42.748 109.895 42.8609C109.949 42.9693 109.99 43.0868 110.017 43.2132C110.143 43.2132 110.234 43.1749 110.288 43.0981C110.342 43.0168 110.38 42.9422 110.403 42.8745H110.599C110.563 43.0235 110.502 43.1771 110.417 43.3352C110.335 43.4888 110.22 43.604 110.071 43.6807C110.08 43.7349 110.085 43.7892 110.085 43.8434C110.085 43.893 110.085 43.945 110.085 43.9992C110.085 44.5548 109.983 44.9906 109.78 45.3068C109.576 45.623 109.292 45.7811 108.926 45.7811C108.777 45.7811 108.626 45.754 108.472 45.6998C108.323 45.6456 108.187 45.5553 108.065 45.4288C107.944 45.3023 107.844 45.1397 107.767 44.941C107.695 44.7422 107.659 44.496 107.659 44.2024C107.659 44.0037 107.679 43.7937 107.72 43.5723C107.765 43.351 107.837 43.1477 107.937 42.9626C108.041 42.7774 108.176 42.6238 108.343 42.5018C108.515 42.3799 108.727 42.3189 108.98 42.3189ZM109.048 45.2662C109.287 45.2662 109.463 45.1487 109.576 44.9139C109.689 44.6745 109.746 44.338 109.746 43.9043C109.746 43.8817 109.744 43.8592 109.739 43.8366C109.739 43.8095 109.739 43.7846 109.739 43.762C109.613 43.762 109.52 43.7282 109.461 43.6604C109.402 43.5881 109.373 43.4865 109.373 43.3555C109.373 43.2652 109.396 43.1952 109.441 43.1455C109.486 43.0913 109.547 43.0597 109.624 43.0506C109.57 42.9196 109.502 42.827 109.421 42.7728C109.339 42.7186 109.251 42.6915 109.156 42.6915C109.016 42.6915 108.897 42.739 108.797 42.8338C108.702 42.9242 108.623 43.0416 108.56 43.1861C108.501 43.3307 108.458 43.491 108.431 43.6672C108.404 43.8388 108.391 44.0082 108.391 44.1753C108.391 44.3967 108.411 44.5774 108.452 44.7174C108.492 44.8574 108.544 44.9681 108.608 45.0494C108.671 45.1307 108.741 45.1871 108.818 45.2188C108.894 45.2504 108.971 45.2662 109.048 45.2662Z" fill="#235094"/>
<path d="M117.501 41.3229V42.3528H118.023V42.5899H117.501V44.6564C117.501 44.7106 117.504 44.7738 117.508 44.8461C117.513 44.9139 117.524 44.9794 117.542 45.0426C117.565 45.1058 117.596 45.16 117.637 45.2052C117.682 45.2459 117.743 45.2662 117.82 45.2662C117.942 45.2662 118.057 45.2052 118.165 45.0832C118.278 44.9613 118.366 44.7761 118.43 44.5277H118.68C118.604 44.8122 118.52 45.0381 118.43 45.2052C118.344 45.3678 118.254 45.492 118.159 45.5778C118.064 45.6637 117.969 45.7179 117.874 45.7405C117.784 45.7676 117.7 45.7811 117.623 45.7811C117.461 45.7811 117.328 45.7517 117.224 45.693C117.12 45.6298 117.038 45.5507 116.98 45.4559C116.921 45.361 116.88 45.2571 116.858 45.1442C116.835 45.0268 116.824 44.9116 116.824 44.7987V42.5899H116.594V42.3528H116.824V41.4178L117.501 41.3229Z" fill="#235094"/>
<path d="M121.332 40.9977V42.8677C121.399 42.7457 121.467 42.6486 121.535 42.5764C121.607 42.4996 121.68 42.4431 121.752 42.407C121.824 42.3708 121.892 42.3483 121.955 42.3392C122.023 42.3257 122.086 42.3189 122.145 42.3189C122.348 42.3189 122.511 42.3573 122.633 42.4341C122.759 42.5109 122.854 42.6102 122.917 42.7322C122.98 42.8496 123.021 42.9806 123.039 43.1252C123.062 43.2652 123.073 43.4007 123.073 43.5317C123.073 43.613 123.071 43.7033 123.066 43.8027C123.062 43.8976 123.057 43.9969 123.053 44.1008C123.048 44.2002 123.044 44.3018 123.039 44.4057C123.035 44.5051 123.032 44.5977 123.032 44.6835C123.032 44.7196 123.035 44.7716 123.039 44.8393C123.044 44.9026 123.055 44.9658 123.073 45.029C123.091 45.0923 123.12 45.1487 123.161 45.1984C123.202 45.2436 123.26 45.2662 123.337 45.2662C123.441 45.2662 123.534 45.2075 123.615 45.09C123.701 44.9726 123.771 44.7851 123.825 44.5277H124.076C124.026 44.8122 123.963 45.0381 123.886 45.2052C123.809 45.3678 123.728 45.492 123.642 45.5778C123.556 45.6637 123.47 45.7179 123.385 45.7405C123.299 45.7676 123.22 45.7811 123.148 45.7811C123.003 45.7811 122.881 45.754 122.782 45.6998C122.682 45.6411 122.601 45.5643 122.538 45.4694C122.475 45.3746 122.427 45.2639 122.395 45.1374C122.368 45.011 122.355 44.88 122.355 44.7445C122.355 44.7038 122.355 44.6293 122.355 44.5209C122.359 44.408 122.362 44.2883 122.362 44.1618C122.366 44.0353 122.368 43.9156 122.368 43.8027C122.373 43.6898 122.375 43.6107 122.375 43.5656C122.375 43.421 122.364 43.3013 122.341 43.2065C122.319 43.1116 122.287 43.0371 122.246 42.9829C122.206 42.9287 122.158 42.8903 122.104 42.8677C122.054 42.8451 122 42.8338 121.942 42.8338C121.801 42.8338 121.68 42.8903 121.576 43.0032C121.476 43.1161 121.395 43.3058 121.332 43.5723V45.7405H120.654V41.0926L121.332 40.9977Z" fill="#235094"/>
<path d="M128.173 43.1997C128.173 43.5159 128.042 43.7801 127.781 43.9924C127.523 44.2047 127.164 44.3357 126.703 44.3854C126.721 44.5661 126.753 44.7129 126.798 44.8258C126.848 44.9387 126.906 45.029 126.974 45.0968C127.042 45.16 127.119 45.2052 127.205 45.2323C127.295 45.2549 127.388 45.2662 127.482 45.2662C127.627 45.2662 127.762 45.2413 127.889 45.1916C128.02 45.142 128.128 45.0561 128.214 44.9342C128.219 44.9658 128.221 44.9974 128.221 45.029C128.225 45.0561 128.228 45.081 128.228 45.1036C128.228 45.2075 128.201 45.3001 128.146 45.3814C128.097 45.4627 128.027 45.5349 127.936 45.5982C127.851 45.6569 127.749 45.7021 127.631 45.7337C127.519 45.7653 127.399 45.7811 127.272 45.7811C127.119 45.7811 126.965 45.754 126.812 45.6998C126.658 45.6411 126.518 45.5507 126.392 45.4288C126.27 45.3023 126.17 45.1397 126.093 44.941C126.017 44.7422 125.978 44.5006 125.978 44.216C125.978 44.0263 125.999 43.8208 126.039 43.5994C126.084 43.3781 126.157 43.1726 126.256 42.9829C126.36 42.7932 126.493 42.6351 126.656 42.5086C126.823 42.3821 127.028 42.3189 127.272 42.3189C127.385 42.3189 127.494 42.3324 127.598 42.3596C127.706 42.3821 127.803 42.4273 127.889 42.4951C127.975 42.5583 128.042 42.6464 128.092 42.7593C128.146 42.8722 128.173 43.019 128.173 43.1997ZM126.696 44.1211C127.017 44.0715 127.27 43.9585 127.455 43.7824C127.645 43.6062 127.74 43.3894 127.74 43.1319C127.74 42.9603 127.71 42.8383 127.652 42.7661C127.593 42.6893 127.509 42.6509 127.401 42.6509C127.284 42.6509 127.18 42.6961 127.089 42.7864C127.004 42.8767 126.931 42.9942 126.873 43.1387C126.814 43.2787 126.769 43.4368 126.737 43.613C126.71 43.7846 126.696 43.954 126.696 44.1211Z" fill="#235094"/>
<path d="M137.445 45.1984L138.32 40.6928H138.821L139.79 45.1984L140.664 40.6928H141.05L139.979 45.7405H139.227L138.414 42.0682L137.635 45.7405H136.883L135.806 41.0451C135.634 41.0451 135.49 41.0767 135.372 41.14C135.255 41.1987 135.16 41.28 135.088 41.3839C135.015 41.4833 134.961 41.5985 134.925 41.7294C134.893 41.8559 134.878 41.9869 134.878 42.1224C134.878 42.3166 134.905 42.4905 134.959 42.6441C135.013 42.7977 135.092 42.94 135.196 43.071C135.106 43.071 135.015 43.0574 134.925 43.0303C134.835 43.0032 134.753 42.9558 134.681 42.888C134.609 42.8203 134.55 42.7299 134.505 42.617C134.46 42.4996 134.437 42.3528 134.437 42.1766C134.437 41.9734 134.476 41.7791 134.552 41.5939C134.629 41.4087 134.742 41.2484 134.891 41.1129C135.04 40.9729 135.223 40.8622 135.44 40.7809C135.657 40.6996 135.905 40.6589 136.185 40.6589C136.235 40.6589 136.282 40.6612 136.328 40.6657C136.377 40.6702 136.427 40.677 136.477 40.686L137.445 45.1984Z" fill="#235094"/>
<path d="M144.613 42.3189C144.789 42.3189 144.941 42.346 145.067 42.4002C145.194 42.4544 145.298 42.5312 145.379 42.6306C145.46 42.7254 145.523 42.8383 145.569 42.9693C145.618 43.1003 145.654 43.2403 145.677 43.3894H145.718C145.907 43.3894 146.081 43.351 146.239 43.2742C146.397 43.1974 146.533 43.1003 146.646 42.9829L146.747 43.1658C146.657 43.3104 146.513 43.4301 146.314 43.5249C146.12 43.6198 145.919 43.6853 145.711 43.7214C145.711 43.7666 145.711 43.8117 145.711 43.8569C145.715 43.9021 145.718 43.9495 145.718 43.9992C145.718 44.5548 145.616 44.9906 145.413 45.3068C145.209 45.623 144.925 45.7811 144.559 45.7811C144.41 45.7811 144.259 45.754 144.105 45.6998C143.956 45.6456 143.821 45.5553 143.699 45.4288C143.577 45.3023 143.477 45.1397 143.4 44.941C143.328 44.7422 143.292 44.496 143.292 44.2024C143.292 44.0037 143.312 43.7937 143.353 43.5723C143.398 43.351 143.47 43.1477 143.57 42.9626C143.674 42.7774 143.809 42.6238 143.976 42.5018C144.148 42.3799 144.36 42.3189 144.613 42.3189ZM144.681 45.2662C144.92 45.2662 145.097 45.1487 145.209 44.9139C145.322 44.6745 145.379 44.338 145.379 43.9043C145.379 43.8772 145.379 43.8501 145.379 43.823C145.379 43.7959 145.377 43.7688 145.372 43.7417C145.241 43.7327 145.146 43.7033 145.088 43.6536C145.033 43.604 145.006 43.5204 145.006 43.403C145.006 43.2991 145.029 43.2268 145.074 43.1861C145.119 43.141 145.187 43.1161 145.277 43.1116C145.223 42.9535 145.153 42.8451 145.067 42.7864C144.986 42.7232 144.893 42.6915 144.789 42.6915C144.649 42.6915 144.53 42.739 144.43 42.8338C144.335 42.9242 144.256 43.0416 144.193 43.1861C144.134 43.3307 144.092 43.491 144.064 43.6672C144.037 43.8388 144.024 44.0082 144.024 44.1753C144.024 44.3967 144.044 44.5774 144.085 44.7174C144.125 44.8574 144.177 44.9681 144.241 45.0494C144.304 45.1307 144.374 45.1871 144.451 45.2188C144.527 45.2504 144.604 45.2662 144.681 45.2662Z" fill="#235094"/>
<path d="M149.125 42.3528V42.9219C149.179 42.8406 149.231 42.7638 149.281 42.6915C149.335 42.6193 149.394 42.556 149.457 42.5018C149.52 42.4476 149.59 42.4047 149.667 42.3731C149.744 42.337 149.83 42.3189 149.925 42.3189C150.078 42.3189 150.191 42.3596 150.264 42.4409C150.336 42.5176 150.372 42.6125 150.372 42.7254C150.372 42.7932 150.361 42.8496 150.338 42.8948C150.315 42.94 150.288 42.9761 150.257 43.0032C150.225 43.0303 150.191 43.0506 150.155 43.0642C150.119 43.0732 150.087 43.0777 150.06 43.0777C150.02 43.0777 149.986 43.0687 149.959 43.0506C149.936 43.0326 149.911 43.0145 149.884 42.9964C149.862 42.9738 149.834 42.9535 149.803 42.9355C149.771 42.9174 149.731 42.9084 149.681 42.9084C149.577 42.9084 149.478 42.9445 149.383 43.0168C149.288 43.089 149.202 43.1658 149.125 43.2471V45.7405H148.448V42.3528H149.125Z" fill="#235094"/>
<path d="M153.644 40.9977V44.6564C153.644 44.7016 153.646 44.758 153.651 44.8258C153.655 44.8935 153.667 44.9613 153.685 45.029C153.707 45.0923 153.739 45.1487 153.78 45.1984C153.82 45.2436 153.877 45.2662 153.949 45.2662C154.17 45.2662 154.333 45.02 154.437 44.5277H154.687C154.638 44.8122 154.574 45.0381 154.498 45.2052C154.421 45.3678 154.34 45.492 154.254 45.5778C154.168 45.6637 154.08 45.7179 153.99 45.7405C153.899 45.7676 153.818 45.7811 153.746 45.7811C153.588 45.7811 153.459 45.7517 153.359 45.693C153.26 45.6298 153.181 45.5507 153.122 45.4559C153.064 45.361 153.023 45.2549 153 45.1374C152.978 45.02 152.966 44.9071 152.966 44.7987V41.0926L153.644 40.9977Z" fill="#235094"/>
<path d="M159.158 40.9977V44.6564C159.158 44.7106 159.16 44.7738 159.165 44.8461C159.169 44.9139 159.181 44.9794 159.199 45.0426C159.221 45.1058 159.253 45.16 159.293 45.2052C159.339 45.2459 159.402 45.2662 159.483 45.2662C159.519 45.2662 159.558 45.2617 159.598 45.2526C159.643 45.2436 159.68 45.2346 159.707 45.2255C159.711 45.2481 159.713 45.2684 159.713 45.2865C159.718 45.3046 159.72 45.3249 159.72 45.3475C159.72 45.483 159.668 45.5891 159.564 45.6659C159.461 45.7427 159.343 45.7811 159.212 45.7811C159.072 45.7811 158.946 45.7337 158.833 45.6388C158.72 45.5395 158.643 45.3746 158.602 45.1442C158.535 45.3204 158.424 45.4717 158.27 45.5982C158.117 45.7201 157.932 45.7811 157.715 45.7811C157.579 45.7811 157.441 45.754 157.301 45.6998C157.166 45.6411 157.044 45.5507 156.936 45.4288C156.827 45.3068 156.737 45.1487 156.665 44.9545C156.597 44.7603 156.563 44.5254 156.563 44.2499C156.563 44.0376 156.586 43.8185 156.631 43.5927C156.68 43.3623 156.755 43.1545 156.854 42.9693C156.958 42.7796 157.091 42.6238 157.254 42.5018C157.417 42.3799 157.611 42.3189 157.837 42.3189C157.954 42.3189 158.074 42.3437 158.196 42.3934C158.322 42.4431 158.417 42.538 158.48 42.678V41.0926L159.158 40.9977ZM157.857 45.2662C157.943 45.2662 158.024 45.2459 158.101 45.2052C158.178 45.1645 158.243 45.1103 158.297 45.0426C158.356 44.9748 158.401 44.8981 158.433 44.8122C158.465 44.7219 158.48 44.627 158.48 44.5277V42.9829C158.449 42.9061 158.401 42.8383 158.338 42.7796C158.275 42.7209 158.185 42.6915 158.067 42.6915C157.923 42.6915 157.801 42.7412 157.701 42.8406C157.602 42.9355 157.521 43.0574 157.457 43.2065C157.394 43.3555 157.347 43.5227 157.315 43.7078C157.288 43.8885 157.274 44.0624 157.274 44.2295C157.274 44.5954 157.331 44.8597 157.444 45.0223C157.557 45.1849 157.694 45.2662 157.857 45.2662Z" fill="#235094"/>
<ellipse cx="28.6612" cy="16.6839" rx="1.56354" ry="1.56354" fill="white"/>
<ellipse cx="42.7335" cy="16.6839" rx="1.56354" ry="1.56354" fill="white"/>
</svg>
