<svg width="17" height="17" viewBox="0 0 17 17" fill="none" xmlns="http://www.w3.org/2000/svg">
<path d="M2.49898 14.6105C3.05232 15.1638 3.94565 15.1638 4.49898 14.6105L13.1657 5.94381C13.719 5.39048 13.719 4.49714 13.1657 3.94381C12.6123 3.39048 11.719 3.39048 11.1657 3.94381L2.49898 12.6105C1.94565 13.1638 1.94565 14.0571 2.49898 14.6105Z" stroke="#1D2329" stroke-width="0.944444" stroke-linecap="round" stroke-linejoin="round"/>
<path d="M12.1729 6.9375L10.1729 4.9375" stroke="#1D2329" stroke-width="0.944444" stroke-linecap="round" stroke-linejoin="round"/>
<path d="M5.83398 2.57043L6.83398 2.2771L6.54065 3.2771L6.83398 4.2771L5.83398 3.98377L4.83398 4.2771L5.12732 3.2771L4.83398 2.2771L5.83398 2.57043Z" stroke="#1D2329" stroke-width="0.472222" stroke-linecap="round" stroke-linejoin="round"/>
<path d="M3.16699 6.57043L4.16699 6.2771L3.87366 7.2771L4.16699 8.2771L3.16699 7.98377L2.16699 8.2771L2.46033 7.2771L2.16699 6.2771L3.16699 6.57043Z" stroke="#1D2329" stroke-width="0.472222" stroke-linecap="round" stroke-linejoin="round"/>
<path d="M13.168 9.90393L14.168 9.6106L13.8746 10.6106L14.168 11.6106L13.168 11.3173L12.168 11.6106L12.4613 10.6106L12.168 9.6106L13.168 9.90393Z" stroke="#1D2329" stroke-width="0.472222" stroke-linecap="round" stroke-linejoin="round"/>
</svg>
