<svg width="23" height="23" viewBox="0 0 23 23" fill="none" xmlns="http://www.w3.org/2000/svg">
<path d="M15.9727 17.5889H12.2227L8.05077 20.3639C7.43202 20.7764 6.59765 20.3358 6.59765 19.5858V17.5889C3.78516 17.5889 1.91016 15.7139 1.91016 12.9014V7.27637C1.91016 4.46387 3.78516 2.58887 6.59765 2.58887H15.9727C18.7852 2.58887 20.6602 4.46387 20.6602 7.27637V12.9014C20.6602 15.7139 18.7852 17.5889 15.9727 17.5889Z" stroke="#235094" stroke-width="1.41667" stroke-miterlimit="10" stroke-linecap="round" stroke-linejoin="round"/>
<path d="M11.2857 10.9604V10.7636C11.2857 10.1261 11.6795 9.78859 12.0732 9.51672C12.4576 9.25422 12.8419 8.91673 12.8419 8.29798C12.8419 7.43548 12.1482 6.7417 11.2857 6.7417C10.4232 6.7417 9.72949 7.43548 9.72949 8.29798" stroke="#235094" stroke-width="1.41667" stroke-linecap="round" stroke-linejoin="round"/>
<path d="M11.2809 13.2017H11.2894" stroke="#235094" stroke-width="1.41667" stroke-linecap="round" stroke-linejoin="round"/>
</svg>
