<svg width="15" height="18" viewBox="0 0 15 18" fill="none" xmlns="http://www.w3.org/2000/svg">
<path d="M13.966 4.61108V12.6111C13.966 15.8111 13.166 16.6111 9.96602 16.6111H5.16602C1.96602 16.6111 1.16602 15.8111 1.16602 12.6111V4.61108C1.16602 1.41108 1.96602 0.611084 5.16602 0.611084H9.96602C13.166 0.611084 13.966 1.41108 13.966 4.61108Z" stroke="#1D2329" stroke-width="0.944444" stroke-linecap="round" stroke-linejoin="round"/>
<path d="M9.16582 3.41113H5.96582" stroke="#1D2329" stroke-width="0.944444" stroke-linecap="round" stroke-linejoin="round"/>
<path d="M7.56715 14.291C8.25198 14.291 8.80715 13.7359 8.80715 13.051C8.80715 12.3662 8.25198 11.811 7.56715 11.811C6.88232 11.811 6.32715 12.3662 6.32715 13.051C6.32715 13.7359 6.88232 14.291 7.56715 14.291Z" stroke="#1D2329" stroke-width="0.944444" stroke-linecap="round" stroke-linejoin="round"/>
</svg>
