<svg width="17" height="17" viewBox="0 0 17 17" fill="none" xmlns="http://www.w3.org/2000/svg">
<path d="M3.82071 12.8267V10.88C3.82071 10.2334 4.32737 9.65336 5.04737 9.65336C5.69404 9.65336 6.27404 10.16 6.27404 10.88V12.7534C6.27404 14.0534 5.19403 15.1334 3.89403 15.1334C2.59403 15.1334 1.51403 14.0467 1.51403 12.7534V8.64669C1.4407 4.90002 4.4007 1.8667 8.14737 1.8667C11.894 1.8667 14.8474 4.90003 14.8474 8.57336V12.6801C14.8474 13.9801 13.7674 15.0601 12.4674 15.0601C11.1674 15.0601 10.0874 13.9801 10.0874 12.6801V10.8067C10.0874 10.1601 10.594 9.58004 11.314 9.58004C11.9607 9.58004 12.5407 10.0867 12.5407 10.8067V12.8267" stroke="#1D2329" stroke-width="0.944444" stroke-linecap="round" stroke-linejoin="round"/>
</svg>
