<svg width="23" height="23" viewBox="0 0 23 23" fill="none" xmlns="http://www.w3.org/2000/svg">
<path d="M11.876 10.5012C11.7822 10.4918 11.6697 10.4918 11.5666 10.5012C9.33535 10.4262 7.56348 8.59805 7.56348 6.34805C7.56348 4.05117 9.41973 2.18555 11.726 2.18555C14.0229 2.18555 15.8885 4.05117 15.8885 6.34805C15.8791 8.59805 14.1072 10.4262 11.876 10.5012Z" stroke="#235094" stroke-width="1.41667" stroke-linecap="round" stroke-linejoin="round"/>
<path d="M7.18984 13.9605C4.92109 15.4793 4.92109 17.9543 7.18984 19.4637C9.76797 21.1887 13.9961 21.1887 16.5742 19.4637C18.843 17.9449 18.843 15.4699 16.5742 13.9605C14.0055 12.2449 9.77734 12.2449 7.18984 13.9605Z" stroke="#235094" stroke-width="1.41667" stroke-linecap="round" stroke-linejoin="round"/>
</svg>
