<svg width="20" height="20" viewBox="0 0 20 20" fill="none" xmlns="http://www.w3.org/2000/svg">
<path d="M2.50879 9.3501V13.0918C2.50879 16.8334 4.00879 18.3334 7.75046 18.3334H12.2421C15.9838 18.3334 17.4838 16.8334 17.4838 13.0918V9.3501" stroke="#235094" stroke-linecap="round" stroke-linejoin="round"/>
<path d="M9.99975 10.0001C11.5247 10.0001 12.6497 8.75841 12.4997 7.23341L11.9497 1.66675H8.05808L7.49975 7.23341C7.34975 8.75841 8.47475 10.0001 9.99975 10.0001Z" stroke="#235094" stroke-linecap="round" stroke-linejoin="round"/>
<path d="M15.2587 10.0001C16.942 10.0001 18.1753 8.63341 18.0087 6.95841L17.7753 4.66675C17.4753 2.50008 16.642 1.66675 14.4587 1.66675H11.917L12.5003 7.50841C12.642 8.88341 13.8837 10.0001 15.2587 10.0001Z" stroke="#235094" stroke-linecap="round" stroke-linejoin="round"/>
<path d="M4.69966 10.0001C6.07466 10.0001 7.31632 8.88341 7.44966 7.50841L7.63299 5.66675L8.03299 1.66675H5.49133C3.30799 1.66675 2.47466 2.50008 2.17466 4.66675L1.94966 6.95841C1.78299 8.63341 3.01632 10.0001 4.69966 10.0001Z" stroke="#235094" stroke-linecap="round" stroke-linejoin="round"/>
<path d="M10.0003 14.1667C8.60866 14.1667 7.91699 14.8584 7.91699 16.2501V18.3334H12.0837V16.2501C12.0837 14.8584 11.392 14.1667 10.0003 14.1667Z" stroke="#235094" stroke-linecap="round" stroke-linejoin="round"/>
</svg>
