<svg width="21" height="21" viewBox="0 0 21 21" fill="none" xmlns="http://www.w3.org/2000/svg">
<path d="M4.25071 13.6945L8.02571 17.4695C9.57571 19.0195 12.0924 19.0195 13.6507 17.4695L17.309 13.8112C18.859 12.2612 18.859 9.7445 17.309 8.18617L13.5257 4.4195C12.734 3.62783 11.6424 3.20283 10.5257 3.26117L6.35904 3.46117C4.69237 3.53617 3.36737 4.86117 3.28404 6.5195L3.08404 10.6862C3.03404 11.8112 3.45904 12.9028 4.25071 13.6945Z" stroke="#EF8D1B" stroke-width="1.41667" stroke-linecap="round" stroke-linejoin="round"/>
<path d="M8.69271 10.944C9.8433 10.944 10.776 10.0113 10.776 8.86068C10.776 7.71008 9.8433 6.77734 8.69271 6.77734C7.54212 6.77734 6.60938 7.71008 6.60938 8.86068C6.60938 10.0113 7.54212 10.944 8.69271 10.944Z" stroke="#EF8D1B" stroke-width="1.41667" stroke-linecap="round"/>
</svg>
