<svg width="24" height="23" viewBox="0 0 24 23" fill="none" xmlns="http://www.w3.org/2000/svg">
<path d="M8.84687 2.18628L5.45312 5.5894" stroke="#235094" stroke-width="1.41667" stroke-miterlimit="10" stroke-linecap="round" stroke-linejoin="round"/>
<path d="M14.8281 2.18628L18.2219 5.5894" stroke="#235094" stroke-width="1.41667" stroke-miterlimit="10" stroke-linecap="round" stroke-linejoin="round"/>
<path d="M2.46289 7.67065C2.46289 5.93628 3.39101 5.79565 4.54414 5.79565H19.1316C20.2847 5.79565 21.2128 5.93628 21.2128 7.67065C21.2128 9.68627 20.2847 9.54565 19.1316 9.54565H4.54414C3.39101 9.54565 2.46289 9.68627 2.46289 7.67065Z" stroke="#235094" stroke-width="1.41667"/>
<path d="M9.73828 13.4363V16.7644" stroke="#235094" stroke-width="1.41667" stroke-linecap="round"/>
<path d="M14.0498 13.4363V16.7644" stroke="#235094" stroke-width="1.41667" stroke-linecap="round"/>
<path d="M3.86914 9.68628L5.19101 17.7863C5.49101 19.605 6.21288 20.9363 8.89413 20.9363H14.5472C17.4629 20.9363 17.8941 19.6613 18.2316 17.8988L19.8066 9.68628" stroke="#235094" stroke-width="1.41667" stroke-linecap="round"/>
</svg>
