<svg width="161" height="48" viewBox="0 0 161 48" fill="none" xmlns="http://www.w3.org/2000/svg">
<ellipse cx="108.742" cy="24.3643" rx="1.56354" ry="1.56354" fill="white"/>
<path fill-rule="evenodd" clip-rule="evenodd" d="M49.586 12.1162H20.1393C17.0122 11.9859 14.5366 14.0707 18.1848 16.0251C20.921 16.0251 22.5627 20.0642 18.1848 19.5431H12.4518C10.2368 19.5431 8.5951 22.2793 12.4518 23.3216H20.5301C22.4846 23.3216 23.9699 26.7614 20.5301 26.9699H15.4486C13.2336 26.9699 11.9307 30.7485 15.4486 30.7485C18.9666 30.7485 18.706 35.5694 15.4486 34.6573H9.71564C7.50061 34.2664 5.80677 38.1753 9.71564 38.6965H24.1784C25.6117 38.6965 26.4716 41.2503 24.1784 42.0841H16.8819C14.6669 42.0841 14.5887 45.3676 16.8819 45.4718H49.7163C52.7131 45.2112 52.7131 45.0809 52.7131 39.8691L53.4949 14.0707C53.4949 12.898 53.0258 11.9078 49.586 12.1162ZM35.7747 35.3088C38.1721 35.5173 40.1613 32.7029 40.8562 31.2696C41.3774 30.7485 40.7259 30.4444 40.335 30.3576L39.6836 31.2696C39.6836 31.2696 38.9999 31.681 38.5109 31.7908C37.9648 31.9134 37.0777 31.7908 37.0777 31.7908L36.2959 31.009C36.0874 30.8006 35.8616 31.0959 35.7747 31.2696L34.8626 31.7908L34.4717 32.8332H33.5597L33.4294 31.7908L33.2991 30.7485C31.0059 29.3934 31.6487 27.6648 32.2567 26.9699C35.0711 25.4063 37.5988 28.3163 38.5109 29.9667L39.6836 29.7061V28.6637L38.9018 28.0123L37.8594 26.9699L36.8171 25.7972H37.8594L38.5109 26.3184L39.2927 27.2305L40.335 27.4911C38.8757 23.947 35.4707 23.8428 33.9506 24.2337C30.0417 25.1458 30.9538 29.4455 30.9538 29.9667C28.1394 32.9895 24.439 28.0123 25.3511 25.7972C25.6638 20.2727 31.5618 19.3259 34.4717 19.5431V20.7157L35.7747 21.4975H41.638L42.1592 23.7125C43.0278 24.972 44.8693 27.5953 45.2863 28.0123C48.2049 26.9699 47.8922 29.1415 47.371 30.3576L43.7227 33.8755V37.9147C43.2884 38.0884 42.3676 38.488 42.1592 38.6965C42.3676 42.3447 38.5109 43.6911 36.5565 43.9083C35.8268 42.6574 32.9082 36.2209 35.7747 35.3088ZM44.7651 39.0874C44.6608 39.4001 44.3742 39.5651 44.2439 39.6085C44.2439 39.6085 44.036 40.5221 44.2439 41.0418C44.5045 41.6933 45.8074 41.0418 45.8074 41.0418V39.8691H46.3286L46.5892 38.6965H47.2407V36.4814L46.3286 36.6117V37.2632L45.0257 37.6541C44.9822 38.0016 44.8693 38.7746 44.7651 39.0874Z" fill="white"/>
<path d="M12.4518 12.1162C14.6669 11.595 17.9764 15.6081 12.4518 16.0251C7.86545 16.0251 8.93386 11.595 12.4518 12.1162Z" fill="white"/>
<path d="M2.94027 26.9699H11.0186C12.8427 26.9699 13.7548 30.097 11.0186 30.7485L2.67968 30.7485C0.985845 31.1393 -0.499522 27.3868 2.94027 26.9699Z" fill="white"/>
<path d="M29.1296 10.683H32.2567C32.6042 8.03364 34.4978 2.86526 39.2927 3.38644C44.0875 3.90762 44.9388 8.46796 44.7651 10.683H48.0225C48.283 7.03471 46.9197 0.389649 39.2927 0.389648C30.5629 0.389648 29.3468 7.46903 29.1296 10.683Z" fill="white"/>
<path d="M69.9844 35.3948L69.1856 32.9262H70.7503H71.017V32.6595V28.7569V28.4902H70.7503H67.7501L66.0483 23.2315L66.9178 20.6104L67.0341 20.2597H66.6647H64.8927H64.5261L64.639 20.6085L65.4871 23.2294L63.7419 28.4902H60.9548H60.6881V28.7569V32.6595V32.9262H60.9548H62.2703L61.4514 35.3948H57.0077L63.4778 18.1163H68.1281L74.5266 35.3948H69.9844ZM69.013 32.3928L67.9227 29.0236H70.4836V32.3928H69.013ZM67.3621 29.0236L68.4524 32.3928H63.0092L64.1269 29.0236H67.3621ZM61.2214 29.0236H63.565L62.4473 32.3928H61.2214V29.0236ZM66.2953 20.7931L65.7708 22.374L65.2592 20.7931H66.2953ZM80.9701 18.1163V21.7357H80.5681V18.1163H80.9701ZM81.5034 18.1163H89.0182V21.7357H81.5034V18.1163ZM80.3015 22.269H80.9701V24.9128H80.3015H80.0348V25.1795V29.3323V29.5989H80.3015H80.9701V35.3948H76.581V18.1163H80.0348V22.0024V22.269H80.3015ZM80.5681 25.4462H80.9701V29.0656H80.5681V25.4462ZM81.5034 29.0656V25.4462H88.649V29.0656H81.5034ZM101.067 35.3948L98.5591 28.8234H98.9391C100.266 28.8234 101.43 28.593 102.425 28.1223C102.653 28.0146 102.869 27.8969 103.074 27.7694L106.079 35.3948H101.067ZM96.6215 18.1163H99.1852C100.366 18.1163 101.391 18.3352 102.267 18.7645C103.146 19.1953 103.831 19.7898 104.328 20.5476C104.821 21.2997 105.072 22.1816 105.072 23.2032C105.072 24.2231 104.814 25.1038 104.305 25.8556L104.303 25.8588C104.035 26.2667 103.709 26.6276 103.321 26.9413L102.559 25.0067L102.492 24.8378H102.311H100.064C100.078 24.8247 100.093 24.8114 100.107 24.7978C100.528 24.4077 100.732 23.892 100.732 23.2782C100.732 22.6645 100.528 22.1488 100.107 21.7586C99.6956 21.3619 99.1102 21.1853 98.3976 21.1853H96.6215V18.1163ZM95.6862 18.1163H96.0882V21.1853H95.6862V18.1163ZM96.0882 21.7187V35.3948H91.6991V18.1163H95.1529V21.452V21.7187H95.4196H96.0882ZM98.9391 28.2901H98.5758L97.5756 25.8751L98.4677 25.3711H102.129L102.875 27.2641C102.664 27.4009 102.438 27.5263 102.197 27.6403C101.288 28.0702 100.205 28.2901 98.9391 28.2901ZM97.3835 25.3711L97.2667 25.4371L97.2416 25.3711H97.3835ZM107.603 28.4317V18.1163H111.992V28.882C111.992 29.4881 112.124 30.0224 112.401 30.4726C112.671 30.913 113.035 31.2549 113.488 31.4943L113.487 31.4946L113.499 31.5C113.964 31.718 114.47 31.8254 115.015 31.8254C115.574 31.8254 116.077 31.7187 116.514 31.4963L116.514 31.4963L116.518 31.4943C116.97 31.2556 117.326 30.922 117.582 30.495L117.582 30.495L117.585 30.4907C117.842 30.0417 117.964 29.51 117.964 28.907V18.1163H122.378V28.4567C122.378 29.8844 122.067 31.139 121.453 32.2282L121.452 32.2294C120.853 33.3025 120.003 34.1516 118.896 34.7787C117.811 35.3861 116.52 35.695 115.015 35.695C113.51 35.695 112.211 35.3863 111.109 34.7783C110.002 34.1514 109.144 33.2941 108.528 32.2032C107.914 31.114 107.603 29.8593 107.603 28.4317ZM129.59 19.4554L135.788 27.3728V31.7089V31.7494L135.8 31.7881L136.598 34.351L130.415 26.4527V21.6021V21.5515L130.396 21.5045L129.59 19.4554ZM136.322 31.6683V28.054L138.539 30.8863L137.29 34.7771L136.322 31.6683ZM137.651 35.3948L139.09 30.9148L139.133 30.7802L139.046 30.6689L136.322 27.1889V18.1163H140.711V35.3948H137.651ZM129.882 21.6527V25.7714L127.418 22.6248L128.697 18.6425L129.882 21.6527ZM125.492 18.1163H128.306L126.867 22.5963L126.824 22.7309L126.911 22.8422L129.882 26.6366V35.3948H125.492V18.1163ZM155.934 35.3948L155.135 32.9262H156.7H156.967V32.6595V28.7569V28.4902H156.7H153.7L151.998 23.2315L152.867 20.6104L152.984 20.2597H152.614H150.842H150.476L150.589 20.6085L151.437 23.2294L149.691 28.4902H146.904H146.638V28.7569V32.6595V32.9262H146.904H148.22L147.401 35.3948H142.957L149.427 18.1163H154.078L160.476 35.3948H155.934ZM154.963 32.3928L153.872 29.0236H156.433V32.3928H154.963ZM153.312 29.0236L154.402 32.3928H148.959L150.076 29.0236H153.312ZM147.171 29.0236H149.515L148.397 32.3928H147.171V29.0236ZM152.245 20.7931L151.72 22.374L151.209 20.7931H152.245Z" fill="white" stroke="white" stroke-width="0.533333"/>
<path d="M56.8799 44.9299C56.8799 44.808 56.9228 44.7018 57.0086 44.6115C57.0944 44.5212 57.2006 44.476 57.3271 44.476C57.449 44.476 57.5552 44.5212 57.6455 44.6115C57.7358 44.7018 57.781 44.808 57.781 44.9299C57.781 45.0564 57.7358 45.1626 57.6455 45.2484C57.5552 45.3342 57.449 45.3771 57.3271 45.3771C57.2006 45.3771 57.0944 45.3342 57.0086 45.2484C56.9228 45.1626 56.8799 45.0564 56.8799 44.9299Z" fill="white"/>
<path d="M60.5317 44.9299C60.5317 44.808 60.5746 44.7018 60.6604 44.6115C60.7462 44.5212 60.8524 44.476 60.9789 44.476C61.1008 44.476 61.207 44.5212 61.2973 44.6115C61.3876 44.7018 61.4328 44.808 61.4328 44.9299C61.4328 45.0564 61.3876 45.1626 61.2973 45.2484C61.207 45.3342 61.1008 45.3771 60.9789 45.3771C60.8524 45.3771 60.7462 45.3342 60.6604 45.2484C60.5746 45.1626 60.5317 45.0564 60.5317 44.9299Z" fill="white"/>
<path d="M64.1835 44.9299C64.1835 44.808 64.2264 44.7018 64.3122 44.6115C64.3981 44.5212 64.5042 44.476 64.6307 44.476C64.7526 44.476 64.8588 44.5212 64.9491 44.6115C65.0395 44.7018 65.0846 44.808 65.0846 44.9299C65.0846 45.0564 65.0395 45.1626 64.9491 45.2484C64.8588 45.3342 64.7526 45.3771 64.6307 45.3771C64.5042 45.3771 64.3981 45.3342 64.3122 45.2484C64.2264 45.1626 64.1835 45.0564 64.1835 44.9299Z" fill="white"/>
<path d="M74.2979 45.3432V42.9041C74.1263 42.8228 73.9298 42.7551 73.7085 42.7008C73.4917 42.6421 73.2704 42.5992 73.0445 42.5721C72.9903 42.7709 72.9406 42.9764 72.8954 43.1887C72.8503 43.3965 72.8119 43.6042 72.7803 43.812C72.7486 44.0153 72.7238 44.2163 72.7057 44.415C72.6877 44.6092 72.6786 44.7944 72.6786 44.9706C72.6786 45.1693 72.6922 45.3636 72.7193 45.5533C72.7509 45.743 72.8164 45.9304 72.9158 46.1156C72.8119 46.1156 72.7035 46.1043 72.5906 46.0817C72.4776 46.0592 72.3737 46.0072 72.2789 45.9259C72.184 45.8491 72.105 45.7362 72.0418 45.5871C71.983 45.4426 71.9537 45.2461 71.9537 44.9977C71.9537 44.8396 71.965 44.6634 71.9876 44.4692C72.0101 44.275 72.044 44.0717 72.0892 43.8594C72.1343 43.6471 72.1886 43.4303 72.2518 43.209C72.3195 42.9832 72.3941 42.7618 72.4754 42.545C72.3444 42.5495 72.2202 42.5608 72.1027 42.5789C71.9898 42.597 71.8904 42.6241 71.8046 42.6602C71.7233 42.6918 71.6578 42.7302 71.6081 42.7754C71.5584 42.8205 71.5336 42.8702 71.5336 42.9244C71.5336 42.9425 71.5359 42.9561 71.5404 42.9651C71.6578 43.0012 71.7165 43.0758 71.7165 43.1887C71.7165 43.27 71.6872 43.3264 71.6285 43.3581C71.5697 43.3897 71.5065 43.4055 71.4387 43.4055C71.3258 43.4055 71.2219 43.3739 71.1271 43.3106C71.0277 43.2429 70.978 43.1277 70.978 42.9651C70.978 42.8567 71.0119 42.7596 71.0797 42.6737C71.1429 42.5879 71.231 42.5157 71.3439 42.4569C71.4613 42.3937 71.5968 42.3463 71.7504 42.3147C71.9085 42.283 72.0801 42.2672 72.2653 42.2672C72.315 42.2672 72.367 42.2695 72.4212 42.274C72.4754 42.274 72.5296 42.2763 72.5838 42.2808C72.6967 42.0098 72.8232 41.7523 72.9632 41.5084C73.1032 41.26 73.2545 41.0454 73.4172 40.8647C73.5798 40.6795 73.7514 40.5327 73.9321 40.4243C74.1128 40.3159 74.3025 40.2617 74.5012 40.2617C74.569 40.2617 74.6525 40.2685 74.7519 40.282C74.8558 40.2956 74.9529 40.3204 75.0432 40.3566V45.3432H74.2979ZM73.1123 42.3485C73.3381 42.3892 73.5549 42.4411 73.7627 42.5044C73.9705 42.5631 74.1489 42.6286 74.2979 42.7008V40.5869C74.185 40.596 74.0744 40.6479 73.966 40.7428C73.8575 40.8331 73.7514 40.9573 73.6475 41.1154C73.5481 41.2735 73.4533 41.4587 73.3629 41.671C73.2726 41.8788 73.189 42.1046 73.1123 42.3485Z" fill="white"/>
<path d="M78.5768 41.9556H79.1257V42.1927H78.5768V45.8853C78.5768 46.1247 78.552 46.3189 78.5023 46.4679C78.4572 46.617 78.3962 46.7344 78.3194 46.8203C78.2426 46.9061 78.1523 46.9625 78.0484 46.9896C77.949 47.0213 77.8429 47.0371 77.7299 47.0371C77.486 47.0371 77.3076 46.9806 77.1947 46.8677C77.0772 46.7548 77.0185 46.5922 77.0185 46.3799C77.0185 46.2669 77.0456 46.1631 77.0998 46.0682C77.1495 45.9733 77.2173 45.8853 77.3031 45.804C77.3844 45.7272 77.477 45.6572 77.5809 45.5939C77.6848 45.5352 77.7909 45.4833 77.8993 45.4381V41.4406C77.8993 41.0477 77.9919 40.7541 78.1771 40.5598C78.3623 40.3611 78.5994 40.2617 78.8885 40.2617C79.024 40.2617 79.1482 40.282 79.2612 40.3227C79.3741 40.3633 79.4735 40.4266 79.5593 40.5124C79.6451 40.5982 79.7106 40.7044 79.7558 40.8308C79.8054 40.9573 79.8303 41.1064 79.8303 41.278H79.5661C79.539 41.0973 79.4893 40.9551 79.417 40.8512C79.3492 40.7473 79.2341 40.6953 79.0715 40.6953C78.963 40.6953 78.8772 40.7202 78.814 40.7699C78.7508 40.815 78.7011 40.8783 78.6649 40.9596C78.6288 41.0409 78.604 41.1403 78.5904 41.2577C78.5814 41.3706 78.5768 41.4948 78.5768 41.6303V41.9556ZM77.5944 46.6848C77.7254 46.6848 77.809 46.6147 77.8451 46.4747C77.8812 46.3347 77.8993 46.1427 77.8993 45.8988V45.6888C77.6961 45.7882 77.5425 45.8966 77.4386 46.014C77.3347 46.1314 77.2828 46.2466 77.2828 46.3595C77.2828 46.4499 77.3121 46.5267 77.3708 46.5899C77.4296 46.6531 77.5041 46.6848 77.5944 46.6848Z" fill="white"/>
<path d="M82.4338 41.9556V42.5247C82.488 42.4434 82.5399 42.3666 82.5896 42.2943C82.6438 42.2221 82.7025 42.1588 82.7658 42.1046C82.829 42.0504 82.899 42.0075 82.9758 41.9759C83.0526 41.9397 83.1384 41.9217 83.2333 41.9217C83.3868 41.9217 83.4998 41.9623 83.572 42.0436C83.6443 42.1204 83.6804 42.2153 83.6804 42.3282C83.6804 42.396 83.6691 42.4524 83.6466 42.4976C83.624 42.5428 83.5969 42.5789 83.5653 42.606C83.5336 42.6331 83.4998 42.6534 83.4636 42.667C83.4275 42.676 83.3959 42.6805 83.3688 42.6805C83.3281 42.6805 83.2942 42.6715 83.2671 42.6534C83.2446 42.6354 83.2197 42.6173 83.1926 42.5992C83.17 42.5766 83.1429 42.5563 83.1113 42.5382C83.0797 42.5202 83.039 42.5111 82.9894 42.5111C82.8855 42.5111 82.7861 42.5473 82.6912 42.6195C82.5964 42.6918 82.5106 42.7686 82.4338 42.8499V45.3432H81.7562V41.9556H82.4338Z" fill="white"/>
<path d="M86.9525 41.9556V44.2592C86.9525 44.3043 86.9548 44.3608 86.9593 44.4286C86.9638 44.4963 86.9751 44.5641 86.9932 44.6318C87.0157 44.6951 87.0474 44.7515 87.088 44.8012C87.1287 44.8464 87.1851 44.869 87.2574 44.869C87.4787 44.869 87.6413 44.6228 87.7452 44.1304H87.9959C87.9462 44.415 87.883 44.6409 87.8062 44.808C87.7294 44.9706 87.6481 45.0948 87.5623 45.1806C87.4765 45.2664 87.3884 45.3207 87.2981 45.3432C87.2077 45.3703 87.1264 45.3839 87.0541 45.3839C86.896 45.3839 86.7673 45.3545 86.6679 45.2958C86.5686 45.2326 86.4895 45.1535 86.4308 45.0587C86.3721 44.9638 86.3314 44.8577 86.3089 44.7402C86.2863 44.6228 86.275 44.5099 86.275 44.4015V41.9556H86.9525ZM86.153 40.9799C86.153 40.858 86.1959 40.7518 86.2818 40.6615C86.3676 40.5711 86.4737 40.526 86.6002 40.526C86.7221 40.526 86.8283 40.5711 86.9186 40.6615C87.009 40.7518 87.0541 40.858 87.0541 40.9799C87.0541 41.1064 87.009 41.2125 86.9186 41.2983C86.8283 41.3842 86.7221 41.4271 86.6002 41.4271C86.4737 41.4271 86.3676 41.3842 86.2818 41.2983C86.1959 41.2125 86.153 41.1064 86.153 40.9799Z" fill="white"/>
<path d="M91.511 42.9922C91.5471 42.9606 91.5742 42.9109 91.5923 42.8431C91.6148 42.7709 91.6261 42.7031 91.6261 42.6399C91.6261 42.536 91.5923 42.4502 91.5245 42.3824C91.4613 42.3147 91.3709 42.2808 91.2535 42.2808C91.1315 42.2808 91.0299 42.3259 90.9486 42.4163C90.8673 42.5066 90.8018 42.6218 90.7521 42.7618C90.7024 42.8973 90.6663 43.0509 90.6437 43.2225C90.6256 43.3897 90.6166 43.5545 90.6166 43.7172C90.6166 43.9565 90.6369 44.1508 90.6776 44.2998C90.7228 44.4489 90.7815 44.5663 90.8537 44.6521C90.926 44.7335 91.0096 44.7899 91.1044 44.8215C91.2038 44.8532 91.3077 44.869 91.4161 44.869C91.6555 44.869 91.8565 44.8102 92.0191 44.6928C92.1862 44.5708 92.3285 44.3834 92.4459 44.1304H92.6763C92.6221 44.2976 92.5453 44.4579 92.4459 44.6115C92.3466 44.7606 92.2314 44.8938 92.1004 45.0112C91.9694 45.1242 91.8271 45.2145 91.6736 45.2823C91.52 45.35 91.3596 45.3839 91.1925 45.3839C91.0344 45.3839 90.8786 45.3568 90.725 45.3026C90.5714 45.2484 90.4337 45.1603 90.3117 45.0383C90.1898 44.9119 90.0904 44.7493 90.0136 44.5505C89.9368 44.3473 89.8984 44.0988 89.8984 43.8052C89.8984 43.6155 89.9142 43.4123 89.9458 43.1954C89.982 42.9741 90.0452 42.7709 90.1356 42.5857C90.2304 42.396 90.3591 42.2379 90.5217 42.1114C90.6844 41.9849 90.8944 41.9217 91.1519 41.9217C91.4364 41.9217 91.6532 41.9917 91.8023 42.1317C91.9513 42.2672 92.0259 42.4682 92.0259 42.7347C92.0259 42.8476 92.0033 42.9425 91.9581 43.0193C91.9175 43.0961 91.852 43.1345 91.7616 43.1345C91.6623 43.1345 91.5787 43.087 91.511 42.9922Z" fill="white"/>
<path d="M97.1769 41.9556V44.2592C97.1769 44.3134 97.1792 44.3766 97.1837 44.4489C97.1882 44.5166 97.1995 44.5821 97.2175 44.6454C97.2401 44.7086 97.2718 44.7628 97.3124 44.808C97.3576 44.8486 97.4208 44.869 97.5021 44.869C97.5382 44.869 97.5766 44.8644 97.6173 44.8554C97.6625 44.8464 97.6986 44.8373 97.7257 44.8283C97.7302 44.8509 97.7325 44.8712 97.7325 44.8893C97.737 44.9074 97.7393 44.9277 97.7393 44.9503C97.7393 45.0858 97.6873 45.1919 97.5834 45.2687C97.4795 45.3455 97.3621 45.3839 97.2311 45.3839C97.0911 45.3839 96.9646 45.3365 96.8517 45.2416C96.7388 45.1422 96.662 44.9774 96.6213 44.747C96.5536 44.9232 96.4429 45.0745 96.2893 45.201C96.1357 45.3229 95.9506 45.3839 95.7337 45.3839C95.5982 45.3839 95.4605 45.3568 95.3204 45.3026C95.1849 45.2439 95.063 45.1535 94.9546 45.0316C94.8462 44.9096 94.7558 44.7515 94.6836 44.5573C94.6158 44.3631 94.5819 44.1282 94.5819 43.8527C94.5819 43.6404 94.6045 43.4213 94.6497 43.1954C94.6994 42.9651 94.7739 42.7573 94.8733 42.5721C94.9772 42.3824 95.1104 42.2266 95.273 42.1046C95.4356 41.9827 95.6299 41.9217 95.8557 41.9217C95.9731 41.9217 96.0928 41.9465 96.2148 41.9962C96.3413 42.0459 96.4361 42.1408 96.4994 42.2808V41.9556H97.1769ZM95.876 44.869C95.9618 44.869 96.0432 44.8486 96.1199 44.808C96.1967 44.7673 96.2622 44.7131 96.3164 44.6454C96.3751 44.5776 96.4203 44.5008 96.4519 44.415C96.4836 44.3247 96.4994 44.2298 96.4994 44.1304V42.5857C96.4677 42.5089 96.4203 42.4411 96.3571 42.3824C96.2938 42.3237 96.2035 42.2943 96.0861 42.2943C95.9415 42.2943 95.8196 42.344 95.7202 42.4434C95.6208 42.5382 95.5395 42.6602 95.4763 42.8093C95.413 42.9583 95.3656 43.1254 95.334 43.3106C95.3069 43.4913 95.2933 43.6652 95.2933 43.8323C95.2933 44.1982 95.3498 44.4624 95.4627 44.625C95.5757 44.7877 95.7134 44.869 95.876 44.869Z" fill="white"/>
<path d="M104.67 40.9257V41.9556H105.191V42.1927H104.67V44.2592C104.67 44.3134 104.672 44.3766 104.676 44.4489C104.681 44.5166 104.692 44.5821 104.71 44.6454C104.733 44.7086 104.764 44.7628 104.805 44.808C104.85 44.8486 104.911 44.869 104.988 44.869C105.11 44.869 105.225 44.808 105.334 44.686C105.446 44.5641 105.535 44.3789 105.598 44.1304H105.848C105.772 44.415 105.688 44.6409 105.598 44.808C105.512 44.9706 105.422 45.0948 105.327 45.1806C105.232 45.2664 105.137 45.3207 105.042 45.3432C104.952 45.3703 104.868 45.3839 104.791 45.3839C104.629 45.3839 104.496 45.3545 104.392 45.2958C104.288 45.2326 104.207 45.1535 104.148 45.0587C104.089 44.9638 104.048 44.8599 104.026 44.747C104.003 44.6296 103.992 44.5144 103.992 44.4015V42.1927H103.762V41.9556H103.992V41.0206L104.67 40.9257Z" fill="white"/>
<path d="M109.062 41.9217C109.22 41.9217 109.358 41.9443 109.475 41.9894C109.593 42.0346 109.692 42.0978 109.774 42.1791C109.859 42.2559 109.927 42.3508 109.977 42.4637C110.031 42.5721 110.072 42.6896 110.099 42.816C110.225 42.816 110.316 42.7776 110.37 42.7008C110.424 42.6195 110.462 42.545 110.485 42.4773H110.682C110.645 42.6263 110.584 42.7799 110.499 42.938C110.417 43.0916 110.302 43.2067 110.153 43.2835C110.162 43.3377 110.167 43.3919 110.167 43.4461C110.167 43.4958 110.167 43.5478 110.167 43.602C110.167 44.1575 110.065 44.5934 109.862 44.9096C109.658 45.2258 109.374 45.3839 109.008 45.3839C108.859 45.3839 108.708 45.3568 108.554 45.3026C108.405 45.2484 108.269 45.158 108.148 45.0316C108.026 44.9051 107.926 44.7425 107.849 44.5437C107.777 44.345 107.741 44.0988 107.741 43.8052C107.741 43.6065 107.761 43.3965 107.802 43.1751C107.847 42.9538 107.919 42.7505 108.019 42.5653C108.123 42.3801 108.258 42.2266 108.425 42.1046C108.597 41.9827 108.809 41.9217 109.062 41.9217ZM109.13 44.869C109.369 44.869 109.545 44.7515 109.658 44.5166C109.771 44.2772 109.828 43.9407 109.828 43.5071C109.828 43.4845 109.826 43.4619 109.821 43.4394C109.821 43.4123 109.821 43.3874 109.821 43.3648C109.695 43.3648 109.602 43.331 109.543 43.2632C109.485 43.1909 109.455 43.0893 109.455 42.9583C109.455 42.868 109.478 42.798 109.523 42.7483C109.568 42.6941 109.629 42.6625 109.706 42.6534C109.652 42.5224 109.584 42.4298 109.503 42.3756C109.421 42.3214 109.333 42.2943 109.238 42.2943C109.098 42.2943 108.979 42.3418 108.879 42.4366C108.784 42.5269 108.705 42.6444 108.642 42.7889C108.583 42.9335 108.54 43.0938 108.513 43.27C108.486 43.4416 108.473 43.611 108.473 43.7781C108.473 43.9995 108.493 44.1801 108.534 44.3202C108.574 44.4602 108.626 44.5708 108.69 44.6521C108.753 44.7335 108.823 44.7899 108.9 44.8215C108.976 44.8532 109.053 44.869 109.13 44.869Z" fill="white"/>
<path d="M117.583 40.9257V41.9556H118.105V42.1927H117.583V44.2592C117.583 44.3134 117.586 44.3766 117.59 44.4489C117.595 44.5166 117.606 44.5821 117.624 44.6454C117.647 44.7086 117.678 44.7628 117.719 44.808C117.764 44.8486 117.825 44.869 117.902 44.869C118.024 44.869 118.139 44.808 118.247 44.686C118.36 44.5641 118.448 44.3789 118.512 44.1304H118.762C118.686 44.415 118.602 44.6409 118.512 44.808C118.426 44.9706 118.336 45.0948 118.241 45.1806C118.146 45.2664 118.051 45.3207 117.956 45.3432C117.866 45.3703 117.782 45.3839 117.705 45.3839C117.543 45.3839 117.41 45.3545 117.306 45.2958C117.202 45.2326 117.12 45.1535 117.062 45.0587C117.003 44.9638 116.962 44.8599 116.94 44.747C116.917 44.6296 116.906 44.5144 116.906 44.4015V42.1927H116.676V41.9556H116.906V41.0206L117.583 40.9257Z" fill="white"/>
<path d="M121.414 40.6005V42.4705C121.482 42.3485 121.549 42.2514 121.617 42.1791C121.689 42.1024 121.762 42.0459 121.834 42.0098C121.906 41.9736 121.974 41.951 122.037 41.942C122.105 41.9285 122.168 41.9217 122.227 41.9217C122.43 41.9217 122.593 41.9601 122.715 42.0369C122.841 42.1136 122.936 42.213 122.999 42.335C123.062 42.4524 123.103 42.5834 123.121 42.7279C123.144 42.868 123.155 43.0035 123.155 43.1345C123.155 43.2158 123.153 43.3061 123.148 43.4055C123.144 43.5003 123.139 43.5997 123.135 43.7036C123.13 43.803 123.126 43.9046 123.121 44.0085C123.117 44.1079 123.114 44.2005 123.114 44.2863C123.114 44.3224 123.117 44.3744 123.121 44.4421C123.126 44.5054 123.137 44.5686 123.155 44.6318C123.173 44.6951 123.202 44.7515 123.243 44.8012C123.284 44.8464 123.342 44.869 123.419 44.869C123.523 44.869 123.616 44.8102 123.697 44.6928C123.783 44.5754 123.853 44.3879 123.907 44.1304H124.158C124.108 44.415 124.045 44.6409 123.968 44.808C123.891 44.9706 123.81 45.0948 123.724 45.1806C123.638 45.2664 123.553 45.3207 123.467 45.3432C123.381 45.3703 123.302 45.3839 123.23 45.3839C123.085 45.3839 122.963 45.3568 122.864 45.3026C122.764 45.2439 122.683 45.1671 122.62 45.0722C122.557 44.9774 122.509 44.8667 122.478 44.7402C122.45 44.6138 122.437 44.4828 122.437 44.3473C122.437 44.3066 122.437 44.2321 122.437 44.1237C122.441 44.0107 122.444 43.8911 122.444 43.7646C122.448 43.6381 122.45 43.5184 122.45 43.4055C122.455 43.2926 122.457 43.2135 122.457 43.1683C122.457 43.0238 122.446 42.9041 122.423 42.8093C122.401 42.7144 122.369 42.6399 122.328 42.5857C122.288 42.5315 122.24 42.4931 122.186 42.4705C122.136 42.4479 122.082 42.4366 122.024 42.4366C121.884 42.4366 121.762 42.4931 121.658 42.606C121.558 42.7189 121.477 42.9086 121.414 43.1751V45.3432H120.736V40.6953L121.414 40.6005Z" fill="white"/>
<path d="M128.256 42.8025C128.256 43.1187 128.125 43.3829 127.863 43.5952C127.605 43.8075 127.246 43.9385 126.785 43.9882C126.803 44.1688 126.835 44.3156 126.88 44.4286C126.93 44.5415 126.989 44.6318 127.056 44.6996C127.124 44.7628 127.201 44.808 127.287 44.8351C127.377 44.8577 127.47 44.869 127.564 44.869C127.709 44.869 127.844 44.8441 127.971 44.7944C128.102 44.7447 128.21 44.6589 128.296 44.537C128.301 44.5686 128.303 44.6002 128.303 44.6318C128.307 44.6589 128.31 44.6838 128.31 44.7064C128.31 44.8102 128.283 44.9028 128.228 44.9841C128.179 45.0654 128.109 45.1377 128.018 45.201C127.933 45.2597 127.831 45.3048 127.713 45.3365C127.601 45.3681 127.481 45.3839 127.354 45.3839C127.201 45.3839 127.047 45.3568 126.894 45.3026C126.74 45.2439 126.6 45.1535 126.474 45.0316C126.352 44.9051 126.252 44.7425 126.175 44.5437C126.099 44.345 126.06 44.1033 126.06 43.8188C126.06 43.6291 126.081 43.4236 126.121 43.2022C126.166 42.9809 126.239 42.7754 126.338 42.5857C126.442 42.396 126.575 42.2379 126.738 42.1114C126.905 41.9849 127.11 41.9217 127.354 41.9217C127.467 41.9217 127.576 41.9352 127.68 41.9623C127.788 41.9849 127.885 42.0301 127.971 42.0978C128.057 42.1611 128.125 42.2492 128.174 42.3621C128.228 42.475 128.256 42.6218 128.256 42.8025ZM126.778 43.7239C127.099 43.6742 127.352 43.5613 127.537 43.3852C127.727 43.209 127.822 42.9922 127.822 42.7347C127.822 42.5631 127.793 42.4411 127.734 42.3689C127.675 42.2921 127.592 42.2537 127.483 42.2537C127.366 42.2537 127.262 42.2988 127.171 42.3892C127.086 42.4795 127.013 42.597 126.955 42.7415C126.896 42.8815 126.851 43.0396 126.819 43.2158C126.792 43.3874 126.778 43.5568 126.778 43.7239Z" fill="white"/>
<path d="M137.528 44.8012L138.402 40.2956H138.903L139.872 44.8012L140.746 40.2956H141.132L140.062 45.3432H139.309L138.496 41.671L137.717 45.3432H136.965L135.888 40.6479C135.716 40.6479 135.572 40.6795 135.454 40.7428C135.337 40.8015 135.242 40.8828 135.17 40.9867C135.097 41.0861 135.043 41.2012 135.007 41.3322C134.975 41.4587 134.96 41.5897 134.96 41.7252C134.96 41.9194 134.987 42.0933 135.041 42.2469C135.095 42.4005 135.174 42.5428 135.278 42.6737C135.188 42.6737 135.097 42.6602 135.007 42.6331C134.917 42.606 134.835 42.5586 134.763 42.4908C134.691 42.4231 134.632 42.3327 134.587 42.2198C134.542 42.1024 134.519 41.9556 134.519 41.7794C134.519 41.5761 134.558 41.3819 134.634 41.1967C134.711 41.0115 134.824 40.8512 134.973 40.7157C135.122 40.5756 135.305 40.465 135.522 40.3837C135.739 40.3024 135.987 40.2617 136.267 40.2617C136.317 40.2617 136.364 40.264 136.41 40.2685C136.459 40.273 136.509 40.2798 136.559 40.2888L137.528 44.8012Z" fill="white"/>
<path d="M144.695 41.9217C144.871 41.9217 145.023 41.9488 145.149 42.003C145.276 42.0572 145.38 42.134 145.461 42.2333C145.542 42.3282 145.605 42.4411 145.651 42.5721C145.7 42.7031 145.736 42.8431 145.759 42.9922H145.8C145.989 42.9922 146.163 42.9538 146.321 42.877C146.479 42.8002 146.615 42.7031 146.728 42.5857L146.83 42.7686C146.739 42.9131 146.595 43.0328 146.396 43.1277C146.202 43.2225 146.001 43.288 145.793 43.3242C145.793 43.3693 145.793 43.4145 145.793 43.4597C145.797 43.5049 145.8 43.5523 145.8 43.602C145.8 44.1575 145.698 44.5934 145.495 44.9096C145.291 45.2258 145.007 45.3839 144.641 45.3839C144.492 45.3839 144.341 45.3568 144.187 45.3026C144.038 45.2484 143.903 45.158 143.781 45.0316C143.659 44.9051 143.559 44.7425 143.482 44.5437C143.41 44.345 143.374 44.0988 143.374 43.8052C143.374 43.6065 143.394 43.3965 143.435 43.1751C143.48 42.9538 143.552 42.7505 143.652 42.5653C143.756 42.3801 143.891 42.2266 144.058 42.1046C144.23 41.9827 144.442 41.9217 144.695 41.9217ZM144.763 44.869C145.002 44.869 145.179 44.7515 145.291 44.5166C145.404 44.2772 145.461 43.9407 145.461 43.5071C145.461 43.48 145.461 43.4529 145.461 43.4258C145.461 43.3987 145.459 43.3716 145.454 43.3445C145.323 43.3355 145.228 43.3061 145.17 43.2564C145.115 43.2067 145.088 43.1232 145.088 43.0057C145.088 42.9018 145.111 42.8296 145.156 42.7889C145.201 42.7438 145.269 42.7189 145.359 42.7144C145.305 42.5563 145.235 42.4479 145.149 42.3892C145.068 42.3259 144.975 42.2943 144.871 42.2943C144.731 42.2943 144.612 42.3418 144.512 42.4366C144.417 42.5269 144.338 42.6444 144.275 42.7889C144.216 42.9335 144.174 43.0938 144.146 43.27C144.119 43.4416 144.106 43.611 144.106 43.7781C144.106 43.9995 144.126 44.1801 144.167 44.3202C144.207 44.4602 144.259 44.5708 144.323 44.6521C144.386 44.7335 144.456 44.7899 144.533 44.8215C144.609 44.8532 144.686 44.869 144.763 44.869Z" fill="white"/>
<path d="M149.207 41.9556V42.5247C149.261 42.4434 149.313 42.3666 149.363 42.2943C149.417 42.2221 149.476 42.1588 149.539 42.1046C149.603 42.0504 149.673 42.0075 149.749 41.9759C149.826 41.9397 149.912 41.9217 150.007 41.9217C150.16 41.9217 150.273 41.9623 150.346 42.0436C150.418 42.1204 150.454 42.2153 150.454 42.3282C150.454 42.396 150.443 42.4524 150.42 42.4976C150.397 42.5428 150.37 42.5789 150.339 42.606C150.307 42.6331 150.273 42.6534 150.237 42.667C150.201 42.676 150.169 42.6805 150.142 42.6805C150.102 42.6805 150.068 42.6715 150.041 42.6534C150.018 42.6354 149.993 42.6173 149.966 42.5992C149.944 42.5766 149.916 42.5563 149.885 42.5382C149.853 42.5202 149.813 42.5111 149.763 42.5111C149.659 42.5111 149.56 42.5473 149.465 42.6195C149.37 42.6918 149.284 42.7686 149.207 42.8499V45.3432H148.53V41.9556H149.207Z" fill="white"/>
<path d="M153.726 40.6005V44.2592C153.726 44.3043 153.728 44.3608 153.733 44.4286C153.737 44.4963 153.749 44.5641 153.767 44.6318C153.789 44.6951 153.821 44.7515 153.862 44.8012C153.902 44.8464 153.959 44.869 154.031 44.869C154.252 44.869 154.415 44.6228 154.519 44.1304H154.769C154.72 44.415 154.657 44.6409 154.58 44.808C154.503 44.9706 154.422 45.0948 154.336 45.1806C154.25 45.2664 154.162 45.3207 154.072 45.3432C153.981 45.3703 153.9 45.3839 153.828 45.3839C153.67 45.3839 153.541 45.3545 153.441 45.2958C153.342 45.2326 153.263 45.1535 153.204 45.0587C153.146 44.9638 153.105 44.8577 153.082 44.7402C153.06 44.6228 153.048 44.5099 153.048 44.4015V40.6953L153.726 40.6005Z" fill="white"/>
<path d="M159.24 40.6005V44.2592C159.24 44.3134 159.242 44.3766 159.247 44.4489C159.251 44.5166 159.263 44.5821 159.281 44.6454C159.303 44.7086 159.335 44.7628 159.375 44.808C159.421 44.8486 159.484 44.869 159.565 44.869C159.601 44.869 159.64 44.8644 159.68 44.8554C159.726 44.8464 159.762 44.8373 159.789 44.8283C159.793 44.8509 159.796 44.8712 159.796 44.8893C159.8 44.9074 159.802 44.9277 159.802 44.9503C159.802 45.0858 159.75 45.1919 159.646 45.2687C159.543 45.3455 159.425 45.3839 159.294 45.3839C159.154 45.3839 159.028 45.3365 158.915 45.2416C158.802 45.1422 158.725 44.9774 158.684 44.747C158.617 44.9232 158.506 45.0745 158.352 45.201C158.199 45.3229 158.014 45.3839 157.797 45.3839C157.661 45.3839 157.524 45.3568 157.384 45.3026C157.248 45.2439 157.126 45.1535 157.018 45.0316C156.909 44.9096 156.819 44.7515 156.747 44.5573C156.679 44.3631 156.645 44.1282 156.645 43.8527C156.645 43.6404 156.668 43.4213 156.713 43.1954C156.762 42.9651 156.837 42.7573 156.936 42.5721C157.04 42.3824 157.173 42.2266 157.336 42.1046C157.499 41.9827 157.693 41.9217 157.919 41.9217C158.036 41.9217 158.156 41.9465 158.278 41.9962C158.404 42.0459 158.499 42.1408 158.562 42.2808V40.6953L159.24 40.6005ZM157.939 44.869C158.025 44.869 158.106 44.8486 158.183 44.808C158.26 44.7673 158.325 44.7131 158.379 44.6454C158.438 44.5776 158.483 44.5008 158.515 44.415C158.547 44.3247 158.562 44.2298 158.562 44.1304V42.5857C158.531 42.5089 158.483 42.4411 158.42 42.3824C158.357 42.3237 158.267 42.2943 158.149 42.2943C158.005 42.2943 157.883 42.344 157.783 42.4434C157.684 42.5382 157.603 42.6602 157.539 42.8093C157.476 42.9583 157.429 43.1254 157.397 43.3106C157.37 43.4913 157.356 43.6652 157.356 43.8323C157.356 44.1982 157.413 44.4624 157.526 44.625C157.639 44.7877 157.776 44.869 157.939 44.869Z" fill="white"/>
</svg>
